<?xml version="1.0" standalone="no"?>
<!DOCTYPE svg PUBLIC "-//W3C//DTD SVG 1.1//EN" "http://www.w3.org/Graphics/SVG/1.1/DTD/svg11.dtd" >
<svg xmlns="http://www.w3.org/2000/svg" xmlns:xlink="http://www.w3.org/1999/xlink" version="1.1">
<metadata>
Created by FontForge 20170731 at Thu Jul  4 18:57:56 2019
 By Aleksey,,,
Copyright (c) WC FONTS, 2005. All rights reserved.
</metadata>
<defs>
<font id="WCManoNegraBta" horiz-adv-x="449" >
  <font-face 
    font-family="WC Mano Negra Bta(RUS BY LYAJKA"
    font-weight="400"
    font-stretch="normal"
    units-per-em="1000"
    panose-1="2 0 5 6 0 0 0 2 0 4"
    ascent="800"
    descent="-200"
    x-height="358"
    cap-height="591"
    bbox="-135 -583 1040 881"
    underline-thickness="93"
    underline-position="-318"
    unicode-range="U+0020-FB02"
  />
<missing-glyph horiz-adv-x="500" 
d="M63 881h375v-881h-375v881zM375 63v756h-250v-756h250z" />
    <glyph glyph-name=".notdef" horiz-adv-x="500" 
d="M63 881h375v-881h-375v881zM375 63v756h-250v-756h250z" />
    <glyph glyph-name=".null" horiz-adv-x="0" 
 />
    <glyph glyph-name="nonmarkingreturn" horiz-adv-x="200" 
 />
    <glyph glyph-name="space" unicode=" " horiz-adv-x="299" 
 />
    <glyph glyph-name="exclam" unicode="!" horiz-adv-x="333" 
d="M306 693l25 -19l4 -5v-18l-15 -62l-12 -37l-29 -74l-8 -2l-36 -88l-18 -58l-6 -6l-2 -1l4 -4l-6 -8l4 -5l-4 -11l-3 -5l-6 -11l-1 -6l-15 -25l-7 -31l-2 -22l-4 -20h-5l-4 -17l-11 -7l-5 2l-8 -4l-7 13l-5 42l1 46l15 87l18 82l26 88l60 142l7 24l17 16l20 7zM125 113h5
l2 2v5l10 2l4 -9h4l7 -11l5 4l3 -2l8 -14l5 -10h2l3 5l4 -2l3 -5l9 -11l2 -2l-2 -7l4 -7h-4v-3h2l3 -13l-1 -16l-2 -12l-13 -7l-15 -4l-9 -12l-18 2h-4l-24 8l-25 16l-7 9l-9 2l2 3l-6 6v7l-16 9l-10 5l3 6v5l4 5l-2 7l4 4h5l-4 7l6 3l-4 13l4 1l7 -1l1 1v4l8 9l7 5l9 6z
" />
    <glyph glyph-name="quotedbl" unicode="&#x22;" horiz-adv-x="235" 
d="M146 534l10 -6l2 -6l4 -2l2 -6l-9 -21l-1 -8l-7 -22l-8 -27l-10 -31l-1 -1l-2 -8l-4 -13l-4 -5l-3 -12l-3 -16l-4 -9l-2 -1l1 -9l2 -2l4 1v-3l-3 -3v-5l-2 -1l-1 -3l-12 -1l-1 -2l-2 1l-8 -4h-3l-7 13l-5 22l-2 31l8 47l13 39l14 35l16 27l6 8l7 3l2 -1l5 2zM226 527
l3 -1l4 -3l4 1l7 -8l5 -10l-1 -6l-3 -8l-4 -14l-2 -3l-3 -12l-1 -5l-10 -27l-5 -10h-3l-3 -8l-11 -33l-1 -6l-4 -1l-6 -18l-5 -7l-3 -1l1 -5l-1 -2l3 -4l-3 -5l1 -3l-2 -7l-1 -3l1 -8l-3 -7l-9 -1l-11 9l-3 15l-1 27l1 30l3 17l14 50l4 11l4 14l19 46l5 3l9 4z" />
    <glyph glyph-name="numbersign" unicode="#" horiz-adv-x="888" 
d="M620 486q49 -14 68 -13l32 2q4 0 10 0.5t15 1.5l21 3q20 0 30 -16q2 -4 5.5 -12.5t7.5 -21.5q-241 0 -255 -122q15 -4 43 -4h15t18 1l58 3q73 4 99 -44q-17 -4 -67 -12.5t-133 -21.5q-71 -11 -71 -59q0 -21 10 -51q8 -23 11.5 -37t4.5 -19q-7 -1 -13.5 -1.5t-12.5 -0.5
q-49 0 -69 32q-9 15 -27 92l-38 -6q-34 -13 -34 -48q0 -3 3 -9t6 -13.5t6 -14t3 -11.5q0 -7 -1 -9q-10 -37 -29 -37q-21 0 -50 42q-24 34 -32 61q-13 -3 -27 -3q-50 0 -50 38q0 23 22 38q17 13 43 16q49 6 68 30q14 17 32 70q-19 6 -55 6q-18 0 -56 -3q-36 -3 -55 -3
q-1 4 -1 10v6q0 54 68 63q86 12 88 13q45 12 67 54q17 45 27.5 69.5t13.5 30.5q29 56 70 76q0 -28 -17 -91t-17 -92q0 -13 1 -17q66 20 94 100q40 111 61 134q45 -21 45 -59q0 -28 -22 -69q-29 -56 -34 -72zM489 300q9 17 9 35q0 45 -40 45q-28 0 -45.5 -17t-17.5 -45
q0 -51 42 -51q34 0 52 33z" />
    <glyph glyph-name="dollar" unicode="$" horiz-adv-x="432" 
d="M464 533q1 -4 2.5 -12.5t3 -16.5t2.5 -14.5t0 -6.5v1q0 -1 -1 -3t-1 -4t-2 -5q-2 -6 -6.5 -8t-9 -2t-7.5 1t-3 -1q0 -1 1 -2q-5 -1 -11 -1h-11q2 0 -2 0.5t-9.5 1.5t-10.5 2.5t-5 2.5q0 5 -11.5 6.5t-15.5 3.5q-3 -2 -12 -2h-6.5t-8.5 2q-7 -2 -16 -3t-22 -4l-2 -2
q-1 -67 -6 -114l-5 -56q-2 -17 -3 -36.5t-3 -40.5q14 -10 32 -23.5t44 -34.5q5 -6 13 -14.5t16 -21t14 -28t6 -35.5q0 -18 -2.5 -34t-11.5 -32l-34 -35q-11 -6 -34.5 -10.5t-49.5 -5.5v-19q0 -21 -1.5 -33t-1.5 -15q0 -5 1 -15.5t1 -12.5q0 -8 -6 -16.5t-18 -8.5
q-11 0 -21 8.5t-10 19.5q0 9 1.5 16.5t1.5 9.5q-1 19 -1 35.5v32.5q-4 1 -8 1.5t-8 1.5q-5 1 -17 1.5t-24 5.5q-1 0 -8.5 1.5t-16.5 4t-16.5 5.5t-8.5 7l-7 -3q-2 1 -3.5 2t-3.5 2l-11 10h-4q-3 0 -5 1h-6q0 2 -1 2h-5q-2 1 -3.5 2.5t-3.5 2.5l-6 2v4q2 3 4.5 8l6.5 13l-1 1
q0 1 -1 1q0 2 3.5 6.5t10.5 9.5t17 9t23 4q14 0 25 -5t16 -5h6q6 -2 18.5 -6.5t39.5 -10.5q1 27 2 60.5t3 69.5q-11 7 -24.5 15.5t-30.5 21.5l-14 17q-12 9 -19.5 17t-13 18.5t-10 25.5t-9.5 37q3 14 4 17q-1 2 -1 4t-1 4q2 12 6 26q7 26 20 65q0 5 3.5 10t8 9.5t8 9
t3.5 7.5q4 5 5 8.5t4 8t12 11.5t30 20q23 17 36 24q1 26 1.5 43.5t0.5 28.5t-1 18.5t-1 15.5q0 28 20 28q30 0 33 -30q1 -22 1 -42.5v-40.5q2 1 4 1t4 2q16 6 34 8t41 7q3 0 5 -1q2 1 8 1q5 0 8 -1q2 1 5 1t4 -1l12 -5q12 -3 20 -10.5t19 -21.5zM276 112q-1 -22 -1 -45v-47
v-6h10q9 0 21 11t12 21h4l10 6l2 8v7l-5 8l-6 6l-12 11l-7 3l-10 7zM202 281q18 -17 31 -28q2 51 4 98t4 82q-5 -5 -9.5 -10t-11.5 -12l-5 -7q-10 -14 -21 -30t-11 -48q0 -10 7.5 -22.5t11.5 -22.5z" />
    <glyph glyph-name="percent" unicode="%" horiz-adv-x="541" 
d="M192 540l18 -10l9 -4l17 -13l3 -8l6 -6l2 -4l3 -13l3 -10l-2 -2l3 -5l-3 -2l7 -10h3v-24l4 -21l-5 -14l1 -4l-5 -8l-3 -4l-2 -8l1 -12l-5 -9l-10 -11l-12 -7l-11 -10l-6 2l-1 -3l-10 -2l-13 -3l-1 -2l-21 -6h-14v-3h-10l-2 2l2 3l-2 2l-8 -3l-12 5l-11 2l-11 10l-10 7
l-5 6l-15 17v1l-6 12l-3 13l-2 15l4 33l8 24l9 16l20 22l26 21l31 20l27 11zM473 536l4 -7l-4 -10l3 -2l-7 -16l-2 -1v-1l-6 -9l-17 -20l-7 -6l-4 -5l-17 -27l-8 -10l-9 -13l-15 -18l-12 -20l-14 -20l-1 -2l-12 -14l-4 -8l-7 -8l-6 -11l-17 -25v-2l-7 -6l-5 -7v-3l-6 -6
l-2 -4l-6 -3l-5 -10l-11 -18l-10 -14l-5 -6l-9 -16l-15 -24l-9 -12l-5 -10l-8 -14l-3 -8l-12 -21l-26 -57l-8 -23l-10 -30l-8 -33v-6l-6 -12l-4 -11l1 -5l-3 -6l-5 1l-1 -4l-4 -3v-1l-8 -9l-3 2l4 35l12 58l18 59l25 63l28 60l57 108l37 58l19 25l61 77l36 38l19 17l21 20
l24 16h4zM411 248l2 -4l4 4l4 -2v-2l5 -2l1 -4l6 -1l2 -7l24 -20l8 -6l-2 -8l5 1l3 -6l-2 -4l6 -9l2 -6v-19h-3l-1 -2l-4 -2l4 -20l6 -12l-5 -8l-2 -5l2 -4v-5l-5 -11l-4 -20l-9 -10l-10 -9l-4 -5v-3h2v-4l-5 -4l-9 -8h-3l-5 -8l-14 -12l-21 -11l-11 -3l-4 -2v-1l-12 -3
l-30 -10l-28 2l-16 9l-6 8l-8 1v4l-7 9l-2 1l-9 14l-3 17l-3 26l4 21l14 39l10 18l-10 4h-3l7 13l36 35l24 18l36 22l16 8h8l11 6l6 3zM177 437l-6 -7l-20 -32l-12 -23l6 -3l23 6l13 7l9 22l4 31l2 25h-3zM402 165l-10 -11l-7 -10v-3l-6 -3l-4 -9l-2 -1l-9 -13l-4 -3l-4 -10
l-5 -3v-3l-3 -2l5 -4l-16 -7l3 -2v-2l-3 -2l-2 -10l-7 -4l-6 -18l-4 -4v-5l-3 -4l2 -1l27 8l26 21l21 24l15 32l2 28v6l-3 10v8l-3 2v-5z" />
    <glyph glyph-name="ampersand" unicode="&#x26;" horiz-adv-x="528" 
d="M442 675q2 0 5 -1q5 -2 13 -3l6 -4t7 -5q6 -7 11 -16q2 -5 4 -9t4 -9q1 -4 4.5 -8t2.5 -24q-1 -12 -1 -18t0 -5q1 -1 1.5 -2t1.5 -2q0 -14 -17 -46q5 -1 8.5 -4t6.5 -6q2 -3 3 -5.5t2 -4.5t2 -3h2q-2 -1 4 -12q1 -4 1 -9v-8.5t-1 -8.5q-6 -2 -12 -5l-9 -9q-5 2 -10 0
l-8 -2t-9 -4q-8 -2 -16 -5.5t-19 -8.5q2 -1 0 -2.5t-6 -3.5t-9 -3.5t-8 -2.5q-1 -1 -30 -27q-5 -7 -10.5 -14.5t-11.5 -15.5q-2 -2 -2 -5.5v-5.5q-1 -7 -2 -13.5t-3 -13.5q13 -4 33 -14q7 -2 9 -8l-2 -2v-1q-3 -1 -4 -7v-3q-1 -1 -1.5 -2t-1.5 -2l3 -7q-5 -3 -9 -7l-8 -8h-1
q-3 -3 -5 -8q1 -2 1 -4t1 -5q-1 -1 -1.5 -2t-1.5 -2v-3q3 -3 8 -4v-6q-5 -2 -5 -3q0 -4 1 -11.5t6 -19.5q2 -8 5 -10q8 0 30 5q9 6 24.5 6t22.5 4q-1 -1 -2 -1q-1 -1 10 -1q7 0 29 -7q23 -5 23 -9q3 -1 6 -1h5q11 1 21 1h21l-6 -3q-3 -2 -21 -11l-44 -22q-4 -2 -10 -5.5
t-14 -7.5q-6 -2 -12.5 -5.5t-14.5 -7.5q-8 -5 -20 -9.5t-26 -10.5q-2 -7 -4 -18q-1 -2 -1 -7q1 -2 2 -3.5t2 -3.5q-1 -1 -1 -3q1 -5 3 -10t4 -11q2 -9 6 -18.5t9 -20.5q3 -3 5 -6.5t3 -10.5q9 -7 9 -28q-1 -1 -1 -4v-9q-3 -4 -6.5 -7.5t-7.5 -5.5h-6q-6 -4 -13 -6.5
t-17 -5.5l-6 -4q-6 6 -18 15q-2 4 -6 8.5t-8 9.5q-4 8 -8.5 18t-10.5 21q-4 3 -15 36q-5 17 -9.5 26t-6.5 12q-4 -1 -9 -3t-11 -4l-1 -1q-7 -2 -14 -6q-1 -1 -3 -5q-3 -1 -6 -1t-7 -1l-4 -4q-11 -2 -22.5 -4t-25.5 -7l-17 -3h-9q-2 0 -4 -1q-4 0 -11.5 1.5l-15 3t-13.5 3
t-7 1.5q-9 8 -22 15q-1 0 -5.5 8.5t-6.5 8.5q-3 0 -4.5 10.5t-4.5 10.5q-50 5 -50 58q0 35 84 99l16 14l109 63l2 6l-6 1l-5 -1l-11 -2l-4 -1l-11 1l-1 -3l-3 -1l-17 1l-13 1l-3 4l-1 12l-4 2l4 14v9.5t-2 10.5q-11 20 -11 82q0 23 18 35l35 16q20 8 40 16.5t43 17.5
q2 2 4.5 5.5t5.5 6.5q24 30 59 62q13 15 34 28q7 6 15 12.5t17 12.5q1 0 10 4t10 4q3 0 4 -1l3 3v0zM358 472q0 6 -13 6q-54 0 -107 -30q-31 -16 -31 -24q0 -15 22 -35q27 -24 31 -30q9 8 20 17.5t25 20.5q4 5 8.5 10.5t11.5 12.5q20 20 29 41q2 3 2 5t1 4l1 2v0zM238 261
q-5 -4 -9 -7.5t-9 -8.5q-6 -1 -15 -7q-8 -7 -14.5 -12.5t-11.5 -9.5q-8 -6 -16 -13t-19 -15q-7 -5 -16.5 -12t-20.5 -17q0 -3 -4 -8t-14 -18q-1 -1 -1 -2t-1 -3v-6q-1 -2 -2 -3.5t-2 -3.5q0 -10 8.5 -17.5t17.5 -7.5q1 0 9.5 -3t10.5 -3q10 -2 18 -4q10 2 21 2.5t25 2.5
q15 6 35 15.5t46 21.5q-3 5 -11 41q-5 39 -10 43q-2 2 -4 9t-4 18q-5 25 -7 28z" />
    <glyph glyph-name="quotesingle" unicode="'" horiz-adv-x="150" 
d="M145 522l9 -7l9 -13l1 -15l-2 -19l-11 -47l-10 -31l-4 -10l-7 -13l-10 -21l-4 1l-1 -1l-2 -8l-1 -1l-4 1l-2 -6v-3l-6 -12l-2 -1l-5 -1l-14 -8l-1 -1l-6 9l-4 20l-1 24l4 32l7 31l10 29l20 41l12 19l14 12z" />
    <glyph glyph-name="parenleft" unicode="(" horiz-adv-x="400" 
d="M372 715l3 -1l11 -3l10 -6l4 -11l-3 -14l-3 -12l-12 -22l-17 -27l-23 -42l-18 -43l-27 -57l-11 -27l-23 -48l-11 -31l-7 -22l-8 -21l-12 -22l-5 -19l-8 -42l-3 -20l-4 -31v-69l3 -14l-3 -3l1 -11l6 -22l1 -18l9 -28l28 -55l16 -24v-4l39 -48v-12l3 -6l-7 -12h-17l-3 -5
l-8 3h-3l-6 2l-36 27l-17 18l-31 41l-19 30l-21 41l-11 39l-12 52l-5 67l2 50l6 55l19 71l24 79l25 58l44 83l34 50l27 36l31 30l24 19l11 3z" />
    <glyph glyph-name="parenright" unicode=")" horiz-adv-x="376" 
d="M183 707l20 -10l14 -12l12 -17l42 -75l24 -61l18 -65v-14l3 -15l10 -65v-25l2 -18l-3 -13l-5 -23v-20l-2 -6l-3 -24l-3 -15l-6 -11l2 -7l-3 -5l-7 -9l-7 -17l4 -4v-3l-10 -21l-6 -11l-12 -17l-7 -10l-9 -17l-8 -15l-19 -28l-2 -8l-12 -3h-3l-5 -12l-17 -21l-21 -25
l-34 -23l-10 -9l-31 -25l-13 -14l-16 -6l-8 -11l-9 -6l-17 -10l-2 28l1 9l14 44l36 66l60 82l26 47l20 44l16 48l11 37l8 44l1 42l-2 35l-8 53l-23 80l-23 69l-13 30l-5 23l-2 18l4 11l7 8h3l7 8h21z" />
    <glyph glyph-name="asterisk" unicode="*" horiz-adv-x="389" 
d="M319 737q-3 -22 -22 -58q-10 -19 -15.5 -32.5t-7.5 -23.5q9 3 46 34q32 26 48 26q21 0 21 -20q0 -9 -34 -46q7 -2 16.5 -4.5t22.5 -6.5q27 -7 27 -18q0 -33 -86 -33q-10 0 -30.5 1t-30.5 1q0 -23 34 -51q21 -18 21 -36q0 -11 -10 -27q-34 1 -58 24q-30 28 -50 36
q-9 -14 -24 -35t-37 -49q-37 24 -36 36q0 5 8 21l4.5 9t6.5 12q-71 -38 -94 -38q-20 0 -9 26q8 23 46 35q42 13 60 31q-9 4 -70 8q-53 5 -55 16q-6 30 49 30h56l-27 27q-15 20 -6 33q15 22 41 22q11 0 20 -4l10 -12q17 -2 59 -18q23 30 24 36q10 24 21 31q8 5 46 17h15v0z
" />
    <glyph glyph-name="plus" unicode="+" horiz-adv-x="475" 
d="M313 576q7 -5 5 -21q-5 -10 -11.5 -25t-15.5 -36q-11 -23 -12 -56.5t4 -80.5l117 19q42 0 39 -34q0 -2 -1 -5.5t-3 -8.5q-13 -34 -39 -34h-18t-14 2q-19 2 -36 0q-69 -14 -78 -76q-1 -9 -1 -19.5v-21.5q2 -32 0 -39q-9 -68 -51 -68q-9 0 -23 6q-40 16 -34 69
q3 10 6.5 29.5t8.5 48.5q5 22 -6.5 31t-34.5 7q-9 0 -26 -3.5t-28 -3.5q-33 0 -36 40q-1 48 50 61l109 18q11 3 13 36q-1 11 -1 28.5v42.5v15.5t1 15.5q7 60 77 95q7 -6 17 -13.5t22 -18.5z" />
    <glyph glyph-name="comma" unicode="," horiz-adv-x="220" 
d="M74 98l51 -16l16 -8l15 -20l10 -27l-2 -28l-8 -21l-10 -20l-17 -14l-22 -27l-25 -16l-12 -12l-6 -5l-18 -18l-12 -6l-5 -6l-32 -16l-33 -21l-14 -4l-4 6l-12 8l46 57l36 52l19 21l17 22l7 19l-8 1l-14 -1l-27 6l-7 16v22l4 18l18 28l14 7l13 6z" />
    <glyph glyph-name="hyphen" unicode="-" horiz-adv-x="415" 
d="M272 230h78l18 -2l7 -4v-5l-14 -4l-1 -5l-5 -1l-14 -8l-2 -7l-11 -5l-13 -11l-26 -8l-15 -5l-3 -4l-15 5l-2 -4l-25 -13l-36 -9l-23 -5l-28 1l-25 -2l-34 4l-19 -4l-11 7v5l-8 9l-4 3l1 17l-2 7l10 18l4 6l19 6l31 3l62 8l36 4l35 2z" />
    <glyph glyph-name="hyphen" unicode="&#x2010;" horiz-adv-x="415" 
d="M272 230h78l18 -2l7 -4v-5l-14 -4l-1 -5l-5 -1l-14 -8l-2 -7l-11 -5l-13 -11l-26 -8l-15 -5l-3 -4l-15 5l-2 -4l-25 -13l-36 -9l-23 -5l-28 1l-25 -2l-34 4l-19 -4l-11 7v5l-8 9l-4 3l1 17l-2 7l10 18l4 6l19 6l31 3l62 8l36 4l35 2z" />
    <glyph glyph-name="period" unicode="." horiz-adv-x="220" 
d="M78 113h5l2 2v5l11 2l-4 -9l4 -5l1 -2l2 2v5h4l7 -11l5 4l4 -2l12 -24l6 5l3 -2l4 -5l9 -11l1 -2l-1 -7l3 -7h-3v-3h1l4 -13l-2 -16l2 -7l-5 2v-2l1 -5l-12 -7l-16 -4l-9 -12l-18 2h-3l-25 8l-25 16l-7 9l-9 2l2 3l-5 6v7l-16 9l-11 5l2 6h2v5l3 5l-2 7l4 4h5l-3 7l5 3
l-4 13l4 1l7 -1l2 1v4l7 9l7 5l9 6z" />
    <glyph glyph-name="slash" unicode="/" horiz-adv-x="409" 
d="M424 692l17 -15l1 -12l-1 -12v-12l-16 -32l-27 -49l-32 -54l-22 -34l-27 -43l-119 -217l-5 -20l-10 -10l-27 -56l-10 -26l-6 -8l-13 -32l-9 -4l-6 -13l-28 -68l-10 -19l-10 -29l-7 -11h-3l-14 -17l-8 1l-10 5l-2 17l5 29l10 61l24 87l25 74l43 97l51 103l66 118l52 78
l53 72l25 28l22 15l14 8h14z" />
    <glyph glyph-name="zero" unicode="0" horiz-adv-x="562" 
d="M514 262q0 -9 -2 -25.5t-4 -40.5q-4 -12 -7.5 -28t-15.5 -38q-2 -6 -5 -12v-4l-7 -9q-4 -5 -8.5 -11.5t-7.5 -14.5q-5 -6 -10 -13t-11 -15l-22 -22q-10 -8 -26.5 -20.5t-39.5 -27.5q-25 -14 -69 -25q-17 -2 -24 -3t-2 -1q-20 0 -32 3q-3 0 -29 6q-6 2 -13.5 5.5
t-16.5 8.5q-15 5 -28.5 13.5t-31.5 22.5q-5 8 -11.5 15.5t-14.5 18.5q-4 6 -9.5 16t-13.5 24q-4 7 -17 83q1 -6 2 4.5t1 38.5q0 6 2 15t4 19t4 19t2 15q9 32 24 75q2 7 10 23t22 42q10 18 22 35q2 9 7 18q-1 1 -1 3q0 4 2 12q8 8 18 16.5t23 18.5q26 16 40.5 23t16.5 7
q16 0 47 15q11 5 19.5 8.5t14.5 5.5q7 3 12 5h23q5 -3 11.5 -6.5t14.5 -6.5q11 -9 24 -17q4 -5 8.5 -10t9.5 -12q8 -19 23 -37q2 -7 11 -16l2 -6h-1q2 -10 21 -39q2 -5 4.5 -11t5.5 -13q5 -12 10.5 -31t13.5 -45q3 -10 4 -28.5t1 -45.5zM426 353q0 1 -1 2l-2 6q-2 2 -5.5 7
t-11.5 15q-5 10 -59 29q-8 3 -28 2q-19 -1 -27 0q-4 -5 -7.5 -8.5t-5.5 -8.5q-5 -6 -8.5 -8t-7 -3.5t-7.5 -4t-12 -8.5q-14 -10 -18 -10q-6 0 -23 -22q-16 -25 -22 -28q-18 -11 -42 -62q-9 -20 -12.5 -44t-2.5 -52l1 -23q1 -5 2.5 -11l3.5 -14l8 -6t9 -8q5 -2 9.5 -3.5
t9.5 -5.5q2 -2 6.5 -2h9.5h9.5t4.5 -1q2 -3 6 -3q5 0 19 5q11 2 17 1q5 -1 25 13q19 16 28 16q28 0 57 41q8 11 20.5 27.5t29.5 39.5q10 14 19 64q5 21 6.5 38t1.5 30z" />
    <glyph glyph-name="one" unicode="1" horiz-adv-x="344" 
d="M343 653l13 -5l16 -21l4 -3l12 -20l2 -18l-2 -10l3 -3v-12l-3 -12l-3 -14l-17 -36l-12 -21l-6 -3l3 -7l-6 -6l-23 -41l-10 -6l-3 -7l-18 -27l-7 -10l-10 -23l-5 -6l-5 -13l-18 -29l-6 -18l-6 -3l3 -14l-19 -21v-23l-6 -2l-6 -14l-10 -24v-13l-1 -9l-6 -3l1 -11h-4l3 -6
l-10 -48l-2 -18l-6 -9l3 -6l-3 -10l-4 -6v-3l4 -4l-11 -53v-11l-6 -28l-6 -6l-8 -22l-5 -22l-5 -10l-4 -3l-3 4l-6 -7l-7 -3l-10 -13l-6 2v2l1 189l6 73l10 47l9 52l64 186l-44 -33l-30 -14l-20 -1l-18 3l-22 10l-15 10l-9 8l12 26l54 57l94 81l86 64l48 29l6 1h15z" />
    <glyph glyph-name="two" unicode="2" horiz-adv-x="725" 
d="M706 88q-16 -16 -11 -16h-4.5t-6.5 -1h-9q-3 0 -27 -3l-21 -2q-5 -1 -17.5 -3t-34.5 -4q-7 0 -11 -1l-2 -3h-18l-8 -2t-9 -3q3 0 -3.5 -1.5t-22.5 -5.5q-6 -1 -12 -1.5t-14 -1.5q-37 -7 -75.5 -14t-81.5 -18q-15 -2 -33.5 -5.5t-41.5 -8.5q-11 -3 -27 -6t-39 -8
q-24 -6 -29 -6t-14 1.5t-23 5.5q-27 7 -27 12t-2 7l-4 2q0 4 1 6q-3 3 -3 9l-3 20v6q-1 5 -1 9.5v11.5q-1 3 -1 12q0 6 3 16t15 32q4 2 8 7t8.5 11t11.5 14q9 9 23.5 24t37 38t54.5 55l75 75q16 18 45 51.5t59 74.5l20 35q0 26 -11 26q-2 0 -2.5 3.5t-2.5 3.5h-23t-21 -1
q-8 0 -31 -6q-1 -1 -2.5 -1.5t-3.5 -1.5q-10 -3 -21 -6.5t-25 -8.5q-15 -9 -33.5 -18t-41.5 -19q-26 -2 -30 7q-5 3 -10 7t-10 9q-3 14 -4 15q2 8 19.5 22.5t36.5 25.5q56 34 116 57q4 0 11.5 2t16.5 5t17.5 5t13.5 2h57q10 -2 20.5 -4.5t24.5 -6.5q36 -22 36 -27t5 -16
q6 -10 4 -14v-10t-2 -19q0 -11 -1 -16q1 -9 0 -19q1 -14 -5 -42q0 -11 -7 -32q-2 -7 -4.5 -13t-4.5 -12q-12 -17 -22.5 -31t-18.5 -25q-5 -5 -12 -10.5t-15 -13.5q-2 -2 -3.5 -5l-3.5 -7q-3 -1 -36 -37q-8 -5 -21.5 -18.5t-33.5 -34.5q-8 -6 -18.5 -14t-22.5 -19
q-2 -3 -5 -6.5t-6 -8.5l-10 -10l-20 -20t-22 -25q-3 -2 -6 -4.5t-8 -4.5q-1 -2 -1 -5q14 2 26 4t22 3h11t12 1l4 2l4 2q23 1 58 6q1 1 5 2h12t18 1q14 2 23.5 2.5t17.5 1.5h8.5t13.5 1l5 -2h30l7 2h29q6 -1 15 -3q6 2 19 3q26 3 41 4t19 1q20 0 35 -10q5 -2 14 -9l5 -3
l11 -11t13 -14v-3v0z" />
    <glyph glyph-name="three" unicode="3" horiz-adv-x="475" 
d="M330 540l31 -6l22 -11l17 -15l18 -27l9 -15l2 -23l2 -25v-10l-7 -15l-13 -9l-23 -25l-16 -6l-19 -16l-16 -19l-10 -5l-3 -7l-19 -14l-6 -6l-18 -19l41 -11l44 -17l37 -29l16 -17l14 -25l-3 -25v-23l-6 -9l-13 -10l-2 -6l-18 -2l-1 -6l-9 -6l-8 -4l-8 -10l-19 -8l-27 -14
l-9 -6l-4 2l-8 -5l-17 -6l-10 -9l-22 -3l-18 -7l-29 -13l-25 -10l-11 -8l-6 2l-10 -3l-21 -3l-71 -29h-10l-19 -8l-6 2l-19 8l-10 -6l-9 -5l-14 6l5 8l-1 10l18 23l25 10l16 10l71 42l16 8l147 80l11 12l-41 1l-48 7l-19 11l-15 17l-9 9l-9 12l-3 23l10 22l6 2l8 12l15 17
l66 54l39 35l28 33l14 22v12l-40 -1l-24 -6l-30 -5l-55 -15l-41 4l-29 11l-11 9l-3 14l3 14l20 22l25 13l80 29l73 14z" />
    <glyph glyph-name="four" unicode="4" horiz-adv-x="590" 
d="M341 633l11 -10l10 -32l-5 -44l8 -7l-6 -31l-16 -65l-40 -141l10 2l21 9l22 4l23 11l43 12l7 3l13 3l64 15l23 6l61 13l55 10h7l4 -5l-1 -7l-8 -17l-18 -11v-15l-100 -37l-17 -9l-57 -23l-3 -6l-66 -25l-102 -43l-3 -7h-7l-11 -13l8 -12l-11 -33l-17 -8l2 -11l-7 -31
l-14 -51l-16 -60l-19 -51l-6 -24l-12 -27l-8 -14l-6 -22l-8 -14l-4 -2l-2 33l-7 -6v45l4 30l11 102l21 118v15l-29 -6l-19 6l-32 2l-31 13l-11 6l-13 12l-14 17l-2 24v23l14 44l33 89l41 108l28 91l5 2l24 21l9 3l8 -4l8 -14l-3 -21l-22 -38l-12 -42l-42 -100l-11 -69v-33
l3 -27l11 -9l40 5l46 11l36 145l38 126l24 61l5 18l31 19h6z" />
    <glyph glyph-name="five" unicode="5" horiz-adv-x="513" 
d="M523 555q-5 -4 -11 -7.5t-14 -8.5q-3 -2 -8 -5.5t-12 -6.5l-4 -2v-2l-5 -3q-3 -1 -4 -4.5t-2 -3.5q0 -5 -10 -15q-6 -1 -13.5 -1h-15.5q-10 -1 -45 -3q-14 -2 -26.5 -1t-24.5 2q-6 1 -16 2.5t-24 4.5q-11 -7 -24 -20q-6 -3 -12 -7.5l-14 -10.5q-3 -4 -18 -14
q-14 -36 -36 -70q-3 -7 -6.5 -11.5t-6.5 -8.5q-2 -5 8.5 -15t18.5 -10q3 0 10 -1t14.5 -2.5t14.5 -2.5t11 -1q5 -2 16.5 -5.5t31.5 -10.5q29 -9 72 -44q3 -5 6 -9.5t8 -9.5q2 -1 5 -8t10 -19q0 -2 0.5 -5t1.5 -8q10 -23 10 -39q0 -2 -2 -6.5t-2 -5.5q-2 -6 -5 -13t-6 -15
q-4 -8 -13 -23q-3 -3 -13 -18l-25 -18l-33 -24q-5 -5 -10.5 -9.5t-13.5 -9.5l-6 -3t-9 -4q-16 -10 -32 -17.5t-33 -12.5q-25 -7 -20 -7q-9 0 -14 3q-19 1 -61 18q1 0 -23 13q-14 9 -14 12t4 6q-5 2 -6 8q0 -2 1 -2q0 1 -1 2t-1 2t-1 2q-2 -4 -1 -12q-1 -1 1 -12l-2 -2
q0 5 5 6v1l7 4q-1 0 10 7q8 5 14.5 9.5t12.5 7.5q8 7 16 10.5t19 10.5q44 25 84 65q6 7 17 17t25 24q0 1 1 3t1 3q0 5 4.5 17.5t4.5 17.5q0 10 -9 20q-31 17 -49 17q-5 0 -15.5 0.5t-29.5 1.5q-35 3 -44 0q-5 0 -15.5 2.5t-14.5 2.5q-1 0 -19 13q-23 34 -23 44t6.5 25
t17.5 37q7 10 17 28.5t24 44.5q-2 8 -2 16l2 7q-1 5 -1 10v12q0 6 12 25q23 36 23 47q-9 9 -9 18q9 9 28 9l6 -1q3 1 7 1h9q5 -1 11.5 -2t14.5 -3l4 -2h13q1 -1 1.5 -1t1.5 -1h6q2 1 3 1t3 1q7 -1 15.5 -1t19.5 -1q3 0 4 1q5 -1 11 -1q1 1 4 1q4 0 5 -1l7 2h6.5t8.5 -1l29 3
q36 2 51 3t10 1h7q10 0 22.5 3.5t15.5 3.5q2 0 7.5 -2t12 -4.5t12.5 -5t7 -3.5q2 -2 4 -3.5t4 -4.5q1 -3 2 -6.5t2 -6.5z" />
    <glyph glyph-name="six" unicode="6" horiz-adv-x="434" 
d="M435 663l10 -5l2 -16l3 -8l-12 -13v-6l-7 -12l-17 -19l-10 -22l1 -5l-10 -11l3 -4l-13 -5l1 -6l-3 -4l-10 -13v-8l-4 -4l-6 2l-3 -4l-11 -5l-2 -9l-17 -19l-22 -27l-19 -28l-16 -17l-7 -15l-26 -39l11 -5l18 3l22 -7l6 -10h12l14 -6l19 -19l7 -25h1l4 -11h8l1 -15l3 -1
l-4 -6l7 -9l3 -26l5 -3v-16l-3 -3v-15l-1 -11l1 -14l-1 -7h-6l2 -15l-4 -7l2 -7l-7 -4v-20l-18 -13l-9 -22l-13 -8l-8 -11l-18 -17l-13 -11l-23 -15l-6 -10l-18 -8l-16 -4l-9 -9l-41 -14l-31 -1l-39 10l-15 7l-10 10l-20 27l-2 7l-9 20l-9 40l-1 48l7 53l16 51l23 46v4
l39 73l29 49l6 6l7 14l16 21l11 16l24 32l13 15l6 6l17 25l80 81l70 56l26 12zM198 255l-9 -6l-7 2l-6 -12v-3l-7 -10l2 -4l-8 -6v-3l-6 -21l-4 -1l-7 -24l3 -5l-4 -6l-6 -21l-5 -13l3 -12l-8 -12l4 -2v-14l-1 -36l8 -25l21 -6l24 12l32 27l29 28l13 26l10 41l-2 59l-9 26
l-12 12l-6 5l-7 -1l-12 7l-10 -2h-13z" />
    <glyph glyph-name="seven" unicode="7" horiz-adv-x="477" 
d="M370 683q10 0 35 -10q24 -9 30 -16q17 -17 17 -16q0 -37 1 -36q3 -12 4 -23t1 -21v-14t-1 -15q1 -4 1 -12q0 -4 -1 -6q1 -1 1 -7q-3 -11 -6 -22.5t-8 -27.5v-6q-4 -10 -10 -30l-17 -46q-10 -13 -14 -32q-9 -14 -17 -32q3 -5 5 -8.5t5 -7.5q0 -14 22 -15h16l5 -10
q1 -4 2 -9.5t3 -15.5q1 -1 1 -8q0 -4 -3 -10.5t-7.5 -12.5t-9 -10.5t-8.5 -6.5q-2 0 -8 -5.5t-9 -5.5q-2 0 -10.5 -4t-10.5 -4q-4 0 -6 1q-2 -1 -4 -1t-5 -1q-5 -3 -10 -5t-12 -5q-2 -2 -8.5 -4.5t-17.5 -6.5q-6 -4 -14.5 -7t-19.5 -7l-6 -14t-8 -15q-1 -3 -3 -11
q-5 -11 -13 -31.5t-20 -48.5q-1 -2 -2 -5t-4 -8q-3 -3 -5.5 -8t-3.5 -13l-2.5 -2.5t-2.5 -3.5l-6 -24l-2.5 -2.5t-2.5 -4.5q-11 -29 -25 -29q-3 0 -8.5 -4t-7.5 -4t-2 1q-1 -1 -4 -1q-3 6 -1 14v7q1 7 3.5 18t6.5 27q2 9 10.5 36t24.5 73q-13 -1 -29 28q-17 31 -29 28
q-3 0 -5.5 5t-5.5 5q-6 0 -6 60q0 14 10 12q5 0 61 22q30 11 49.5 16.5t29.5 7.5q8 19 21.5 50t32.5 74q32 78 35 130l2 36q3 6 3 11q0 11 -12 11l-45 -9q-29 0 -120 -25q-8 -1 -18.5 -3.5t-21.5 -4.5q-8 -2 -17.5 -3t-20.5 -3q-10 0 -20.5 -1t-23.5 -2q-11 -7 -25 -7
q-2 0 -5 4.5t-6 10.5t-5 11.5t-2 7.5q0 8 30 31q10 5 22.5 10.5t26.5 13.5q15 5 32.5 10l38.5 11q11 5 51 15.5t110 26.5q13 4 34 4z" />
    <glyph glyph-name="eight" unicode="8" horiz-adv-x="496" 
d="M392 582l14 -11l17 -31l-6 -12l-4 -6l3 -7l17 -3l2 5l17 5l3 -1l15 3l38 4l19 3l4 -1l6 4h19v-6l-6 -1l3 -5h12v-4l-12 -3l-4 -6l-16 -10h-8v-2l2 -4l-2 -10h2l26 -3v-4l-42 -12l-40 -15l-6 -2l-5 -6l-20 -8l-46 -26l-21 -15l-22 -13l-16 -16l-19 -15l-13 -13l-22 -14
l-3 -13l-6 -2v-6l-11 -22l-2 -11l13 -12l43 -32l52 -49l28 -40l9 -15l9 -20l4 -16l2 -23l-2 -13l-6 -4l-25 -25l-19 -12l-39 -27l-15 -8l-12 -4l-23 -12l-48 -13l-63 -7l-61 -5l-15 5h-16l-12 10l-16 7l-3 6l-15 32l3 16v14l6 30l27 70l10 19l12 31l44 78l-12 11l-22 24
l-20 30l-8 25v16l10 25l12 19l45 49l66 54l88 54l38 20l18 6l24 6zM363 503l-8 -2l-9 -3l-9 -1l-15 -6l-13 -9l-14 -9l-20 -12l-20 -18l-38 -33l-32 -30v-2l-9 -13l-4 -4l-7 -12l5 -11l15 -11l48 51l26 29l60 50l32 20h10v6l30 14v4h-15zM189 176l-16 -29l-3 -15l-4 -4
l-3 -12l-11 -21l-1 -8l-12 -32l-3 -8l6 -10l3 -13l25 -6h21l4 3h25l13 3l41 6l42 14l16 11l-4 11l-9 24l-29 32l-48 41l-40 32l-1 -1z" />
    <glyph glyph-name="nine" unicode="9" horiz-adv-x="496" 
d="M481 585q10 -11 10 -36q0 -12 -7 -43q-5 -30 -11 -40q0 -4 -7 -22q-5 -13 -7 -20t-4 -9q-5 -11 -6 -11q-2 -9 -6 -13q-12 -25 -18 -33l-9 -21v-3l-3 -2q-5 -18 -37 -95q-11 -26 -22.5 -48t-21.5 -39v-3q-10 -17 -18 -30t-15 -21q-14 -25 -25 -43t-21 -32
q-11 -8 -14.5 -12.5t-1.5 -4.5q-1 0 -3.5 -6.5t-6.5 -8.5l2 -4q-11 -11 -18 -18.5t-11 -10.5q-9 0 -11 8q-2 12 12 28q6 6 17 30q7 16 12.5 26.5t7.5 17.5q5 11 9.5 20.5t7.5 17.5q14 40 22.5 60t11.5 25q2 5 4.5 12t7.5 15q5 12 8.5 20t4.5 11q2 7 5 16t4 15l-2 4
q-5 -3 -10 -5.5t-12 -4.5q-16 -13 -24 -14q-8 -3 -14 -4t-11 -2q-3 0 -5 1q-19 -6 -40 -6h-46q-3 1 -6.5 2t-9.5 4q-1 -1 -6 -1q-5 2 -9.5 4.5t-9.5 4.5q-2 2 -4.5 3t-3.5 2q-12 5 -29 30q-10 14 -24 37q-8 18 -11 34t-3 30v18l8 33q8 11 17 26.5t17 26.5q32 38 63 63.5
t60 39.5q65 32 84 33q32 9 57 9q42 0 50 -7q8 -2 18 -8.5t24 -16.5q13 -6 34 -23zM377 474q5 8 5 51q0 16 -13 26t-29 10q-3 0 -69 -21q-6 -4 -11 -6q-5 -3 -10.5 -5.5t-10.5 -3.5q-9 -5 -24 -18t-36 -33q-13 -14 -37 -72q-8 -21 -11.5 -26.5t-3.5 3.5q-3 -3 0.5 -12.5
t12.5 -19t21.5 -16t27.5 -4.5q-1 0 18 -3q17 -4 28 -2q14 3 24.5 5t18.5 4q10 5 18 7.5t14 4.5q8 8 14 14.5t10 11.5q8 12 14.5 22.5t13.5 20.5q12 36 15 62z" />
    <glyph glyph-name="colon" unicode=":" horiz-adv-x="225" 
d="M192 294q0 -18 -12 -37t-28 -27q-8 -7 -17 -7q-13 0 -23 16q-15 21 -16 40q0 53 39 72q16 8 29 -2q28 -19 28 -55zM160 41q0 -17 -12.5 -35t-28.5 -24q-7 -4 -13 -4q-12 0 -24 18q-15 21 -15 43v2q1 40 37 54q12 4 28 -6q28 -18 28 -48z" />
    <glyph glyph-name="semicolon" unicode=";" horiz-adv-x="199" 
d="M90 363q25 -4 43.5 -21t17.5 -41q-2 -26 -50 -72q-13 -7 -23 -6q-21 4 -38 24t-17 42q0 16 26 59q12 20 41 15zM118 63q0 -16 -14 -58q-4 -5 -10.5 -14t-16.5 -23q-7 -5 -13 -12t-13 -15t-18 -21q-9 -5 -13 -11q-24 -16 -47 -38q-3 -2 -7 -4t-9 -5l-6 7l-8 7q-1 -1 -8 -1
q-1 0 -1 2t5 17l5 13l55 76q6 11 20 32q-3 2 -7 6q-10 7 -10 24q2 8 3 18q1 3 2 6.5t2 7.5q3 5 6 11.5t6 13.5q2 2 5.5 6t8.5 9q2 1 16 1q2 0 7.5 -1.5t12 -4t12 -4.5t6.5 -4q22 -16 29 -41z" />
    <glyph glyph-name="less" unicode="&#x3c;" horiz-adv-x="443" 
d="M165 270q-60 18 -60 47q0 37 50 48q8 1 21.5 3.5t33.5 6.5q11 2 27.5 8.5t36.5 16.5q23 11 39.5 18t24.5 10q2 1 11.5 6t26.5 16q30 17 37 16q18 -1 23 -38q4 -40 -17 -54q-12 -8 -81 -28q-34 -9 -58 -18.5t-40 -19.5q4 -5 22 -22.5t52 -49.5q49 -46 49 -80
q0 -21 -18 -44q-14 11 -83 89q-48 56 -97 69z" />
    <glyph glyph-name="equal" unicode="=" horiz-adv-x="554" 
d="M157 166q27 0 64 -3q44 -4 71 -5.5t38 -1.5q-3 0 1.5 0t17.5 1h18q69 15 98 15q54 0 54 -41q0 -36 -61 -36q-10 0 -28.5 1.5t-28.5 1.5q-23 0 -58 1t-83 3t-83 3.5t-58 1.5q-7 -1 -12.5 -1.5t-9.5 -0.5q-25 0 -25 27q0 21 29 33q23 9 47 9l9 -8v0zM72 317q28 34 143 34
h160q9 0 26 1t24 1q43 1 43 -36q0 -25 -13 -42q-15 -22 -38 -17q-3 0 -8 4t-10 8.5t-9 8.5t-6 5q-21 9 -66 9h-35h-8.5t-11.5 -1h-14q-23 0 -50 -7q-65 -16 -82 -16q-39 0 -62 32l17 16v0z" />
    <glyph glyph-name="greater" unicode="&#x3e;" horiz-adv-x="421" 
d="M348 214q-51 -41 -55 -42q-36 -34 -45 -60q-14 -38 -40 -38q-15 0 -25 17t-10 33q0 38 75 101q48 41 48 54q0 14 -18 29q-55 46 -136 82q-38 17 -38 46q0 18 23 30q11 -1 30 0q18 6 29 6q19 0 27 -20q12 -31 20 -39q26 -28 93 -53q74 -27 95 -45q-3 -4 -6 -7.5t-6 -8.5
q-6 -11 -11 -20t-8 -15q-4 -7 -6 -11q-13 -22 -36 -39z" />
    <glyph glyph-name="question" unicode="?" horiz-adv-x="443" 
d="M450 578q0 -3 -3 -17q-2 -4 -3 -7.5t-2 -8.5q-6 -7 -13.5 -16.5t-15.5 -20.5q-3 -4 -8.5 -9t-13.5 -11q-2 -2 -4.5 -5t-5.5 -7q-17 -16 -30 -29t-23 -24q-2 -2 -4.5 -4t-5.5 -4q-6 -7 -19.5 -20.5t-33.5 -34.5q-1 -1 -7 -8t-17 -21q-2 -2 -4.5 -6t-6.5 -9
q-5 -8 -14.5 -21t-23.5 -32l-8 -21q-7 -19 -9 -19q-12 0 -10 -2q-1 -1 -4 -1v5q2 0 7 5q-1 1 -1 3q0 -2 2 2v3l1 1q-1 3 0 9t8 18q2 9 6 21q1 5 2.5 13.5t5.5 19.5q8 36 30 79q10 18 19 36t19 37q31 59 31 66q0 43 -18 43q-2 2 -4 6t-8 3q2 5 -1 5l-4 -2q0 1 -2 1
q-43 -13 -82 -30q-34 -24 -37 -24q-6 0 -19 7q-2 2 -8 11q-1 1 -3 13q0 4 -1 6q0 8 13 24q7 12 32 31q3 3 61 37q7 3 15.5 6.5t18.5 8.5q13 5 40 12q12 4 43 4q5 0 37 -8q2 -1 7.5 -3.5t14.5 -7.5q16 -8 41 -33q4 -6 14 -30q9 -19 9 -40zM66 39q0 8 12 30q0 6 1 10
q2 1 4 1.5t4 2.5v3q2 2 4.5 5t6.5 7q2 2 5 4l6 4q1 1 17 -1q1 0 16 -5l3 3q1 -1 2 -1q2 -2 3.5 -4t3.5 -4q1 1 4 1q10 -10 13 -21q1 1 3 1q0 -1 1 -2l8 -16q0 -4 -1 -6q0 -21 -7 -41l-12.5 -10t-16.5 -15q-2 -2 -13 -2h-3q-14 3 -18 7q-4 3 -8.5 6.5t-9.5 7.5q-3 3 -9 11
q-3 3 -4 5v5q-4 3 -7.5 6.5z" />
    <glyph glyph-name="at" unicode="@" horiz-adv-x="710" 
d="M674 291q-4 -41 -12.5 -79.5t-23.5 -74.5q-8 -14 -26 -34.5t-51 -48.5q-75 -64 -90 -84q-22 -29 -31.5 -44.5t-11.5 -17.5q-16 -17 -30 -25.5t-31 -9.5q-17 -2 -35.5 0t-41.5 7q-32 7 -51 10t-22 5q-57 6 -97 31.5t-61 67.5q-42 82 -26 196q11 68 38.5 127t69.5 112
q47 60 103 90.5t119 35.5q69 3 124.5 -12t98.5 -50q45 -38 69 -87.5t19 -114.5zM418 70q-29 5 -42 -11q-32 -27 -43 -31q-28 -15 -58 -15t-54 13.5t-39 42.5q-16 23 -21 51t0 60q8 79 74 130q28 28 63 41.5t73 13.5q126 0 105 -139q-6 -47 -4 -65q1 -27 45 -24q57 6 73 78
q0 15 1 36.5t-4 49.5q-1 38 -15.5 68.5t-38.5 52.5t-57 33.5t-72 11.5q-58 0 -107.5 -19.5t-87.5 -54.5t-63.5 -83.5t-34.5 -106.5q-5 -42 -4 -77.5t14 -65.5q14 -35 37 -57.5t60 -32.5q23 -6 48.5 -9.5t49.5 -3.5q107 0 173 71q-12 10 -29 20.5t-42 21.5zM340 203
q8 13 10 25.5t5 24.5q2 21 -1 31t-16 10t-41 -14q-30 -19 -45.5 -41t-20.5 -49q-10 -79 71 -108q2 7 12.5 37t25.5 84z" />
    <glyph glyph-name="A" unicode="A" horiz-adv-x="411" 
d="M287 609q12 0 20.5 -3.5t25.5 -7.5q18 -11 26.5 -21t12 -20t4.5 -20t5 -22v-36q-1 -7 -1 -13t-0.5 -19t-2.5 -36t-7 -64q0 -8 -2 -14t-4 -14.5t-4 -22t-2 -37.5l-1 -1q-2 -3 -3 -13q1 -1 1 -3l-2 -6l-2 -6q0 -3 5.5 -8.5t5.5 -8.5q-1 -3 -1 -6q1 0 1 -1q-1 -5 -4 -9.5
t-6 -7.5q1 -5 1 -11q-1 -1 -1 -2t-1 -3q0 -5 1 -8q-1 -3 -0.5 -10t-3.5 -11q1 -5 1 -9.5t2 -9.5q-1 -3 -1 -10q1 -2 1 -4t1 -4q-1 -1 -1 -3q0 -4 1 -7q-1 -3 -1 -11q1 -11 3.5 -26t2.5 -31v-5q1 -4 1 -8t1 -9q0 -4 -1 -7v-6q0 -4 -1 -13t-1 -13q1 -2 1 -8q2 2 -0.5 -2.5
t-6.5 -11.5t-7.5 -13.5t-3.5 -9.5l-2 -1q-2 0 -5 3l-1 -5l2 -10q-2 -2 -3 -2t-3 6t-4 14.5t-4.5 18t-4.5 17.5v3q-6 26 -12 56.5t-11 64.5l-9 6q-8 13 -19.5 25t-30.5 29q2 1 -2.5 0t-11.5 -3l-18 -4h-1q-12 -1 -26 -3t-31 -4q-11 -23 -18 -46t-15 -48l-3 -9l-2 -6l-4 -13
q-1 -2 -2 -5.5t-3 -8.5l-7 -17q-5 -11 -9 -31q-12 -12 -19 -16.5t-15 -4.5q-12 0 -23 15t-11 27q0 16 7 36.5t21 63.5l17 53q2 5 6 14t6 19q-1 8 -3 18q1 4 1.5 6.5t1.5 5.5t3 8t5 14v1q8 6 13 11.5t13 22.5q1 4 8 22.5t25 56.5q20 42 40.5 83t33.5 79l4 9q2 3 7.5 15
t15.5 34q2 5 6 9q3 6 8 15.5t11 18.5t13 16t13 7zM275 472q-5 0 -17.5 -29t-40.5 -102q-1 -1 -5.5 -10.5t-11 -24.5t-13 -35t-10.5 -41h22q11 0 30 1.5t46 3.5q3 3 4.5 27.5t2 53.5t1 55t0.5 30v10.5t-1 22.5q0 2 -0.5 8t-2.5 13l-4 16v1v0z" />
    <glyph glyph-name="B" unicode="B" horiz-adv-x="462" 
d="M347 573l22 -5l21 -4l31 -15l26 -18l9 -12l10 -31l1 -12l-4 -7l3 -2v-21l-3 -9l-12 -18l-5 -3l-1 -8l-5 -9l-10 -3l-18 -28l-17 -13l-4 -7l-9 -4l-10 -13l-25 -24l-12 -7l-8 -8l-1 -6l-12 -10l42 -8l35 -12l11 -5l13 -11l8 -18l7 -26l-1 -7l-3 -5l-10 -26l-12 -18l-6 -4
l-1 -3l-22 -27l-4 -2l-1 -6l-7 -3l-4 -5l-15 -11l-5 -7l-12 -4l-10 -11v-2h-8l-5 -4l-1 -10l-11 -6l-14 -3l-3 -6l-16 -5l-15 -1l-9 -9l-5 -1l-7 -5l-10 -5l-10 -1l-7 -8l-6 -3l-3 1l-4 -2l-9 6l-15 -13l-8 1l-1 3l-8 1l-7 -5v-3h-3l-5 4l-5 -1l-3 -11l-8 1l-10 -6l-13 -6
l-3 3l2 6l5 -3l3 11l5 1l1 2l10 2v7l4 7l9 2l3 4l17 12l23 20l8 3l21 17l31 17l20 23l7 4l17 12l19 17l12 6l1 5h4v3l11 10l9 3l8 7l28 26l4 6l-4 7l-36 6l-7 -1h-18h-31l-36 -5l-16 -6l-10 1l-29 -4l-9 -6l-13 -19h-4l-11 -13l-3 -7l-9 -16v-8l-8 -20l-4 -4l-8 -23l-4 -27
l-3 -3l-5 -31l-8 -13l-2 -12l-13 -13l-2 -5l-11 5l-11 2l-13 13v43l24 154v17l7 23v20l5 19l-1 3l4 12l1 10l15 92l-4 9l-10 13l-1 14l-4 8l-1 9l8 9l4 9l-3 3l16 19l8 5l15 18l34 26l6 1l25 15l8 2l16 10l40 12l16 2l6 3l14 3h12l8 2zM312 440l-27 -9l-20 -10l-35 -23
l-15 -5l-7 -21l2 -7v-18l-3 -7l-7 -33l20 2l14 5l79 43l18 14l32 23l24 26l8 12l-1 6l-6 5l-15 5h-22z" />
    <glyph glyph-name="C" unicode="C" horiz-adv-x="396" 
d="M356 534v-2h20l18 -11l14 1l5 -2l6 -16l14 -26v-19l-6 -14l-7 -10l-9 -8l-32 -12l-17 -18l-25 -36l-11 -11l-46 -55l-17 -28l-8 -7l-1 -4l-20 -29l-3 -1l-23 -31l-21 -35l-12 -24l-13 -42l-3 -29l1 -16l11 -19l18 -12l20 -5l27 -2l63 6l2 -5h4l-3 -5l7 -3l-3 -3l1 -4h-4
l-3 -4l4 -1l1 -7h-4l-9 -5l-31 -11l-2 1l-32 -10h-27h-47l-35 12l-28 17l-24 21l-15 22l-13 38l-3 29l5 35l5 11v11l3 4l3 20l7 12l11 26l36 59l9 9l5 11l67 83l8 6l1 5l75 78l16 10l31 31h5l3 4l17 10l8 9z" />
    <glyph glyph-name="D" unicode="D" horiz-adv-x="496" 
d="M477 318q-1 -11 -3 -22t-8 -24l2 -2q0 -5 -2.5 -15.5t-9 -25t-17 -31.5t-27.5 -35q-11 -18 -25.5 -33.5t-30.5 -29t-33 -27t-33 -28.5q-7 -1 -17 -10t-42 -26l-4 -3q-12 -4 -23 -9.5t-31 -16.5q-9 0 -16 -1q-6 -1 -11 -2.5t-5 -3.5l-10 -2q-5 -2 -10.5 -3t-12.5 -3
q0 2 -3 4q-5 3 -13 6q-1 -1 -3 -1l-5 1q-1 -1 -5 -1q-1 1 -1.5 1t-1.5 1q-2 -2 -4 -2t-7 6v-2h-1q-2 0 -2 -1q-5 4 -7 10l-1 -1l1 -1h-3l-2.5 2.5t-2.5 1.5q-1 1 -5 -1l-2 -2h-11l-1 2h-4q-3 2 -3 13q1 1 1.5 2.5t1.5 3.5l2 8q4 8 8.5 18t9.5 21l3 53v3q0 1 2 11l2 17
q3 17 5.5 30t6 32t8 47.5t11.5 75.5l3 3l7 30q-3 -6 -1 4.5t6 25.5t8 28.5l4 13.5l3 9q0 8 4 20t5 26q1 23 5 34t9 15.5t9.5 5t7.5 2.5q0 1 5 6t13 10.5t17 10t16 4.5h5.5t6.5 -2q7 2 13 2.5t19 5.5q3 0 5 -1q1 0 1.5 1t2.5 2q4 -1 10 -5q10 -6 38 -15q7 -2 10.5 -2t10.5 -4
t22 -14.5t44 -32.5q4 -4 9 -7.5t11 -9t13 -15t15 -26.5q2 -8 2 -7t2 -0.5t7 -11t15 -36.5q2 -9 8 -27.5t4 -47.5zM393 290q1 5 1.5 9t0.5 8v14.5t-2 11.5q-1 5 -5.5 22.5t-25.5 56.5l-18 21q-10 9 -20.5 15t-23 11t-27.5 9.5t-35 11.5q2 0 -4 -3l-14 -7t-14.5 -9t-6.5 -10
q-2 -5 0 -14q-3 -10 -5 -22t-5 -25l-1 -11q-3 -6 -6 -25t-9 -52l-2 -5l-3 -21l-3 -18t-7 -29q-1 -11 -4 -20.5t-6 -21.5t-6.5 -30.5t-6.5 -47.5l-2 -6l-1 -14q0 -2 -1.5 -6.5t-1.5 -6.5q0 -5 0.5 -11.5t0.5 -14.5q18 7 27.5 10t15 5t10 4t13 7t24.5 15t45 28q30 22 52 41.5
t38 40t25 42t13 47.5z" />
    <glyph glyph-name="E" unicode="E" horiz-adv-x="488" 
d="M552 528q-9 -9 -26.5 -11.5t-26.5 -3.5q-5 -2 -12.5 -1t-16.5 -4q-1 1 -4 1l-10 -6q-5 -5 -7 -4.5t-8 -1.5q-3 0 -5 1l-19 -6l-14 -4l-9 -2q-1 1 -4 1q-3 -3 -13.5 -3t-18.5 -1h-4q-2 0 -6.5 -2t-5.5 -2q-12 -3 -17 -2.5t-7.5 1.5t-4.5 0.5t-8 -4.5t-18 -13t-35 -26
q-1 -1 -12 -8.5t-21 -19.5q-1 -4 -6.5 -14t-11.5 -22.5t-11 -26.5t-5 -27q0 -3 2 -5l32 2q8 1 18 1t23 1q5 0 10 -0.5t11 -0.5q5 0 11 0.5t12 0.5q7 -2 13.5 -2h20.5l4 -2l27 6h-1q13 0 17 -4v-2q1 -1 1 -19l-11 -7l-8 -3l-3 -3l-14 -3q-3 -3 -14 -7l-14 -6
q-3 -3 -19.5 -6.5t-55.5 -10.5q-4 -5 -11.5 -13t-16 -15.5t-16.5 -14.5t-13 -11q-5 -11 -14 -22q-3 -1 -8 -1.5t-10.5 -1.5t-9.5 -3.5t-4 -7.5q0 -35 12 -49t39 -16l1 -12l5 -4h21l31 4l39 7l18 5l37 9l1 -3q1 -1 1 -3q-1 -3 -1 -6l1 -1v-2q0 -3 1 -5q-4 -4 -5 -6l-1 2
q0 -4 1 -6q-4 0 -3 -5.5t-7 -13.5v-2q-2 -4 -2.5 -7.5t-9.5 -14.5v-4q-15 -7 -24.5 -11.5t-19 -7t-21 -4.5t-30.5 -3h-13q0 -1 -1 -1h-2q-4 0 -19 3q-11 2 -16 1.5t-10 1t-13.5 5.5t-26.5 15l-5 6q-7 7 -13 12.5t-12 17t-12.5 31.5t-15.5 55q1 3 1 10q0 3 -0.5 9t-1.5 11
q2 17 4.5 40.5t7.5 55.5q0 10 1.5 17t6 20.5t12 37.5t18.5 68l-3 6q-5 10 -10 30q3 2 8 7v3l5 5q-1 1 -1 4q2 9 17 28h2l7 7q5 5 13.5 11.5t13.5 14.5q-3 2 -3 15q22 14 30.5 13.5t15.5 -0.5q2 -1 4.5 -1t4.5 -1h3q3 0 4.5 -0.5t3.5 -0.5h2q8 0 22.5 1.5t34.5 1.5h35
q5 -1 9.5 -1t9.5 -1h68q5 -1 16 -1h-1q0 2 16.5 1t38 -3.5t41.5 -7t27 -11.5v-6v0z" />
    <glyph glyph-name="F" unicode="F" horiz-adv-x="433" 
d="M475 537q0 -16 -17.5 -26.5t-41.5 -10.5h-8q-1 1 -2 4.5t-3.5 7t-7.5 6.5t-14 3q-14 0 -29 -2.5t-29 -7.5q-6 -2 -18 -5.5t-27 -8.5t-32 -11.5t-33 -15.5q-4 -21 -11 -52t-17 -73q-2 -25 -10 -43q0 -13 5 -21.5t12 -8.5q5 0 57 16q5 2 16 6t25.5 8.5t32.5 8t36 3.5
q12 0 19 -4.5t7 -19.5q0 -3 -11 -9t-27 -13q-16 -6 -23 -9t-17.5 -6t-30 -8.5t-61.5 -16.5q-5 -1 -11.5 -2t-14.5 -5t-17 -12t-19 -23q-10 -42 -16.5 -79.5t-14 -66t-17.5 -45t-28 -16.5q-5 0 -8 1q-1 0 -8 3.5t-15 8.5t-14.5 10.5t-6.5 9.5q0 20 1.5 35t5.5 36.5t11.5 56.5
t19.5 94q-3 6 -3 11q0 6 2.5 10.5t4.5 8.5q0 -5 3 7t7.5 33.5t10 48t11.5 52t12 45.5t11 28q0 4 -0.5 7t-0.5 7q0 26 7.5 40.5t26.5 14.5q18 0 26.5 -1.5t13 -3.5t7.5 -3.5t9 -1.5q17 0 49.5 7.5t66 16t60.5 16t33 7.5q7 0 16.5 -4.5t18 -11t14.5 -15t6 -16.5z" />
    <glyph glyph-name="G" unicode="G" horiz-adv-x="558" 
d="M514 256v-27l-6 -23l-5 -11l-16 -47l-30 -66l-7 -22l-17 -33l-12 -34l-4 -26l-4 -1l-4 -22l-21 -40l-11 -46l-9 -31l-1 -13l-9 -9l-1 -10l-2 -3h-1l-2 -15l-15 -25v78v146l7 38q-11 4 -27 4q-12 0 -33.5 -5t-45.5 -11t-45.5 -11t-32.5 -5q-29 0 -54 16t-43 42t-28.5 60.5
t-10.5 70.5q0 17 1.5 35t6.5 35l7 22l27 58l13 20q20 38 36 62t31.5 41.5t32 31t35.5 30.5l34 30l18 6l16 12l19 3q14 5 27.5 8.5t27.5 5.5l2 2l4 -1l18 5l32 4l10 -3h11l18 -8l-1 -31l5 -7l-4 -11l-17 -17l-16 -6h-3l-7 -3h-17l-7 5q-4 0 -7 -0.5t-7 -0.5l-17 -7h-18
l-21 -13l-9 -8l-3 -8l-7 -5l-46 -54l-29 -24q-4 -9 -4 -13.5t-0.5 -9t-3 -9.5t-10.5 -16l-32 -34q0 -2 -1 -9t-3 -15.5t-4 -16.5t-5 -11l-13 -17l-2 1q-3 -6 -3 -11.5t0.5 -10t0.5 -8t-3 -6.5q-2 -12 1.5 -18t2.5 -14q3 -11 5 -14t8 -14q4 -8 4.5 -12t1 -6t2.5 -3.5t8 -4.5
l9 -11l16 -12l27 -6q4 1 7 1t7 1l29 2l49 21l29 10l7 9l31 55l3 16l19 46l15 41l6 5l1 11l10 6l15 15h6l10 -4l6 1l10 -12l13 -6l7 -7z" />
    <glyph glyph-name="H" unicode="H" horiz-adv-x="506" 
d="M446 587l14 4l17 -12l2 -8l4 -32l-14 -109l-4 -19l-12 -52l-9 -36l-5 -10l1 -1l37 -9l16 -6l13 -4l-2 -8l-8 -1l-4 -4l-15 -6l-8 -8h-13l-25 -3l-12 -11v-10l-8 -8l-6 -23l-12 -24l-5 -24l-5 -32l-6 -16l-2 -14v-19l-6 -12l2 -9l-3 -23h1v-12l-3 -7v-17l-4 -2l-2 -8l2 -3
l-1 -5h-3l-9 -8l-4 2l-2 -7l-5 3l-3 -1v-3l-5 -2l-1 -4l-4 -5l-12 -2l-7 7l-6 11l-5 23l-7 52v45l8 77l12 75l-22 -3h-25l-47 -12l-26 -3l-9 -3l-7 -30l-4 -7l-2 -12l-3 -7l-10 -20l-2 -13l-6 -14l-4 -17l-14 -35l-14 -30l-12 -26l-2 -21l-4 -5l-1 -7l-5 -8l-3 -12l-3 -4
l-1 -2l-21 -18l-2 12l-2 25l-4 16l-1 11v47l6 71l-1 9l4 13l8 63l25 133l15 48l12 27l1 11l15 46l10 19l13 30l13 28l4 4l4 9h4l3 3h5l3 2l13 1l18 -7v-2l6 -2l11 -41l-5 -38l2 -3l-4 -6l-2 -28l-4 -30l-15 -51l-6 -23l-5 -4l-1 -14l-5 -9h49l41 9h15l21 3l12 50l21 63l2 10
l4 4l-1 2l14 44l26 60l10 28h3l2 6l6 1l12 3z" />
    <glyph glyph-name="I" unicode="I" horiz-adv-x="237" 
d="M235 561l14 -6l8 -11l3 -24l-3 -50l-13 -29l-14 -30l-36 -103l-33 -90l-8 -30l-8 -16l-3 -17l-7 -15l-4 -17l-10 -60l-7 -30l-6 -33l-14 -36l-13 -14l-16 -9l-11 6l-3 46l2 6l-2 8v29l2 23l-2 5l-1 49l1 36l6 28l7 39l7 22l13 61l6 12l11 37l18 53l1 14l9 14l9 21l13 22
l1 7l21 36l5 3l9 17l20 18l21 8h7z" />
    <glyph glyph-name="J" unicode="J" horiz-adv-x="598" 
d="M715 597l48 -7l39 -12l7 -5l-14 -10v3l-5 -4l-10 -2l-7 -6l-17 -4l-45 -28l-31 -14l-7 1l-9 -7h-7l-17 -11l-5 1l-10 -5l-2 2l-16 -7l-4 -7l-9 -5l-39 -12l-8 -5l-31 -10l-30 -6l-23 -7l-8 -35l-2 -19l-8 -24l-19 -82l-4 -5l-8 -20v-5l-9 -11v-6l-3 -2v-4l-16 -40v-13
l-5 -16l1 -4l-6 -13l-3 -12l-5 -7v-17l-9 -43l-4 -5l-1 -8l-4 -6l-1 -10l-7 -26l-16 -31l-1 -13l-16 -22h-2l-11 -12l-2 -6l-19 -10l-21 -8h-18l-13 -3l-2 -2l-8 3h-11l-8 -3l-11 3l-42 10l-5 6l-17 5l-9 5l-23 18l-9 16l-8 5v8l-8 19l-6 7l-3 17l-3 2l1 6l-3 4l6 8l-3 3
l-1 5l4 25l7 11l9 28l9 16l2 8l13 22h3l-2 -16l-3 -3l-2 -8l4 -3l1 -9l-5 -12l2 -10l-2 -16l8 -7l5 2v-24l-5 -12h5l3 3l3 -2l14 -21l15 -5l5 -5l14 -7l2 -3h9l23 -12l12 -4l6 -4l31 3l9 6l19 7l10 10l10 43l8 16l12 63v28l10 95l4 8l12 71l4 7l4 34l16 64l-22 -3h-14
l-85 -9l-31 -8h-30l-4 2l-5 10l-2 10h4l1 5l14 14l14 5l74 37l3 -1l15 6l4 -5l4 2l5 8l-4 4l15 4l4 -3l14 4l18 10v3h33l3 3l-1 11l4 1l8 29l3 2l10 -4l-2 10h2l4 -5l4 2l3 16l8 -6l13 -20h12l12 4l19 -2l2 -2l15 2l1 -2l15 2l5 3l14 2v-3l-7 -5l6 -3l23 6l24 2l5 4h12l17 8
l-2 2l2 5l16 7h14l23 5l5 3l12 -1l14 2h14z" />
    <glyph glyph-name="K" unicode="K" horiz-adv-x="572" 
d="M51 -1l-2 9l-10 6v20l6 17l16 82l15 63l4 10l2 16l28 79l4 19l17 39l7 10l3 18l13 25l2 19l8 16l1 14l18 34l11 14l14 13l10 2l29 7h21l12 -12l1 -12l-5 -51l-3 -10l-7 -25l-6 -11v-7l-4 -14l-17 -37l62 37l19 7l60 33l4 4l101 65l32 21l12 3l6 5h4l14 6l4 -2l8 1l45 15
l10 -6l1 -10l-20 -21l-14 -10l-17 -17l-16 -25l-16 -19l-28 -22l-31 -23l-32 -25l-67 -44l-32 -12l-8 -5l-19 -9l-6 1l-9 -6l-12 -8l-14 -8l-15 -5l-19 -14l-12 -5l-6 -12l9 -8l27 -17l2 -3l10 -4l64 -39l24 -16l90 -71l11 -18l10 -4l25 -25l16 -26l-1 -14l8 -9l3 -6h3l1 -4
l3 -2l2 -5l-6 -3l-2 -5l-3 1l-4 -6l-8 3h-12l-6 8l-6 -3l-5 3l1 13l-7 -12h-4l-27 15l-18 8l-71 41l-15 6l-142 77l-5 5l-7 3l-29 24l-13 -38l-9 -12l-7 -15l-18 -42l-21 -40l-15 -18h-15v9l-2 2z" />
    <glyph glyph-name="L" unicode="L" 
d="M445 95q-2 -2 -4.5 -5t-5.5 -6q2 0 -2 -2t-14.5 -7.5t-28.5 -15.5t-46 -25q-5 -2 -18.5 -8.5t-25.5 -6.5l-9 -6h-8q-6 -4 -9 -5t-14 -5t-27.5 -8.5t-38 -8t-45.5 -3.5q-26 0 -51.5 16.5t-40.5 41.5v4q-7 11 -11 44l-2 4q0 5 1 8q0 2 -1 5t-1 5v11q1 5 1 7.5v3.5v4
q4 20 7 44t14 72q5 23 8 37t6 25.5t6.5 23.5t9.5 32.5t14.5 52.5t21.5 82l3.5 7.5t7 17.5t7 21t3.5 18l0.5 6.5t2.5 16t5 19t9 15.5v10l2 1q-2 -2 4.5 5t7.5 7h5q2 -1 6 -1q2 -1 9.5 -7.5t16 -17t15.5 -25.5t7 -35q0 -16 -1.5 -26.5t-4.5 -22.5t-7.5 -30.5t-10.5 -50.5
q-1 -1 -3.5 -4t-6 -12t-9 -25.5t-13.5 -45.5v-6q-3 -8 -4 -11t-3 -10t-8 -22.5t-19 -48.5l-1 -1q-1 -1 -3 -6v-5q-1 -4 -5.5 -17.5t-8.5 -31t-7.5 -37t-3.5 -37.5q0 -8 4 -8l-3 -8v-9l3 -7l6 -3h5l26 -1q14 2 23 4.5t29 7.5q1 -1 1.5 -1t1.5 -1q10 0 36 8l3 2q2 1 12.5 1.5
t20.5 7.5q1 0 5 1.5t14.5 3.5t29 3.5t46.5 1.5q2 0 11.5 -2t20 -5.5t19 -7.5t8.5 -7z" />
    <glyph glyph-name="M" unicode="M" horiz-adv-x="660" 
d="M579 632q8 0 17.5 -4t23.5 -15q6 -4 8 -7t3.5 -8.5t3 -15t5.5 -26.5v-36q-1 -11 -3.5 -29.5t-2.5 -41.5l-2 -4q-4 -20 -9 -50.5t-12 -71.5q-6 -23 -6 -42.5t-10 -39.5v-9q-1 -2 -1 -4.5t-1 -5.5v-11q-3 -3 -2 -16.5t-7 -39.5q1 -1 1 -6l-1 -4q1 4 0 -1.5t-3 -15t-4 -22
t-2 -23.5q0 -4 2 -8q-1 -1 -1 -2t-1 -3q0 -8 1 -12q0 -4 -1 -7l-1 -7q0 -16 -7 -25t-8 -9l-1 -1q-1 -2 -3 -5.5t-5 -8.5l-3 -2l4 -1l-3 -6l-1 -8l-6 -8l-2 -15l-5 -3l2 -1l-3 -1l-2 -3v-4.5t-1 -4.5l-3 -3l-1 -6q-1 -1 -2 -1t-3 -1q0 4 -1 7v1q-1 2 -1.5 5.5t-2.5 8.5l-1 8
q0 2 -0.5 8t-1.5 16v3q0 3 -1 6v10l-2 3q1 1 1 7l-1 43l1 261q0 11 -1 17.5t-3 14.5q0 18 3 39v6q2 10 2.5 16.5t0.5 11.5l1 4q-2 -1 -4 -3t-5 -4q-7 0 -30 -23l-18 -31q-1 -2 -1 -3.5t-1 -3.5l-8 -13q-6 -11 -9 -18t-7 -12l-5 -4q-2 -5 -3.5 -12.5t-8.5 -14.5v-3l-9 -17
q-2 -4 -4.5 -8.5t-6.5 -12.5l-3 -5l-2.5 -4t-5.5 -8.5t-6 -8.5t-5 -4l-3.5 -4.5t-8.5 -10t-9 -10t-5 -4.5q-2 -2 -4 -3l-4 -2q-17 5 -33.5 19t-24.5 16q-23 9 -39 31.5t-22 64.5v36q1 5 1 11v12q-1 -1 -1.5 -3t-2.5 -4l-4 -7l-4 -9q-2 0 -4 -12t-16 -38q-3 0 -7.5 -10.5
t-14.5 -36.5q-3 -8 -7 -19q-3 -10 -7.5 -25.5t-9.5 -38.5l-9 -31q-1 -3 -1 -9q-2 -9 -2 -9.5v0t-0.5 -0.5t-2.5 -10t-6 -29t-11 -58q-2 -5 -2 -8t-1 -8t-6 -14.5t-18 -28.5l-2 2q-1 -1 -1 -2.5t-2 -1.5t-3 1l-6 3q-2 1 -3.5 2t-3.5 2l1 1l-4 2v3q-5 17 -8 31t-3 28
q0 2 0.5 7t1.5 14q5 16 5.5 19.5t0.5 8t0.5 15.5t6 41t17.5 85t35 148q7 16 14.5 42.5t22.5 58.5v3q2 3 5 6.5t5 6.5l4 4q1 3 2 6.5t2 6.5l3 6t9 13t16 12.5t24 5.5q5 0 20 -4q3 -1 7 -1t9.5 -3.5t14 -11.5t20.5 -24l5 -10t4 -10.5t4 -18.5t3 -34v-50q-1 -8 -1 -13.5v-10.5
v-59q0 -7 3 -40q5 10 11 21q5 9 13 19.5t19 21.5l18 33l4 4l9 17q4 7 8 14.5t9.5 17.5t13.5 24.5t21 35.5l15 24q3 5 8 13.5t12 19.5q3 6 17 22.5t29 42.5q1 4 3.5 6.5l6.5 6.5t10.5 11t15.5 20l6 4q6 7 19 7z" />
    <glyph glyph-name="N" unicode="N" horiz-adv-x="612" 
d="M609 655q0 -4 -1 -9l-2 -8l-3 -12t-5 -19v-3q-1 -1 -1 -2t-1 -3q2 -4 3 -7v-10t-2 -16q-3 -18 -2.5 -30.5t-0.5 -32t-5.5 -53t-16.5 -92.5q1 -2 3 -8q-1 -18 -5.5 -43.5t-4.5 -39.5v-14q-2 -12 -3.5 -24t-4 -26.5t-6 -32t-9.5 -40.5q0 -7 -2.5 -21.5t-7 -29t-10.5 -25
t-13 -10.5l-6 -4q-2 -2 -14 -6.5t-26 -6.5l-1 -1q-14 -14 -25.5 -23.5t-28.5 -9.5q-3 1 -6.5 2t-7.5 3.5t-9.5 8.5t-14.5 18q-15 19 -29 36t-27.5 36t-26.5 42t-26 53l-6 9l-30 66q-1 2 -4 10t-7 17t-10 16.5t-13 8.5q-6 -19 -15 -60q-3 -8 -10 -30.5t-16 -61.5v-6
q-2 -4 -5 -12.5t-6.5 -23t-9 -37t-11.5 -54.5q-4 -4 -5.5 -13t-5.5 -20.5t-11.5 -23.5t-24.5 -23l-1 1q-2 0 -5.5 -5.5t-13.5 -5.5q-1 0 -3 2l-4 4q-11 5 -11 30q4 0 1 15t5 46q5 14 8 24.5t4.5 19.5t3 18.5t4.5 22.5l7 31q8 38 18.5 94t27.5 131q1 6 4.5 28t10 46t15 43.5
t20.5 19.5h6q3 1 6 1q8 -1 13 -2.5t8 -3.5t6 -5.5t8 -8.5l21 -26q3 -9 5.5 -14.5t7.5 -17t16 -32.5t31 -62q2 -7 3 -9.5t2.5 -5t4 -8t8 -17.5t14.5 -33t23 -56q5 -7 13.5 -21.5t21.5 -54.5l8 -12q2 -4 4 -7.5t4 -7.5q5 5 8.5 6t23.5 10l8 7q2 7 2.5 11.5t1 10.5t3.5 16t9 29
q3 8 8.5 35.5t12 62t13 68.5t9.5 53q2 5 11 53.5t38 144.5q0 13 5 21.5t13 14t17.5 8t17.5 4.5q7 0 9 -4.5t3 -11.5z" />
    <glyph glyph-name="O" unicode="O" horiz-adv-x="564" 
d="M539 234q0 -5 -1 -9l-3 -21q1 0 2 -1q0 -6 -4.5 -17t-9.5 -27q-8 -24 -13.5 -36.5t-10.5 -21.5t-11.5 -16.5t-17.5 -20.5v-4q-5 -5 -8.5 -9t-9.5 -9t-16.5 -13t-30.5 -22q-9 -3 -13 -6.5t-13 -8.5t-28.5 -11t-58.5 -15h-9q-2 0 -6.5 -1.5t-6.5 -1.5q-34 0 -70 10t-78 39
q-7 5 -13 9.5t-12 11t-13.5 16.5t-17.5 26q-2 6 -9 23.5t-16 61.5q0 -1 1 -1q-2 0 1 16.5t3 48.5l9 36q3 7 5.5 13.5t6 15.5t9 20.5t15.5 28.5q9 15 30.5 49.5t57.5 70.5l8 10q4 2 11 9q23 22 51 22l11 7q5 0 6.5 1t6.5 3t15.5 6t32.5 10l2 2h9q1 1 2 1t3 1q4 0 16 -3h10
q5 -4 13 -9t17 -13q5 -2 14.5 -16.5t29.5 -28.5q3 -4 7 -9t10 -8l15 -15q2 -4 5 -8.5t8 -11.5l7 -7q2 -4 3.5 -7.5t3.5 -7.5v-4q4 -4 7 -11t11 -18l3 -10q2 -7 6.5 -25t9.5 -66v-13q0 -1 3 -3l3 -2v0zM449 249q0 42 -10.5 74.5t-42.5 64.5l-24 24q-6 4 -15 9t-20 12
q-11 -8 -25 -8h-30q-7 0 -20 -13t-29 -28q-11 -6 -24 -26t-39 -65q-2 -7 -9.5 -20.5t-15 -31.5t-13.5 -39t-6 -43q0 -10 -1 -17t0.5 -14.5t7 -18.5t18.5 -29q2 -2 7 -7.5t16.5 -11.5t31.5 -11t51 -5q-3 0 2.5 0.5t13.5 1.5t16.5 1.5t11.5 1.5q3 0 11 2.5t20 7.5t26 14.5
t28 23.5l24 36q2 2 10 17t22 50v6q7 22 7 42z" />
    <glyph glyph-name="P" unicode="P" horiz-adv-x="419" 
d="M452 398q-2 -2 -2.5 -8.5t-4.5 -16.5t-14.5 -24.5t-31.5 -32.5l-4 -5q-7 -6 -24.5 -19.5t-49.5 -33.5l-13 -6q-6 -4 -12.5 -8t-16 -8t-23.5 -9t-35 -13l-7 1q0 -1 -8 -11t-18.5 -21t-21 -20.5t-16.5 -8.5q-2 -10 -3.5 -20t-5.5 -20q-3 -9 -3.5 -12.5t-2 -10t-5.5 -20.5
t-14 -44l-3 -7q-5 -11 -10 -23.5t-10 -26.5q-1 0 -4 -6t-4 -7h-2q-3 -10 -13.5 -20t-18.5 -8q-12 8 -17 21t-6.5 30t0 39.5t2.5 49.5q4 22 11 59t16 79.5t18.5 86.5t18.5 80q1 2 3.5 9.5t6 19t6.5 24t4 22.5q-1 2 -0.5 5.5t-0.5 5.5l-1 14q-1 6 -1.5 10t0.5 7l1 3
q-3 3 -5 12q2 5 7.5 11.5t16.5 13.5q3 3 15 10t27 14.5t32 12.5t31 3q6 -2 20.5 -2h22.5q5 -1 10 -1.5t12.5 -2t19 -5t29.5 -10.5q19 -11 34.5 -18.5t27.5 -18.5t21.5 -28t16.5 -47q-1 -1 -1 -4l3 -7q0 -2 0.5 -4t0.5 -5q0 -6 -2 -16q0 -2 1 -4zM391 395q1 19 -4 30
q-2 4 -11.5 13.5t-36.5 26.5q-13 7 -28.5 9.5t-16.5 2.5q-6 1 -10 0h-22q-3 0 -10 0.5t-14.5 -2.5t-14 -12t-8.5 -28q0 -4 -0.5 -8t-0.5 -10q-2 -8 -2.5 -18.5t-2.5 -23.5q-2 -9 -4.5 -17t-5.5 -21t-6.5 -33.5t-9.5 -54.5q5 0 27 6q23 8 38 14t27 12.5t25 15.5t32 24l23 21
l7.5 7.5t11.5 13t11 16t6 16.5z" />
    <glyph glyph-name="Q" unicode="Q" horiz-adv-x="577" 
d="M318 598l8 -2h18l7 -6l8 -1l5 -7l-10 -12l2 -10l5 -4v-7l-2 -4l-2 -19l-6 -17l-12 -5l-25 -5l-14 -16l-33 -43l-7 -17l-16 -25l-44 -94l-22 -59l-10 -23l-11 -34l-12 -69l-4 -28l8 -19l1 -28l33 -14l34 -3l41 21l12 11l24 13l29 30l47 47l-7 12l-31 44l-14 26l-15 43
l-10 38l-8 40v45l-2 6l20 14h24l3 -8h16l3 -3l8 -29l9 -14l21 -45l9 -14v-5l4 -3l20 -32l6 13l9 38l13 65l2 24l2 5l4 61l-4 39l3 2l8 -22l7 -10l2 -2v-24l5 4l2 -4l-2 -20h6l2 -7l-3 -20v-32l6 -7v-8l-2 -11l6 -6v-14l-5 -20l-5 -7v-6l3 -8l-7 -14l-1 -10l7 -17l-5 -27
l-15 -27l42 -81l26 -46l20 -39l19 -38v-3l1 -18l3 -2l-1 -4l-6 1l-3 -11l-14 -9l-14 8l-5 -4l-8 5l-18 7l-1 6l-5 -2l-29 25l-34 37l-33 43l-3 -2l-2 4l-3 -5h-4l-4 -13l-24 -30l-11 -8l-5 -10l-20 -13l-14 -9l-27 -15l-28 -8l-8 -6l-12 3l-2 -4l-10 1l-12 -6h-9h-33l-37 15
l-23 11l-6 6l-24 30l-16 30l-13 41l-10 56l4 83l7 30l12 33l13 33l69 121l22 29l3 9l29 34l45 49l12 6l6 8l27 22l3 4h13l2 5z" />
    <glyph glyph-name="R" unicode="R" horiz-adv-x="532" 
d="M555 73q-3 -3 -11 -4.5t-13 -6.5q-8 0 -9 1l-2 -3q-3 -1 -8 -1q-1 1 -3 1h-5q-6 7 -26.5 13.5t-45.5 18.5l-18 6q-11 4 -34 15t-57 28l-6 3q-16 7 -34.5 15.5t-40.5 18.5l-21 7l-9 -3q-16 -10 -29.5 -18.5t-34.5 -12.5l-3 -13v-8q0 -12 -6 -26.5t-11 -29.5v-3q0 -2 -2 -9
t-4 -15q-3 -10 -6 -21v-1q-7 -11 -10 -17.5t-13 -22.5l-8 -8q-1 -1 -11 -1q-1 0 -10 6t-20 22l-2 2v14q-2 2 -3 5v41q1 3 1 10q0 8 -1 12q3 9 4.5 24.5t3.5 31.5v2q0 9 8 38q5 19 7 27.5t2.5 14.5t1.5 11.5t4 18.5l9 36t8 32.5t9.5 36.5t13.5 47v6l2 4t3 5v7q0 11 12 38
q2 3 2.5 7t5 8t14.5 8.5t29 9.5q2 -1 4.5 -1t5.5 -1h12q5 2 14 3q6 3 22.5 12t36 18.5t37.5 17t26 7.5l7 1.5t17 3.5t20 3.5t14 1.5q21 0 48 -10q-2 2 7.5 -3t22 -17t23 -31t10.5 -46q0 -21 -4 -29v-3q-6 -16 -10 -23.5t-14.5 -16t-32.5 -23t-65 -44.5q1 1 -9 -4.5t-22 -13
t-22.5 -15t-10.5 -11.5q0 -3 2 -3l-9 -8q-7 -1 -7 -17v-5q-3 0 -3 -10l-1 -1q0 -2 13 -9t42 -22t76 -40t114 -63q8 -5 10.5 -15t4.5 -10v1zM424 479q-2 0 -9 2t-15 4q2 2 -6 0t-20 -5.5t-24 -6.5t-18 -3q-3 -3 -8 -5t-14 -6.5t-23 -13t-36 -23.5q-6 -4 -15.5 -21.5
t-26.5 -54.5q-4 -20 -8 -33q-2 -6 -3 -11q14 4 31 9t43 16q6 4 11.5 5t17.5 8.5t32.5 24.5t55.5 52q9 9 15.5 19.5t11 20t6.5 16z" />
    <glyph glyph-name="S" unicode="S" horiz-adv-x="479" 
d="M461 532q1 -4 2.5 -12.5t3 -16.5t2.5 -14.5t0 -6.5v1q0 -1 -1 -3t-1 -4t-2 -5q-2 -6 -6.5 -8t-9 -2t-7.5 1t-3 -1q0 -1 1 -2q-5 -1 -11 -1h-11q2 0 -2 0.5t-9.5 1.5t-10.5 2.5t-5 2.5q0 5 -11.5 6.5t-15.5 3.5q-3 -2 -12 -2h-6.5t-8.5 2q-2 -1 -4 -1t-4 -1
q-5 -2 -12.5 -4t-16.5 -5l-7 -5q-4 -2 -7 -5l-11 -6q-1 -1 -1.5 -2.5t-2.5 -2.5q-16 -12 -22.5 -21.5t-15.5 -23.5l-4 -7q-8 -15 -16 -32.5t-4 -49.5q1 -9 9.5 -21t13.5 -22q17 -15 30.5 -23.5t29.5 -17.5t38.5 -22t57.5 -37q11 -11 31 -33.5t25 -60.5q2 -17 2 -33.5
t-7 -33.5l-26 -39q-10 -7 -34 -15t-49 -10q-15 -2 -28.5 -2.5t-27.5 0.5h-16t-22 2q-1 0 -6.5 1t-12.5 2t-14 3t-11 4q-6 0 -9 1l-1 -1l-4 2q-4 1 -8 1.5t-8 2.5q-1 0 -8.5 1.5t-16.5 4t-16.5 5.5t-8.5 7l-7 -3q-2 1 -3.5 2t-3.5 2l-11 10h-4q-3 0 -5 1h-6q0 2 -1 2h-5
q-2 1 -3.5 2.5t-3.5 2.5l-6 2v4q2 3 4.5 8l6.5 13l-1 1q0 1 -1 1q0 2 3.5 6.5t10.5 9.5t17 9t23 4q14 0 25 -5t16 -5h6q6 -2 20.5 -7.5t47.5 -11.5q16 -10 51 -10q9 0 21 11t12 21h4l10 6l2 8v7l-5 8l-6 6l-12 11l-7 3l-10 7l-20 11l-8 6q0 3 -5.5 6t-5.5 6q0 5 -6.5 10.5
t-17.5 12.5t-25.5 16.5t-31.5 22.5l-14 17q-12 9 -19.5 17t-13 18.5t-10 25.5t-9.5 37q3 14 4 17q-1 2 -1 4t-1 4q2 12 6 26q7 26 20 65q0 5 3.5 10t8 9.5t8 9t3.5 7.5q4 5 5 8.5t4 8t12 11.5t30 20q25 17 38 25t21.5 11.5t16.5 5t22 6.5q16 6 34 8t41 7q3 0 5 -1q2 1 8 1
q5 0 8 -1q2 1 5 1t4 -1l12 -5q12 -3 20 -10.5t19 -21.5z" />
    <glyph glyph-name="T" unicode="T" horiz-adv-x="483" 
d="M590 520l-8 -9q-11 -6 -26 -9.5t-45 -16.5h-21q-1 -1 -3.5 -2.5t-3.5 -2.5h-2q-1 1 -2 1t-3 1q-6 0 -11 -1l-3 -3q-2 1 -4.5 2t-5.5 2q-3 -1 -13 -3l-6 -3h-10t-12 -1l-5 -1h-24q-8 0 -13 -1h-6q-4 -4 -7 -14t-7.5 -33t-13 -62t-23.5 -102q-3 -11 -8.5 -35.5t-11.5 -53
t-12.5 -55t-10.5 -41.5q-2 -5 -7 -20.5t-5 -26.5v-21v-3q0 -7 -5 -27v-6q-4 -11 -7 -14l-5 -3t-10 -6.5t-10 -6l-5 -2.5h-1q-5 -4 -11 -5h-3q-1 -1 -2 -1h-2q-1 2 -2.5 11.5t-2.5 20.5t-1.5 20.5t-0.5 11.5q1 2 1 3.5t1 3.5q0 2 -1 5t-1 5v28q0 6 1.5 15t2.5 20q-1 1 -1 5
q1 20 3 37t4 36v6q1 3 2 6.5t2 8.5q0 3 -1 5q2 7 3 14.5t2 17.5l2 4q1 10 2.5 17.5l3.5 17.5t5.5 25.5t7.5 42.5q2 6 2.5 10.5t2.5 16t7 33t16 61.5q-3 0 -5.5 9.5t-4.5 9.5q-4 11 -8.5 11t-16.5 2q-1 -1 -6 -1h-25q-15 0 -38 1t-45.5 6t-41 17t-24.5 33q0 5 9 11t15 6
q3 0 9 -3q6 2 17.5 4t28.5 2h17q4 1 8 1.5t9 1.5h3q5 0 8 1q6 -4 12 -5q3 1 7 1t9 1l45 -3q36 3 70 3q16 0 29.5 -1t41.5 -3h-1q4 0 11 1q13 2 34 3q0 -1 28 -1h28h11t24 -1q3 0 9.5 -1t13.5 -2.5t14 -2.5t11 -1q1 0 5.5 -3.5t9.5 -7.5t9 -7.5t4 -4.5z" />
    <glyph glyph-name="U" unicode="U" horiz-adv-x="551" 
d="M590 496q0 -3 -3 -20l-3 -16q-2 -14 -8.5 -33t-14.5 -48l1 2q-1 0 -4 -17t-24 -60q-2 -9 -5.5 -16.5t-10 -20t-16 -32.5t-23.5 -54q-5 -4 -11 -14.5t-13 -24t-15 -28t-17 -27.5q-5 -5 -16 -21.5t-39 -36.5l-11 -12q-1 -1 -5 -4t-8.5 -6.5t-8.5 -6.5t-5 -3q-3 -3 -10 -8.5
t-15 -10.5t-17 -9t-17 -3q-2 1 -3.5 1.5t-3.5 2.5q-8 -7 -23 -7.5t-30 1.5q-12 1 -29 9t-34 24t-34 40t-29 57q0 2 -2 8.5t-4.5 13t-4 12.5t-1.5 7q0 2 -1 8.5t-2.5 14t-3 14.5t-1.5 10q-2 14 -2.5 29t1.5 30q0 2 2.5 16t6.5 35t10 46t15 47q24 61 47 91t34 28q4 -8 4 -9
l3 6q0 -3 1 -3h1v3q-1 0 -1.5 -1.5t-1.5 -2.5q1 0 2.5 -2.5t0.5 -4.5q0 -3 -1 -5.5t-2 -7.5q0 -4 4 -15q0 -4 -0.5 -3.5t1.5 -2t9 -11.5t22 -33q3 -10 4 -21t2 -24l-2 -19l-6 -24l-1 -12q-2 -4 -3 -14.5t-3 -25.5q-1 -8 -1.5 -17.5t-0.5 -16.5q1 -2 1.5 -11t0.5 -19v-18.5
t1 -8.5q2 -1 4 -8.5t4 -16.5t5 -16.5t7 -7.5q1 0 2.5 -5t3 -10.5t3 -10.5t3.5 -5h2q4 -1 6 -11t4 -10q2 3 3 3q2 0 4 -4.5t4 -4.5l1 -1q2 -1 7 -4t10 -3q1 0 2 -0.5t2 -0.5q1 -1 4 -1q7 -1 15 0t18 8.5t22 23.5t27 46q-1 -5 6.5 13.5t17 46t18.5 58.5t10 51q1 8 0.5 13
t-2 10t-4 11.5t-6.5 18.5l-1 14l1 3q0 5 4 5l28 56q-1 0 7 11t18 24.5t18 25t7 11.5q2 0 10 4.5t15 3.5q1 -1 5 -1q3 -1 6.5 -0.5t5.5 -0.5q3 0 4 -1.5t2 -1.5q4 -1 13 5t11 5q4 0 5 -6t3 -7q1 0 2 1l1 1q2 0 2 -2q0 1 -1 1v-1q5 -1 7 -7.5t1 -10.5z" />
    <glyph glyph-name="V" unicode="V" horiz-adv-x="469" 
d="M512 684q-1 -1 -3.5 -8t-6 -16t-6.5 -18t-5 -13l-22 -66q-4 -6 -6 -9.5t-6.5 -14.5t-13 -35t-24.5 -71l-6 -27q-3 -16 -4.5 -22.5t-4.5 -18.5t-11 -37.5t-25 -79.5q-6 -15 -7 -19t-0.5 -5.5t-0.5 -6t-8.5 -21t-22.5 -50t-44 -93.5q-9 -28 -24.5 -37t-26.5 -9
q-6 0 -9.5 0.5l-7 1t-9 2t-15.5 3.5l-5 2q3 -1 -3.5 2t-16 10.5t-19.5 20.5t-14 33q-5 22 -7.5 33.5t-4 20.5t-3 18.5t-6.5 27.5q-1 10 -2 15.5t-2 13.5t-3 22.5t-6 44t-10 77t-16 121.5q0 2 -1.5 7t-3 11t-3 11t-1.5 8q0 14 6.5 16t12.5 2q-2 1 10 -4.5t28 -21t31.5 -44.5
t20.5 -75l8 -35q5 -20 6.5 -38t4.5 -35q-1 -1 -1 -2q3 -20 5 -35t4 -26q0 -5 0.5 -16.5t4.5 -28.5l8 -32q6 0 13 11.5t17 35t24.5 60.5t36.5 88l5 10q2 6 9.5 24t17 42t20.5 51t20.5 50.5t16.5 40.5t9 22q2 3 8 15.5t14 35.5q2 3 5.5 11t7.5 15.5t7.5 13.5t6.5 6l6 3
q8 4 13 6l20 8h3q3 0 13 3z" />
    <glyph glyph-name="W" unicode="W" horiz-adv-x="609" 
d="M702 627l-2 -4h-3l1 -5l-6 -6v-6l-8 -9l-2 -9l-8 -20l-11 -44l-5 -6l-18 -46l-12 -16l-7 -27l-35 -90l-9 -12l-7 -18l-10 -33l-13 -24l1 -4l-13 -38l-12 -13l-10 -16l-6 -17l-14 -25l-31 -70l-18 -28l-11 -25l-6 -2l-1 -7l-5 -5l-6 -13l-11 -9l4 -5l-8 -9h-7v-3l-15 -5
h-9l-3 4l-14 4l-6 11l-4 25l-16 63l-10 96l5 55v101l15 136l-4 16l-12 -18h-5l-7 -14l-14 -17l-20 -38l-14 -36l-10 -27l-18 -31l-3 -23l-5 -4l-2 -23l-6 -8l-15 -69l-8 -22l-3 -19l3 -5l-6 -9l2 -15v-35l-5 -22l-6 -12v-6v-16l-7 -13h-11l-13 -7l-11 -12l-20 -2l-5 3
l-30 18l-1 18l-19 56l-24 120l-1 18l3 17l-5 18v33v41l4 40l6 30l10 73l3 8l5 19l13 42l9 9l18 2l15 -4v-3l13 -4v-12l5 -58v-23l5 -23l14 -112v-80l10 45l14 34l28 52l10 15l15 34l21 31l22 39l17 16l1 3l21 21l17 6h32l23 -6l12 -33l3 -19v-15l-7 -96v-43l-2 -31l-9 -88
l3 -5l-5 -6l4 -8l-6 -61l4 -4l-2 -11v-29l10 15l36 75l43 103l13 25l13 17l7 24l15 24l2 10l9 16l15 34l5 4l66 108v16l35 49h3l4 12l7 9v3l27 30l6 -1v-3l4 8z" />
    <glyph glyph-name="X" unicode="X" horiz-adv-x="464" 
d="M176 545l17 -13l17 -27l23 -42l18 -41l15 -29l48 59l48 49l29 22l2 4l11 5l16 2l16 -1l5 -4l15 -24l5 -15l-2 -21l-3 -3l-8 -22l-13 -27l-12 -16l-1 -4l-8 -9l-41 -58l-6 -4l-30 -43l-2 -14l24 -48l34 -72l50 -92l17 -28l-1 -12l-8 -3h-6l-10 -10l-11 12l-143 163l-16 6
h-5l-54 -67l-44 -50l-18 -25l-15 -14l-20 -30l-3 -2l-24 -34l-12 -3h-8l-12 -6l-3 -4h-19l3 4l9 39l34 87l30 59l46 83l4 4l6 13l43 66v5l-17 33l-17 37l-23 75v39v35l9 12l8 2l10 -6l2 3l-1 5h2z" />
    <glyph glyph-name="Y" unicode="Y" horiz-adv-x="411" 
d="M491 637l14 7l1 -9l-14 -24l-6 -14l-20 -30l-7 -14l-143 -212l-5 -12l-17 -28l-7 -8l-9 -17v-3l-4 -3l-6 -10l-11 -19v-5l-12 -77l-4 -8l-8 -66l1 -9l-8 -49l-3 -6l-1 -12l-4 -14l-6 -15l1 -7l-4 -8l-11 -8l-36 -4l-24 8l-12 26l-6 30v69l4 49l7 32l14 73l3 27l-47 61
l-23 41l-19 29l-9 27l-4 45l8 15l19 18l9 -5l4 -5l6 7l22 -8l13 -13l33 -41l17 -25l32 -54l11 -25l13 15l16 30l20 28l3 2l7 12l55 67l64 73l27 26l29 26l17 8l11 9z" />
    <glyph glyph-name="Z" unicode="Z" horiz-adv-x="697" 
d="M454 566q37 0 54 -4q2 -2 11 -4.5t28 -16.5q2 -4 4 -5t3.5 -4.5t2.5 -11.5t1 -25l-3.5 -8t-10 -20.5t-15.5 -27.5t-20 -29l-9 -12q-4 -4 -10.5 -12t-17.5 -20l-13 -15q-16 -18 -60.5 -60.5t-126.5 -117.5q1 -1 1.5 -1t1.5 -1q3 1 11 3q1 -1 1.5 -1t1.5 -1q-1 -1 -1 -2
q1 -1 4 -1h12q2 -1 11.5 -3t13.5 -6q24 8 67 18q18 3 24 5t14.5 4t26 6t58.5 10l32 5q5 -1 17 0.5t32 1.5h17q6 -1 21.5 -0.5t26.5 -10.5q-1 -1 -1 -1.5t-1 -1.5l-2 -2q10 1 21 3t24 4q1 0 3.5 -2.5t4.5 -2.5l-31 -15q-2 -1 -4.5 -2t-6.5 -3q1 0 1 -1q0 -3 -22 -12q0 3 -1 3
q-4 0 -7 -6.5t-7.5 -15t-11 -15t-17.5 -6.5q-6 -3 -8.5 -3.5t-6.5 -1.5t-12 -3.5t-25 -7.5l-5 -5q-7 -2 -14.5 -4.5t-29.5 -7.5l-99 -36q-9 -6 -27.5 -13.5t-61.5 -18.5q-11 -7 -45 -18.5t-97 -26.5l-13 -4q-24 -3 -30 -3t-28 5l-24 6q-15 7 -25.5 17t-18.5 21l-7 15
q0 5 4.5 14.5t18.5 30.5q12 11 15 14t4 4.5t3.5 4l13.5 13.5t34 33.5t65 62.5l63 60q8 6 18.5 17t33.5 35q13 12 20.5 17.5t16 13t21 21t35.5 39.5q7 5 13 11t11 15h-1q-6 0 -10 1.5l-8 3t-9.5 2.5t-15.5 1q-14 0 -34.5 -7t-58.5 -17q-10 -4 -13 -5.5t-11 -4t-27 -5.5
t-60 -10h-13q-6 2 -16 5.5t-28 21.5h1l-4 4q1 3 1 11l-3 21l-2 10v-2l20 10q0 1 3.5 4t8 6t8.5 5.5t6 2.5q4 1 33 9.5t102 31.5q3 0 4 -1q9 5 83 20l78 8v0z" />
    <glyph glyph-name="bracketleft" unicode="[" horiz-adv-x="361" 
d="M410 630q-4 -5 -11 -8t-4 -7v-1l-3 -3q-7 -24 -31 -43q-5 -4 -11 -8t-12 -9q-6 -2 -16 -9q-8 -3 -16.5 -7.5t-18.5 -9.5q-12 -24 -24 -42q-23 -54 -41 -96.5t-29 -75.5l-4 -4q-1 -3 -1 -6.5t-1 -8.5q-2 -5 -5 -10.5t-6 -12.5q-14 -41 -24 -76t-17 -65q-3 -13 -5 -30
t-3 -40q0 -6 4 -14t13 -12q3 -2 9 -5.5t16 -8.5q14 -6 14 -8q6 -3 18.5 -12.5t25.5 -21.5l3 -6q-1 -2 -1 -6v-3q-3 -3 -3 -10v-5q-3 -6 -3 -14l-5 -27l-3 -3q-39 -4 -75 16q-11 7 -26 19.5t-32 31.5q-14 24 -17 55q-1 7 -1 15v19q0 7 2.5 22t2.5 21q1 17 9 53t22 91
q13 48 23.5 83.5t19.5 58.5q13 33 27 67.5t30 71.5q-1 2 0 6l-4 8q0 15 14 38q2 7 9 17l8 8q7 5 16 12t20 17q5 7 12 14.5t17 16.5q3 2 9 3h6q4 0 7 1q11 9 29 9q19 0 23 -4q5 -2 9.5 -5t9.5 -6l24 -24q1 -1 1 -7z" />
    <glyph glyph-name="backslash" unicode="\" horiz-adv-x="409" 
d="M141 684l20 -15l20 -28l40 -72l39 -78l46 -118l33 -103l25 -97l12 -74l9 -87l-1 -61l1 -29l-5 -17l-11 -5l-9 -1l-11 17h-3l-5 11l-5 29l-8 21l-14 66l-4 13l-9 7l-7 29l-4 8l-6 26l-4 13l-13 43l-8 10l-2 20l-4 16l-4 3l-10 32h-3l-13 43l-46 123l-36 77l-23 54l-19 49
l-9 32l2 12v12l4 12l20 15h13z" />
    <glyph glyph-name="bracketright" unicode="]" horiz-adv-x="359" 
d="M201 673q2 3 5 6l32 8h22q10 2 25 -9t18 -21q2 -2 3 -2.5t2 -1.5l6 -3q4 -4 6 -8q4 -12 6.5 -22.5t3.5 -18.5q5 -14 9 -24.5t7 -18.5l3 -11q1 -7 0.5 -11.5t-1.5 -7.5q2 -26 -6 -40l-8 -5q-1 -3 -3 -5q-4 -40 -9 -77t-11 -72q-4 -25 -12.5 -60.5t-21.5 -83.5
q-28 -109 -45 -141q-6 -13 -10.5 -22.5t-6.5 -16.5q-5 -10 -9.5 -17t-8.5 -12q-19 -29 -42 -39q-51 -16 -81 -16q-35 0 -68 24l-1 4l9 26q2 4 3 7t2 7l2 4q4 6 3 10l1 3q2 2 3.5 4.5t4.5 4.5q16 4 34 6q7 1 12 1.5t9 0.5q8 1 16 0.5t16 -1.5q2 2 13 0q10 -1 17 3.5t10 10.5
q11 20 17.5 36.5t10.5 28.5q19 61 35 142q1 8 1.5 14.5t0.5 11.5q4 7 6 14l-1 5q7 34 13 80t12 104v49q-5 10 -11 17.5t-11 14.5q-2 5 -4.5 8.5t-4.5 7.5q-3 7 -6 13t-5 13q-9 23 -9 31l3 21l-1 5q2 4 2 5q1 1 -3.5 7.5t-3.5 8.5z" />
    <glyph glyph-name="asciicircum" unicode="^" horiz-adv-x="765" 
d="M335 321l23 -5l14 -7l9 -15l10 -24l-1 -11l-3 -15l-7 -11l-3 -3l-33 -48l-74 -81l-9 -8l-9 -6l-19 -18l-3 -10l89 33l65 18l83 13l76 4l75 -5l41 -5l78 -15l51 -14l52 -13l9 -12l1 -8l-20 -6l-4 -2l-13 -3l-29 7l-24 2l-34 -1l-14 4l-4 -6l-68 6l-8 -4l-51 3l-18 -5
l-23 -1l-10 -3h-12l-32 -6l-25 -2l-34 -9l-16 -5l-34 -11l-12 -3l-42 -17l-76 -27l-66 -27l-44 -17l-37 -9l-21 1l-13 -3l-11 5l-1 11l-4 3l-3 10l3 14l9 23l25 24l231 248l-66 -9l-76 -16l-92 -28l-24 -3l-8 9l-9 -2l-10 10l-3 8l1 19l12 19l13 7l12 6l10 10l12 1l98 29
l72 12l29 2z" />
    <glyph glyph-name="underscore" unicode="_" horiz-adv-x="500" 
d="M500 -134v-93h-500v93h500z" />
    <glyph glyph-name="grave" unicode="`" horiz-adv-x="337" 
d="M287 570q-1 -7 -2 -8l-2 -2h-3l-3 -3h-2q-4 -3 -13 -3q-12 0 -27 7q-2 1 -8 3t-16 7q-11 5 -23.5 12t-25.5 17q-40 30 -45 33q-5 4 -10 8.5t-12 9.5q-3 4 -7 8.5t-9 9.5q-1 1 -9 17q-7 11 -7 22l1 1q1 16 10 16q27 0 21 2q5 0 9 -1l6 -2q4 -2 7 -3q1 -1 1.5 -1t1.5 -1
l5 -2q3 -2 5 -5q13 -11 32.5 -28t45.5 -40q11 -10 21 -19t20 -19q38 -35 38 -36z" />
    <glyph glyph-name="a" unicode="a" 
d="M429 299q0 -2 -4 -10t-4 -12q-1 -5 -1.5 -13t-2.5 -19q-6 -6 -12 -21t-12 -34.5t-12.5 -41.5t-14.5 -41q-10 -22 -19 -81l-13 -83q-1 -5 -1 -16v-11t2 -13q-4 7 -21 24q-16 16 -20 29t-4 38q0 22 2 36.5t5 22.5q-4 6 -9 6q-4 0 -9 -4t-14.5 -13t-25 -23t-39.5 -35
q-3 -8 -8 -14.5t-15.5 -14t-27 -16.5t-42.5 -22q-20 -23 -41 -23q-1 0 -6 2.5t-11.5 7.5t-12.5 12t-9 17q-4 14 -10.5 24t-12.5 19t-10 19t-4 24q0 17 10 53q11 4 28 21q2 9 4 15.5t8 16.5t17.5 28t32.5 51q9 6 13 12.5t9 14.5t12 17.5t22 22.5q42 56 74.5 89.5t58.5 33.5
q16 0 41 -25q9 0 13 -2t9.5 -6t14.5 -9t28 -10l6.5 -3t15 -8.5t15.5 -13.5t7 -18zM316 283q-1 0 -4.5 -1.5t-4.5 -1.5q3 -3 6 -4q1 1 3 7zM300 264q0 12 -10 12q-8 0 -31 -20q-9 -5 -19 -14.5t-25 -25.5t-35.5 -39.5t-50.5 -58.5q-3 -4 -13.5 -20t-22 -34t-20.5 -34.5
t-9 -22.5q0 -8 7 -8q6 0 14 6.5t19 17t24.5 23t29.5 25.5q3 5 7 9l11.5 11.5t20 19.5t32.5 32q0 4 5.5 14.5t13.5 22.5t17 23t15 16q18 45 20 45z" />
    <glyph glyph-name="b" unicode="b" horiz-adv-x="413" 
d="M421 173q-2 0 -6 -1t-6 -1q0 7 9 7q3 -3 3 -5zM439 234q0 -11 -2 -14.5t-16 -7.5q5 -5 5 -12q0 1 -3 4v-11q0 -4 -3 -4q-2 1 -6 1l3 3l-1 -1q-1 -1 -3 -2l-11 -8q6 2 14 2q-6 -2 -9 -10.5t-5 -8.5q-1 0 -1.5 1t-1.5 1v-1q0 -1 -0.5 -1.5t-0.5 -1.5h8q0 -1 -1 -1
q4 -1 4 -6q0 -2 -2 -4q0 1 -3 4l-7 -12l-3 5l4 4l-7 -2q0 -2 2 -5t2 -5q0 -1 -2 -3q1 0 1 -2q0 -4 -6 -10t-6 -10q-1 0 -8.5 -7.5t-19 -19.5t-26 -26.5l-29.5 -29.5q-24 -14 -48 -35q1 -3 1 -14q-4 -2 -18.5 -12t-40.5 -28q-8 -4 -23 -13.5t-36 -12.5q-2 -2 -8.5 -6
t-11.5 -4q-3 0 -7.5 0.5t-11.5 1.5l-23 3l-3.5 4t-8 9t-9.5 9.5t-9 4.5q-5 12 -15 26q4 0 14 -5t15 -5t10.5 4.5t11.5 4.5q48 0 100 40q12 9 35.5 29.5t49.5 54.5q14 13 32 30.5t34.5 37.5t29.5 42t17 43q7 7 7 8q0 2 -2 8l-4 9q-2 2 -6 2l2 4q2 4 2 5v2q-1 0 -1.5 -1.5
t-1.5 -1.5q1 0 -0.5 1.5t-3.5 1.5q-3 0 -5 -1l5 -3q-1 0 -1 -1q0 -3 1 -4q-2 0 -7 -1.5t-8 -1.5t-10 3t-10 3q-18 0 -37.5 -5t-47.5 -16q-32 -23 -49.5 -31t-29 -15.5t-21 -23t-24.5 -53.5l1 -2q0 -2 -0.5 -3.5l-1.5 -4.5q-24 -35 -45.5 -61t-38.5 -58q1 -2 1 -11
q-10 -15 -18 -15q-11 0 -41 24q2 5 3 5q-13 10 -13 19v27q0 8 8.5 23t18 30.5t18 29t8.5 18.5q0 36 3 43l6 6q1 12 19 41q13 21 23.5 57.5t18.5 73.5t13.5 67.5t8.5 39.5q0 2 4.5 6t4.5 9q0 4 -3 7q1 3 5.5 11.5t4.5 13.5q0 4 -3 8q1 2 9 11t8 14q0 2 -2 6q14 10 27.5 30.5
t32.5 58.5v16q1 9 6.5 26.5t16.5 43.5l-2 -238q0 -2 -3.5 -6t-3.5 -7v-10q0 -12 -2.5 -34t-6 -47t-8 -49t-8.5 -38q-1 -3 -6.5 -14.5t-5.5 -14.5q0 -8 9 -14q82 73 152 73q21 0 32 -2.5t19.5 -11t16.5 -25t21 -43.5l1 -10q2 -2 4.5 -2.5t2.5 -12.5zM350 286q-2 1 -5 1
q-5 0 -5 -6q2 0 10 5z" />
    <glyph glyph-name="c" unicode="c" horiz-adv-x="331" 
d="M350 50q-5 -4 -20 -14.5t-39 -28.5q-13 -10 -37.5 -24.5t-50.5 -28t-49 -23t-34 -9.5q-9 0 -16.5 0.5t-14 5t-14.5 15t-19 29.5q-9 10 -21.5 26t-23 38t-16.5 50t-2 63q2 17 4.5 31t6.5 25q0 1 12.5 12t18.5 33q13 11 22.5 29t11.5 43q6 5 8 4.5t7 4t16.5 21t37.5 56.5
q27 2 33.5 4t11.5 10q18 -8 44.5 -26t58.5 -55l-2 -17q-3 0 -10.5 -2t-11.5 -2q-5 0 -16 4.5t-16 4.5q-40 0 -97 -114q-49 -96 -52 -129q-3 -28 -2.5 -46.5t6.5 -29.5t19.5 -15.5t35.5 -4.5q20 0 43.5 7t47.5 17.5t47 23t40 24.5q3 3 9.5 7t14 11.5t15.5 20t15 30.5l10 -46
l-18 -30z" />
    <glyph glyph-name="d" unicode="d" horiz-adv-x="507" 
d="M558 505q-2 -16 -3.5 -27.5t-7 -28.5t-17 -43.5t-33.5 -71.5q-24 -51 -38 -77.5t-24 -42t-18.5 -28t-21.5 -36.5q-4 -27 -12 -49t-8 -25q0 -51 50 -51q4 0 11 1t11 1q11 0 16 -4q9 0 17 7q0 -10 4 -27q-4 2 -7 4q0 -3 -3 -8q-25 -10 -38.5 -14t-21 -5t-12.5 0t-14 1
q-12 0 -19.5 5t-14.5 17t-16 32.5t-24 52.5q-1 1 -5 1q-5 0 -10 -5q-32 -29 -70 -63.5t-89 -62.5q-3 -1 -4 -0.5t-3.5 -0.5t-6.5 -5t-12 -14h-5h-12.5t-20.5 2.5t-21.5 9t-15.5 18.5l-15 21t-10 31q0 42 23 62q3 25 22.5 55t38.5 54q3 2 5.5 2.5t6.5 3.5t9 11t13 24
q10 4 15 9t11 12.5t15.5 19t27.5 28.5q17 9 42 36q-4 0 -4 1q0 2 8.5 4.5t18.5 5t19 4.5l9 2q12 0 39 -7q7 -7 16.5 -10.5t38.5 -10.5q8 20 11.5 27t8 17.5t13.5 32t28 70.5q2 7 4.5 18.5t6.5 22.5t9.5 19t12.5 8q3 0 12 -4t12 -4q4 0 6 2q6 -11 21.5 -20.5t23.5 -9.5h1v0z
M359 282q-10 5 -11 5q-7 0 -16 -6l-12 -8q-21 -9 -99 -77q-11 -11 -15.5 -18.5t-14.5 -13.5q-32 -32 -55.5 -61t-38.5 -51.5t-22.5 -37.5t-7.5 -19q0 -3 2.5 -6t2.5 -4h6q19 8 29 11t16.5 5.5t12 5.5t15 10.5t26 20.5t45.5 35q5 6 12 15l15 10q3 6 10 13q7 3 12 7.5t10.5 11
t13.5 16.5t20 23q6 3 10.5 7.5t8.5 12.5t7.5 21t6.5 34q1 4 6 17t5 14v7z" />
    <glyph glyph-name="e" unicode="e" horiz-adv-x="423" 
d="M399 297q0 -30 -12 -52t-30 -37t-40 -24t-41 -14t-33.5 -6.5t-18.5 -1.5q-75 0 -98 18q-38 -62 -38 -95q0 -8 14 -28q7 -9 11.5 -14.5t9.5 -8t13 -3.5t21 -3q4 -2 13.5 -8.5t31.5 -6.5q34 0 94 28q17 8 32 17t26.5 17t19.5 13.5t10 5.5q3 0 7 -2q-2 -15 -9 -34
q-2 -2 -17.5 -20t-42 -38.5t-63.5 -37.5t-81 -17q-16 0 -34.5 10t-36.5 25t-33.5 32t-26.5 30q-12 16 -20.5 35.5t-13 39t-6.5 36t-2 26.5q5 10 13 44q0 4 2 5.5t5 4.5t7 9.5t7 20.5q7 4 9 8.5t4.5 10t7 12.5t16.5 17l18 15q8 10 20 23.5t29 30.5l31 17q16 7 19 23h8
q3 0 10.5 -7t11.5 -8q34 -5 51.5 -8t18.5 -3q17 -4 35.5 -14.5t34 -24t26 -29t10.5 -29.5zM271 312q-12 12 -18 12l-29 -18q-19 -11 -32 -23t-23.5 -24.5t-20 -27t-21.5 -29.5q20 -6 21 -6q10 0 50 25q25 16 38.5 29t20 24t9 20t5.5 18z" />
    <glyph glyph-name="f" unicode="f" horiz-adv-x="422" 
d="M281 253q-6 -2 -7 -2q0 9 4 10q3 -1 3 -8zM522 629q2 -6 8 -6h2q-12 -24 -47 -45q4 4 4 8q0 9 -16 22q-30 -13 -30 -31l-6 -8.5t-13.5 -19t-14 -20t-6.5 -10.5q0 -2 1.5 -3.5t1.5 -2.5q-10 -10 -13.5 -13t-13.5 -13q2 -2 2 -5q0 -4 -0.5 -8.5t-4.5 -11.5q-4 -1 -7 -1.5
t-6 -3t-8 -8t-13 -14.5q7 -4 15 -4q-4 -4 -7 -7.5t-6.5 -9t-9.5 -14.5t-17 -25l10 -5v-7q-7 -3 -20 -10q1 -2 1 -9q-1 -1 -2.5 -2t-3.5 -3q2 -2 2 -6q0 -6 -7.5 -15.5t-17.5 -20.5q2 -4 2 -9q0 -1 -5.5 -8t-12 -16t-12 -17t-5.5 -11q0 -2 9 -8q8 2 12 8q1 -1 3 -2q3 -1 3 -3
q0 -3 -4 -6l4 -3q4 2 9 4t13 5q2 6 7 10t10.5 6.5t10 5.5t5.5 7q-1 0 6.5 5t16.5 12t17 16t8 16q0 2 -3 5q11 -10 16.5 -15.5t8 -10.5t3 -10t0.5 -13q0 -10 -2 -18q1 3 -3.5 -3.5t-12.5 -18.5l-18 -27t-20.5 -28.5t-20 -23t-15.5 -10.5q0 10 5 10q-8 3 -9.5 8t-1.5 10
t-1.5 9t-9.5 4q-7 0 -49 -24q-24 -13 -34 -20t-13 -13t-3.5 -13t-6.5 -21q-7 -4 -9.5 -12t-5 -19t-7.5 -23t-18 -23q1 -1 1 -4q0 -5 -10 -21q4 -1 8.5 -3t11.5 -5v-5q-18 -3 -29.5 -21t-20 -44t-15 -56.5t-12.5 -59.5q-30 -18 -45 -65q-4 -2 -7 -2q-13 0 -13 7q0 4 3.5 20.5
t7 36t7 38.5t3.5 28q0 89 -24 166q-1 6 -41 24q-4 8 -12.5 13t-31.5 21q1 13 22 49q7 -9 16 -9q3 0 11.5 2.5t12.5 2.5q3 0 3 -1t3 -1q5 0 21 6.5t28 10.5q5 2 18 4t29 5.5t32 9.5t26 15v3q0 8 1 13q14 26 20 42t6 25q14 5 17.5 27t10.5 52q4 3 15.5 13t11.5 20q0 6 -1 10.5
t-1 6.5q7 5 12 12q5 6 8.5 13.5t3.5 16.5q0 3 -2 6.5t-5 4.5q7 7 13 15.5t12 20.5t13.5 28.5l17.5 38.5q17 6 17 20q0 4 -1 7q15 23 34.5 57.5t43.5 82.5q4 2 10.5 6.5t15.5 9.5q26 -17 32 -17h3q0 1 3 1h-1q0 -2 17.5 -8t55.5 -15zM142 -61l-3 6l3 1l3 -7h-3zM344 185
q-24 -19 -24 -28q0 -2 1 -3q4 5 9.5 13t13.5 18zM263 217q0 4 -3 7l-4 -4t-5 -4q3 0 6 1h6v0zM105 85q-17 -3 -33 -15.5t-16 -27.5q0 -4 1 -5q-4 -6 -6 -6v4l0.5 -6.5t1 -15.5t0.5 -18v-13t-1.5 -5.5t-3.5 -4t-3.5 -8t-1.5 -15.5q0 -23 10 -33q7 5 12 19t13 35v19
q0 11 10 18q-2 4 -2 6q0 4 2.5 8.5t6.5 12.5t9 20t10 31h-9z" />
    <glyph glyph-name="g" unicode="g" horiz-adv-x="481" 
d="M384 396l1 -1q-1 0 -1 1zM483 45l-16 -18l-2 -1l-2 -4l-11 -10l-9 -8l-1 -3l-19 -16l-14 -11l-12 -8l-17 -12l-10 -6l-27 -16l-6 -2l-17 -10l-25 -14l-5 -4h-2q-10 -28 -13 -42.5t-8 -21.5q1 -2 -0.5 -9t-4 -15.5t-5 -16t-2.5 -8.5q0 -5 -4.5 -13.5t-5.5 -11.5
q1 -6 -1 -13q-1 -3 -2 -5q-2 -2 -7.5 -10.5t-11.5 -18.5t-11.5 -20.5t-8.5 -17.5q-2 -1 -6.5 -7.5t-10 -14.5t-10 -15t-5.5 -7q-15 -30 -29.5 -52t-30 -41t-33 -37t-40.5 -41q-10 -3 -21.5 -11t-22.5 -16t-21.5 -14t-17.5 -6q-29 0 -42 8q-1 5 -1.5 11.5t-0.5 12.5
q0 27 7 55v4q0 13 6 36q107 191 197 283q7 15 18 27t22 23t20 22.5t11 23.5q1 0 1 0.5t1 0.5q-1 8 -0.5 18t2.5 21q0 2 2.5 7l5.5 11t5 10.5t2 6.5q0 6 -7 13q-11 -3 -35 -24q-38 -35 -65 -45.5t-55 -10.5h-31t-24 7t-21.5 24.5t-23.5 51.5l-7 7q0 4 8 8q0 1 -6 7.5t-6 9.5
t8 7t8 7q0 1 -3 1q-4 0 -5 -1t-2 -1q2 4 4.5 8.5t4.5 9.5q6 -7 10 -7q1 1 1 9q6 -5 5 -2t2 3q1 1 -1 -1.5t7 2.5l-4 5q-4 2 -3.5 3t1.5 2t1.5 1t-3.5 0v15l3 -2q6 -2 7 -2q8 0 8 -1l2 4q0 2 2 4t-2 2q-1 0 2 1.5t2 1.5q0 3 1 9t1 9q6 0 9.5 8t4.5 10q0 1 1.5 3t0.5 4v8
q6 2 6.5 6.5t2.5 9.5q4 14 17 26.5t37 33.5q5 8 12 14.5t14 12t12 11t6 11.5q9 4 26 19q-1 3 -1 10q15 12 31 24.5t31.5 23.5t31 18.5t28.5 9.5q2 1 11 7.5t13 6.5h47q14 0 25.5 -4.5t22.5 -9.5q-2 -1 -12.5 -10t-20.5 -9q-3 0 -4.5 1t-3.5 1q-23 0 -43 -10.5t-40 -28.5
t-42.5 -43t-49.5 -54q-10 -13 -40.5 -55.5t-89.5 -130.5q-3 -9 -6.5 -23t-8.5 -33q2 -2 2 -3q0 -2 -2 -5.5t-2 -4.5q3 0 5 7t3 7t11 -14q4 0 4 2q-1 1 -1 2t-1 2h8q18 0 31.5 2t30.5 9.5t41.5 22.5t64.5 41q17 8 24 16t12.5 20.5t12.5 30t23 42.5q15 33 24.5 48.5t17.5 24.5
t15.5 17.5t17.5 27.5q-1 2 -1 11q2 9 22 23q8 -6 18.5 -12.5t23.5 -14.5q-6 -4 -6 -8q0 -7 5 -12t5 -9q0 -5 -7 -23q-4 -13 -6.5 -21.5t-5 -15.5t-7 -14t-12.5 -18q-18 -24 -23 -35.5t-7 -21t-4.5 -22t-16.5 -37.5q-2 -5 -5 -17t-14 -41h1q-1 0 -1 -1q-4 -10 -9 -22t-11 -27
l5 2l43 20l14 8l9 3l7 6l8 3l7 4l29 15l13 8l14 10l4 1l19 11l6 2zM137 -280q1 2 10.5 24.5t20.5 49.5q13 32 31 71q-5 -1 -22.5 -19t-37 -40t-35 -42t-17.5 -26q-9 -1 -16.5 -8t-15 -21.5t-16 -36.5t-20.5 -52q-25 -37 -35 -58t-10 -26q5 -32 18 -32q1 0 10.5 10t21.5 23.5
t22.5 26t13.5 17.5q6 8 18.5 29.5t25 45t22.5 42.5t11 22z" />
    <glyph glyph-name="h" unicode="h" horiz-adv-x="517" 
d="M558 41q-2 -5 -3.5 -13.5t-7 -17.5t-17 -17t-33.5 -11q-8 -3 -14 -5t-11 -4t-8 -3q-27 0 -47.5 11t-34 26.5t-20 30.5t-6.5 22q0 5 4 11q-1 16 -3 31q-2 13 -3.5 27.5t-3.5 26.5v2q0 1 -4 1q-6 0 -9 -4.5t-4.5 -10.5t-2 -11t-1.5 -7q-2 2 -4 3.5l-6 4.5q-5 -5 -11.5 -18
t-13.5 -29t-14.5 -32.5t-13.5 -28.5q-6 -16 -9.5 -24.5t-8 -16t-11.5 -18.5t-19 -34h-13q-3 0 -13 8t-21 18.5t-19.5 20.5t-9.5 14v22q-2 2 -4 3.5t-6 2.5q-6 14 -12.5 42.5t-6.5 51.5v13q-1 1 -6 1l-37 -23q-2 1 -3.5 2l-4.5 3q-4 -1 -5 -6t-13 -19q-1 1 -6 1q-10 0 -22 -9
t-36 -31q-5 3 -8.5 6.5l-8.5 8.5q1 14 10 26t25.5 27t39.5 34.5t52 47.5q12 8 23 17.5t35 38.5q0 2 -1 5t-1 5q0 11 3.5 19t10.5 22q-2 4 -4 17l19 74q7 23 14.5 41t15.5 34q1 1 1 6q0 6 -1.5 15.5t-1.5 11.5q0 9 18 34l3.5 10.5t5.5 10.5t10 14t17 20q-1 4 -1 17
q2 11 18 41t45 80q14 10 28 22.5t43 25.5q6 0 10 -9h10l16 12l14 -8q14 21 20 21q1 0 8 -4t15 -8.5t15 -8.5l7 -4q4 0 4 1t3 1q8 0 15 -8t12.5 -20.5t9 -27t3.5 -27.5q-15 -26 -36.5 -61t-49.5 -82q-5 -2 -10.5 -5.5t-13.5 -8.5q-1 -3 -1.5 -5.5t-2.5 -5.5t-7.5 -6t-16.5 -8
q0 -3 5.5 -6.5t5.5 -4.5q-3 -1 -6 -1q-4 0 -5 1q-13 -8 -13 -22q0 -6 1 -9q-8 0 -21 -9t-13 -18q0 -2 1 -3t2 -3h-22q-1 -6 -2 -10t-4 -9.5t-8.5 -14t-16.5 -22.5q-3 -8 -20 -32.5t-37 -53.5t-36.5 -58t-19.5 -47l-18 -120q0 -2 -0.5 -6.5t-0.5 -12.5q0 -4 -1 -13t0.5 -18.5
t6 -16.5t14.5 -7q11 0 16 13.5t12 37t19 54.5t37 66q14 9 19 19.5t12 25t19.5 33.5t39.5 45q4 11 17.5 20.5t23.5 9.5q2 0 11 -3t19 -7t19 -7.5t10 -5.5q-7 -40 -15.5 -77t-16 -67.5t-12.5 -52.5t-5 -31q0 -18 7 -27t26 -9q11 0 26 4q3 5 9.5 12.5t15 15.5l17 16t15.5 14
q3 -11 5.5 -23t5.5 -26zM430 670q-17 -3 -34 -16q-5 -8 -20.5 -25t-33 -35.5t-32.5 -36t-20 -26.5q2 -3 2 -6q0 -1 -17 -46t-49 -140q17 20 57.5 72.5t88.5 139.5q14 8 23.5 25.5t16.5 36t11.5 35t6.5 22.5z" />
    <glyph glyph-name="i" unicode="i" horiz-adv-x="254" 
d="M318 453q0 -3 -6.5 -14t-7.5 -15q-35 -32 -48 -32q-7 0 -15 11.5t-15 27.5t-11.5 32t-4.5 26q0 7 2 18.5t5 22t7.5 18.5t9.5 8t16 -9t23 -21t21 -23t10 -15q1 -5 7.5 -17.5t6.5 -17.5zM197 218q0 -15 -2.5 -25t-8.5 -20t-15 -22t-21 -32q-6 -25 -8.5 -37.5t-8.5 -28
t-19 -41.5t-40 -78q-11 0 -21 10t-18 24.5t-13.5 32t-7.5 32.5q-1 5 -3.5 7t-5.5 5.5t-5 9t-2 16.5q0 9 3 14t7 10.5t8.5 13t7.5 22.5q5 16 8 25t8.5 17.5t14.5 18t27 27.5q8 8 9 22q31 20 40 20q2 0 15.5 -6.5t50.5 -27.5v-9z" />
    <glyph glyph-name="j" unicode="j" horiz-adv-x="272" 
d="M295 439q-18 -7 -30 -7q-2 0 -11.5 7.5t-21.5 18t-23 21t-16 17.5q0 11 -13 28q8 8 14 8q39 0 48 -3q6 -2 14.5 -10.5t16.5 -18.5t13.5 -20t5.5 -16q0 -1 -0.5 -1.5t-0.5 -1.5q4 -9 4 -12v-10v0zM220 339l-8 -30q1 -7 1 -13v-13q-1 -13 -4 -33.5t-8 -44.5t-11.5 -49.5
t-13.5 -46.5q-6 -17 -16 -47t-34 -78q-2 -5 -2 -9.5t-3 -15.5t-11.5 -32t-27.5 -60q0 -11 -8 -30t-20 -48v-18t-19 -23q1 -5 1.5 -9.5t0.5 -8.5q0 -8 -7 -17t-14 -23h1v-11q0 -9 -4 -9l-1.5 4t-3.5 9.5t-3.5 9.5l-1.5 4q-1 0 -1 -4v-10q8 2 11 2v-8q-3 -2 -7.5 -8t-9.5 -13
t-9.5 -13t-7.5 -7q8 -14 8 -20l-9 -18q-3 -7 -5.5 -13t-2.5 -8h-9q-20 0 -39 10.5t-19 31.5q0 8 1 9q4 7 6.5 17.5t3.5 21t1.5 19t0.5 11.5q3 6 5.5 10.5t6 12t8 20.5t11.5 35q3 11 5.5 21t6.5 22t11.5 28.5t19.5 40.5q0 6 2 11.5t5 13t7.5 19t8.5 30.5q4 6 6 11t5 14.5
t9.5 26t18.5 45.5q3 3 11 3t8 8q0 2 -5.5 8t-5.5 9q0 2 2 7t4.5 11t4.5 11.5t2 6.5q0 8 -11 8q-5 0 -28 -23l-24 -24q-24 -18 -75 -41q-2 0 -2 5q0 3 4 8.5t4 7.5t-4 5.5t-4 6.5q0 8 15 23l18 14l-2 4q1 2 6 7.5l15 16.5t26 28.5t41 43.5q2 0 11.5 10.5t21.5 26t24.5 35
t19.5 38.5q3 26 20 29.5t40 3.5q5 -2 31 -17v1z" />
    <glyph glyph-name="k" unicode="k" horiz-adv-x="419" 
d="M282 588l13 -13l2 -31l-10 -29l-10 -17l-9 -25l-15 -27l-24 -58l-11 -22l-18 -46l-8 -20l48 25l44 15h19l26 -15l5 -14l-3 -28l-10 -14l-2 -8l-25 -18l-44 -31l-24 -12l-20 -15l-51 -27l163 -97l53 -37l5 -6l16 -12l53 -38l13 -18l1 -8l-6 -2l5 -6v-7l-13 5l-8 -1l-11 6
l-15 3l-46 20l-160 77l-84 53l-3 -8l-23 -68l-1 -13l-3 -4v-21l-5 -23l-4 -2v-9l-22 -7v-9l-13 -7l-6 3l-15 2l-3 10l-13 13l-2 14l5 13l11 53l4 8l3 16l10 36l6 26l16 46l5 28l11 25l3 13l9 23l17 50l3 3l49 113l42 77l45 68l16 18l14 11h5z" />
    <glyph glyph-name="l" unicode="l" horiz-adv-x="324" 
d="M423 647q1 -5 1.5 -11t0.5 -12q0 -27 -7 -55v-5q0 -12 -6 -36q-107 -191 -197 -283q-7 -15 -18 -27t-22 -23t-20 -22t-11 -23q-1 -1 -4.5 -6t-7.5 -12t-7.5 -14t-3.5 -13q-1 -4 2 -10.5t8 -17.5l10 -24q0 -34 70 -34q5 0 16.5 4t24.5 8.5t24.5 8t15.5 3.5q27 0 33 -30
q0 -6 -1 -8l-1 -4q-13 10 -32 10q-8 0 -67 -15q-41 -19 -81 -19q-15 0 -30 1t-28 6t-24.5 16t-19.5 30q-7 14 -15.5 17.5t-15.5 3t-11.5 -2.5t-4.5 1q0 1 9 1q-5 0 -14.5 -4.5t-20 -10t-20 -10.5t-13.5 -7h-14q-17 0 -22 14q12 7 31.5 18.5t47.5 25.5v-1q8 12 36 35
q17 15 27 26.5t18.5 27t17 38.5t22.5 61l7 13q6 9 6 15q0 4 -3 8q12 24 33 68t48 93.5t59 99t65 83.5q38 13 67 13q30 0 42 -9zM362 537q-5 32 -18 32q-1 0 -10.5 -10.5t-21.5 -23.5t-22.5 -25.5t-13.5 -17.5q-6 -9 -18.5 -30.5t-25 -44.5t-22.5 -42t-11 -22q0 -1 -5 -12.5
t-11.5 -27.5t-14.5 -34.5t-15 -34.5t-11.5 -26.5l-4.5 -10.5q5 2 22.5 20t37 40t35 42t17.5 26q9 1 16.5 8t15 21t16 36t20.5 53q25 37 35 58t10 26z" />
    <glyph glyph-name="m" unicode="m" horiz-adv-x="673" 
d="M659 247q0 -4 -1 -7q-10 -12 -24.5 -39.5t-28 -58t-22.5 -58t-9 -40.5q0 -18 27 -26v-11q-1 0 -6 -5.5t-11 -12t-11 -11.5t-6 -5q-7 0 -12.5 8t-14 21t-21 30t-34.5 35q-28 -21 -48 -37t-33.5 -26.5t-22.5 -16t-16 -5.5q-5 0 -17.5 14.5t-28.5 46.5q2 -1 -5 6.5t-16 19.5
t-17 25t-9 23q3 23 3 69l-5 5q-9 -10 -18.5 -21t-17.5 -24l-49 -82q-14 -18 -24.5 -34t-24.5 -33t-34.5 -37.5t-55.5 -47.5q-10 1 -13 25t-8.5 36t-10.5 18t-8.5 10t-3.5 11t31 138q6 6 13 16q18 52 38 103t37 88q-1 -1 3 7t11 19t15 20t15 9q6 0 14 -4t15 -10.5t12 -14
t5 -13.5q0 -4 -10 -25q-6 -12 -11 -27.5t-11.5 -37t-16.5 -51t-27 -70.5v-8v-1h1q1 0 1.5 -0.5t2.5 -0.5q14 0 25 14q8 15 11.5 22.5t7.5 14t10.5 15t19.5 24t36 42t59 69.5q14 0 25.5 10t21.5 10l11.5 -3t25 -10.5t25 -19.5t11.5 -31v-5l-55 -192q0 -12 11 -12
q4 0 19.5 14.5t33.5 33.5t34 37.5t20 25.5l4 12t10 25.5t13 25t13 11.5q4 0 4 -1.5t4 -1.5q2 0 7 2t11 4t11.5 4t8.5 2l12.5 -4.5t27.5 -11t28 -14.5t13 -14z" />
    <glyph glyph-name="n" unicode="n" horiz-adv-x="417" 
d="M331 27l6 -22l22 -54l6 -10l-8 -2l-7 -6l-6 7l-10 1v-4l-3 -1l-23 6l-36 42l-21 67l2 5l-2 13v52l-5 3l8 19l-1 8l3 3v29l5 34l3 28l-5 12l-9 8l-17 2l-22 -5l-12 -33l-8 -12l-9 -28l-6 -10l-5 -18l-15 -33l-23 -53l-1 -8l-10 -22v-7l-5 -8l-11 -29l-10 -15l-9 -3v-5
l-10 2h-19l-8 11l-10 6l-11 15l-7 2l-2 13l5 10l8 40l17 53l19 66l14 61l36 101l17 8l23 -2l12 3l15 -16v-39l39 29l23 7l39 8l53 -20l12 -11l15 -20l4 -31l-2 -33l-10 -30l-17 -57l-5 -27l-6 -14l2 -4l2 -21l-4 -16v-45z" />
    <glyph glyph-name="o" unicode="o" horiz-adv-x="472" 
d="M457 232q0 -49 -22 -92q-6 -29 -18.5 -51.5t-36 -42.5t-60 -41.5t-90.5 -49.5q-2 -1 -28 -4q-28 -33 -80 -33q-25 0 -32 5l-37 31h-3q-15 0 -23.5 10.5t-12 23t-5 24t-3.5 14.5q5 8 5 12q0 3 -3 7t-3 6q0 9 3 27.5t3 27.5q4 1 14.5 6t10.5 15q0 3 -2.5 13t-2.5 12
q10 8 15.5 15t11.5 16t13.5 22t20.5 34q4 6 16.5 20t29 31t35 35.5t35 33.5t29 24.5t15.5 9.5t8.5 -1.5t8.5 -1.5q8 0 27 28q2 -1 7.5 -5t13.5 -11l30 -7q12 -6 36 -15q25 0 39.5 -13.5t22 -35t10 -48t2.5 -51.5zM345 256q-5 1 -11 7q3 5 3 11q0 9 -5.5 20.5t-13.5 11.5
q-14 0 -63 -43q-30 -26 -51.5 -48t-38 -41.5t-29.5 -37t-27 -34.5q-1 -1 -4.5 -10t-7.5 -19.5t-6.5 -20t-2.5 -12.5q0 -8 9 -17.5t17 -9.5q55 0 125 47q16 4 38 16q4 4 11.5 18t19.5 37q2 3 4.5 14.5t6 24.5t7.5 24t7 13q0 34 12 38v11z" />
    <glyph glyph-name="p" unicode="p" horiz-adv-x="455" 
d="M426 265q0 -1 -2 -6t-4.5 -10.5t-5 -10t-2.5 -6.5q-1 -9 -5 -31t-12 -51q-4 -7 -10.5 -20t-15.5 -28t-21 -29.5t-27 -24.5v1q0 1 -5 6q-5 -5 -5 -10q-1 1 -3.5 7.5t-4.5 6.5q-15 0 -86 -62q-14 -3 -27.5 -12.5t-38.5 -24.5q-14 0 -41 -6q1 0 -11.5 -22t-21.5 -64
q-1 -6 -9 -31.5t-27 -64.5q2 -6 2 -12q0 -2 -0.5 -3t-0.5 -3v3q0 9 -7 29q-4 0 -7 -39q-12 -21 -18 -43.5t-12 -40.5t-14.5 -30t-24.5 -12q-19 0 -19 30q0 5 3 18t5 18q5 15 7.5 44t9.5 67q-1 4 -1 19q19 80 47 168.5t65 188.5q8 12 13 25.5t13 42.5q4 4 12 19t8 36
q0 1 -4 1l-18 -13q-35 -26 -60 -36.5t-26 -10.5q-13 0 -13 39q0 18 5 30.5t12.5 22t17 17.5t18.5 17q85 29 90 29q2 0 4 -1t4 -1q3 0 13 7t14 7q3 0 5 -2.5t5 -2.5t7.5 1.5t6.5 1.5q6 0 24.5 -1.5t41.5 -6t47 -14t42 -25.5q13 0 24 -7.5t19 -18.5t13 -25t6 -26q0 -2 3 -6.5
t3 -7.5zM330 160q-2 0 -6.5 -1t-4.5 -2h1q1 0 4.5 1.5t5.5 1.5zM347 300q-13 8 -20 12t-9 5q-3 0 -3.5 -1.5t-3.5 -1.5q-1 0 -9 2t-18.5 5t-21 5t-18.5 2q-14 0 -24 -10q-10 -42 -20.5 -88.5t-27.5 -106.5q-9 -19 -20 -47t-25 -71l5 -6q8 6 16.5 9.5t26.5 12.5q21 21 21 26
q0 2 -2 6l-3 2q10 8 24 20t34 28q5 2 9 2.5t8 8.5q-12 6 -12 11q17 8 40 26q-6 3 -6 10q0 2 3 4t7 7.5t9.5 16t9.5 29.5q3 5 8 15t10 21.5t8.5 23.5t3.5 22z" />
    <glyph glyph-name="q" unicode="q" horiz-adv-x="409" 
d="M386 273q0 -3 -6 -23q-4 -13 -6 -21.5t-4.5 -15.5t-6 -14t-11.5 -18q-16 -24 -20.5 -35.5t-6 -21t-4 -22t-14.5 -37.5q-1 -4 -2.5 -10.5t-5 -19.5t-11 -34t-19.5 -54q1 -3 1 -14q-3 -6 -9 -25.5t-13 -42t-13 -42t-9 -24.5q3 -6 3 -11t-4 -13.5t-5 -11.5q1 -4 1 -6.5v-4.5
t1 -3q-7 -8 -16 -36q-15 -9 -21.5 -35.5t-17.5 -72.5q1 -5 1 -21q-5 -20 -10 -38t-12 -34l7 283q2 0 6 9q-1 6 -1.5 15t-0.5 20q4 15 7.5 42t12.5 81q0 2 2.5 7t4.5 11t4 10.5t2 6.5q0 7 -6 13q-10 -3 -31 -24q-17 -17 -31 -28t-26.5 -17t-24.5 -8.5t-24 -2.5h-28t-21.5 7
t-19 24.5t-20.5 51.5q-1 1 -2.5 3t-3.5 4q0 4 7 8q0 1 -5 7.5t-5 9.5t7 7t7 7q0 1 -3 1t-4 -1t-2 -1q2 4 4 8.5t4 9.5q4 -7 9 -7q1 1 1 9q11 -11 16 -11q1 1 4.5 3.5t11.5 7.5v6q-13 7 -28 7v15l3 -2q4 -2 6 -2q10 0 13.5 1.5t7.5 7.5q0 4 -5 4q-1 0 -2 -0.5t-2 -0.5
q0 3 1 9t1 9q12 0 14 6.5t10 17.5q0 2 -1 3l-16 8q12 3 15 14q4 14 15.5 26.5t32.5 33.5q4 8 10.5 14.5t12.5 12t10.5 11t5.5 11.5q8 4 23 19q-1 3 -1 10q13 12 27 24.5t28 23.5t27.5 18.5t25.5 9.5q2 1 10 7.5t11 6.5h42q12 0 22.5 -4.5t20.5 -10.5q0 1 -3 -1.5t-7.5 -6.5
t-9.5 -7t-10 -3q-2 0 -3.5 1t-3.5 1q-20 0 -40.5 -12t-41.5 -32.5t-43.5 -47.5t-46.5 -56q-9 -13 -35.5 -55.5t-79.5 -130.5q-2 -9 -5 -23t-8 -33q2 -2 2 -3q0 -2 -2 -5.5t-2 -4.5q3 0 4.5 7t2.5 7q2 -1 10 -14q4 0 4 2q-1 1 -1 2t-1 2h7q16 0 30.5 2t32.5 9.5t42 22.5
t60 41q15 8 21.5 18t11 24.5t11 34t20.5 44.5q13 33 22 48.5t16 24.5t13.5 17.5t15.5 27.5q-1 2 -1 11q2 9 19 23q7 -6 16.5 -12.5t20.5 -14.5q-5 -5 -5 -8q0 -7 4.5 -12t4.5 -9zM-6 135q0 -2 -1.5 -6.5t-1.5 -6.5t1 -3q-3 0 -8 1.5t-6 1.5l16 13v0zM6 -33q-2 2 -5 2
q-1 0 -7 -2q4 -9 12 -9v9z" />
    <glyph glyph-name="r" unicode="r" horiz-adv-x="358" 
d="M160 403l21 -22v-26l-2 -13l26 13l35 9h48l23 -4l42 -21l15 -14l14 -25l2 -15l-13 -13v-4l-16 -15l-15 2l-4 10l-15 6l-45 9h-13l-28 -4l-30 -15l-24 -21l-29 -39l-20 -42l-23 -85l-9 -54v-17l-10 -43l-5 -7l-19 15l-11 -31l-12 -3l-10 5l-2 7l-17 28l-4 14l1 6l-3 3
l-4 12l11 26v26l28 118l38 130l28 62l21 26l12 6h18z" />
    <glyph glyph-name="s" unicode="s" horiz-adv-x="338" 
d="M375 401q0 -43 -39 -81q-10 -7 -28.5 -20.5t-37 -31.5t-32.5 -41t-14 -49q0 -3 15 -81l15 -81q0 -9 -15 -48q-8 -22 -14 -32t-10 -13.5t-6.5 -2.5t-5.5 1q-20 0 -43.5 1t-55.5 10q-6 9 -16 14.5t-22 13t-24 20.5t-20 39q-4 13 -22 13q-4 0 -17.5 -10.5t-30.5 -23.5
t-34.5 -25t-29.5 -14q4 16 18 45q6 10 26 23.5t42 26.5t40.5 22t21.5 10q38 29 73.5 57t54.5 62q0 10 0.5 25t1.5 37q0 12 33 88q19 43 20 72q9 7 22.5 18t31.5 26q-1 1 10.5 -7.5t27 -19.5t32.5 -20.5t26 -9.5h6v-13v0zM191 69q0 26 -27 93l-135 -104q14 -10 25 -10
q4 0 12 3t12 3q3 0 10 -7t11 -7q2 0 4.5 1.5t5.5 1.5t13 -3t21.5 -6.5t22 -6.5t14.5 -3q3 0 6.5 1.5t4.5 1.5v42z" />
    <glyph glyph-name="t" unicode="t" horiz-adv-x="348" 
d="M431 377q0 -1 -5.5 -4t-12 -6.5t-12 -6.5t-7.5 -5q1 -4 8 -4h6q3 1 6 1q-2 -4 -10.5 -8.5t-18 -9t-17.5 -8t-10 -4.5q-3 0 -5 -2.5t-5.5 -6.5t-10 -8t-19.5 -7q-2 -5 -10 -7.5t-21.5 -6.5t-32.5 -10t-42 -19q-3 -8 -5.5 -15t-7 -16t-11 -22.5t-17.5 -33.5q0 -11 -16 -36
l-7 -20q0 -5 -3 -13q-3 -6 -8 -17.5t-10 -23.5t-9.5 -21.5t-6.5 -11.5q-8 -18 -8 -28q1 -5 1 -9v-7q0 -7 -1 -9q-2 -2 -5 -11t-8 -22t-12 -26.5t-16 -24.5q-2 16 -3 31.5t-1 31.5q1 5 1.5 12.5t2.5 17.5q-3 3 -6 10q0 6 2.5 17t2.5 17q-1 2 -3 8q0 2 1 16t5 35.5t11.5 48
t20.5 53.5q1 5 6 21t19 45q0 6 -17.5 25.5t-54.5 62.5q8 4 11 6.5t14 2.5q13 0 32.5 -1t47.5 -3q5 5 8.5 12.5t14.5 30.5q0 7 2 13t6 16.5t10.5 28.5t15.5 48q11 11 17.5 37t12.5 56h8h1q5 0 18 -11q3 0 10.5 2t10.5 2q2 0 9.5 -2.5t15.5 -5.5t14.5 -6.5t7.5 -5.5l-7 -10
q-1 -8 -8 -25q-21 -40 -33.5 -77.5t-31.5 -80.5q0 1 1 1t4 -9q21 -3 40 -3q17 0 29.5 1t26 3.5t29.5 6.5t38 10h7v0z" />
    <glyph glyph-name="u" unicode="u" horiz-adv-x="385" 
d="M392 86q0 2 -2.5 -4.5t-7.5 -15.5t-12.5 -16.5t-18.5 -7.5q-17 0 -53 10q-4 1 -9 7.5t-10.5 14t-10 13.5t-6.5 6q-4 0 -9 -6q-48 -90 -77 -116q-1 0 -11.5 -4.5t-23.5 -9t-23.5 -8.5t-11.5 -4q-13 0 -48 12q-4 9 -15 21t-22.5 24t-20 22.5t-8.5 16.5q0 21 0.5 55.5
t16.5 76.5q5 4 9.5 8.5t8.5 12t8.5 19.5t10.5 31q3 2 5 6.5t6 13t10.5 22t19.5 31.5q0 3 5 17t12 30t15 28.5t13 12.5q10 0 18 -16t8 -28q0 -4 -4.5 -16t-4.5 -16q0 -2 -0.5 -9.5t-1.5 -21.5q6 -9 7 -24q-11 -23 -30 -74q-2 -1 -4 -1.5t-4 -2.5q2 -6 2 -9q0 -4 -7 -19
t-15 -34.5t-15 -41.5t-7 -42q0 -1 3.5 -3.5t8 -4.5t8.5 -4t4 -3h6q4 5 11.5 9t18.5 10q14 8 23 16.5t15 18t10.5 19.5t9.5 21l71 167q3 0 8.5 1.5t8.5 1.5q2 0 7.5 -4.5t13 -9.5t14.5 -9.5t10 -4.5q6 0 8 2q2 -1 4 -6.5t4 -12t3.5 -12t1.5 -8.5q0 -9 -9 -59l-10 -57
q0 -16 16 -16q0 1 44 16q5 -20 5 -32z" />
    <glyph glyph-name="v" unicode="v" horiz-adv-x="340" 
d="M137 401l6 -5l1 -5l6 -9l4 -63l-18 -165v-25l-3 -8l6 -44l4 -10l6 7l64 116l37 59l57 83l41 53l19 19h5l-8 -13l4 -3l1 -6l-19 -29l-2 -10h5l-14 -23l-8 -17l-2 -12l-3 -5l-21 -54l-9 -18l3 -5l-11 -24l1 -3l-69 -132l-18 -28l-15 -14l-32 -23h-13l-18 -5h-17l-10 5
l-17 28l-14 33l-11 37l-6 46v43v63l5 30l26 100l21 33l10 6l6 -2l5 2z" />
    <glyph glyph-name="w" unicode="w" horiz-adv-x="532" 
d="M616 586l-7 -20v-6l-3 -3l1 -12l-7 -19l-18 -26l2 -9l-22 -49l-19 -47l-3 -19l-9 -18l3 -6l-3 -13l-17 -42l-9 -35l-12 -22l-4 -15l1 -10l-9 -21l2 -11l-7 -18l-5 -4l-9 -31l-29 -71l-23 -45l-10 -8l-27 -22l-11 -5h-30l-30 15l-22 28l-15 41l-19 55v157h-4l-10 -19
l-21 -72v-17l-13 -47l1 -16l-15 -60l-24 -70l-19 -12h-15l-23 16l-15 15l-15 29l-13 42v130v104l9 97l16 23l9 6h18l17 -19l12 -22v-79l-2 -19l3 -29v-35l-3 -13v-41l43 118l25 42l17 18l41 12h23l15 -12l12 -13l10 -20l9 -34l3 -18v-74v-6v-60l5 -32l4 -8h4l73 151l67 151
l24 44l22 36l14 32l16 25l14 17v6l20 24l15 20h1z" />
    <glyph glyph-name="x" unicode="x" horiz-adv-x="348" 
d="M390 417l7 -17l2 -29l-1 -5l-22 -31h-3l-33 -39l-37 -38l-56 -65l-9 -8l-4 -9l-4 -2l-5 -13l31 -84l38 -83l12 -18l3 -10l3 -1l4 -18l-1 -3l11 -18l6 -11h-4l-4 6h-4l7 -11l-18 6l-10 2l-3 -3l-9 5l-6 12l-8 -3l-57 69l-61 94l-20 -21l-2 -5l-49 -61l-11 -16l-29 -33
l-4 -1l-13 -21h-5l-6 -10l-4 2l-12 -10l-13 -3l-3 5l-3 16l5 18l21 40l15 19l45 65l60 79l-23 66l-21 87v37v34l6 11l14 14l15 5h11l6 5l12 -14l19 -39l14 -34l21 -76l57 68l54 55l39 35l15 7h13l4 -2l5 3h2z" />
    <glyph glyph-name="y" unicode="y" horiz-adv-x="472" 
d="M440 318q0 -3 -4 -10t-4 -12q-1 -5 -3 -33t-15 -89q-5 -21 -16 -62.5t-42 -106.5q-2 -11 -7 -24.5t-16 -39.5q0 -2 0.5 -3.5t0.5 -3.5q0 -15 -6.5 -28.5t-21.5 -44.5q-1 -4 -1 -6.5t-1.5 -6t-5 -9t-10.5 -15.5q1 -2 1 -11q-4 -8 -10.5 -23.5t-15.5 -38.5l-2 -2q-1 0 -3 5
t-3 5q-5 0 -13 -8q-4 -4 -7 -8q3 -8 3 -11t-5 -5.5t-6 -7.5q3 -5 3 -9t-5 -6t-11.5 -4t-11.5 -4.5t-5 -6.5t11 -9q0 2 -5.5 -14.5t-28.5 -39.5q3 -5 6 -18q-8 -11 -13 -41q-2 -1 -37 -1q-4 0 -10.5 2.5t-12.5 8.5t-10.5 15t-4.5 22q0 3 3 8l3 7q3 24 12 73q0 1 6 15.5t13 31
t14 30t9 13.5t6 -2t6 -2q1 0 2.5 1.5t4.5 8.5t8.5 21.5t14.5 40.5q5 8 11 23t12 30.5t10.5 28t6.5 16.5l22 72q4 2 10.5 4.5t14.5 7.5v6q-3 1 -14 10q5 5 9 14.5t4 24.5q0 6 -3 10h-7q-42 -42 -70 -63.5t-47 -31t-31.5 -11t-23.5 -4.5q-14 12 -30.5 28.5t-30.5 34
t-23.5 35.5t-9.5 34q0 2 3 4.5t3 4.5q2 10 3 19.5t1 18.5v8.5t-1 8.5q5 2 18 14q-1 3 -1 11q0 9 14.5 30.5t33.5 47.5q1 1 8 10.5t18 21t26 21t32 9.5q13 0 24.5 -14.5t11.5 -28.5q0 -7 -6 -16t-14 -18t-15 -17t-10 -12q0 -17 -17 -51.5t-32 -76.5q-1 -5 -6 -13.5t-5 -16.5
q0 -17 10 -17q12 0 31 11t38 24.5t33.5 25.5t17.5 14l2 5q2 7 9.5 13t18.5 15l10 10q4 4 8 4q1 0 1.5 -0.5t1.5 -0.5q1 6 8 16.5t15 21.5t15 19.5t8 10.5q11 16 14 30.5t7 25.5t13.5 17.5t33.5 6.5q3 0 5 -0.5t4 -0.5t3 -1q4 -2 13.5 -6t26.5 -12v-8v0z" />
    <glyph glyph-name="z" unicode="z" horiz-adv-x="504" 
d="M252 86q2 -8 9.5 -7t9.5 -6l-8 -19q1 -2 9 0.5t8 0.5t6.5 -6t6.5 -6q0 -4 7 -8.5t15 -9t15 -9.5t7 -10q0 -2 -2 -8l74 30l11 3l8 6l53 22l32 18l35 14l1 -6l-19 -18l-3 -1l-2 -4l-24 -18l-1 -3l-40 -27l-34 -20l-44 -22l-8 -2l-58 -28q-6 -14 -12.5 -30.5t-12.5 -31
t-11 -26t-8 -14.5q4 -5 4 -11q0 -5 -5 -13.5t-7 -11.5q1 -4 1 -6.5t1 -4.5t1 -3q-3 -2 -12.5 -10.5t-20.5 -19t-20.5 -21t-12.5 -17.5q-10 -3 -14 -8.5t-6 -11.5t-3.5 -12.5t-6.5 -12.5q-14 -21 -30.5 -42t-31 -39.5t-24 -33t-9.5 -20.5l1 1q2 2 3 4q-35 -45 -78.5 -71.5
t-82.5 -26.5q-18 0 -31 6t-21 10q-1 5 -1.5 11.5t-0.5 12.5q0 13 1.5 26.5t6.5 28.5v4q0 12 8 36q65 97 123.5 167.5t111.5 115.5q9 15 22 27t26.5 23t23.5 22.5t13 23.5q1 0 1.5 4.5t1 11t1 13.5t1.5 11q0 2 -5.5 7t-13 11t-13.5 11t-6 6l2 12l6 -1.5t4 -0.5q5 0 5 3
q0 6 -12 19.5t-26.5 28t-27 25t-14.5 10.5l36 46l96 29q5 1 16.5 7.5t24 14t22.5 14.5t12 9q8 11 10.5 12.5t9.5 8.5q2 2 2.5 5t2.5 5q7 7 11 9t5.5 4.5t2 9.5t0.5 24q0 3 -1.5 6.5t-1.5 4.5h-42q-25 0 -93 -27l-40 -9h-6h-3t-6 0.5t-15 0.5t-88 33q-43 19 -72 20
q-7 9 -18 22.5t-26 31.5l8 6t17.5 15.5t17 20t7.5 19.5v6h13q44 0 81 -39q8 -10 16.5 -21.5t21.5 -21.5t31.5 -17t44.5 -7q3 0 81 15l81 15q9 0 48 -15q32 -12 40 -18.5t8 -11.5q0 -20 -1 -49t-11 -64q-9 -6 -23.5 -17.5t-33 -25t-40.5 -26.5t-48 -21l-47 -30zM150 -246
q1 1 10 23.5t20 48.5q13 31 29 69q-6 -2 -27 -19.5t-44 -39.5t-42 -42t-21 -26q-10 -7 -18.5 -15t-18 -21t-20 -32.5t-24.5 -49.5q-29 -37 -45 -64t-16 -32q3 -13 11 -13q5 0 9 1.5t9 1.5q1 0 12.5 10t25.5 23.5t26.5 26t16.5 17.5q7 9 24 29t35.5 42t32.5 40t15 22z" />
    <glyph glyph-name="braceleft" unicode="{" horiz-adv-x="329" 
d="M323 799q9 0 25 -4.5t31.5 -11.5t27 -15t10.5 -16q-1 -7 -22.5 -13.5t-47.5 -14.5t-48.5 -19t-24.5 -26q0 -7 2 -14t4 -16q2 -4 9 -12t14.5 -18t13 -19.5t4.5 -15.5q0 -13 -14 -22l-5 -2q-8 -10 -30 -38t-60 -76q-38 -51 -59.5 -92.5t-24.5 -71.5q-2 -9 3.5 -21.5
t22.5 -31.5q24 -27 32 -53.5t5 -53.5q0 -6 -2.5 -13t-4.5 -15q-15 -26 -22 -47.5t-10 -44.5q-2 -13 -2 -35v-54q3 -22 62 -151q2 -2 2 -7q-2 -12 -15.5 -23t-26.5 -11q-21 0 -36.5 10t-25 27t-13.5 39t-3 45q0 13 -5 45t-11 69.5t-10 73.5t-2 57q3 16 5.5 30.5t6.5 28.5
q-7 10 -18.5 35t-22 54t-17 56t-5.5 39q3 33 33.5 72t82.5 81q-2 17 -1 34t3 33q4 36 17 79.5t36.5 81t57.5 63t79 25.5z" />
    <glyph glyph-name="bar" unicode="|" horiz-adv-x="622" 
d="M439 747q-2 -21 -3.5 -40t-3.5 -37q-1 -13 -6 -46.5t-12 -79.5t-15.5 -101.5t-17.5 -114t-17.5 -115.5t-16.5 -106.5t-14 -87.5t-9 -58q-10 -51 -15.5 -86t-8.5 -52q0 -11 0.5 -19.5t1.5 -17.5q-2 -15 -10 -23t-28 -8q-48 0 -51 34q2 29 5 57t6 54q6 63 12.5 112t17.5 87
l14 62q5 19 11 49.5t12.5 68t13.5 80t13 84t11.5 80.5t8.5 70q2 16 3.5 41.5t4.5 60.5q3 24 6.5 36.5t3.5 16.5q0 5 -0.5 17t1.5 14q0 9 10.5 18t30.5 9q9 0 18 -2.5t16 -7t11 -9.5t3 -11q0 -10 -3.5 -18t-3.5 -11z" />
    <glyph glyph-name="braceright" unicode="}" horiz-adv-x="346" 
d="M13 -278q-10 0 -26 4.5t-31 11.5t-25.5 15t-9.5 16q1 7 22 13.5t47 14.5t48 19t24 26q0 7 -2 14t-4 16q-2 4 -9 12t-14.5 18t-13 19.5t-4.5 15.5q0 13 14 22l5 2q21 24 50 60.5t56 75.5t46.5 77t21.5 65q2 9 -3 21.5t-23 31.5q-23 27 -31.5 54t-5.5 53q0 6 2.5 13.5
t4.5 14.5q17 26 23.5 48t8.5 44q2 13 2 35v54q-3 22 -62 151q-2 2 -2 7q2 12 16 23t26 11q21 0 36.5 -10t25 -27t14 -39t2.5 -45q0 -13 5.5 -45t11 -69.5t9.5 -73.5t2 -57q-3 -16 -5.5 -30.5t-6.5 -28.5q8 -9 19 -34.5t21.5 -54.5t17.5 -56t5 -39q-3 -32 -33.5 -71.5
t-82.5 -81.5q2 -17 1 -34t-3 -33q-4 -37 -17 -80.5t-36.5 -81t-57.5 -62.5t-79 -25z" />
    <glyph glyph-name="asciitilde" unicode="~" horiz-adv-x="589" 
d="M425 620l19 -3l26 -16l23 -26l10 -14l13 -26l2 -25l-4 -13l-11 -19l-25 -29h-2l-7 -7l-33 -40l-21 -17l2 -8l-34 -23v-4l-4 -7l-13 -4v-8l-29 -25l14 -28l17 -27l17 -26l9 -10l24 -39l49 12l57 18l72 7l-2 -2l-21 -15l-4 -6l-17 -9l-3 -4l-16 -10l2 -7l-25 -13l2 -6
l-5 -4l-4 -13h4l-26 -21l39 -50l30 -38l-2 -4h-10l-3 6l-6 -2l-6 -12l-15 -11h-6l-11 -10h-10l-13 4l-41 46l-14 20l-11 -12l-13 -1l-15 -10l-6 -9l-28 -9l-24 -11l-16 -15l-24 -9l-30 -6l-42 5h-76l-25 10l-4 4l-5 -2l-16 9l-21 15l-20 25l-10 19l-4 21l2 31l14 34l32 46
l49 57l126 123v97l7 37l8 26l23 34l27 25l26 17l31 14l26 3h31zM378 516l-21 -5l-29 -16l-23 -22l-3 -28v-23h3l91 89v7h-5zM265 219l-19 -6l-8 -9v-6h-7v-6l-6 -4v-3l-32 -27l-12 -17l-13 -13l-6 -12l-1 -13l33 2l44 10l38 13l22 2l26 17l-4 9l-9 -2v13l-18 31l-9 8v9l-6 8
l-11 -2z" />
    <glyph glyph-name="uni00A0" unicode="&#xa0;" horiz-adv-x="200" 
 />
    <glyph glyph-name="exclamdown" unicode="&#xa1;" horiz-adv-x="328" 
d="M200 570q3 8 3.5 11.5t7.5 11.5v5l3 3q0 3 -1 5v4q1 1 3.5 2t3.5 2v2q4 4 8 11l1 1q2 1 5 4q5 -1 9 -0.5t9 1.5l4 2v5q3 1 7 3q2 6 11 6q3 -3 6 -4l1 1q0 1 1 2h4l7 -7q1 0 2 1h2q2 0 3 -1q4 -7 6.5 -12l4.5 -9q1 1 3 1q1 -1 4 -8.5t3 -9.5q-1 -3 -1 -6.5t-1 -8.5v-10
q-1 -7 -6 -24q-4 -4 -9.5 -10t-12.5 -15q-3 -1 -6.5 -1.5t-7.5 -2.5q-1 1 -20 1q-3 3 -22 11q-5 1 -18 14q0 3 -1 4q-2 2 -5 4.5t-5 4.5q-3 2 -6 6zM242 374q0 -12 -5 -17q-2 -8 -5.5 -19.5t-7.5 -26.5q-1 -9 -3 -26q0 -6 -5 -31q-1 -1 -2 -1.5t-2 -2.5v-8q-2 -2 -3 -10
q-11 -46 -21 -86.5t-19 -75.5q1 -1 1 -5q-3 -16 -7.5 -37t-11.5 -49q-13 -53 -13 -52l-6 -12q-1 -1 -2 -1.5t-2 -1.5q-5 -5 -22 -5q-4 0 -18 8q-13 7 -13 10q-2 4 -3 7.5t-2 8.5v21q9 28 18 80q5 29 9.5 49t6.5 31q7 29 18.5 67t27.5 86q4 11 10.5 30t15.5 45q2 6 6.5 15.5
t9.5 23.5q9 20 19 24q2 1 8 3q7 -3 19 -19q1 -5 1 -18q1 -1 3 -5z" />
    <glyph glyph-name="cent" unicode="&#xa2;" horiz-adv-x="455" 
d="M243 126l-21 -50q19 2 39.5 7.5t40.5 13t38 17t31 19.5q7 5 21.5 18.5t24.5 50.5l16 -46l-16 -30l-12 -5q-12 -8 -55 -43q-12 -9 -34 -21t-46 -23t-46 -19t-34 -9l-19 -42l-44 -73l-14 -37l-15 -20l-3 1l-14 -14l-6 -7l-11 5l-7 -3l-4 23l-1 9l12 37l39 96l24 62
q-2 3 -4.5 6t-5.5 7q-10 11 -24 26.5t-27 37.5t-22.5 50t-9.5 63t7 56q0 1 11 12t14 33q27 23 28 72q5 5 7 4.5t6.5 4t14.5 21t31 56.5q27 2 33 4.5t10 9.5q4 -1 12 -2t19.5 -2.5t24.5 -5t26 -9.5q5 -2 15 -6.5t18 -8.5l5 13l69 150l18 36l8 11l4 -1l-9 -25l2 -5l-3 -8
l-7 -30l3 -6l-5 -20l-1 -12l-2 -15l-17 -51l-10 -30v-6l-4 -21l1 -4l-2 -8q24 -18 42.5 -37.5t32.5 -33.5v-17q-3 0 -10.5 -2t-11.5 -2q-3 0 -25 9t-50 21l-30 -91l-33 -86zM233 298l37 83l10 22q-25 10 -27 10q-40 0 -85 -114q-38 -99 -38 -129t3 -49.5t13 -30.5l14 37z
" />
    <glyph glyph-name="sterling" unicode="&#xa3;" horiz-adv-x="630" 
d="M601 185q36 -39 36 -76q0 -27 -16 -48t-40 -35.5t-52 -22t-52 -7.5q-21 0 -65 4.5t-111 15.5q-26 4 -48.5 6t-42.5 2q-52 0 -85 -12l-86 -20q11 6 20.5 12t9.5 18q-8 3 -15 5t-15 2q-11 0 -33.5 -3t-56.5 -8q4 1 19.5 12t35.5 24t41 24t36 12l6 35q17 7 31 24.5t23 44.5
q11 32 17.5 47.5t9 21t2.5 3.5t-0.5 -5.5t-2 -4.5t-1.5 7v52q0 12 6 22q-14 10 -34 10q-6 0 -16 4.5t-20.5 10t-20.5 10t-17 4.5q-21 0 -33 11t-13 37q11 10 36 9.5t53 -3t53 -4.5t34 5q2 9 5 25.5t5.5 32.5t4.5 29t3 16q11 69 46.5 107t91.5 38q49 0 80 -18t43 -50l-28 -89
q-20 32 -50 47.5t-78 22.5q0 -3 -3 -6t-6.5 -10t-6 -19t-2.5 -33q0 -8 -1.5 -23t-3 -31t-1 -29t3.5 -18l132 -25q-8 2 -5 1.5t8 -1.5t8.5 -2.5t-2.5 -1.5q-10 0 -10 -0.5t3.5 -2.5t6.5 -5t-3 -9q7 -7 -1.5 -10.5t-18.5 -5.5l-15 -3t9 -4l-38 -16q3 -13 32 -18l-126 11l4 -18
t0 -18q-2 -17 -8.5 -34.5t-17.5 -38t-27 -46t-38 -58.5h8q17 0 60.5 -10.5t119.5 -24.5q33 -6 60 -6q53 0 86 22t51 69z" />
    <glyph glyph-name="currency" unicode="&#xa4;" horiz-adv-x="299" 
 />
    <glyph glyph-name="yen" unicode="&#xa5;" horiz-adv-x="585" 
d="M609 611h3l-8 -18l-9 -12v-6l-6 -11l-11 -8l-1 -10l5 -5l9 2l4 -5l-50 -56l-14 -20l-13 -27l-28 -39l-22 -26l-4 -8l-27 -33l-11 -12l-5 -8l-15 -14l3 -5h84l33 -2l37 -8l3 -3l20 -6l15 -5l-3 -5l4 -7l-5 -4l-7 -2h-12l-3 -2l1 -8l-21 2l-5 -2l-1 -8l5 -3l-1 -3l-8 -3v-4
l-28 -3l-25 -5l-25 -1l-35 -2l-5 -3l-32 -3l-51 -8l-35 -8l-9 -15l-9 -23l-4 -4l1 -5l-5 -10l-6 -14l16 3l43 5l53 8l78 9h19l6 -3l1 -5l-12 -5l-2 -6l-4 -1l-14 -10l-1 -7l-9 -6l-6 -7l-6 -5l-25 -11l-14 -7l-3 -4l-9 -7l-1 -5l-28 -11l-50 -15l-43 -11l-31 -10l-2 -5
l-5 -24l-12 -23l-12 -24l-3 -2l-5 -16l-4 -3l-5 -13l-6 -19l-4 -25l-3 -12l-2 -17l-4 -14l-5 -5l-2 -6l-7 -5l-6 8l-9 19v11l-5 13l1 45l9 78l4 24l-4 -1l-40 10l-19 -6l-11 5l-1 5l-9 8l-4 3l-1 17l-3 7l8 19l3 6l18 8l48 12l38 10l22 74l-81 -18l-35 -4l-23 1l-11 2l-17 6
l-12 10l-8 11v12l6 12l20 13l65 26l78 26l-9 34l-7 40v47l1 25l9 57l8 42l21 40l18 13l10 5l6 1l12 -1l3 -5h3l14 -8l9 -10l11 -42l4 -30l-5 -36l1 -16l-10 -84l8 -5l14 12l48 45l258 250l9 -5l2 -5z" />
    <glyph glyph-name="section" unicode="&#xa7;" horiz-adv-x="0" 
 />
    <glyph glyph-name="dieresis" unicode="&#xa8;" horiz-adv-x="398" 
d="M112 839l8 -3l9 -4l8 1l-1 -7l10 -4l14 -13l6 -7l14 -33l1 -7v-12l-7 -12l-7 -8l-1 -2l-15 -2l-17 -2l-18 7l-8 4l-2 2l-24 17l-11 10l-2 5v13l-2 11l2 13l8 16l18 14l15 3h2zM287 830l9 2l12 -15l14 -12l9 -24v-27l-13 -14l-5 -3l-10 -3l-26 4l-20 10l-21 19l-1 15l-4 6
l11 34l10 7l10 3l3 5z" />
    <glyph glyph-name="copyright" unicode="&#xa9;" horiz-adv-x="622" 
d="M569 476q0 -4 -1 -8l-3 -14l1 -3q1 0 2 -1q0 -5 -4 -13.5t-10 -21.5q-5 -10 -7.5 -16.5t-4.5 -11.5q-7 -11 -12.5 -18t-9.5 -12q-2 -2 -3.5 -4.5t-3.5 -6.5q-5 -2 -13 -10l1 -3q-2 -1 -2 -2t-1 -2q-5 -3 -11 -6t-14 -8q-2 -2 -7 -5.5t-10 -8.5q-1 -1 -2 -1.5t-2 -1.5
l-9 -4.5t-12 -5.5q-6 -2 -14 -6q-2 -2 -4.5 -3t-6.5 -3q-5 -2 -11.5 -3.5t-16.5 -4.5q-1 -1 -5 -3q-14 -4 -38 -9q-3 -1 -8.5 -1.5t-12.5 -2.5l-10 -1q-2 0 -7.5 -1t-7.5 -2q-35 0 -70 6q-42 8 -88 30q-8 5 -19 11.5t-22 16.5q-2 1 -7 6.5t-13 14.5q-1 2 -5 8l-10 15
q-2 8 -6 19t-9 26q2 -3 3 6t-1 31q1 2 2 7.5t1 7.5l9 30q6 11 12 27q5 6 10 15t14 22q6 7 14.5 18.5t19.5 26.5q10 11 21 22t22 23q2 2 5.5 4t7.5 5l9 9q2 1 4.5 2.5t6.5 4.5q24 18 54 20l6 4l5 2q1 0 7.5 2.5t7.5 2.5q3 1 12 1q5 3 14 5.5t23 6.5l2 1l11 1q2 0 3 0.5t3 0.5
h6t9 -2l13 1q2 -2 6.5 -4t10.5 -4q6 -4 15 -9q4 -2 9 -2q-3 -1 0 -4q3 -4 10 -10q1 -2 2 -3.5t1 -3.5q12 -7 25 -12l5.5 -5.5t7.5 -5.5q1 -1 5 -3l16 -11q3 -3 6.5 -7t9.5 -9l6 -6l4 -6t5 -6l1 -3l2 -2t4 -5t5 -8q2 -2 3 -4t4 -4l4 -8q2 -3 2 -12q1 -1 3 -1q4 -8 5 -9
q1 -8 3.5 -21t5.5 -30l2 -11v-1l1 -1l4 -1v0zM473 485q-1 17 -3.5 30t-8.5 23q-3 6 -6.5 12.5t-7.5 14.5q-6 6 -9 13q-5 5 -11.5 9t-12.5 9l-26 19q-7 3 -17 7t-23 9q-12 -7 -25 -7l-32 -1q-8 -1 -21.5 -11.5t-30.5 -23.5q-12 -5 -46 -47q-4 -4 -5.5 -8.5t-3.5 -9.5
l-4.5 -4.5t-4.5 -5.5q-2 -6 -6 -12t-9 -14q-15 -21 -27 -56q-1 -19 0 -28q-2 -19 4 -32q2 -2 3 -5t3 -7q2 -2 6 -6.5t11 -12.5q5 -4 37 -19q22 -8 77 -7q-1 0 4 1t17 2q17 1 25 3q6 1 37 11q4 2 8 4.5t9 4.5q8 3 17.5 8t17.5 13l26 30q1 1 5 8t12 20q3 5 6.5 11.5t8.5 15.5
v5q4 10 5 18t1 16zM392 395q-6 -5 -33 -23q-7 -5 -21 -11.5t-28.5 -12.5t-27 -10t-18.5 -4q-11 0 -17.5 3.5t-20.5 23.5q-4 5 -11 13.5t-13 19.5t-9.5 26t-2.5 34q2 9 3 16.5t5 13.5q3 2 6 6l5 7.5t5 9.5q7 6 12 15.5t7 23.5q3 3 4 2.5t3.5 2t9 11t21.5 29.5q15 1 18.5 2
t7.5 6q9 -5 24.5 -14t34.5 -29l-2 -9q-2 0 -6 -1t-6 -1q-3 0 -9.5 2t-9.5 2q-22 0 -54 -60q-14 -26 -16.5 -42t-2.5 -24q-3 -29 3 -36.5t32 -7.5q22 0 45 7.5t42 19.5q4 3 14 7.5t17 24.5l7 -25l-11 -15z" />
    <glyph glyph-name="ordfeminine" unicode="&#xaa;" horiz-adv-x="343" 
 />
    <glyph glyph-name="guillemotleft" unicode="&#xab;" horiz-adv-x="480" 
d="M274 374l14 -5l10 -5l5 -17l-2 -16l-3 -6l-33 -30l-54 -42l-59 -53l-10 -16v-7l5 -9l65 -62l10 -11l6 -16l2 -17l-2 -5l-8 -8l-12 -2l-7 2l-11 -8h-13l-19 8l-57 41l-14 16l-14 17l-13 31v14l3 20l10 19l20 32l72 65l47 37l40 25l6 3l15 5h1zM420 361l5 -1l8 -13l6 -22
l-2 -11l-11 -21l-14 -14l-6 -11l-39 -31l-49 -45l16 -19l8 -11l29 -34l6 -11l5 -13l5 -15v-8l-11 -2l-24 -16l-16 -3l-22 14l-5 2l-5 -3l-24 12l-41 45l-13 28l-3 21l8 32l11 22l42 44l60 53l46 34l13 4z" />
    <glyph glyph-name="logicalnot" unicode="&#xac;" horiz-adv-x="701" 
 />
    <glyph glyph-name="registered" unicode="&#xae;" horiz-adv-x="601" 
d="M566 476q0 -4 -1 -8l-3 -14l1 -3q1 0 2 -1q0 -5 -4 -13.5t-10 -21.5q-5 -10 -7.5 -16.5t-4.5 -11.5q-7 -11 -12.5 -18t-9.5 -12q-2 -2 -3.5 -4.5t-3.5 -6.5q-5 -2 -13 -10l1 -3q-2 -1 -2 -2t-1 -2q-5 -3 -11 -6t-14 -8q-2 -2 -7 -5.5t-10 -8.5q-1 -1 -2 -1.5t-2 -1.5
l-9 -4.5t-12 -5.5q-6 -2 -14 -6q-2 -2 -4.5 -3t-6.5 -3q-5 -2 -11.5 -3.5t-16.5 -4.5q-1 -1 -5 -3q-14 -4 -38 -9q-3 -1 -8.5 -1.5t-12.5 -2.5l-10 -1q-2 0 -7.5 -1t-7.5 -2q-35 0 -70 6q-42 8 -88 30q-8 5 -19 11.5t-22 16.5q-2 1 -7 6.5t-13 14.5q-1 2 -5 8l-10 15
q-2 8 -6 19t-9 26q2 -3 3 6t-1 31q1 2 2 7.5t1 7.5l9 30q6 11 12 27q5 6 10 15t14 22q6 7 14.5 18.5t19.5 26.5q10 11 21 22t22 23q2 2 5.5 4t7.5 5l9 9q2 1 4.5 2.5t6.5 4.5q24 18 54 20l6 4l5 2q1 0 7.5 2.5t7.5 2.5q3 1 12 1q5 3 14 5.5t23 6.5l2 1l11 1q2 0 3 0.5t3 0.5
h6t9 -2l13 1q2 -2 6.5 -4t10.5 -4q6 -4 15 -9q4 -2 9 -2q-3 -1 0 -4q3 -4 10 -10q1 -2 2 -3.5t1 -3.5q12 -7 25 -12l5.5 -5.5t7.5 -5.5q1 -1 5 -3l16 -11q3 -3 6.5 -7t9.5 -9l6 -6l4 -6t5 -6l1 -3l2 -2t4 -5t5 -8q2 -2 3 -4t4 -4l4 -8q2 -3 2 -12q1 -1 3 -1q4 -8 5 -9
q1 -8 3.5 -21t5.5 -30l2 -11v-1l1 -1l4 -1v0zM470 485q-1 17 -3.5 30t-8.5 23q-3 6 -6.5 12.5t-7.5 14.5q-6 6 -9 13q-5 5 -11.5 9t-12.5 9l-26 19q-7 3 -17 7t-23 9q-12 -7 -25 -7l-32 -1q-8 -1 -21.5 -11.5t-30.5 -23.5q-12 -5 -46 -47q-4 -4 -5.5 -8.5t-3.5 -9.5
l-4.5 -4.5t-4.5 -5.5q-2 -6 -6 -12t-9 -14q-15 -21 -27 -56q-1 -19 0 -28q-2 -19 4 -32q2 -2 3 -5t3 -7q2 -2 6 -6.5t11 -12.5q5 -4 37 -19q22 -8 77 -7q-1 0 4 1t17 2q17 1 25 3q6 1 37 11q4 2 8 4.5t9 4.5q8 3 17.5 8t17.5 13l26 30q1 1 5 8t12 20q3 5 6.5 11.5t8.5 15.5
v5q4 10 5 18t1 16zM404 379q-2 -2 -5.5 -2.5t-5.5 -2.5q-3 0 -4 1v-2h-4h-1h-2q-3 3 -12 6t-18 8l-8 3q-5 2 -14.5 6.5t-23.5 12.5l-3 1q-7 3 -15 6.5t-16 8.5l-9 3l-4 -1q-8 -5 -14.5 -8.5t-15.5 -5.5l-1 -6v-3q-2 -5 -5 -11.5t-7 -13.5v-1q0 -3 -3 -11q-2 -4 -4 -9
q-3 -5 -4.5 -8t-7.5 -10l-4 -3q0 -1 -4 -1q-1 0 -4.5 2.5t-7.5 9.5v1v7q-1 0 -2 2l2 18q1 1 1 4q0 2 1 3t0 2q2 5 3 11.5t3 13.5v1q0 7 5 17q3 8 4 12t2 6t1.5 4.5t1.5 8.5q8 17 11.5 30t13.5 37v3q2 2 3 4v3q2 2 3 6t4 10q3 3 5 6.5t19 8.5q2 -1 5 -1h5q1 0 2.5 0.5
t3.5 0.5q3 2 10.5 6t16.5 8t17 7.5t12 3.5l3.5 0.5t8 1.5t9 1.5t6.5 0.5q5 0 9.5 -1t9.5 -3q-1 0 3.5 -2t9.5 -7.5t9 -13.5t2 -20q0 -10 -4 -13v-1q-3 -7 -5 -10.5t-6.5 -7.5t-15 -10t-30.5 -19l-4.5 -2t-10 -5.5t-10.5 -7t-5 -5.5v-1l-4 -3q-2 -1 -5 -8v-2q-1 0 -1 -4v-1
q0 -2 22.5 -13.5t78.5 -45.5q4 -2 3.5 -6.5t1.5 -4.5v1zM366 557q-1 0 -4 1l-6 2q1 1 -3 0t-9.5 -2.5l-11 -3t-8.5 -1.5q-3 -2 -10 -4.5t-28 -16.5q-2 -2 -6.5 -9.5t-13.5 -23.5l-5 -15q-1 -3 -2 -5l14 4t19 7q2 2 4.5 2.5t8 4t15.5 11t27 22.5q9 6 14 17l5 10v0z" />
    <glyph glyph-name="macron" unicode="&#xaf;" horiz-adv-x="238" 
d="M310 533l8 -16l-2 -16l-8 -26l-9 -16l-8 -16l-9 -16l-19 -28l-12 -14l-5 -9l-8 -12l-63 -116l-3 -13l-10 -20l-9 -17l-5 -18l-7 -29l-2 -6v-12l-7 -24v-21l5 -1l-2 -5l2 -21l5 -25l9 -15l-3 -8l11 -14l21 -18l11 -16l-1 -13l-15 -3l-29 8l-18 11l-20 15l-9 9l-30 37l3 4
l-5 6l-11 29l-9 47v27l4 34l5 5l-5 5l18 67l32 66l7 18l26 56l14 20l10 22l22 37l27 43l23 29l28 12l37 -8z" />
    <glyph glyph-name="macron" unicode="&#x2c9;" horiz-adv-x="238" 
d="M310 533l8 -16l-2 -16l-8 -26l-9 -16l-8 -16l-9 -16l-19 -28l-12 -14l-5 -9l-8 -12l-63 -116l-3 -13l-10 -20l-9 -17l-5 -18l-7 -29l-2 -6v-12l-7 -24v-21l5 -1l-2 -5l2 -21l5 -25l9 -15l-3 -8l11 -14l21 -18l11 -16l-1 -13l-15 -3l-29 8l-18 11l-20 15l-9 9l-30 37l3 4
l-5 6l-11 29l-9 47v27l4 34l5 5l-5 5l18 67l32 66l7 18l26 56l14 20l10 22l22 37l27 43l23 29l28 12l37 -8z" />
    <glyph glyph-name="degree" unicode="&#xb0;" horiz-adv-x="0" 
 />
    <glyph glyph-name="plusminus" unicode="&#xb1;" horiz-adv-x="461" 
 />
    <glyph glyph-name="acute" unicode="&#xb4;" horiz-adv-x="333" 
d="M260 854l5 -3l1 -4l-4 -1l-3 -8l1 -3l-5 -2l-8 -5v-3l3 -4l-4 -4l2 -8l-4 -3v-3l12 2v-1l-14 -11l-3 -10l-7 -11l-6 -7l-12 -11l-11 -8l-40 -24l-36 -16l-7 -1h-17l-12 4h-8l-6 3v4l-4 4l-5 14l1 5l-2 6l2 4l6 6v2l30 27l14 10l41 30l30 18l29 7l37 5h4z" />
    <glyph glyph-name="mu" unicode="&#xb5;" horiz-adv-x="389" 
d="M387 117q5 -20 5 -32q0 2 -2.5 -4.5t-7.5 -15.5t-12.5 -16.5t-18.5 -7.5q-17 0 -53 10q-4 1 -9 7.5t-10.5 14t-10 13.5t-6.5 6q-4 0 -9 -6q-48 -90 -77 -116q-1 0 -11.5 -4.5t-23.5 -9t-23.5 -8.5t-11.5 -4q-13 0 -48 12q-5 9 -14 19q-4 -9 -8.5 -19.5t-9.5 -21.5
q2 -6 2 -12q0 -2 -0.5 -3t-0.5 -3v3q0 9 -7 29q-4 0 -7 -39q-12 -21 -18 -43.5t-12 -40.5t-14.5 -30t-24.5 -12q-19 0 -19 30q0 5 3 18t5 18q5 15 7.5 44t9.5 67q-1 4 -1 19q19 80 47 168.5t65 188.5q7 11 15 25t16 37q4 16 9 16t14.5 -6t19 -15t16.5 -18t7 -15
q0 -4 -4.5 -16t-4.5 -16q0 -2 -0.5 -7.5l-1.5 -16.5l10 -19q-1 -2 -2 -4.5t-2 -4.5q1 -1 1 -3l-2 -4l-2 -4q-3 -11 -6 -23t-8 -26q-5 -11 -12 -22t-12 -27l-17 -51q-2 -4 -5 -9q-2 -5 -5 -10.5t-7 -13.5q-2 -9 -3 -17.5t-1 -16.5q0 -1 3.5 -3.5t8 -4.5t8.5 -4t4 -3h6
q4 5 11.5 9t18.5 10q14 8 23 16.5t15 18t10.5 19.5t9.5 21l71 167q3 0 8.5 1.5t8.5 1.5q2 0 7.5 -4.5t13 -9.5t14.5 -9.5t10 -4.5q6 0 8 2q2 -1 4 -6.5t4 -12t3.5 -12t1.5 -8.5q0 -9 -9 -59l-10 -57q0 -16 16 -16q0 1 44 16z" />
    <glyph glyph-name="mu" unicode="&#x3bc;" horiz-adv-x="389" 
d="M387 117q5 -20 5 -32q0 2 -2.5 -4.5t-7.5 -15.5t-12.5 -16.5t-18.5 -7.5q-17 0 -53 10q-4 1 -9 7.5t-10.5 14t-10 13.5t-6.5 6q-4 0 -9 -6q-48 -90 -77 -116q-1 0 -11.5 -4.5t-23.5 -9t-23.5 -8.5t-11.5 -4q-13 0 -48 12q-5 9 -14 19q-4 -9 -8.5 -19.5t-9.5 -21.5
q2 -6 2 -12q0 -2 -0.5 -3t-0.5 -3v3q0 9 -7 29q-4 0 -7 -39q-12 -21 -18 -43.5t-12 -40.5t-14.5 -30t-24.5 -12q-19 0 -19 30q0 5 3 18t5 18q5 15 7.5 44t9.5 67q-1 4 -1 19q19 80 47 168.5t65 188.5q7 11 15 25t16 37q4 16 9 16t14.5 -6t19 -15t16.5 -18t7 -15
q0 -4 -4.5 -16t-4.5 -16q0 -2 -0.5 -7.5l-1.5 -16.5l10 -19q-1 -2 -2 -4.5t-2 -4.5q1 -1 1 -3l-2 -4l-2 -4q-3 -11 -6 -23t-8 -26q-5 -11 -12 -22t-12 -27l-17 -51q-2 -4 -5 -9q-2 -5 -5 -10.5t-7 -13.5q-2 -9 -3 -17.5t-1 -16.5q0 -1 3.5 -3.5t8 -4.5t8.5 -4t4 -3h6
q4 5 11.5 9t18.5 10q14 8 23 16.5t15 18t10.5 19.5t9.5 21l71 167q3 0 8.5 1.5t8.5 1.5q2 0 7.5 -4.5t13 -9.5t14.5 -9.5t10 -4.5q6 0 8 2q2 -1 4 -6.5t4 -12t3.5 -12t1.5 -8.5q0 -9 -9 -59l-10 -57q0 -16 16 -16q0 1 44 16z" />
    <glyph glyph-name="paragraph" unicode="&#xb6;" horiz-adv-x="374" 
 />
    <glyph glyph-name="periodcentered" unicode="&#xb7;" horiz-adv-x="211" 
d="M101 302l29 -5l7 -11l5 4l3 -2l8 -14l5 -10h2l3 5l4 -2l3 -5l9 -11l5 -32l-1 -16l1 -7l-5 2v-2l2 -5l-13 -7l-15 -4l-9 -12l-18 2h-4l-24 8l-25 16l-7 9l-9 2l2 3l-6 6v7l-16 9l-11 5l3 6h1v5l4 5l-2 7l4 4h5l3 18l22 24l9 6z" />
    <glyph glyph-name="periodcentered" unicode="&#x2219;" horiz-adv-x="211" 
d="M101 302l29 -5l7 -11l5 4l3 -2l8 -14l5 -10h2l3 5l4 -2l3 -5l9 -11l5 -32l-1 -16l1 -7l-5 2v-2l2 -5l-13 -7l-15 -4l-9 -12l-18 2h-4l-24 8l-25 16l-7 9l-9 2l2 3l-6 6v7l-16 9l-11 5l3 6h1v5l4 5l-2 7l4 4h5l3 18l22 24l9 6z" />
    <glyph glyph-name="cedilla" unicode="&#xb8;" horiz-adv-x="400" 
 />
    <glyph glyph-name="ordmasculine" unicode="&#xba;" horiz-adv-x="353" 
 />
    <glyph glyph-name="guillemotright" unicode="&#xbb;" horiz-adv-x="480" 
d="M32 54l-12 14l-7 22l2 11l11 21l14 14l7 11l44 30l59 39l-32 26l-8 11l-28 34l-7 11l-5 13l-4 15v8l11 2l24 16l15 3l23 -14l4 -2l5 3l23 -25l36 -37l34 -48l5 -24l-16 -27l-29 -17l-32 -26l-61 -53l-46 -35l-12 -3zM278 370l7 -5l4 -3h4l9 -11l82 -53l30 -34l17 -28
l4 -10v-4l4 -7l-1 -10l2 -4l-2 -26l-2 -12l-3 -2l-7 -8l-25 -21l-32 -16l-13 -9l-5 -1l-9 -1l-9 5l-8 -3l-2 -7l-10 -1l-3 -4l-9 -2l-26 -5l-10 -3h-4l-11 -2l-9 -2l-17 -6l-24 -14l-3 3l-22 -13l-21 -7l-5 -3h-11v14l4 20l13 23l20 15l36 20l111 44l11 8l-41 34l-25 26
l-12 22l-9 14l-8 12l-4 25l-3 9v8l5 11l7 13l5 3l16 10z" />
    <glyph glyph-name="questiondown" unicode="&#xbf;" horiz-adv-x="443" 
d="M426 570q-2 -5 -3.5 -13t-7.5 -11q1 -1 1 -5l-4 -4v-9q-2 -1 -4 -1.5t-4 -2.5v-2q-3 -3 -8.5 -9t-8.5 -9q-1 -1 -21 0q-13 0 -27 8h-4q-1 0 -2 1q-11 19 -12 20h-3l-5 10q-4 5 -4 7v5q0 4 -1 7h2v2q0 7 -1 10q1 3 3 11v6q3 0 4 1v5q3 2 7.5 4.5t10.5 6.5q6 9 7 10
q8 2 14 4q2 -1 19 -1q9 0 27 -21l4 -4q4 -4 5 -9q0 -1 8 -9l8 -8v0zM332 433q23 0 23 -31q0 -23 -5 -28q-2 -14 -9 -35q-4 -15 -13.5 -38t-20.5 -42q-4 -5 -10 -14.5t-14 -22.5q-8 -15 -29 -46q-13 -15 -30 -39.5t-39 -58.5q0 -1 -8 -15q-7 -13 -7 -17t-2 -15.5t-1 -17.5
q2 -8 8 -9q1 0 1.5 -2t2.5 -2q19 0 35 6q17 3 37 7.5t44 11.5q1 1 5 1q5 -1 11 -1.5t14 0.5q8 -2 13 -3q2 -2 6 -2q3 7 7 14q3 0 3 -2t-6.5 -12.5t-6.5 -13.5q0 -2 -12 -13q-6 -5 -9.5 -8t-4.5 -4q-8 -4 -18 -9.5t-23 -13.5q-16 -5 -42 -15q-20 -3 -44 -9q-5 0 -12.5 -0.5
t-15.5 -1.5q-2 -1 -7 -1t-13.5 1.5t-24.5 6.5l-8 4l-9 9t-12 10q-4 7 -9.5 14t-12.5 15l-2 6t-3 7v4q-1 2 -3 8q-2 2 -2 4q0 3 1.5 8t3.5 11t3.5 11t1.5 7q5 4 8 10t5 13q2 8 13 22q14 15 15 19q3 4 6.5 8.5t7.5 9.5l10 10q1 1 12.5 15t34.5 40q5 7 10.5 14.5t13.5 16.5
q8 11 19.5 28t27.5 40q3 8 7.5 16.5t11.5 18.5l3 6l4.5 9t6.5 12l3 3q1 4 3 7.5t4 8.5q0 4 10 20l1 1q1 1 1 5q5 0 17 15h3z" />
    <glyph glyph-name="Agrave" unicode="&#xc0;" horiz-adv-x="399" 
d="M287 609q17 0 37 -7q3 -3 9 -4q4 -2 8.5 -5t9.5 -6q17 -19 21 -33q2 -4 3 -7.5t3 -8.5v-5.5t1 -8.5q0 -3 2 -9v-36q-1 -5 -1 -11.5v-16.5q-1 -5 -1 -18q-2 -8 -2.5 -20t-1.5 -28q-1 -8 -2 -17.5t-3 -20.5q0 -7 -1 -12q-4 -13 -5 -26q-2 -5 -3 -15.5t-2 -24.5
q-1 -3 -1 -10l-1 -1q-2 -3 -3 -13q1 -1 1 -3l-2 -6l-2 -6q0 -2 3 -5q8 -8 8 -12q-1 -3 -1 -6q1 0 1 -1q-1 -5 -7 -13q-1 -1 -1.5 -2t-1.5 -2q1 -5 1 -11q-1 -1 -1 -2t-1 -3q0 -5 1 -8q-1 -4 -1 -16q0 -2 -3 -5q1 -4 1 -7.5t1 -7.5q0 -2 1 -4q-1 -3 -1 -10q1 -2 1 -4t1 -4
q-1 -1 -1 -3q0 -4 1 -7q-1 -3 -1 -11q1 -10 2 -21.5t3 -25.5q1 -3 1 -10v-5q1 -4 1 -8t1 -9q0 -4 -1 -7v-6q0 -4 -1 -13t-1 -13q1 -2 1 -8q-1 -1 -1 -1.5t-1 -1.5q-1 -4 -2 -7.5t-3 -8.5q0 -5 -6 -11t-5 -7q-4 -1 -7 2l-1 -5l2 -10q-2 -3 -4 -1q-6 19 -15 55v3
q-2 10 -5 20.5t-6 23.5q-1 4 -1 7.5t-1 8.5q-2 11 -4 21.5t-4 21.5q-1 4 -1 8.5t-1 9.5l-9 6q-2 4 -5.5 7.5l-7.5 7.5q-5 6 -10 11.5t-10 10.5q-5 6 -17 17q-6 -2 -10 -3q-9 -1 -21 -3q-1 0 -1 -1h-1q-12 -1 -26 -3t-31 -4q-4 -8 -6.5 -15.5t-3.5 -15.5q-6 -15 -12 -30.5
t-11 -32.5l-3 -9l-2 -6l-4 -13q-1 -2 -2 -5.5t-3 -8.5l-7 -17q-5 -11 -9 -31q-2 -2 -6 -8q-17 -13 -28 -13q-9 0 -19 10q-15 15 -15 32q0 15 9 38q3 11 7.5 26.5t11.5 35.5l17 53l6 18q5 6 6 15q-1 8 -3 18l2 8t3 9q1 2 6 17v1q8 6 18 15q2 4 4 9l4 10q1 2 6 15.5t16 38.5
q1 1 7 19q1 0 4 6q40 84 71 157q2 2 3 5l4 9q2 3 7.5 15t15.5 34q2 5 6 9q11 24 30 50l5 2q8 5 10 5zM275 472q-6 0 -33 -68q-2 -4 -8 -19.5t-17 -43.5q-2 -4 -7.5 -18t-15.5 -39q-4 -9 -7 -19t-7 -21q-1 -4 -3 -14h22q11 1 30 2t46 3q1 1 1 1.5t1 1.5q0 9 0.5 24t1.5 35
q2 36 3 62t1 42v10.5t-1 22.5v8.5t-1 13.5q-7 15 -6 16zM417 570q-1 -7 -2 -8l-2 -2h-3l-3 -3h-2q-4 -3 -13 -3q-12 0 -27 7q-2 1 -8 3t-16 7q-11 5 -23.5 12t-25.5 17q-40 30 -45 33q-5 4 -10 8.5t-12 9.5q-3 4 -7 8.5t-9 9.5q-1 1 -9 17q-7 11 -7 22l1 1q1 16 10 16
q27 0 21 2q5 0 9 -1l6 -2q4 -2 7 -3q1 -1 1.5 -1t1.5 -1l5 -2q3 -2 5 -5q13 -11 32.5 -28t45.5 -40q11 -10 21 -19t20 -19q38 -35 38 -36z" />
    <glyph glyph-name="Aacute" unicode="&#xc1;" horiz-adv-x="399" 
d="M287 609q17 0 37 -7q3 -3 9 -4q4 -2 8.5 -5t9.5 -6q17 -19 21 -33q2 -4 3 -7.5t3 -8.5v-5.5t1 -8.5q0 -3 2 -9v-36q-1 -5 -1 -11.5v-16.5q-1 -5 -1 -18q-2 -8 -2.5 -20t-1.5 -28q-1 -8 -2 -17.5t-3 -20.5q0 -7 -1 -12q-4 -13 -5 -26q-2 -5 -3 -15.5t-2 -24.5
q-1 -3 -1 -10l-1 -1q-2 -3 -3 -13q1 -1 1 -3l-2 -6l-2 -6q0 -2 3 -5q8 -8 8 -12q-1 -3 -1 -6q1 0 1 -1q-1 -5 -7 -13q-1 -1 -1.5 -2t-1.5 -2q1 -5 1 -11q-1 -1 -1 -2t-1 -3q0 -5 1 -8q-1 -4 -1 -16q0 -2 -3 -5q1 -4 1 -7.5t1 -7.5q0 -2 1 -4q-1 -3 -1 -10q1 -2 1 -4t1 -4
q-1 -1 -1 -3q0 -4 1 -7q-1 -3 -1 -11q1 -10 2 -21.5t3 -25.5q1 -3 1 -10v-5q1 -4 1 -8t1 -9q0 -4 -1 -7v-6q0 -4 -1 -13t-1 -13q1 -2 1 -8q-1 -1 -1 -1.5t-1 -1.5q-1 -4 -2 -7.5t-3 -8.5q0 -5 -6 -11t-5 -7q-4 -1 -7 2l-1 -5l2 -10q-2 -3 -4 -1q-6 19 -15 55v3
q-2 10 -5 20.5t-6 23.5q-1 4 -1 7.5t-1 8.5q-2 11 -4 21.5t-4 21.5q-1 4 -1 8.5t-1 9.5l-9 6q-2 4 -5.5 7.5l-7.5 7.5q-5 6 -10 11.5t-10 10.5q-5 6 -17 17q-6 -2 -10 -3q-9 -1 -21 -3q-1 0 -1 -1h-1q-12 -1 -26 -3t-31 -4q-4 -8 -6.5 -15.5t-3.5 -15.5q-6 -15 -12 -30.5
t-11 -32.5l-3 -9l-2 -6l-4 -13q-1 -2 -2 -5.5t-3 -8.5l-7 -17q-5 -11 -9 -31q-2 -2 -6 -8q-17 -13 -28 -13q-9 0 -19 10q-15 15 -15 32q0 15 9 38q3 11 7.5 26.5t11.5 35.5l17 53l6 18q5 6 6 15q-1 8 -3 18l2 8t3 9q1 2 6 17v1q8 6 18 15q2 4 4 9l4 10q1 2 6 15.5t16 38.5
q1 1 7 19q1 0 4 6q40 84 71 157q2 2 3 5l4 9q2 3 7.5 15t15.5 34q2 5 6 9q11 24 30 50l5 2q8 5 10 5zM275 472q-6 0 -33 -68q-2 -4 -8 -19.5t-17 -43.5q-2 -4 -7.5 -18t-15.5 -39q-4 -9 -7 -19t-7 -21q-1 -4 -3 -14h22q11 1 30 2t46 3q1 1 1 1.5t1 1.5q0 9 0.5 24t1.5 35
q2 36 3 62t1 42v10.5t-1 22.5v8.5t-1 13.5q-7 15 -6 16zM454 854l5 -3l1 -4l-4 -1l-3 -8l1 -3l-5 -2l-8 -5v-3l3 -4l-4 -4l2 -8l-4 -3v-3l12 2v-1l-14 -11l-3 -10l-7 -11l-6 -7l-12 -11l-11 -8l-40 -24l-36 -16l-7 -1h-17l-12 4h-8l-6 3v4l-4 4l-5 14l1 5l-2 6l2 4l6 6v2
l30 27l14 10l41 30l30 18l29 7l37 5h4z" />
    <glyph glyph-name="Acircumflex" unicode="&#xc2;" horiz-adv-x="399" 
d="M287 609q17 0 37 -7q3 -3 9 -4q4 -2 8.5 -5t9.5 -6q17 -19 21 -33q2 -4 3 -7.5t3 -8.5v-5.5t1 -8.5q0 -3 2 -9v-36q-1 -5 -1 -11.5v-16.5q-1 -5 -1 -18q-2 -8 -2.5 -20t-1.5 -28q-1 -8 -2 -17.5t-3 -20.5q0 -7 -1 -12q-4 -13 -5 -26q-2 -5 -3 -15.5t-2 -24.5
q-1 -3 -1 -10l-1 -1q-2 -3 -3 -13q1 -1 1 -3l-2 -6l-2 -6q0 -2 3 -5q8 -8 8 -12q-1 -3 -1 -6q1 0 1 -1q-1 -5 -7 -13q-1 -1 -1.5 -2t-1.5 -2q1 -5 1 -11q-1 -1 -1 -2t-1 -3q0 -5 1 -8q-1 -4 -1 -16q0 -2 -3 -5q1 -4 1 -7.5t1 -7.5q0 -2 1 -4q-1 -3 -1 -10q1 -2 1 -4t1 -4
q-1 -1 -1 -3q0 -4 1 -7q-1 -3 -1 -11q1 -10 2 -21.5t3 -25.5q1 -3 1 -10v-5q1 -4 1 -8t1 -9q0 -4 -1 -7v-6q0 -4 -1 -13t-1 -13q1 -2 1 -8q-1 -1 -1 -1.5t-1 -1.5q-1 -4 -2 -7.5t-3 -8.5q0 -5 -6 -11t-5 -7q-4 -1 -7 2l-1 -5l2 -10q-2 -3 -4 -1q-6 19 -15 55v3
q-2 10 -5 20.5t-6 23.5q-1 4 -1 7.5t-1 8.5q-2 11 -4 21.5t-4 21.5q-1 4 -1 8.5t-1 9.5l-9 6q-2 4 -5.5 7.5l-7.5 7.5q-5 6 -10 11.5t-10 10.5q-5 6 -17 17q-6 -2 -10 -3q-9 -1 -21 -3q-1 0 -1 -1h-1q-12 -1 -26 -3t-31 -4q-4 -8 -6.5 -15.5t-3.5 -15.5q-6 -15 -12 -30.5
t-11 -32.5l-3 -9l-2 -6l-4 -13q-1 -2 -2 -5.5t-3 -8.5l-7 -17q-5 -11 -9 -31q-2 -2 -6 -8q-17 -13 -28 -13q-9 0 -19 10q-15 15 -15 32q0 15 9 38q3 11 7.5 26.5t11.5 35.5l17 53l6 18q5 6 6 15q-1 8 -3 18l2 8t3 9q1 2 6 17v1q8 6 18 15q2 4 4 9l4 10q1 2 6 15.5t16 38.5
q1 1 7 19q1 0 4 6q40 84 71 157q2 2 3 5l4 9q2 3 7.5 15t15.5 34q2 5 6 9q11 24 30 50l5 2q8 5 10 5zM275 472q-6 0 -33 -68q-2 -4 -8 -19.5t-17 -43.5q-2 -4 -7.5 -18t-15.5 -39q-4 -9 -7 -19t-7 -21q-1 -4 -3 -14h22q11 1 30 2t46 3q1 1 1 1.5t1 1.5q0 9 0.5 24t1.5 35
q2 36 3 62t1 42v10.5t-1 22.5v8.5t-1 13.5q-7 15 -6 16zM457 716q0 -5 -6 -20q-6 -3 -10 -3q-11 0 -16 3q-2 2 -13 17.5t-30 44.5q-4 5 -9 13.5t-13 19.5q-6 8 -13 9q-1 -1 -8 -3q-1 -1 -9 -10l-24 -27l-9 -12q-1 -2 -39 -46q-13 -10 -16 -23q-14 -8 -20 -8q-11 2 -14 6
q-8 4 -16 25q0 1 1 2q0 5 3.5 12t15.5 24q5 7 11 14.5t13 16.5q11 14 24.5 30t29.5 34q4 3 8 7l9 9q3 2 6 4.5t7 6.5q2 2 9 5q17 0 24 -7q2 -2 5 -3.5l7 -3.5q5 -4 10.5 -9t12.5 -10q3 -6 12 -16l33 -66q8 -15 16 -24v-1q2 -3 8 -11z" />
    <glyph glyph-name="Atilde" unicode="&#xc3;" horiz-adv-x="399" 
d="M287 609q17 0 37 -7q3 -3 9 -4q4 -2 8.5 -5t9.5 -6q17 -19 21 -33q2 -4 3 -7.5t3 -8.5v-5.5t1 -8.5q0 -3 2 -9v-36q-1 -5 -1 -11.5v-16.5q-1 -5 -1 -18q-2 -8 -2.5 -20t-1.5 -28q-1 -8 -2 -17.5t-3 -20.5q0 -7 -1 -12q-4 -13 -5 -26q-2 -5 -3 -15.5t-2 -24.5
q-1 -3 -1 -10l-1 -1q-2 -3 -3 -13q1 -1 1 -3l-2 -6l-2 -6q0 -2 3 -5q8 -8 8 -12q-1 -3 -1 -6q1 0 1 -1q-1 -5 -7 -13q-1 -1 -1.5 -2t-1.5 -2q1 -5 1 -11q-1 -1 -1 -2t-1 -3q0 -5 1 -8q-1 -4 -1 -16q0 -2 -3 -5q1 -4 1 -7.5t1 -7.5q0 -2 1 -4q-1 -3 -1 -10q1 -2 1 -4t1 -4
q-1 -1 -1 -3q0 -4 1 -7q-1 -3 -1 -11q1 -10 2 -21.5t3 -25.5q1 -3 1 -10v-5q1 -4 1 -8t1 -9q0 -4 -1 -7v-6q0 -4 -1 -13t-1 -13q1 -2 1 -8q-1 -1 -1 -1.5t-1 -1.5q-1 -4 -2 -7.5t-3 -8.5q0 -5 -6 -11t-5 -7q-4 -1 -7 2l-1 -5l2 -10q-2 -3 -4 -1q-6 19 -15 55v3
q-2 10 -5 20.5t-6 23.5q-1 4 -1 7.5t-1 8.5q-2 11 -4 21.5t-4 21.5q-1 4 -1 8.5t-1 9.5l-9 6q-2 4 -5.5 7.5l-7.5 7.5q-5 6 -10 11.5t-10 10.5q-5 6 -17 17q-6 -2 -10 -3q-9 -1 -21 -3q-1 0 -1 -1h-1q-12 -1 -26 -3t-31 -4q-4 -8 -6.5 -15.5t-3.5 -15.5q-6 -15 -12 -30.5
t-11 -32.5l-3 -9l-2 -6l-4 -13q-1 -2 -2 -5.5t-3 -8.5l-7 -17q-5 -11 -9 -31q-2 -2 -6 -8q-17 -13 -28 -13q-9 0 -19 10q-15 15 -15 32q0 15 9 38q3 11 7.5 26.5t11.5 35.5l17 53l6 18q5 6 6 15q-1 8 -3 18l2 8t3 9q1 2 6 17v1q8 6 18 15q2 4 4 9l4 10q1 2 6 15.5t16 38.5
q1 1 7 19q1 0 4 6q40 84 71 157q2 2 3 5l4 9q2 3 7.5 15t15.5 34q2 5 6 9q11 24 30 50l5 2q8 5 10 5zM275 472q-6 0 -33 -68q-2 -4 -8 -19.5t-17 -43.5q-2 -4 -7.5 -18t-15.5 -39q-4 -9 -7 -19t-7 -21q-1 -4 -3 -14h22q11 1 30 2t46 3q1 1 1 1.5t1 1.5q0 9 0.5 24t1.5 35
q2 36 3 62t1 42v10.5t-1 22.5v8.5t-1 13.5q-7 15 -6 16zM506 817q-2 -5 -6 -11l1 -1q-5 -10 -19 -27q-1 -3 -6 -13l-2 -1v-3q-2 -6 -9 -16v-3q0 -2 1 -3q-2 -4 -4.5 -7.5t-5.5 -8.5q1 1 1 0q-1 0 -1 -2q-5 -3 -13 -10l-1 -1q-7 -7 -11 -9q-9 -4 -17.5 -5t-22.5 -1
q-34 3 -71 23q-2 2 -14 9q-2 2 -5 4t-7 4q-2 0 -9.5 4t-8.5 4q0 -1 -1.5 -1.5t-4 -2t-5 -6t-3.5 -13.5q-5 -12 -12.5 -14t-9.5 -2q-5 0 -8 1h-4q-2 1 -3.5 1t-3.5 1h-4q-5 1 -10 10q-2 2 -6 13q1 1 1 1.5t1 1.5q-1 1 -1 4q0 7 4 22q15 34 25 42q21 19 35 17q3 1 10 1
q4 -1 9.5 -1.5t13.5 -2.5q2 -1 4.5 -2t4.5 -2q6 -4 13 -8.5t15 -9.5l10 -10t11 -12q1 -1 3 -5v-1q4 -9 9 -17l1 -1l6 -2h7q12 2 15.5 4.5t8.5 6.5q7 8 16.5 19.5t22.5 26.5q18 19 24 19q22 0 21 1q2 0 10 -2q1 -1 5 -3z" />
    <glyph glyph-name="Adieresis" unicode="&#xc4;" horiz-adv-x="399" 
d="M287 609q17 0 37 -7q3 -3 9 -4q4 -2 8.5 -5t9.5 -6q17 -19 21 -33q2 -4 3 -7.5t3 -8.5v-5.5t1 -8.5q0 -3 2 -9v-36q-1 -5 -1 -11.5v-16.5q-1 -5 -1 -18q-2 -8 -2.5 -20t-1.5 -28q-1 -8 -2 -17.5t-3 -20.5q0 -7 -1 -12q-4 -13 -5 -26q-2 -5 -3 -15.5t-2 -24.5
q-1 -3 -1 -10l-1 -1q-2 -3 -3 -13q1 -1 1 -3l-2 -6l-2 -6q0 -2 3 -5q8 -8 8 -12q-1 -3 -1 -6q1 0 1 -1q-1 -5 -7 -13q-1 -1 -1.5 -2t-1.5 -2q1 -5 1 -11q-1 -1 -1 -2t-1 -3q0 -5 1 -8q-1 -4 -1 -16q0 -2 -3 -5q1 -4 1 -7.5t1 -7.5q0 -2 1 -4q-1 -3 -1 -10q1 -2 1 -4t1 -4
q-1 -1 -1 -3q0 -4 1 -7q-1 -3 -1 -11q1 -10 2 -21.5t3 -25.5q1 -3 1 -10v-5q1 -4 1 -8t1 -9q0 -4 -1 -7v-6q0 -4 -1 -13t-1 -13q1 -2 1 -8q-1 -1 -1 -1.5t-1 -1.5q-1 -4 -2 -7.5t-3 -8.5q0 -5 -6 -11t-5 -7q-4 -1 -7 2l-1 -5l2 -10q-2 -3 -4 -1q-6 19 -15 55v3
q-2 10 -5 20.5t-6 23.5q-1 4 -1 7.5t-1 8.5q-2 11 -4 21.5t-4 21.5q-1 4 -1 8.5t-1 9.5l-9 6q-2 4 -5.5 7.5l-7.5 7.5q-5 6 -10 11.5t-10 10.5q-5 6 -17 17q-6 -2 -10 -3q-9 -1 -21 -3q-1 0 -1 -1h-1q-12 -1 -26 -3t-31 -4q-4 -8 -6.5 -15.5t-3.5 -15.5q-6 -15 -12 -30.5
t-11 -32.5l-3 -9l-2 -6l-4 -13q-1 -2 -2 -5.5t-3 -8.5l-7 -17q-5 -11 -9 -31q-2 -2 -6 -8q-17 -13 -28 -13q-9 0 -19 10q-15 15 -15 32q0 15 9 38q3 11 7.5 26.5t11.5 35.5l17 53l6 18q5 6 6 15q-1 8 -3 18l2 8t3 9q1 2 6 17v1q8 6 18 15q2 4 4 9l4 10q1 2 6 15.5t16 38.5
q1 1 7 19q1 0 4 6q40 84 71 157q2 2 3 5l4 9q2 3 7.5 15t15.5 34q2 5 6 9q11 24 30 50l5 2q8 5 10 5zM275 472q-6 0 -33 -68q-2 -4 -8 -19.5t-17 -43.5q-2 -4 -7.5 -18t-15.5 -39q-4 -9 -7 -19t-7 -21q-1 -4 -3 -14h22q11 1 30 2t46 3q1 1 1 1.5t1 1.5q0 9 0.5 24t1.5 35
q2 36 3 62t1 42v10.5t-1 22.5v8.5t-1 13.5q-7 15 -6 16zM234 761l8 -3l9 -4l8 1l-1 -7l10 -4l14 -13l6 -7l14 -33l1 -7v-12l-7 -12l-7 -8l-1 -2l-15 -2l-17 -2l-18 7l-8 4l-2 2l-24 17l-11 10l-2 5v13l-2 11l2 13l8 16l18 14l15 3h2zM409 752l9 2l12 -15l14 -12l9 -24v-27
l-13 -14l-5 -3l-10 -3l-26 4l-20 10l-21 19l-1 15l-4 6l11 34l10 7l10 3l3 5z" />
    <glyph glyph-name="Aring" unicode="&#xc5;" horiz-adv-x="399" 
d="M287 609q17 0 37 -7q3 -3 9 -4q4 -2 8.5 -5t9.5 -6q17 -19 21 -33q2 -4 3 -7.5t3 -8.5v-5.5t1 -8.5q0 -3 2 -9v-36q-1 -5 -1 -11.5v-16.5q-1 -5 -1 -18q-2 -8 -2.5 -20t-1.5 -28q-1 -8 -2 -17.5t-3 -20.5q0 -7 -1 -12q-4 -13 -5 -26q-2 -5 -3 -15.5t-2 -24.5
q-1 -3 -1 -10l-1 -1q-2 -3 -3 -13q1 -1 1 -3l-2 -6l-2 -6q0 -2 3 -5q8 -8 8 -12q-1 -3 -1 -6q1 0 1 -1q-1 -5 -7 -13q-1 -1 -1.5 -2t-1.5 -2q1 -5 1 -11q-1 -1 -1 -2t-1 -3q0 -5 1 -8q-1 -4 -1 -16q0 -2 -3 -5q1 -4 1 -7.5t1 -7.5q0 -2 1 -4q-1 -3 -1 -10q1 -2 1 -4t1 -4
q-1 -1 -1 -3q0 -4 1 -7q-1 -3 -1 -11q1 -10 2 -21.5t3 -25.5q1 -3 1 -10v-5q1 -4 1 -8t1 -9q0 -4 -1 -7v-6q0 -4 -1 -13t-1 -13q1 -2 1 -8q-1 -1 -1 -1.5t-1 -1.5q-1 -4 -2 -7.5t-3 -8.5q0 -5 -6 -11t-5 -7q-4 -1 -7 2l-1 -5l2 -10q-2 -3 -4 -1q-6 19 -15 55v3
q-2 10 -5 20.5t-6 23.5q-1 4 -1 7.5t-1 8.5q-2 11 -4 21.5t-4 21.5q-1 4 -1 8.5t-1 9.5l-9 6q-2 4 -5.5 7.5l-7.5 7.5q-5 6 -10 11.5t-10 10.5q-5 6 -17 17q-6 -2 -10 -3q-9 -1 -21 -3q-1 0 -1 -1h-1q-12 -1 -26 -3t-31 -4q-4 -8 -6.5 -15.5t-3.5 -15.5q-6 -15 -12 -30.5
t-11 -32.5l-3 -9l-2 -6l-4 -13q-1 -2 -2 -5.5t-3 -8.5l-7 -17q-5 -11 -9 -31q-2 -2 -6 -8q-17 -13 -28 -13q-9 0 -19 10q-15 15 -15 32q0 15 9 38q3 11 7.5 26.5t11.5 35.5l17 53l6 18q5 6 6 15q-1 8 -3 18l2 8t3 9q1 2 6 17v1q8 6 18 15q2 4 4 9l4 10q1 2 6 15.5t16 38.5
q1 1 7 19q1 0 4 6q40 84 71 157q2 2 3 5l4 9q2 3 7.5 15t15.5 34q2 5 6 9q11 24 30 50l5 2q8 5 10 5zM275 472q-6 0 -33 -68q-2 -4 -8 -19.5t-17 -43.5q-2 -4 -7.5 -18t-15.5 -39q-4 -9 -7 -19t-7 -21q-1 -4 -3 -14h22q11 1 30 2t46 3q1 1 1 1.5t1 1.5q0 9 0.5 24t1.5 35
q2 36 3 62t1 42v10.5t-1 22.5v8.5t-1 13.5q-7 15 -6 16zM259 730q0 4 0.5 8.5t1.5 9.5q2 4 3.5 8t3.5 9v5q3 3 4 5q17 32 31 42q8 5 24 12q3 1 7.5 2t9.5 3q4 -1 26 -6q5 -4 12 -9l9 -9q3 -3 6 -4q6 -5 13 -16q3 -1 6 -6q7 -14 9 -20q3 -16 3 -13q0 -28 -7 -46l-6 -6
q-11 -11 -33 -25q-38 -23 -51 -16q-2 0 -7.5 -1t-7.5 -1q-5 0 -18.5 5t-16.5 8q-7 8 -11.5 13.5t-7 12t-3 15t-0.5 20.5zM376 748q0 29 -21 29q-3 0 -13 -10l-11 -12q-1 -1 -1 -1.5t-1 -1.5q-17 -11 -17 -34q0 -18 9 -18q0 3 30 19q25 13 25 29z" />
    <glyph glyph-name="AE" unicode="&#xc6;" horiz-adv-x="689" 
d="M753 529q0 -5 -4 -6l-48 -12q-10 -4 -34 -6q-5 -2 -12 -4t-17 -4q-1 1 -4 1q-31 -4 -66 -9q-14 0 -20 -2q-1 -1 -3 -1t-3 1q-2 -1 -6 -1t-9 -1q-6 -1 -15 -3h-16q-2 -1 -6 -1q-2 1 -4.5 1t-4.5 1q-5 -5 -15.5 -14.5t-22.5 -24.5q-9 -5 -16 -14q-2 -11 -4.5 -26.5
t-5.5 -37.5q-1 -5 -1 -14q2 -4 6 -9q3 0 10 -18q8 -17 11 -17q1 0 2.5 -5.5t2.5 -5.5q1 -7 8 -15q5 1 15 2t26 3q2 0 42 9q2 1 5.5 1t9.5 1l4 2q12 0 15 -1q4 0 6 1q6 -2 7 -2q1 1 5 1q7 0 14 -7q4 0 8 -7q-1 -1 -1 -3q4 -1 8 -10q-4 -7 -14 -15q0 -1 -46 -10
q-12 -3 -28.5 -7.5t-31.5 -5.5q-1 -1 -2 -1t-3 -1q-16 -1 -55 -6q-10 -11 -25 -21q-2 -4 -5.5 -7.5l-7.5 -7.5l-3 -3q-1 -33 -2 -48t-2 -12q1 -8 2 -20.5t11 -28.5q8 -12 15 -18q35 -21 76 -21q2 -1 4.5 -1t5.5 -1q10 -1 16.5 -0.5t11.5 1.5q5 0 8 1q1 -1 3 -1l4 2l6 3h8
q2 -2 4 -2l4 2q1 -1 3 -1l-4 -2q0 1 -1 2q-1 0 0 1q-1 -4 0 -11q7 -4 7 -27v-4l-5 -4l-5 -5l-41 -12q-6 -5 -37 -9q-6 -1 -18 -2t-29 -2q-3 0 -12 3q-1 -1 -1.5 -1t-1.5 -1q-8 0 -53 19l-9 4.5t-12 6.5q-10 11 -27 24q-1 3 -6 8q-2 6 -5.5 12.5t-7.5 14.5q-4 11 -12 31
q-2 11 -4 26.5t-5 37.5q-10 3 -20 13l-1 1q-9 5 -17 14h-22q-2 -1 -5 -1t-6 -1q-4 -3 -7.5 -6t-8.5 -6q-6 -8 -33 -32q-6 -6 -15 -14t-22 -19l-10 -10l-10 -10q-2 -4 -5 -8t-5 -9q-2 -7 -12 -25q-2 -5 -5 -10.5t-6 -11.5q-3 -2 -6 -5.5t-7 -7.5q-3 -3 -14 -10q-6 0 -9 -1h-1
l-1 1h-1l2 4q2 6 3 5v1q0 -5 -11 -5q-4 1 -4 20q1 18 -1 23q2 -6 2 19q0 -4 25 59q5 11 6 24q2 9 3 27q1 2 1 4.5t1 5.5q1 1 2 1.5t2 2.5v6q3 4 6 14q4 3 7 7h3q3 1 8 6q10 23 19.5 44.5t19.5 41.5l4.5 9t6.5 12q0 3 1 5l16 28q1 3 47 92q4 7 9.5 18l13.5 27q1 2 3 4.5
t4 7.5q4 7 10 18.5t14 27.5q2 5 9.5 18t19.5 33q3 3 7 5q17 12 26 8q6 0 16 -3q2 2 3 0q8 -2 20 -11q5 -1 12 -9v-3q2 -1 3.5 -2t3.5 -3q2 -4 5 -7.5t6 -8.5q3 -8 6 -17t7 -20q1 0 2 1q3 -3 8 -3q-2 1 -6 -3.5t-4 -2.5h1q3 7 12 7h7q4 1 7 1q2 0 3 -1q2 1 4.5 2t6.5 2
q4 0 7 1h10.5t12.5 1q8 2 13 3q8 1 22 2t34 3q4 1 9 1t13 1l38 1l4 -2h9l4 2q1 1 2 1t3 1q4 -1 17 -1q6 2 10 3q3 -1 11 -1l2 1q5 1 13 1h19q15 0 23 -4q2 -4 12 -5q3 -1 13 -6l1 -2q1 -2 2 -3.5t2 -4.5zM287 467q-8 0 -35 -64q-2 -7 -6.5 -16t-9.5 -20q-11 -23 -20.5 -46
t-18.5 -46q-2 -5 -4 -12t-6 -17q13 3 31.5 7.5t43.5 9.5q5 7 13 13.5t18 13.5v41q1 21 1 31.5v11.5q1 4 1 9v10v10.5t-1 13.5q1 7 1.5 14.5t0.5 16.5q-1 3 -2 6.5t-2 7.5l-5 5v0z" />
    <glyph glyph-name="Ccedilla" unicode="&#xc7;" horiz-adv-x="421" 
d="M199 -15l-5 -12v-7l30 -13l11 -7l12 -16l8 -25l-2 -8h-8l-7 -8l-19 -9l-17 -7l-13 -6l-52 -17l-32 -9h-12l-6 4h-5h-3l-2 5h-5l-3 3l8 5l12 6l84 33l16 11l-5 1l-23 -3h-16v3l-4 5l-7 2l-1 2l-7 3l-3 3v22l24 37l3 15l-17 6l-20 11l-15 13l-23 23l-16 24l-10 25l-4 14v13
l-3 16l2 15l1 19l12 45l7 11l3 9l2 4l4 12l36 55l8 7l5 6l1 5l24 27l29 34l12 14l8 6l2 5l3 2l3 4l22 20l13 12l34 31l15 9l6 7l11 8l13 12l8 3l18 8l7 9h7v-2h14l4 -2h2l18 -13h14l4 -3l5 -8l2 -8l7 -11l9 -17v-19l-7 -13l-7 -9l-9 -7l-24 -6l-8 -3l-16 -16l-5 -9l-11 -11
l-9 -13l-11 -10l-32 -35l-14 -16l-16 -24l-6 -7l-41 -54l-7 -5l-11 -20l-9 -13l-6 -12l-7 -11l-4 -22l-8 -18l-2 -29l1 -16l11 -20l19 -13l20 -7l27 -7h21h25l11 -2l3 2h4l9 -5v-11l-3 -8v-8l-2 1h-2l-9 -5l-14 -3l-15 -4l-3 1l-15 -3l-2 -2h-16l-27 -1h-11z" />
    <glyph glyph-name="Egrave" unicode="&#xc8;" horiz-adv-x="528" 
d="M552 528q-1 -1 -3 -5q-14 -4 -26.5 -6.5t-23.5 -3.5q-2 -1 -3.5 -1t-3.5 -1h-8t-9 -1q-1 -1 -2 -1t-3 -1q-1 1 -4 1l-10 -6q-1 -1 -1.5 -2t-1.5 -2q-2 -1 -5 -1t-7 -1q-3 0 -5 1q0 -2 -19 -6l-14 -4h-5l-4 -2q-1 1 -4 1q-1 -1 -2 -1t-3 -1q-7 -1 -13.5 -1t-13.5 -1h-4
q-2 0 -6.5 -2t-5.5 -2q-5 -1 -17 -1q-9 -4 -22 -5q-1 -2 -5 -6q-6 -3 -17.5 -11t-28.5 -21q-2 -2 -7 -6t-14 -11q-3 -2 -6 -4.5t-6 -6.5q-1 -3 -6 -8q-7 -15 -15 -38q-2 -5 -3.5 -11.5t-3.5 -13.5q0 -2 -3 -9t-3 -10t2 -5h3l29 2q8 1 18 1t23 1q19 -1 44 0q4 -1 9 -1h10
q3 -1 15 -1l4 -2q30 6 26 6q13 0 17 -4v-2q1 -1 1 -19l-11 -7l-5 -3h-3l-3 -3l-14 -3q-3 -3 -14 -7l-14 -6q-3 -3 -44 -12q-3 -1 -10.5 -2t-20.5 -3q-5 -6 -12.5 -12t-15.5 -13q-3 -3 -8 -5q-10 -16 -21 -24q-5 -11 -14 -22q-11 -3 -32 -6q-1 -32 7 -51q12 -20 44 -22v-5
l1 -7l5 -3l8 -1h13l31 4l11 3l28 4l18 5l16 3l21 6l1 -3q1 -1 1 -3q-1 -3 -1 -6l1 -1q-1 -3 1 -7q-4 -4 -5 -6l-1 2q0 -4 1 -6q-2 2 -8 -18q-1 0 -2 -1v-2q-1 -2 -2 -5t-3 -8q-1 -1 -2.5 -3l-4.5 -6v-4l-12 -6t-13 -7q-2 -1 -5 -1.5t-7 -2.5q-2 0 -3 -1q-8 -2 -16 -3.5
t-18 -3.5h-7t-14 -1h-13q-2 -1 -22 2q-19 3 -22 3q-5 0 -32 13q-2 1 -5 3t-7 4l-5 6q-4 4 -8.5 9t-11.5 12q-2 2 -3.5 5t-3.5 6q-1 1 -1.5 1t-1.5 1q-4 11 -12 30q-2 8 -4 18.5t-6 22.5q0 7 -1 11q1 3 1 10q0 2 -1 3v8t-1 9q1 5 1.5 11t0.5 13q1 5 1.5 11t0.5 13
q2 11 4 22.5t4 25.5q0 3 2.5 11t2.5 10q0 3 1 7.5t1 6.5q2 4 3 8t2 9q1 4 3 17q4 10 7.5 22.5t8.5 29.5q1 0 1 1q3 9 6 21l-3 6q-5 10 -10 30q3 2 8 7v3l5 5q-1 1 -1 4q2 9 17 28h2l7 7q5 5 10 9.5t11 9.5q4 4 6 7q-3 2 -3 15q17 11 21.5 11t12.5 1q5 1 12 1q2 -1 4.5 -1
t4.5 -1h3q6 -1 8.5 -1t1.5 0q17 2 57 3h35q5 -1 9.5 -1t9.5 -1h68q5 -1 16 -1q-5 -1 57 -1q10 0 26 -4q20 -5 22 -8q7 -3 14 -7q2 0 3 -1v-6v0zM439 610q-1 -7 -2 -8l-2 -2h-3l-3 -3h-2q-4 -3 -13 -3q-12 0 -27 7q-2 1 -8 3t-16 7q-11 5 -23.5 12t-25.5 17q-40 30 -45 33
q-5 4 -10 8.5t-12 9.5q-3 4 -7 8.5t-9 9.5q-1 1 -9 17q-7 11 -7 22l1 1q1 16 10 16q27 0 21 2q5 0 9 -1l6 -2q4 -2 7 -3q1 -1 1.5 -1t1.5 -1l5 -2q3 -2 5 -5q13 -11 32.5 -28t45.5 -40q11 -10 21 -19t20 -19q38 -35 38 -36z" />
    <glyph glyph-name="Eacute" unicode="&#xc9;" horiz-adv-x="528" 
d="M552 528q-1 -1 -3 -5q-14 -4 -26.5 -6.5t-23.5 -3.5q-2 -1 -3.5 -1t-3.5 -1h-8t-9 -1q-1 -1 -2 -1t-3 -1q-1 1 -4 1l-10 -6q-1 -1 -1.5 -2t-1.5 -2q-2 -1 -5 -1t-7 -1q-3 0 -5 1q0 -2 -19 -6l-14 -4h-5l-4 -2q-1 1 -4 1q-1 -1 -2 -1t-3 -1q-7 -1 -13.5 -1t-13.5 -1h-4
q-2 0 -6.5 -2t-5.5 -2q-5 -1 -17 -1q-9 -4 -22 -5q-1 -2 -5 -6q-6 -3 -17.5 -11t-28.5 -21q-2 -2 -7 -6t-14 -11q-3 -2 -6 -4.5t-6 -6.5q-1 -3 -6 -8q-7 -15 -15 -38q-2 -5 -3.5 -11.5t-3.5 -13.5q0 -2 -3 -9t-3 -10t2 -5h3l29 2q8 1 18 1t23 1q19 -1 44 0q4 -1 9 -1h10
q3 -1 15 -1l4 -2q30 6 26 6q13 0 17 -4v-2q1 -1 1 -19l-11 -7l-5 -3h-3l-3 -3l-14 -3q-3 -3 -14 -7l-14 -6q-3 -3 -44 -12q-3 -1 -10.5 -2t-20.5 -3q-5 -6 -12.5 -12t-15.5 -13q-3 -3 -8 -5q-10 -16 -21 -24q-5 -11 -14 -22q-11 -3 -32 -6q-1 -32 7 -51q12 -20 44 -22v-5
l1 -7l5 -3l8 -1h13l31 4l11 3l28 4l18 5l16 3l21 6l1 -3q1 -1 1 -3q-1 -3 -1 -6l1 -1q-1 -3 1 -7q-4 -4 -5 -6l-1 2q0 -4 1 -6q-2 2 -8 -18q-1 0 -2 -1v-2q-1 -2 -2 -5t-3 -8q-1 -1 -2.5 -3l-4.5 -6v-4l-12 -6t-13 -7q-2 -1 -5 -1.5t-7 -2.5q-2 0 -3 -1q-8 -2 -16 -3.5
t-18 -3.5h-7t-14 -1h-13q-2 -1 -22 2q-19 3 -22 3q-5 0 -32 13q-2 1 -5 3t-7 4l-5 6q-4 4 -8.5 9t-11.5 12q-2 2 -3.5 5t-3.5 6q-1 1 -1.5 1t-1.5 1q-4 11 -12 30q-2 8 -4 18.5t-6 22.5q0 7 -1 11q1 3 1 10q0 2 -1 3v8t-1 9q1 5 1.5 11t0.5 13q1 5 1.5 11t0.5 13
q2 11 4 22.5t4 25.5q0 3 2.5 11t2.5 10q0 3 1 7.5t1 6.5q2 4 3 8t2 9q1 4 3 17q4 10 7.5 22.5t8.5 29.5q1 0 1 1q3 9 6 21l-3 6q-5 10 -10 30q3 2 8 7v3l5 5q-1 1 -1 4q2 9 17 28h2l7 7q5 5 10 9.5t11 9.5q4 4 6 7q-3 2 -3 15q17 11 21.5 11t12.5 1q5 1 12 1q2 -1 4.5 -1
t4.5 -1h3q6 -1 8.5 -1t1.5 0q17 2 57 3h35q5 -1 9.5 -1t9.5 -1h68q5 -1 16 -1q-5 -1 57 -1q10 0 26 -4q20 -5 22 -8q7 -3 14 -7q2 0 3 -1v-6v0zM507 854l5 -3l1 -4l-4 -1l-3 -8l1 -3l-5 -2l-8 -5v-3l3 -4l-4 -4l2 -8l-4 -3v-3l12 2v-1l-14 -11l-3 -10l-7 -11l-6 -7l-12 -11
l-11 -8l-40 -24l-36 -16l-7 -1h-17l-12 4h-8l-6 3v4l-4 4l-5 14l1 5l-2 6l2 4l6 6v2l30 27l14 10l41 30l30 18l29 7l37 5h4z" />
    <glyph glyph-name="Ecircumflex" unicode="&#xca;" horiz-adv-x="528" 
d="M552 528q-1 -1 -3 -5q-14 -4 -26.5 -6.5t-23.5 -3.5q-2 -1 -3.5 -1t-3.5 -1h-8t-9 -1q-1 -1 -2 -1t-3 -1q-1 1 -4 1l-10 -6q-1 -1 -1.5 -2t-1.5 -2q-2 -1 -5 -1t-7 -1q-3 0 -5 1q0 -2 -19 -6l-14 -4h-5l-4 -2q-1 1 -4 1q-1 -1 -2 -1t-3 -1q-7 -1 -13.5 -1t-13.5 -1h-4
q-2 0 -6.5 -2t-5.5 -2q-5 -1 -17 -1q-9 -4 -22 -5q-1 -2 -5 -6q-6 -3 -17.5 -11t-28.5 -21q-2 -2 -7 -6t-14 -11q-3 -2 -6 -4.5t-6 -6.5q-1 -3 -6 -8q-7 -15 -15 -38q-2 -5 -3.5 -11.5t-3.5 -13.5q0 -2 -3 -9t-3 -10t2 -5h3l29 2q8 1 18 1t23 1q19 -1 44 0q4 -1 9 -1h10
q3 -1 15 -1l4 -2q30 6 26 6q13 0 17 -4v-2q1 -1 1 -19l-11 -7l-5 -3h-3l-3 -3l-14 -3q-3 -3 -14 -7l-14 -6q-3 -3 -44 -12q-3 -1 -10.5 -2t-20.5 -3q-5 -6 -12.5 -12t-15.5 -13q-3 -3 -8 -5q-10 -16 -21 -24q-5 -11 -14 -22q-11 -3 -32 -6q-1 -32 7 -51q12 -20 44 -22v-5
l1 -7l5 -3l8 -1h13l31 4l11 3l28 4l18 5l16 3l21 6l1 -3q1 -1 1 -3q-1 -3 -1 -6l1 -1q-1 -3 1 -7q-4 -4 -5 -6l-1 2q0 -4 1 -6q-2 2 -8 -18q-1 0 -2 -1v-2q-1 -2 -2 -5t-3 -8q-1 -1 -2.5 -3l-4.5 -6v-4l-12 -6t-13 -7q-2 -1 -5 -1.5t-7 -2.5q-2 0 -3 -1q-8 -2 -16 -3.5
t-18 -3.5h-7t-14 -1h-13q-2 -1 -22 2q-19 3 -22 3q-5 0 -32 13q-2 1 -5 3t-7 4l-5 6q-4 4 -8.5 9t-11.5 12q-2 2 -3.5 5t-3.5 6q-1 1 -1.5 1t-1.5 1q-4 11 -12 30q-2 8 -4 18.5t-6 22.5q0 7 -1 11q1 3 1 10q0 2 -1 3v8t-1 9q1 5 1.5 11t0.5 13q1 5 1.5 11t0.5 13
q2 11 4 22.5t4 25.5q0 3 2.5 11t2.5 10q0 3 1 7.5t1 6.5q2 4 3 8t2 9q1 4 3 17q4 10 7.5 22.5t8.5 29.5q1 0 1 1q3 9 6 21l-3 6q-5 10 -10 30q3 2 8 7v3l5 5q-1 1 -1 4q2 9 17 28h2l7 7q5 5 10 9.5t11 9.5q4 4 6 7q-3 2 -3 15q17 11 21.5 11t12.5 1q5 1 12 1q2 -1 4.5 -1
t4.5 -1h3q6 -1 8.5 -1t1.5 0q17 2 57 3h35q5 -1 9.5 -1t9.5 -1h68q5 -1 16 -1q-5 -1 57 -1q10 0 26 -4q20 -5 22 -8q7 -3 14 -7q2 0 3 -1v-6v0zM508 716q0 -5 -6 -20q-6 -3 -10 -3q-11 0 -16 3q-2 2 -13 17.5t-30 44.5q-4 5 -9 13.5t-13 19.5q-6 8 -13 9q-1 -1 -8 -3
q-1 -1 -9 -10l-24 -27l-9 -12q-1 -2 -39 -46q-13 -10 -16 -23q-14 -8 -20 -8q-11 2 -14 6q-8 4 -16 25q0 1 1 2q0 5 3.5 12t15.5 24q5 7 11 14.5t13 16.5q11 14 24.5 30t29.5 34q4 3 8 7l9 9q3 2 6 4.5t7 6.5q2 2 9 5q17 0 24 -7q2 -2 5 -3.5l7 -3.5q5 -4 10.5 -9t12.5 -10
q3 -6 12 -16l33 -66q8 -15 16 -24v-1q2 -3 8 -11z" />
    <glyph glyph-name="Edieresis" unicode="&#xcb;" horiz-adv-x="528" 
d="M552 528q-1 -1 -3 -5q-14 -4 -26.5 -6.5t-23.5 -3.5q-2 -1 -3.5 -1t-3.5 -1h-8t-9 -1q-1 -1 -2 -1t-3 -1q-1 1 -4 1l-10 -6q-1 -1 -1.5 -2t-1.5 -2q-2 -1 -5 -1t-7 -1q-3 0 -5 1q0 -2 -19 -6l-14 -4h-5l-4 -2q-1 1 -4 1q-1 -1 -2 -1t-3 -1q-7 -1 -13.5 -1t-13.5 -1h-4
q-2 0 -6.5 -2t-5.5 -2q-5 -1 -17 -1q-9 -4 -22 -5q-1 -2 -5 -6q-6 -3 -17.5 -11t-28.5 -21q-2 -2 -7 -6t-14 -11q-3 -2 -6 -4.5t-6 -6.5q-1 -3 -6 -8q-7 -15 -15 -38q-2 -5 -3.5 -11.5t-3.5 -13.5q0 -2 -3 -9t-3 -10t2 -5h3l29 2q8 1 18 1t23 1q19 -1 44 0q4 -1 9 -1h10
q3 -1 15 -1l4 -2q30 6 26 6q13 0 17 -4v-2q1 -1 1 -19l-11 -7l-5 -3h-3l-3 -3l-14 -3q-3 -3 -14 -7l-14 -6q-3 -3 -44 -12q-3 -1 -10.5 -2t-20.5 -3q-5 -6 -12.5 -12t-15.5 -13q-3 -3 -8 -5q-10 -16 -21 -24q-5 -11 -14 -22q-11 -3 -32 -6q-1 -32 7 -51q12 -20 44 -22v-5
l1 -7l5 -3l8 -1h13l31 4l11 3l28 4l18 5l16 3l21 6l1 -3q1 -1 1 -3q-1 -3 -1 -6l1 -1q-1 -3 1 -7q-4 -4 -5 -6l-1 2q0 -4 1 -6q-2 2 -8 -18q-1 0 -2 -1v-2q-1 -2 -2 -5t-3 -8q-1 -1 -2.5 -3l-4.5 -6v-4l-12 -6t-13 -7q-2 -1 -5 -1.5t-7 -2.5q-2 0 -3 -1q-8 -2 -16 -3.5
t-18 -3.5h-7t-14 -1h-13q-2 -1 -22 2q-19 3 -22 3q-5 0 -32 13q-2 1 -5 3t-7 4l-5 6q-4 4 -8.5 9t-11.5 12q-2 2 -3.5 5t-3.5 6q-1 1 -1.5 1t-1.5 1q-4 11 -12 30q-2 8 -4 18.5t-6 22.5q0 7 -1 11q1 3 1 10q0 2 -1 3v8t-1 9q1 5 1.5 11t0.5 13q1 5 1.5 11t0.5 13
q2 11 4 22.5t4 25.5q0 3 2.5 11t2.5 10q0 3 1 7.5t1 6.5q2 4 3 8t2 9q1 4 3 17q4 10 7.5 22.5t8.5 29.5q1 0 1 1q3 9 6 21l-3 6q-5 10 -10 30q3 2 8 7v3l5 5q-1 1 -1 4q2 9 17 28h2l7 7q5 5 10 9.5t11 9.5q4 4 6 7q-3 2 -3 15q17 11 21.5 11t12.5 1q5 1 12 1q2 -1 4.5 -1
t4.5 -1h3q6 -1 8.5 -1t1.5 0q17 2 57 3h35q5 -1 9.5 -1t9.5 -1h68q5 -1 16 -1q-5 -1 57 -1q10 0 26 -4q20 -5 22 -8q7 -3 14 -7q2 0 3 -1v-6v0zM234 761l8 -3l9 -4l8 1l-1 -7l10 -4l14 -13l6 -7l14 -33l1 -7v-12l-7 -12l-7 -8l-1 -2l-15 -2l-17 -2l-18 7l-8 4l-2 2l-24 17
l-11 10l-2 5v13l-2 11l2 13l8 16l18 14l15 3h2zM409 752l9 2l12 -15l14 -12l9 -24v-27l-13 -14l-5 -3l-10 -3l-26 4l-20 10l-21 19l-1 15l-4 6l11 34l10 7l10 3l3 5z" />
    <glyph glyph-name="Igrave" unicode="&#xcc;" horiz-adv-x="246" 
d="M235 561l14 -6l8 -11l3 -24l-3 -50l-13 -29l-14 -30l-36 -103l-33 -90l-8 -30l-8 -16l-3 -17l-7 -15l-4 -17l-10 -60l-7 -30l-6 -33l-14 -36l-13 -14l-16 -9l-11 6l-3 46l2 6l-2 8v29l2 23l-2 5l-1 49l1 36l6 28l7 39l7 22l13 61l6 12l11 37l18 53l1 14l9 14l9 21l13 22
l1 7l21 36l5 3l9 17l20 18l21 8h7zM354 570q-1 -7 -2 -8l-2 -2h-3l-3 -3h-2q-4 -3 -13 -3q-12 0 -27 7q-2 1 -8 3t-16 7q-11 5 -23.5 12t-25.5 17q-40 30 -45 33q-5 4 -10 8.5t-12 9.5q-3 4 -7 8.5t-9 9.5q-1 1 -9 17q-7 11 -7 22l1 1q1 16 10 16q27 0 21 2q5 0 9 -1l6 -2
q4 -2 7 -3q1 -1 1.5 -1t1.5 -1l5 -2q3 -2 5 -5q13 -11 32.5 -28t45.5 -40q11 -10 21 -19t20 -19q38 -35 38 -36z" />
    <glyph glyph-name="Iacute" unicode="&#xcd;" horiz-adv-x="246" 
d="M235 561l14 -6l8 -11l3 -24l-3 -50l-13 -29l-14 -30l-36 -103l-33 -90l-8 -30l-8 -16l-3 -17l-7 -15l-4 -17l-10 -60l-7 -30l-6 -33l-14 -36l-13 -14l-16 -9l-11 6l-3 46l2 6l-2 8v29l2 23l-2 5l-1 49l1 36l6 28l7 39l7 22l13 61l6 12l11 37l18 53l1 14l9 14l9 21l13 22
l1 7l21 36l5 3l9 17l20 18l21 8h7zM393 854l5 -3l1 -4l-4 -1l-3 -8l1 -3l-5 -2l-8 -5v-3l3 -4l-4 -4l2 -8l-4 -3v-3l12 2v-1l-14 -11l-3 -10l-7 -11l-6 -7l-12 -11l-11 -8l-40 -24l-36 -16l-7 -1h-17l-12 4h-8l-6 3v4l-4 4l-5 14l1 5l-2 6l2 4l6 6v2l30 27l14 10l41 30
l30 18l29 7l37 5h4z" />
    <glyph glyph-name="Icircumflex" unicode="&#xce;" horiz-adv-x="246" 
d="M235 561l14 -6l8 -11l3 -24l-3 -50l-13 -29l-14 -30l-36 -103l-33 -90l-8 -30l-8 -16l-3 -17l-7 -15l-4 -17l-10 -60l-7 -30l-6 -33l-14 -36l-13 -14l-16 -9l-11 6l-3 46l2 6l-2 8v29l2 23l-2 5l-1 49l1 36l6 28l7 39l7 22l13 61l6 12l11 37l18 53l1 14l9 14l9 21l13 22
l1 7l21 36l5 3l9 17l20 18l21 8h7zM395 716q0 -5 -6 -20q-6 -3 -10 -3q-11 0 -16 3q-2 2 -13 17.5t-30 44.5q-4 5 -9 13.5t-13 19.5q-6 8 -13 9q-1 -1 -8 -3q-1 -1 -9 -10l-24 -27l-9 -12q-1 -2 -39 -46q-13 -10 -16 -23q-14 -8 -20 -8q-11 2 -14 6q-8 4 -16 25q0 1 1 2
q0 5 3.5 12t15.5 24q5 7 11 14.5t13 16.5q11 14 24.5 30t29.5 34q4 3 8 7l9 9q3 2 6 4.5t7 6.5q2 2 9 5q17 0 24 -7q2 -2 5 -3.5l7 -3.5q5 -4 10.5 -9t12.5 -10q3 -6 12 -16l33 -66q8 -15 16 -24v-1q2 -3 8 -11z" />
    <glyph glyph-name="Idieresis" unicode="&#xcf;" horiz-adv-x="246" 
d="M235 561l14 -6l8 -11l3 -24l-3 -50l-13 -29l-14 -30l-36 -103l-33 -90l-8 -30l-8 -16l-3 -17l-7 -15l-4 -17l-10 -60l-7 -30l-6 -33l-14 -36l-13 -14l-16 -9l-11 6l-3 46l2 6l-2 8v29l2 23l-2 5l-1 49l1 36l6 28l7 39l7 22l13 61l6 12l11 37l18 53l1 14l9 14l9 21l13 22
l1 7l21 36l5 3l9 17l20 18l21 8h7zM176 839l8 -3l9 -4l8 1l-1 -7l10 -4l14 -13l6 -7l14 -33l1 -7v-12l-7 -12l-7 -8l-1 -2l-15 -2l-17 -2l-18 7l-8 4l-2 2l-24 17l-11 10l-2 5v13l-2 11l2 13l8 16l18 14l15 3h2zM351 830l9 2l12 -15l14 -12l9 -24v-27l-13 -14l-5 -3l-10 -3
l-26 4l-20 10l-21 19l-1 15l-4 6l11 34l10 7l10 3l3 5z" />
    <glyph glyph-name="Eth" unicode="&#xd0;" horiz-adv-x="479" 
d="M467 323q0 -11 -1.5 -21t-6.5 -22l2 -2q0 -9 -10 -37t-41 -63q-10 -17 -23.5 -31.5t-29 -28t-32 -26.5t-31.5 -27q-4 -1 -7.5 -3.5t-9.5 -7t-15.5 -10.5t-25.5 -15l-3 -3q-12 -4 -22.5 -9.5t-30.5 -16.5q-9 0 -16 -2q-6 -2 -11 -3.5t-5 -3.5l-10 -2q-10 -3 -22 -6
q-1 1 -4 3q-6 4 -13 5q-1 -1 -3 -1h-5q-1 -1 -5 -1q-1 1 -1.5 1t-1.5 1q-2 -2 -4 -2t-7 5v-2h-1q-2 0 -2 -1q-6 4 -7 9l-1 -1l1 -1h-3l-2.5 2.5t-2.5 1.5t-5 -2l-2 -2h-11l-1 2q-1 -1 -4 -1q-4 3 -4 12q1 1 3 5l1 7q4 8 8 17t9 20v48v3q0 2 0.5 4.5t0.5 5.5l1 16
q2 17 4.5 31t5.5 35l-21 -2l-34 4l-19 -4l-11 7v5l-8 9l-4 3l1 17l-2 7l10 18l4 6l19 6l31 3l45 6q0 5 0.5 9t1.5 9l3 3l5 27q-3 -6 -1.5 4t5 24t7 26.5l3.5 12.5l2 8q0 8 3.5 19t3.5 24q0 21 3.5 31t8 14.5t9 5t7.5 2.5l5 5t12.5 11t16.5 10.5t16 4.5h5.5t6.5 -1
q7 2 13 2.5t18 5.5q3 0 5 -1q1 1 1.5 2t2.5 2q4 -2 11 -5q6 -2 15 -4.5t23 -6.5l10.5 -1.5t11 -3.5t23 -11.5t45.5 -26.5q4 -4 9 -6.5t11 -7.5t13.5 -13.5t16.5 -23.5q2 -7 2 -6t2 -0.5t7.5 -9.5t17.5 -32q2 -8 8.5 -24.5t6.5 -42.5zM385 292q1 5 1 8.5v7.5q0 14 -3 23
q-2 5 -7 20.5t-28 49.5l-19 19q-10 8 -21 13t-23.5 8.5t-28 7t-35.5 8.5l-5.5 -3t-13 -7t-13.5 -9t-6 -9v-5.5t1 -7.5q-2 -9 -4 -20t-4 -24v-10q-3 -5 -5 -21t-6 -44h29h78l18 -2l7 -4v-5l-14 -4l-1 -5l-5 -1l-14 -8l-2 -7l-11 -5l-13 -11l-26 -8l-15 -5l-3 -4l-15 5l-2 -4
l-25 -12q-1 -8 -3 -16t-4.5 -19.5t-4.5 -27t-3 -39.5l-2 -6v-12q0 -2 -1.5 -6t-1.5 -6q2 -9 3 -24q18 8 27 11t14.5 5t9.5 4t12.5 7t24 15t43.5 28q57 43 86 78.5t34 82.5z" />
    <glyph glyph-name="Ntilde" unicode="&#xd1;" horiz-adv-x="667" 
d="M609 655q0 -4 -1 -9l-2 -8l-3 -12t-5 -19v-3q-1 -1 -1 -2t-1 -3q2 -4 3 -7q0 -4 -0.5 -10t-1.5 -16q-1 -5 -1.5 -15.5t-2.5 -24.5q-1 -24 -6 -76q-2 -11 -4.5 -28.5t-6.5 -42.5q-1 -3 -1.5 -8t-2.5 -13q1 -2 3 -8q-1 -7 -1 -14.5t-1 -16.5q-3 -16 -5 -28.5t-3 -23.5v-14
q-2 -15 -5 -32.5t-5 -37.5q-1 -1 -7 -27q-6 -24 -6 -26q0 -5 -1.5 -13.5t-1.5 -12.5q-2 -22 -13 -45q-19 -15 -17 -15l-6 -4q-4 -4 -13 -4q-4 -2 -10 -4q-6 -3 -17 -5l-1 -1q-1 -1 -5 -3q-8 -12 -16 -17t-18 -12q-5 -1 -15 -1l-8 4t-9 5q-2 2 -5 3.5t-5 3.5q-1 1 -3.5 4.5
t-7.5 11.5q-14 17 -26 32.5t-23 30.5q-13 17 -26 39t-27 49q-1 2 -3 6.5t-4 9.5l-6 9l-30 66q-4 10 -17 37q-5 12 -17 15q-6 -19 -15 -60q-5 -15 -18 -64q-2 -5 -4 -11.5t-4 -16.5v-6q-2 -5 -5.5 -18.5t-7.5 -35.5q-1 -2 -2 -8t-3 -16q-8 -20 -9 -32q0 -2 -1 -3
q-1 -3 -2 -6.5t-2 -7.5q-1 -1 -5 -3q-4 -15 -12 -42q-4 -10 -16 -26q-2 -2 -5.5 -4t-8.5 -5q-1 1 -3 0q-1 -10 -17 -10q-1 0 -3 2l-4 4q-11 5 -11 30q1 -2 1 34q0 9 5 27q4 11 5.5 17.5t2.5 9.5q4 23 12 58l7 31q8 38 19 94t27 131q4 17 9.5 41.5t13.5 58.5q1 2 3 7.5
t6 15.5q0 4 2 6q6 8 16 8h6q3 1 6 1q15 -1 24 -7q2 -2 4.5 -5.5t6.5 -7.5l21 -26q2 -6 5.5 -13l7.5 -15q2 -4 4.5 -7.5t4.5 -5.5q1 -5 3 -10t4 -12q5 -11 12.5 -26.5t18.5 -36.5q1 -3 6.5 -15t16.5 -34q4 -9 8 -20l10 -25l14 -35l5.5 -11t8.5 -18q2 -6 6.5 -15.5t10.5 -23.5
l2 -4l2 -4l8 -12q2 -4 4 -7.5t4 -7.5q5 5 12 6l7 3.5l13 6.5l8 7q2 7 3.5 14.5t3.5 16.5q0 8 9 36q10 27 10 35t3 24.5t3 24.5q3 12 6 30q2 5 3.5 11l3.5 14q2 14 5.5 34t8.5 46q1 4 21 110q9 27 18 63q2 5 5 11t5 14q0 5 6 21t8 16q3 0 14 3.5t13 2.5q3 3 12 5q7 0 9 -4.5
t3 -11.5zM495 817q-2 -5 -6 -11l1 -1q-5 -10 -19 -27q-1 -3 -6 -13l-2 -1v-3q-2 -6 -9 -16v-3q0 -2 1 -3q-2 -4 -4.5 -7.5t-5.5 -8.5q1 1 1 0q-1 0 -1 -2q-5 -3 -13 -10l-1 -1q-7 -7 -11 -9q-9 -4 -17.5 -5t-22.5 -1q-34 3 -71 23q-2 2 -14 9q-2 2 -5 4t-7 4q-2 0 -9.5 4
t-8.5 4q0 -1 -1.5 -1.5t-4 -2t-5 -6t-3.5 -13.5q-5 -12 -12.5 -14t-9.5 -2q-5 0 -8 1h-4q-2 1 -3.5 1t-3.5 1h-4q-5 1 -10 10q-2 2 -6 13q1 1 1 1.5t1 1.5q-1 1 -1 4q0 7 4 22q15 34 25 42q21 19 35 17q3 1 10 1q4 -1 9.5 -1.5t13.5 -2.5q2 -1 4.5 -2t4.5 -2q6 -4 13 -8.5
t15 -9.5l10 -10t11 -12q1 -1 3 -5v-1q4 -9 9 -17l1 -1l6 -2h7q12 2 15.5 4.5t8.5 6.5q7 8 16.5 19.5t22.5 26.5q18 19 24 19q22 0 21 1q2 0 10 -2q1 -1 5 -3z" />
    <glyph glyph-name="Ograve" unicode="&#xd2;" horiz-adv-x="586" 
d="M539 234q0 -5 -1 -9l-3 -18v-3q1 0 2 -1q-1 -11 -14 -44q-8 -25 -13 -33q-11 -24 -21 -37q-2 -2 -4 -5t-4 -8l-5 -5t-6 -7v-4q-1 -1 -3 -5q-4 -3 -9.5 -7t-13.5 -9q-2 -3 -6.5 -7.5l-9.5 -9.5q-1 -1 -2 -1.5t-2 -2.5l-9 -4.5t-10 -6.5q-2 -1 -5.5 -3t-8.5 -4
q-2 -2 -4.5 -3.5t-6.5 -3.5q-5 -2 -11.5 -4t-14.5 -5q-1 -1 -5 -3q-13 -5 -37 -10q-3 -1 -8 -2t-12 -3h-9q-2 0 -6.5 -1.5t-6.5 -1.5q-32 0 -67 9q-39 11 -81 40q-18 13 -38 36q-3 3 -18 27q-1 2 -4.5 9.5t-8.5 18.5q-4 20 -12 57q1 -5 1.5 6.5t0.5 38.5q0 3 1.5 9.5
t1.5 9.5l9 36q3 7 6 15t7 18l9.5 19t13.5 26q5 8 14 22t20 33q9 12 19.5 25.5t21.5 28.5q2 2 5.5 4.5t7.5 6.5l8 10q4 2 11 9q23 22 51 22l6 5l5 2q1 0 6.5 3t6.5 3q3 1 12 1q8 5 36 13l2 2h9q1 1 2 1t3 1q4 0 16 -3h10q3 -2 7.5 -4.5t9.5 -5.5l6 -6t7 -6q2 -1 8 -3
q0 -2 2 -4q1 -4 8 -13q2 -6 4 -9q8 -7 22 -16q6 -8 12 -14q1 -1 5 -3l15 -15q2 -4 5 -8.5t8 -11.5l7 -7q2 -4 3.5 -7.5t3.5 -7.5v-4q1 -1 2 -1.5t2 -1.5q1 -3 3 -7t4 -9q4 -6 7 -10l3 -10q1 -3 1 -6.5t1 -8.5q1 -1 1.5 -1t1.5 -1q2 -8 3 -11q2 -11 4 -26.5t4 -36.5v-13
q0 -1 3 -3l3 -2v0zM449 249q0 42 -10 66q-4 13 -12 34q-2 4 -4.5 7.5t-4.5 8.5q-5 5 -10 10.5t-12 12.5l-24 24q-6 4 -15 9t-20 12q-11 -8 -25 -8h-30q-7 0 -20 -13t-29 -28q-13 -7 -46 -57q-4 -9 -9 -21l-4 -6t-4 -7q-4 -12 -15 -31q-13 -25 -27 -68q-1 -13 -1.5 -21.5
t-0.5 -13.5q0 -24 4 -40q3 -6 6 -15q2 -4 15 -24q5 -7 34 -24q19 -11 72 -11q-1 0 4 0.5t16 1.5q17 2 24 3q4 1 12.5 4.5t21.5 8.5q4 2 8 4.5t9 5.5q17 8 34 25l24 36q1 1 5.5 9.5t12.5 24.5q2 5 5.5 13.5t8.5 19.5v6q7 22 7 42zM449 570q-1 -7 -2 -8l-2 -2h-3l-3 -3h-2
q-4 -3 -13 -3q-12 0 -27 7q-2 1 -8 3t-16 7q-11 5 -23.5 12t-25.5 17q-40 30 -45 33q-5 4 -10 8.5t-12 9.5q-3 4 -7 8.5t-9 9.5q-1 1 -9 17q-7 11 -7 22l1 1q1 16 10 16q27 0 21 2q5 0 9 -1l6 -2q4 -2 7 -3q1 -1 1.5 -1t1.5 -1l5 -2q3 -2 5 -5q13 -11 32.5 -28t45.5 -40
q11 -10 21 -19t20 -19q38 -35 38 -36z" />
    <glyph glyph-name="Oacute" unicode="&#xd3;" horiz-adv-x="586" 
d="M539 234q0 -5 -1 -9l-3 -18v-3q1 0 2 -1q-1 -11 -14 -44q-8 -25 -13 -33q-11 -24 -21 -37q-2 -2 -4 -5t-4 -8l-5 -5t-6 -7v-4q-1 -1 -3 -5q-4 -3 -9.5 -7t-13.5 -9q-2 -3 -6.5 -7.5l-9.5 -9.5q-1 -1 -2 -1.5t-2 -2.5l-9 -4.5t-10 -6.5q-2 -1 -5.5 -3t-8.5 -4
q-2 -2 -4.5 -3.5t-6.5 -3.5q-5 -2 -11.5 -4t-14.5 -5q-1 -1 -5 -3q-13 -5 -37 -10q-3 -1 -8 -2t-12 -3h-9q-2 0 -6.5 -1.5t-6.5 -1.5q-32 0 -67 9q-39 11 -81 40q-18 13 -38 36q-3 3 -18 27q-1 2 -4.5 9.5t-8.5 18.5q-4 20 -12 57q1 -5 1.5 6.5t0.5 38.5q0 3 1.5 9.5
t1.5 9.5l9 36q3 7 6 15t7 18l9.5 19t13.5 26q5 8 14 22t20 33q9 12 19.5 25.5t21.5 28.5q2 2 5.5 4.5t7.5 6.5l8 10q4 2 11 9q23 22 51 22l6 5l5 2q1 0 6.5 3t6.5 3q3 1 12 1q8 5 36 13l2 2h9q1 1 2 1t3 1q4 0 16 -3h10q3 -2 7.5 -4.5t9.5 -5.5l6 -6t7 -6q2 -1 8 -3
q0 -2 2 -4q1 -4 8 -13q2 -6 4 -9q8 -7 22 -16q6 -8 12 -14q1 -1 5 -3l15 -15q2 -4 5 -8.5t8 -11.5l7 -7q2 -4 3.5 -7.5t3.5 -7.5v-4q1 -1 2 -1.5t2 -1.5q1 -3 3 -7t4 -9q4 -6 7 -10l3 -10q1 -3 1 -6.5t1 -8.5q1 -1 1.5 -1t1.5 -1q2 -8 3 -11q2 -11 4 -26.5t4 -36.5v-13
q0 -1 3 -3l3 -2v0zM449 249q0 42 -10 66q-4 13 -12 34q-2 4 -4.5 7.5t-4.5 8.5q-5 5 -10 10.5t-12 12.5l-24 24q-6 4 -15 9t-20 12q-11 -8 -25 -8h-30q-7 0 -20 -13t-29 -28q-13 -7 -46 -57q-4 -9 -9 -21l-4 -6t-4 -7q-4 -12 -15 -31q-13 -25 -27 -68q-1 -13 -1.5 -21.5
t-0.5 -13.5q0 -24 4 -40q3 -6 6 -15q2 -4 15 -24q5 -7 34 -24q19 -11 72 -11q-1 0 4 0.5t16 1.5q17 2 24 3q4 1 12.5 4.5t21.5 8.5q4 2 8 4.5t9 5.5q17 8 34 25l24 36q1 1 5.5 9.5t12.5 24.5q2 5 5.5 13.5t8.5 19.5v6q7 22 7 42zM436 746l5 -3l1 -4l-4 -1l-3 -8l1 -3l-5 -2
l-8 -5v-3l3 -4l-4 -4l2 -8l-4 -3v-3l12 2v-1l-14 -11l-3 -10l-7 -11l-6 -7l-12 -11l-11 -8l-40 -24l-36 -16l-7 -1h-17l-12 4h-8l-6 3v4l-4 4l-5 14l1 5l-2 6l2 4l6 6v2l30 27l14 10l41 30l30 18l29 7l37 5h4z" />
    <glyph glyph-name="Ocircumflex" unicode="&#xd4;" horiz-adv-x="586" 
d="M539 234q0 -5 -1 -9l-3 -18v-3q1 0 2 -1q-1 -11 -14 -44q-8 -25 -13 -33q-11 -24 -21 -37q-2 -2 -4 -5t-4 -8l-5 -5t-6 -7v-4q-1 -1 -3 -5q-4 -3 -9.5 -7t-13.5 -9q-2 -3 -6.5 -7.5l-9.5 -9.5q-1 -1 -2 -1.5t-2 -2.5l-9 -4.5t-10 -6.5q-2 -1 -5.5 -3t-8.5 -4
q-2 -2 -4.5 -3.5t-6.5 -3.5q-5 -2 -11.5 -4t-14.5 -5q-1 -1 -5 -3q-13 -5 -37 -10q-3 -1 -8 -2t-12 -3h-9q-2 0 -6.5 -1.5t-6.5 -1.5q-32 0 -67 9q-39 11 -81 40q-18 13 -38 36q-3 3 -18 27q-1 2 -4.5 9.5t-8.5 18.5q-4 20 -12 57q1 -5 1.5 6.5t0.5 38.5q0 3 1.5 9.5
t1.5 9.5l9 36q3 7 6 15t7 18l9.5 19t13.5 26q5 8 14 22t20 33q9 12 19.5 25.5t21.5 28.5q2 2 5.5 4.5t7.5 6.5l8 10q4 2 11 9q23 22 51 22l6 5l5 2q1 0 6.5 3t6.5 3q3 1 12 1q8 5 36 13l2 2h9q1 1 2 1t3 1q4 0 16 -3h10q3 -2 7.5 -4.5t9.5 -5.5l6 -6t7 -6q2 -1 8 -3
q0 -2 2 -4q1 -4 8 -13q2 -6 4 -9q8 -7 22 -16q6 -8 12 -14q1 -1 5 -3l15 -15q2 -4 5 -8.5t8 -11.5l7 -7q2 -4 3.5 -7.5t3.5 -7.5v-4q1 -1 2 -1.5t2 -1.5q1 -3 3 -7t4 -9q4 -6 7 -10l3 -10q1 -3 1 -6.5t1 -8.5q1 -1 1.5 -1t1.5 -1q2 -8 3 -11q2 -11 4 -26.5t4 -36.5v-13
q0 -1 3 -3l3 -2v0zM449 249q0 42 -10 66q-4 13 -12 34q-2 4 -4.5 7.5t-4.5 8.5q-5 5 -10 10.5t-12 12.5l-24 24q-6 4 -15 9t-20 12q-11 -8 -25 -8h-30q-7 0 -20 -13t-29 -28q-13 -7 -46 -57q-4 -9 -9 -21l-4 -6t-4 -7q-4 -12 -15 -31q-13 -25 -27 -68q-1 -13 -1.5 -21.5
t-0.5 -13.5q0 -24 4 -40q3 -6 6 -15q2 -4 15 -24q5 -7 34 -24q19 -11 72 -11q-1 0 4 0.5t16 1.5q17 2 24 3q4 1 12.5 4.5t21.5 8.5q4 2 8 4.5t9 5.5q17 8 34 25l24 36q1 1 5.5 9.5t12.5 24.5q2 5 5.5 13.5t8.5 19.5v6q7 22 7 42zM481 639q0 -5 -6 -20q-6 -3 -10 -3
q-11 0 -16 3q-2 2 -13 17.5t-30 44.5q-4 5 -9 13.5t-13 19.5q-6 8 -13 9q-1 -1 -8 -3q-1 -1 -9 -10l-24 -27l-9 -12q-1 -2 -39 -46q-13 -10 -16 -23q-14 -8 -20 -8q-11 2 -14 6q-8 4 -16 25q0 1 1 2q0 5 3.5 12t15.5 24q5 7 11 14.5t13 16.5q11 14 24.5 30t29.5 34q4 3 8 7
l9 9q3 2 6 4.5t7 6.5q2 2 9 5q17 0 24 -7q2 -2 5 -3.5l7 -3.5q5 -4 10.5 -9t12.5 -10q3 -6 12 -16l33 -66q8 -15 16 -24v-1q2 -3 8 -11z" />
    <glyph glyph-name="Otilde" unicode="&#xd5;" horiz-adv-x="586" 
d="M539 234q0 -5 -1 -9l-3 -18v-3q1 0 2 -1q-1 -11 -14 -44q-8 -25 -13 -33q-11 -24 -21 -37q-2 -2 -4 -5t-4 -8l-5 -5t-6 -7v-4q-1 -1 -3 -5q-4 -3 -9.5 -7t-13.5 -9q-2 -3 -6.5 -7.5l-9.5 -9.5q-1 -1 -2 -1.5t-2 -2.5l-9 -4.5t-10 -6.5q-2 -1 -5.5 -3t-8.5 -4
q-2 -2 -4.5 -3.5t-6.5 -3.5q-5 -2 -11.5 -4t-14.5 -5q-1 -1 -5 -3q-13 -5 -37 -10q-3 -1 -8 -2t-12 -3h-9q-2 0 -6.5 -1.5t-6.5 -1.5q-32 0 -67 9q-39 11 -81 40q-18 13 -38 36q-3 3 -18 27q-1 2 -4.5 9.5t-8.5 18.5q-4 20 -12 57q1 -5 1.5 6.5t0.5 38.5q0 3 1.5 9.5
t1.5 9.5l9 36q3 7 6 15t7 18l9.5 19t13.5 26q5 8 14 22t20 33q9 12 19.5 25.5t21.5 28.5q2 2 5.5 4.5t7.5 6.5l8 10q4 2 11 9q23 22 51 22l6 5l5 2q1 0 6.5 3t6.5 3q3 1 12 1q8 5 36 13l2 2h9q1 1 2 1t3 1q4 0 16 -3h10q3 -2 7.5 -4.5t9.5 -5.5l6 -6t7 -6q2 -1 8 -3
q0 -2 2 -4q1 -4 8 -13q2 -6 4 -9q8 -7 22 -16q6 -8 12 -14q1 -1 5 -3l15 -15q2 -4 5 -8.5t8 -11.5l7 -7q2 -4 3.5 -7.5t3.5 -7.5v-4q1 -1 2 -1.5t2 -1.5q1 -3 3 -7t4 -9q4 -6 7 -10l3 -10q1 -3 1 -6.5t1 -8.5q1 -1 1.5 -1t1.5 -1q2 -8 3 -11q2 -11 4 -26.5t4 -36.5v-13
q0 -1 3 -3l3 -2v0zM449 249q0 42 -10 66q-4 13 -12 34q-2 4 -4.5 7.5t-4.5 8.5q-5 5 -10 10.5t-12 12.5l-24 24q-6 4 -15 9t-20 12q-11 -8 -25 -8h-30q-7 0 -20 -13t-29 -28q-13 -7 -46 -57q-4 -9 -9 -21l-4 -6t-4 -7q-4 -12 -15 -31q-13 -25 -27 -68q-1 -13 -1.5 -21.5
t-0.5 -13.5q0 -24 4 -40q3 -6 6 -15q2 -4 15 -24q5 -7 34 -24q19 -11 72 -11q-1 0 4 0.5t16 1.5q17 2 24 3q4 1 12.5 4.5t21.5 8.5q4 2 8 4.5t9 5.5q17 8 34 25l24 36q1 1 5.5 9.5t12.5 24.5q2 5 5.5 13.5t8.5 19.5v6q7 22 7 42zM550 817q-2 -5 -6 -11l1 -1q-5 -10 -19 -27
q-1 -3 -6 -13l-2 -1v-3q-2 -6 -9 -16v-3q0 -2 1 -3q-2 -4 -4.5 -7.5t-5.5 -8.5q1 1 1 0q-1 0 -1 -2q-5 -3 -13 -10l-1 -1q-7 -7 -11 -9q-9 -4 -17.5 -5t-22.5 -1q-34 3 -71 23q-2 2 -14 9q-2 2 -5 4t-7 4q-2 0 -9.5 4t-8.5 4q0 -1 -1.5 -1.5t-4 -2t-5 -6t-3.5 -13.5
q-5 -12 -12.5 -14t-9.5 -2q-5 0 -8 1h-4q-2 1 -3.5 1t-3.5 1h-4q-5 1 -10 10q-2 2 -6 13q1 1 1 1.5t1 1.5q-1 1 -1 4q0 7 4 22q15 34 25 42q21 19 35 17q3 1 10 1q4 -1 9.5 -1.5t13.5 -2.5q2 -1 4.5 -2t4.5 -2q6 -4 13 -8.5t15 -9.5l10 -10t11 -12q1 -1 3 -5v-1q4 -9 9 -17
l1 -1l6 -2h7q12 2 15.5 4.5t8.5 6.5q7 8 16.5 19.5t22.5 26.5q18 19 24 19q22 0 21 1q2 0 10 -2q1 -1 5 -3z" />
    <glyph glyph-name="Odieresis" unicode="&#xd6;" horiz-adv-x="586" 
d="M539 234q0 -5 -1 -9l-3 -18v-3q1 0 2 -1q-1 -11 -14 -44q-8 -25 -13 -33q-11 -24 -21 -37q-2 -2 -4 -5t-4 -8l-5 -5t-6 -7v-4q-1 -1 -3 -5q-4 -3 -9.5 -7t-13.5 -9q-2 -3 -6.5 -7.5l-9.5 -9.5q-1 -1 -2 -1.5t-2 -2.5l-9 -4.5t-10 -6.5q-2 -1 -5.5 -3t-8.5 -4
q-2 -2 -4.5 -3.5t-6.5 -3.5q-5 -2 -11.5 -4t-14.5 -5q-1 -1 -5 -3q-13 -5 -37 -10q-3 -1 -8 -2t-12 -3h-9q-2 0 -6.5 -1.5t-6.5 -1.5q-32 0 -67 9q-39 11 -81 40q-18 13 -38 36q-3 3 -18 27q-1 2 -4.5 9.5t-8.5 18.5q-4 20 -12 57q1 -5 1.5 6.5t0.5 38.5q0 3 1.5 9.5
t1.5 9.5l9 36q3 7 6 15t7 18l9.5 19t13.5 26q5 8 14 22t20 33q9 12 19.5 25.5t21.5 28.5q2 2 5.5 4.5t7.5 6.5l8 10q4 2 11 9q23 22 51 22l6 5l5 2q1 0 6.5 3t6.5 3q3 1 12 1q8 5 36 13l2 2h9q1 1 2 1t3 1q4 0 16 -3h10q3 -2 7.5 -4.5t9.5 -5.5l6 -6t7 -6q2 -1 8 -3
q0 -2 2 -4q1 -4 8 -13q2 -6 4 -9q8 -7 22 -16q6 -8 12 -14q1 -1 5 -3l15 -15q2 -4 5 -8.5t8 -11.5l7 -7q2 -4 3.5 -7.5t3.5 -7.5v-4q1 -1 2 -1.5t2 -1.5q1 -3 3 -7t4 -9q4 -6 7 -10l3 -10q1 -3 1 -6.5t1 -8.5q1 -1 1.5 -1t1.5 -1q2 -8 3 -11q2 -11 4 -26.5t4 -36.5v-13
q0 -1 3 -3l3 -2v0zM449 249q0 42 -10 66q-4 13 -12 34q-2 4 -4.5 7.5t-4.5 8.5q-5 5 -10 10.5t-12 12.5l-24 24q-6 4 -15 9t-20 12q-11 -8 -25 -8h-30q-7 0 -20 -13t-29 -28q-13 -7 -46 -57q-4 -9 -9 -21l-4 -6t-4 -7q-4 -12 -15 -31q-13 -25 -27 -68q-1 -13 -1.5 -21.5
t-0.5 -13.5q0 -24 4 -40q3 -6 6 -15q2 -4 15 -24q5 -7 34 -24q19 -11 72 -11q-1 0 4 0.5t16 1.5q17 2 24 3q4 1 12.5 4.5t21.5 8.5q4 2 8 4.5t9 5.5q17 8 34 25l24 36q1 1 5.5 9.5t12.5 24.5q2 5 5.5 13.5t8.5 19.5v6q7 22 7 42zM234 761l8 -3l9 -4l8 1l-1 -7l10 -4l14 -13
l6 -7l14 -33l1 -7v-12l-7 -12l-7 -8l-1 -2l-15 -2l-17 -2l-18 7l-8 4l-2 2l-24 17l-11 10l-2 5v13l-2 11l2 13l8 16l18 14l15 3h2zM409 752l9 2l12 -15l14 -12l9 -24v-27l-13 -14l-5 -3l-10 -3l-26 4l-20 10l-21 19l-1 15l-4 6l11 34l10 7l10 3l3 5z" />
    <glyph glyph-name="Oslash" unicode="&#xd8;" horiz-adv-x="549" 
d="M472 588q12 -3 16 -16q1 -4 6 -19v-11q1 -10 -8 -35q-1 -6 -22 -33v-5q-1 -7 2 -19q-1 -5 -1 -9.5v-9.5q5 -9 11 -9q3 -5 6.5 -10.5t7.5 -10.5q2 -5 5 -10.5t7 -12.5l4 -4l4 -4q2 -5 3.5 -11.5t3.5 -14.5q1 0 3 -2q2 -7 3.5 -14.5t3.5 -16.5q1 -1 1 -3q1 -6 3 -15t4 -21
q1 -5 2.5 -11t3.5 -19q0 -7 -1 -10q2 -3 0 -15q-1 -13 -1 -14.5t-3 -8.5q-2 -8 -2 -7q-1 -4 -1.5 -8t-1.5 -9q-4 -9 -9 -26q-1 -2 -2.5 -7t-4.5 -13q-3 -2 -5 -6t-5 -13q-4 -4 -9 -12v-4q-1 -1 -1 -2t-1 -2q-2 -2 -4 -3t-4 -3q-5 -7 -12.5 -15t-18.5 -18q-11 -7 -20 -15
q-10 -9 -37 -23q-37 -33 -79 -33h-9.5t-9.5 1l-9 -4l-10 -1l-7 -3l-6 -1h-5l-6 -3l-20 2l-17 4l-11 4l-12 -24l-7 -9q-2 -7 -5 -14.5t-6 -16.5q-2 -4 -6 -14l-2 -2q-4 -19 -15 -17q-10 3 -12 7.5t-3 11.5q2 10 3 22q3 21 3 46q-2 3 9 32q-3 1 -9 5q-8 5 -17.5 12.5
t-23.5 18.5q-4 5 -9 11t-10 13q-3 5 -6.5 11.5t-8.5 13.5q-2 7 -5.5 15t-7.5 18q-1 5 -1.5 10t-2.5 10q-1 18 -3 42q1 5 1 11.5v13.5q-1 2 2 19q4 15 4 19q0 3 8 24q8 22 8 24q2 5 5 10t5 11q1 4 5.5 13.5t14.5 25.5q19 30 21 37q8 11 16 22.5t18 25.5q3 4 6 7.5t7 8.5
q6 4 9 7q2 3 9 12q4 2 8 6l9 9q4 1 8.5 5t12.5 10q2 1 5 3q2 2 6 4t9 4q7 2 15 4.5t18 6.5q2 1 5 1.5l9 1.5l6 2h12q6 1 8.5 1t1.5 0l12 -7q3 -3 11 -9q2 -1 5 -3t8 -4q1 -1 2 -3q2 -3 5 -3l1 -1q23 17 51 33q4 8 9 19t10 24q1 2 11.5 9.5t13.5 7.5h9v0zM460 250
q0 62 -19 88q-5 8 -11.5 18.5t-15.5 21.5q-1 2 -7 8q-5 -16 -33 -67q-14 -26 -22 -41t-9 -19q-10 -14 -20.5 -31.5t-21.5 -39.5q-2 -5 -3.5 -10t-3.5 -10q-2 -2 -3.5 -5l-3.5 -7q-5 -11 -11.5 -25.5t-13.5 -31.5q-4 -9 -8 -20t-9 -25q-1 -7 -6 -18l20 -1l4 1l8 2
q8 0 15.5 0.5t15.5 1.5q19 3 46 18q5 2 10.5 5.5t10.5 7.5q8 5 19 13.5t23 23.5q1 2 6 10.5t13 24.5q2 5 5.5 13t7.5 19q1 4 2 7.5t3 8.5q2 3 4 6.5t4 7.5q0 4 -1 7q5 25 5 38zM353 434q-2 2 -4.5 4t-3.5 4q-11 -8 -26 -8h-31q-4 0 -38 -22q-5 -8 -11.5 -16t-14.5 -17
q-5 -6 -14 -18.5t-20 -31.5q-4 -6 -7 -10q-3 -9 -9 -21q-2 -3 -3.5 -6l-3.5 -7q-2 -6 -5 -12.5t-6 -14.5l-2 -4q-14 -26 -27 -67q-3 -37 -3 -34q0 -55 22 -77q19 -17 33 -22q4 8 7.5 16.5t7.5 18.5q8 20 18.5 45.5t22.5 57.5q11 23 24.5 50.5t28.5 60.5q15 28 31.5 60.5
t33.5 70.5z" />
    <glyph glyph-name="Ugrave" unicode="&#xd9;" horiz-adv-x="521" 
d="M423 571q-1 -7 -2 -8l-2 -2h-3l-3 -3h-2q-4 -3 -13 -3q-12 0 -27 7q-2 1 -8 3t-16 7q-11 5 -23.5 12t-25.5 17q-40 30 -45 33q-5 4 -10 8.5t-12 9.5q-3 4 -7 8.5t-9 9.5q-1 1 -9 17q-7 11 -7 22l1 1q1 16 10 16q27 0 21 2q5 0 9 -1l6 -2q4 -2 7 -3q1 -1 1.5 -1t1.5 -1
l5 -2q3 -2 5 -5q13 -11 32.5 -28t45.5 -40q11 -10 21 -19t20 -19q38 -35 38 -36zM563 548v-7t-1 -13l-1 -17q-2 -13 -4 -29.5t-6 -39.5q-1 -2 -2 -5.5t-2 -8.5q0 3 -1 -2.5t-3 -21.5q-2 -12 -6 -29q-4 -9 -9 -24q-2 -7 -7 -23.5t-13 -42.5q-2 -5 -5.5 -15.5l-7.5 -22.5
q-2 -6 -5 -11t-5 -13q-1 -1 -3 -4.5t-6 -8.5q-5 -20 -14.5 -41.5t-22.5 -44.5q-4 -8 -13 -20q-2 -3 -4.5 -5t-5.5 -5q-3 -5 -7.5 -10t-9.5 -12q-2 -6 -8 -11l-10 -14q-3 -2 -7.5 -6t-10.5 -10t-7 -6q-7 -11 -18.5 -18t-27.5 -18q-3 -1 -9 -1q-2 1 -3.5 1t-3.5 2
q-7 -6 -17.5 -8t-23.5 -2q-3 -1 -11 -1q-12 0 -17 5q-20 0 -29 8q-5 2 -7 5q-7 1 -14 6.5t-15 13.5q-13 11 -21 21q-11 12 -20 26.5t-17 30.5q0 2 -2.5 8t-5.5 12.5t-5.5 12t-2.5 6.5q0 2 -2 8.5t-4 13.5l-4 14t-2 10q-4 15 -6 33t-1 38q0 9 1 24t3 33t5 38t9 39q1 3 2 5.5
t2 6.5q2 10 4.5 19.5t5.5 17.5q5 12 9.5 22t9.5 16q25 40 36 40q4 -8 4 -9l3 7q0 -8 2 0q-1 0 -1.5 -1.5t-1.5 -2.5q2 -1 3 -6q1 -1 -1 -14q0 -3 1.5 -6t4.5 -8q0 -3 7 -10q0 -3 6.5 -9t23.5 -28q7 -16 10 -44v-19l-3 -24v-12q-1 -5 -1 -15.5t-1 -25.5q0 -8 0.5 -17.5
t1.5 -16.5q2 -2 3 -10.5t2 -19.5t1.5 -18.5t2.5 -8.5q4 -3 10 -24q7 -22 15 -22q3 0 7 -16q5 -15 9 -14q2 2 4 -1t3.5 -7t3 -7.5t2.5 -3.5q1 2 2 2q2 2 5.5 -4.5t5.5 -3.5q3 -3 6 -3q7 -4 16 -3q8 -2 20 3q6 0 22 12q16 19 36 71l3 12t7 22q2 15 6.5 36.5t9.5 51.5
q8 43 8 52q-1 15 -8 33q-3 1 -10 18l-3 14l1 3q0 5 4 5l22 58q1 0 21 38q20 39 21 39q2 1 9 6t14 5q3 -3 12 -0.5t11 -1.5q0 -2 3.5 -0.5t7.5 4.5t8 5.5t5 2.5q4 0 6 -8q-1 0 2 -3q0 -1 3 0q2 2 3 -1q-1 1 -1 0q5 0 7.5 -6.5t2.5 -10.5z" />
    <glyph glyph-name="Uacute" unicode="&#xda;" horiz-adv-x="521" 
d="M563 548v-7t-1 -13l-1 -17q-2 -13 -4 -29.5t-6 -39.5q-1 -2 -2 -5.5t-2 -8.5q0 3 -1 -2.5t-3 -21.5q-2 -12 -6 -29q-4 -9 -9 -24q-2 -7 -7 -23.5t-13 -42.5q-2 -5 -5.5 -15.5l-7.5 -22.5q-2 -6 -5 -11t-5 -13q-1 -1 -3 -4.5t-6 -8.5q-5 -20 -14.5 -41.5t-22.5 -44.5
q-4 -8 -13 -20q-2 -3 -4.5 -5t-5.5 -5q-3 -5 -7.5 -10t-9.5 -12q-2 -6 -8 -11l-10 -14q-3 -2 -7.5 -6t-10.5 -10t-7 -6q-7 -11 -18.5 -18t-27.5 -18q-3 -1 -9 -1q-2 1 -3.5 1t-3.5 2q-7 -6 -17.5 -8t-23.5 -2q-3 -1 -11 -1q-12 0 -17 5q-20 0 -29 8q-5 2 -7 5q-7 1 -14 6.5
t-15 13.5q-13 11 -21 21q-11 12 -20 26.5t-17 30.5q0 2 -2.5 8t-5.5 12.5t-5.5 12t-2.5 6.5q0 2 -2 8.5t-4 13.5l-4 14t-2 10q-4 15 -6 33t-1 38q0 9 1 24t3 33t5 38t9 39q1 3 2 5.5t2 6.5q2 10 4.5 19.5t5.5 17.5q5 12 9.5 22t9.5 16q25 40 36 40q4 -8 4 -9l3 7q0 -8 2 0
q-1 0 -1.5 -1.5t-1.5 -2.5q2 -1 3 -6q1 -1 -1 -14q0 -3 1.5 -6t4.5 -8q0 -3 7 -10q0 -3 6.5 -9t23.5 -28q7 -16 10 -44v-19l-3 -24v-12q-1 -5 -1 -15.5t-1 -25.5q0 -8 0.5 -17.5t1.5 -16.5q2 -2 3 -10.5t2 -19.5t1.5 -18.5t2.5 -8.5q4 -3 10 -24q7 -22 15 -22q3 0 7 -16
q5 -15 9 -14q2 2 4 -1t3.5 -7t3 -7.5t2.5 -3.5q1 2 2 2q2 2 5.5 -4.5t5.5 -3.5q3 -3 6 -3q7 -4 16 -3q8 -2 20 3q6 0 22 12q16 19 36 71l3 12t7 22q2 15 6.5 36.5t9.5 51.5q8 43 8 52q-1 15 -8 33q-3 1 -10 18l-3 14l1 3q0 5 4 5l22 58q1 0 21 38q20 39 21 39q2 1 9 6t14 5
q3 -3 12 -0.5t11 -1.5q0 -2 3.5 -0.5t7.5 4.5t8 5.5t5 2.5q4 0 6 -8q-1 0 2 -3q0 -1 3 0q2 2 3 -1q-1 1 -1 0q5 0 7.5 -6.5t2.5 -10.5zM427 742l5 -3l1 -4l-4 -1l-3 -8l1 -3l-5 -2l-8 -5v-3l3 -4l-4 -4l2 -8l-4 -3v-3l12 2v-1l-14 -11l-3 -10l-7 -11l-6 -7l-12 -11l-11 -8
l-40 -24l-36 -16l-7 -1h-17l-12 4h-8l-6 3v4l-4 4l-5 14l1 5l-2 6l2 4l6 6v2l30 27l14 10l41 30l30 18l29 7l37 5h4z" />
    <glyph glyph-name="Ucircumflex" unicode="&#xdb;" horiz-adv-x="521" 
d="M467 589q0 -5 -6 -20q-6 -3 -10 -3q-11 0 -16 3q-2 2 -13 17.5t-30 44.5q-4 5 -9 13.5t-13 19.5q-6 8 -13 9q-1 -1 -8 -3q-1 -1 -9 -10l-24 -27l-9 -12q-1 -2 -39 -46q-13 -10 -16 -23q-14 -8 -20 -8q-11 2 -14 6q-8 4 -16 25q0 1 1 2q0 5 3.5 12t15.5 24q5 7 11 14.5
t13 16.5q11 14 24.5 30t29.5 34q4 3 8 7l9 9q3 2 6 4.5t7 6.5q2 2 9 5q17 0 24 -7q2 -2 5 -3.5l7 -3.5q5 -4 10.5 -9t12.5 -10q3 -6 12 -16l33 -66q8 -15 16 -24v-1q2 -3 8 -11zM563 548v-7t-1 -13l-1 -17q-2 -13 -4 -29.5t-6 -39.5q-1 -2 -2 -5.5t-2 -8.5q0 3 -1 -2.5
t-3 -21.5q-2 -12 -6 -29q-4 -9 -9 -24q-2 -7 -7 -23.5t-13 -42.5q-2 -5 -5.5 -15.5l-7.5 -22.5q-2 -6 -5 -11t-5 -13q-1 -1 -3 -4.5t-6 -8.5q-5 -20 -14.5 -41.5t-22.5 -44.5q-4 -8 -13 -20q-2 -3 -4.5 -5t-5.5 -5q-3 -5 -7.5 -10t-9.5 -12q-2 -6 -8 -11l-10 -14
q-3 -2 -7.5 -6t-10.5 -10t-7 -6q-7 -11 -18.5 -18t-27.5 -18q-3 -1 -9 -1q-2 1 -3.5 1t-3.5 2q-7 -6 -17.5 -8t-23.5 -2q-3 -1 -11 -1q-12 0 -17 5q-20 0 -29 8q-5 2 -7 5q-7 1 -14 6.5t-15 13.5q-13 11 -21 21q-11 12 -20 26.5t-17 30.5q0 2 -2.5 8t-5.5 12.5t-5.5 12
t-2.5 6.5q0 2 -2 8.5t-4 13.5l-4 14t-2 10q-4 15 -6 33t-1 38q0 9 1 24t3 33t5 38t9 39q1 3 2 5.5t2 6.5q2 10 4.5 19.5t5.5 17.5q5 12 9.5 22t9.5 16q25 40 36 40q4 -8 4 -9l3 7q0 -8 2 0q-1 0 -1.5 -1.5t-1.5 -2.5q2 -1 3 -6q1 -1 -1 -14q0 -3 1.5 -6t4.5 -8q0 -3 7 -10
q0 -3 6.5 -9t23.5 -28q7 -16 10 -44v-19l-3 -24v-12q-1 -5 -1 -15.5t-1 -25.5q0 -8 0.5 -17.5t1.5 -16.5q2 -2 3 -10.5t2 -19.5t1.5 -18.5t2.5 -8.5q4 -3 10 -24q7 -22 15 -22q3 0 7 -16q5 -15 9 -14q2 2 4 -1t3.5 -7t3 -7.5t2.5 -3.5q1 2 2 2q2 2 5.5 -4.5t5.5 -3.5
q3 -3 6 -3q7 -4 16 -3q8 -2 20 3q6 0 22 12q16 19 36 71l3 12t7 22q2 15 6.5 36.5t9.5 51.5q8 43 8 52q-1 15 -8 33q-3 1 -10 18l-3 14l1 3q0 5 4 5l22 58q1 0 21 38q20 39 21 39q2 1 9 6t14 5q3 -3 12 -0.5t11 -1.5q0 -2 3.5 -0.5t7.5 4.5t8 5.5t5 2.5q4 0 6 -8q-1 0 2 -3
q0 -1 3 0q2 2 3 -1q-1 1 -1 0q5 0 7.5 -6.5t2.5 -10.5z" />
    <glyph glyph-name="Udieresis" unicode="&#xdc;" horiz-adv-x="521" 
d="M234 761l8 -3l9 -4l8 1l-1 -7l10 -4l14 -13l6 -7l14 -33l1 -7v-12l-7 -12l-7 -8l-1 -2l-15 -2l-17 -2l-18 7l-8 4l-2 2l-24 17l-11 10l-2 5v13l-2 11l2 13l8 16l18 14l15 3h2zM409 752l9 2l12 -15l14 -12l9 -24v-27l-13 -14l-5 -3l-10 -3l-26 4l-20 10l-21 19l-1 15l-4 6
l11 34l10 7l10 3l3 5zM563 548v-7t-1 -13l-1 -17q-2 -13 -4 -29.5t-6 -39.5q-1 -2 -2 -5.5t-2 -8.5q0 3 -1 -2.5t-3 -21.5q-2 -12 -6 -29q-4 -9 -9 -24q-2 -7 -7 -23.5t-13 -42.5q-2 -5 -5.5 -15.5l-7.5 -22.5q-2 -6 -5 -11t-5 -13q-1 -1 -3 -4.5t-6 -8.5
q-5 -20 -14.5 -41.5t-22.5 -44.5q-4 -8 -13 -20q-2 -3 -4.5 -5t-5.5 -5q-3 -5 -7.5 -10t-9.5 -12q-2 -6 -8 -11l-10 -14q-3 -2 -7.5 -6t-10.5 -10t-7 -6q-7 -11 -18.5 -18t-27.5 -18q-3 -1 -9 -1q-2 1 -3.5 1t-3.5 2q-7 -6 -17.5 -8t-23.5 -2q-3 -1 -11 -1q-12 0 -17 5
q-20 0 -29 8q-5 2 -7 5q-7 1 -14 6.5t-15 13.5q-13 11 -21 21q-11 12 -20 26.5t-17 30.5q0 2 -2.5 8t-5.5 12.5t-5.5 12t-2.5 6.5q0 2 -2 8.5t-4 13.5l-4 14t-2 10q-4 15 -6 33t-1 38q0 9 1 24t3 33t5 38t9 39q1 3 2 5.5t2 6.5q2 10 4.5 19.5t5.5 17.5q5 12 9.5 22t9.5 16
q25 40 36 40q4 -8 4 -9l3 7q0 -8 2 0q-1 0 -1.5 -1.5t-1.5 -2.5q2 -1 3 -6q1 -1 -1 -14q0 -3 1.5 -6t4.5 -8q0 -3 7 -10q0 -3 6.5 -9t23.5 -28q7 -16 10 -44v-19l-3 -24v-12q-1 -5 -1 -15.5t-1 -25.5q0 -8 0.5 -17.5t1.5 -16.5q2 -2 3 -10.5t2 -19.5t1.5 -18.5t2.5 -8.5
q4 -3 10 -24q7 -22 15 -22q3 0 7 -16q5 -15 9 -14q2 2 4 -1t3.5 -7t3 -7.5t2.5 -3.5q1 2 2 2q2 2 5.5 -4.5t5.5 -3.5q3 -3 6 -3q7 -4 16 -3q8 -2 20 3q6 0 22 12q16 19 36 71l3 12t7 22q2 15 6.5 36.5t9.5 51.5q8 43 8 52q-1 15 -8 33q-3 1 -10 18l-3 14l1 3q0 5 4 5l22 58
q1 0 21 38q20 39 21 39q2 1 9 6t14 5q3 -3 12 -0.5t11 -1.5q0 -2 3.5 -0.5t7.5 4.5t8 5.5t5 2.5q4 0 6 -8q-1 0 2 -3q0 -1 3 0q2 2 3 -1q-1 1 -1 0q5 0 7.5 -6.5t2.5 -10.5z" />
    <glyph glyph-name="Yacute" unicode="&#xdd;" horiz-adv-x="600" 
d="M491 637l14 7l1 -9l-5 -10l-9 -14l-6 -14l-20 -30l-7 -14l-143 -212l-5 -12l-17 -28l-7 -8l-9 -17v-3l-4 -3l-6 -10l-8 -12l-3 -7v-5l-6 -34l-6 -43l-4 -8l-8 -66l1 -9l-4 -24l-4 -25l-3 -6l-1 -12l-4 -14l-2 -3l-4 -12l1 -7l-4 -8l-11 -8l-36 -4l-24 8l-12 26l-4 30
l-2 32v37l4 49l7 32l7 38l7 35l3 27l-24 30l-23 31l-23 41l-19 29l-9 27l-1 20l-3 25l8 15l13 12l6 6l9 -5l4 -5l6 7l22 -8l13 -13l33 -41l17 -25l32 -54l11 -25l13 15l9 19l7 11l10 13l10 15l3 2l7 12l36 45l19 22l22 26l42 47l27 26l12 10l17 16l17 8l11 9zM367 724l5 -3
l1 -4l-4 -1l-3 -8l1 -3l-5 -2l-8 -5v-3l3 -4l-4 -4l2 -8l-4 -3v-3l12 2v-1l-14 -11l-3 -10l-7 -11l-6 -7l-12 -11l-11 -8l-40 -24l-36 -16l-7 -1h-17l-12 4h-8l-6 3v4l-4 4l-5 14l1 5l-2 6l2 4l6 6v2l30 27l14 10l41 30l30 18l29 7l37 5h4z" />
    <glyph glyph-name="Thorn" unicode="&#xde;" horiz-adv-x="412" 
d="M360 166l-1 -18l-8 -23l-10 -14l-14 -13l-18 -10l-21 -8h-29h-17l-19 7l-2 -1l-19 7l-5 3h-3l1 4l2 1l-2 2h-2l1 3l-2 2l4 1l-2 3h3l1 4l39 -4l16 1l13 3l11 8l7 11v10l-2 18l-8 26l-7 15l-13 21l-14 19l-2 1l-12 18l-1 2l-5 5l-10 17l-19 22l-31 -84l-8 -30l-8 -16
l-3 -17l-7 -15l-4 -17l-10 -60l-7 -30l-6 -33l-14 -36l-13 -14l-16 -9l-11 6l-3 46l2 6l-2 8v29l2 23l-2 5l-1 49l1 36l6 28l7 39l7 22l13 61l6 12l11 37l18 53l1 14l9 14l9 21l13 22l1 7l21 36l5 3l9 17l20 18l21 8h7l14 -6l8 -11l3 -24l-3 -50l-13 -29l-14 -30l-10 -27
l43 -45l1 -3l5 -4l41 -51l3 -7l5 -5l23 -37l6 -16l5 -7l2 -12l1 -3v-6l3 -7z" />
    <glyph glyph-name="germandbls" unicode="&#xdf;" horiz-adv-x="526" 
d="M321 584l45 -11l36 -20l15 -13l19 -20l18 -26l14 -34l5 -18l2 -17l-10 -25l-1 -8l-29 -36l-16 -8l-12 -9l-5 -3l-8 -2l-6 -10l12 -10l35 -23l31 -30l23 -31l10 -24l6 -33l-2 -25l-6 -14l-3 -13l-15 -17l-19 -19l-12 -10l-9 -11l-18 -15l-4 -1l-11 -10l-7 -3l-15 -9
l-24 -11l-28 -10l-28 -3l-10 -3l-19 -2l-21 -4l-5 2l-10 -4l-71 8l-17 12l-3 10l1 10l-3 8l3 5v14h4l1 5l14 -15l16 -11l24 -5h31l32 4l29 4l21 8l20 9l27 15l15 16l10 17l9 17l4 13v20l-5 15l-5 14l-19 18l-15 11l-32 9l-16 1l-52 -14l-14 -3l-20 8l-8 2l-5 3l-17 20l-3 3
l1 7l-7 13l7 14v5l3 3l-2 8l5 4l7 13l5 4l13 7v6l9 4h16l10 1l7 7l7 -1l20 7l13 5l29 30l17 15l6 10l2 22l-12 25l-10 17l-21 12l-24 1l-25 -1l-27 -12l-19 -19l-12 -17l-10 -27l-15 -39l-44 -144l-4 -19l-18 -70l-12 -26l-6 -18l-11 -50l-2 -15l-5 -26l-14 -93l-12 -16
l-13 -28l-1 -3l-19 -4l-5 7l2 3l-4 18l-3 12l14 144l17 109l36 146l51 162l11 24l3 10l11 22l19 20l16 18l14 11l13 7l35 13l36 5z" />
    <glyph glyph-name="agrave" unicode="&#xe0;" 
d="M412 436q-1 -7 -2 -8l-2 -2h-3l-3 -3h-2q-4 -3 -13 -3q-12 0 -27 7q-2 1 -8 3t-16 7q-11 5 -23.5 12t-25.5 17q-40 30 -45 33q-5 4 -10 8.5t-12 9.5q-3 4 -7 8.5t-9 9.5q-1 1 -9 17q-7 11 -7 22l1 1q1 16 10 16q27 0 21 2q5 0 9 -1l6 -2q4 -2 7 -3q1 -1 1.5 -1t1.5 -1
l5 -2q3 -2 5 -5q13 -11 32.5 -28t45.5 -40q11 -10 21 -19t20 -19q38 -35 38 -36zM429 299q0 -2 -4 -10t-4 -12q-1 -5 -1.5 -13t-2.5 -19q-6 -6 -12 -21t-12 -34.5t-12.5 -41.5t-14.5 -41q-10 -22 -19 -81l-13 -83q-1 -5 -1 -16v-11t2 -13q-4 7 -21 24q-16 16 -20 29t-4 38
q0 22 2 36.5t5 22.5q-4 6 -9 6q-4 0 -9 -4t-14.5 -13t-25 -23t-39.5 -35q-3 -8 -8 -14.5t-15.5 -14t-27 -16.5t-42.5 -22q-20 -23 -41 -23q-1 0 -6 2.5t-11.5 7.5t-12.5 12t-9 17q-4 14 -10.5 24t-12.5 19t-10 19t-4 24q0 17 10 53q11 4 28 21q2 9 4 15.5t8 16.5t17.5 28
t32.5 51q9 6 13 12.5t9 14.5t12 17.5t22 22.5q42 56 74.5 89.5t58.5 33.5q16 0 41 -25q9 0 13 -2t9.5 -6t14.5 -9t28 -10l6.5 -3t15 -8.5t15.5 -13.5t7 -18zM316 283q-1 0 -4.5 -1.5t-4.5 -1.5q3 -3 6 -4q1 1 3 7zM300 264q0 12 -10 12q-8 0 -31 -20q-9 -5 -19 -14.5
t-25 -25.5t-35.5 -39.5t-50.5 -58.5q-3 -4 -13.5 -20t-22 -34t-20.5 -34.5t-9 -22.5q0 -8 7 -8q6 0 14 6.5t19 17t24.5 23t29.5 25.5q3 5 7 9l11.5 11.5t20 19.5t32.5 32q0 4 5.5 14.5t13.5 22.5t17 23t15 16q18 45 20 45z" />
    <glyph glyph-name="aacute" unicode="&#xe1;" 
d="M440 590l5 -3l1 -4l-4 -1l-3 -8l1 -3l-5 -2l-8 -5v-3l3 -4l-4 -4l2 -8l-4 -3v-3l12 2v-1l-14 -11l-3 -10l-7 -11l-6 -7l-12 -11l-11 -8l-40 -24l-36 -16l-7 -1h-17l-12 4h-8l-6 3v4l-4 4l-5 14l1 5l-2 6l2 4l6 6v2l30 27l14 10l41 30l30 18l29 7l37 5h4zM429 299
q0 -2 -4 -10t-4 -12q-1 -5 -1.5 -13t-2.5 -19q-6 -6 -12 -21t-12 -34.5t-12.5 -41.5t-14.5 -41q-10 -22 -19 -81l-13 -83q-1 -5 -1 -16v-11t2 -13q-4 7 -21 24q-16 16 -20 29t-4 38q0 22 2 36.5t5 22.5q-4 6 -9 6q-4 0 -9 -4t-14.5 -13t-25 -23t-39.5 -35q-3 -8 -8 -14.5
t-15.5 -14t-27 -16.5t-42.5 -22q-20 -23 -41 -23q-1 0 -6 2.5t-11.5 7.5t-12.5 12t-9 17q-4 14 -10.5 24t-12.5 19t-10 19t-4 24q0 17 10 53q11 4 28 21q2 9 4 15.5t8 16.5t17.5 28t32.5 51q9 6 13 12.5t9 14.5t12 17.5t22 22.5q42 56 74.5 89.5t58.5 33.5q16 0 41 -25
q9 0 13 -2t9.5 -6t14.5 -9t28 -10l6.5 -3t15 -8.5t15.5 -13.5t7 -18zM316 283q-1 0 -4.5 -1.5t-4.5 -1.5q3 -3 6 -4q1 1 3 7zM300 264q0 12 -10 12q-8 0 -31 -20q-9 -5 -19 -14.5t-25 -25.5t-35.5 -39.5t-50.5 -58.5q-3 -4 -13.5 -20t-22 -34t-20.5 -34.5t-9 -22.5
q0 -8 7 -8q6 0 14 6.5t19 17t24.5 23t29.5 25.5q3 5 7 9l11.5 11.5t20 19.5t32.5 32q0 4 5.5 14.5t13.5 22.5t17 23t15 16q18 45 20 45z" />
    <glyph glyph-name="acircumflex" unicode="&#xe2;" 
d="M455 434q0 -5 -6 -20q-6 -3 -10 -3q-11 0 -16 3q-2 2 -13 17.5t-30 44.5q-4 5 -9 13.5t-13 19.5q-6 8 -13 9q-1 -1 -8 -3q-1 -1 -9 -10l-24 -27l-9 -12q-1 -2 -39 -46q-13 -10 -16 -23q-14 -8 -20 -8q-11 2 -14 6q-8 4 -16 25q0 1 1 2q0 5 3.5 12t15.5 24q5 7 11 14.5
t13 16.5q11 14 24.5 30t29.5 34q4 3 8 7l9 9q3 2 6 4.5t7 6.5q2 2 9 5q17 0 24 -7q2 -2 5 -3.5l7 -3.5q5 -4 10.5 -9t12.5 -10q3 -6 12 -16l33 -66q8 -15 16 -24v-1q2 -3 8 -11zM429 299q0 -2 -4 -10t-4 -12q-1 -5 -1.5 -13t-2.5 -19q-6 -6 -12 -21t-12 -34.5t-12.5 -41.5
t-14.5 -41q-10 -22 -19 -81l-13 -83q-1 -5 -1 -16v-11t2 -13q-4 7 -21 24q-16 16 -20 29t-4 38q0 22 2 36.5t5 22.5q-4 6 -9 6q-4 0 -9 -4t-14.5 -13t-25 -23t-39.5 -35q-3 -8 -8 -14.5t-15.5 -14t-27 -16.5t-42.5 -22q-20 -23 -41 -23q-1 0 -6 2.5t-11.5 7.5t-12.5 12
t-9 17q-4 14 -10.5 24t-12.5 19t-10 19t-4 24q0 17 10 53q11 4 28 21q2 9 4 15.5t8 16.5t17.5 28t32.5 51q9 6 13 12.5t9 14.5t12 17.5t22 22.5q42 56 74.5 89.5t58.5 33.5q16 0 41 -25q9 0 13 -2t9.5 -6t14.5 -9t28 -10l6.5 -3t15 -8.5t15.5 -13.5t7 -18zM316 283
q-1 0 -4.5 -1.5t-4.5 -1.5q3 -3 6 -4q1 1 3 7zM300 264q0 12 -10 12q-8 0 -31 -20q-9 -5 -19 -14.5t-25 -25.5t-35.5 -39.5t-50.5 -58.5q-3 -4 -13.5 -20t-22 -34t-20.5 -34.5t-9 -22.5q0 -8 7 -8q6 0 14 6.5t19 17t24.5 23t29.5 25.5q3 5 7 9l11.5 11.5t20 19.5t32.5 32
q0 4 5.5 14.5t13.5 22.5t17 23t15 16q18 45 20 45z" />
    <glyph glyph-name="atilde" unicode="&#xe3;" 
d="M495 511q-2 -5 -6 -11l1 -1q-5 -10 -19 -27q-1 -3 -6 -13l-2 -1v-3q-2 -6 -9 -16v-3q0 -2 1 -3q-2 -4 -4.5 -7.5t-5.5 -8.5q1 1 1 0q-1 0 -1 -2q-5 -3 -13 -10l-1 -1q-7 -7 -11 -9q-9 -4 -17.5 -5t-22.5 -1q-34 3 -71 23q-2 2 -14 9q-2 2 -5 4t-7 4q-2 0 -9.5 4t-8.5 4
q0 -1 -1.5 -1.5t-4 -2t-5 -6t-3.5 -13.5q-5 -12 -12.5 -14t-9.5 -2q-5 0 -8 1h-4q-2 1 -3.5 1t-3.5 1h-4q-5 1 -10 10q-2 2 -6 13q1 1 1 1.5t1 1.5q-1 1 -1 4q0 7 4 22q15 34 25 42q21 19 35 17q3 1 10 1q4 -1 9.5 -1.5t13.5 -2.5q2 -1 4.5 -2t4.5 -2q6 -4 13 -8.5t15 -9.5
l10 -10t11 -12q1 -1 3 -5v-1q4 -9 9 -17l1 -1l6 -2h7q12 2 15.5 4.5t8.5 6.5q7 8 16.5 19.5t22.5 26.5q18 19 24 19q22 0 21 1q2 0 10 -2q1 -1 5 -3zM429 299q0 -2 -4 -10t-4 -12q-1 -5 -1.5 -13t-2.5 -19q-6 -6 -12 -21t-12 -34.5t-12.5 -41.5t-14.5 -41q-10 -22 -19 -81
l-13 -83q-1 -5 -1 -16v-11t2 -13q-4 7 -21 24q-16 16 -20 29t-4 38q0 22 2 36.5t5 22.5q-4 6 -9 6q-4 0 -9 -4t-14.5 -13t-25 -23t-39.5 -35q-3 -8 -8 -14.5t-15.5 -14t-27 -16.5t-42.5 -22q-20 -23 -41 -23q-1 0 -6 2.5t-11.5 7.5t-12.5 12t-9 17q-4 14 -10.5 24t-12.5 19
t-10 19t-4 24q0 17 10 53q11 4 28 21q2 9 4 15.5t8 16.5t17.5 28t32.5 51q9 6 13 12.5t9 14.5t12 17.5t22 22.5q42 56 74.5 89.5t58.5 33.5q16 0 41 -25q9 0 13 -2t9.5 -6t14.5 -9t28 -10l6.5 -3t15 -8.5t15.5 -13.5t7 -18zM316 283q-1 0 -4.5 -1.5t-4.5 -1.5q3 -3 6 -4
q1 1 3 7zM300 264q0 12 -10 12q-8 0 -31 -20q-9 -5 -19 -14.5t-25 -25.5t-35.5 -39.5t-50.5 -58.5q-3 -4 -13.5 -20t-22 -34t-20.5 -34.5t-9 -22.5q0 -8 7 -8q6 0 14 6.5t19 17t24.5 23t29.5 25.5q3 5 7 9l11.5 11.5t20 19.5t32.5 32q0 4 5.5 14.5t13.5 22.5t17 23t15 16
q18 45 20 45z" />
    <glyph glyph-name="adieresis" unicode="&#xe4;" 
d="M246 532l8 -3l9 -4l8 1l-1 -7l10 -4l14 -13l6 -7l14 -33l1 -7v-12l-7 -12l-7 -8l-1 -2l-15 -2l-17 -2l-18 7l-8 4l-2 2l-24 17l-11 10l-2 5v13l-2 11l2 13l8 16l18 14l15 3h2zM421 523l9 2l12 -15l14 -12l9 -24v-27l-13 -14l-5 -3l-10 -3l-26 4l-20 10l-21 19l-1 15l-4 6
l11 34l10 7l10 3l3 5zM429 299q0 -2 -4 -10t-4 -12q-1 -5 -1.5 -13t-2.5 -19q-6 -6 -12 -21t-12 -34.5t-12.5 -41.5t-14.5 -41q-10 -22 -19 -81l-13 -83q-1 -5 -1 -16v-11t2 -13q-4 7 -21 24q-16 16 -20 29t-4 38q0 22 2 36.5t5 22.5q-4 6 -9 6q-4 0 -9 -4t-14.5 -13
t-25 -23t-39.5 -35q-3 -8 -8 -14.5t-15.5 -14t-27 -16.5t-42.5 -22q-20 -23 -41 -23q-1 0 -6 2.5t-11.5 7.5t-12.5 12t-9 17q-4 14 -10.5 24t-12.5 19t-10 19t-4 24q0 17 10 53q11 4 28 21q2 9 4 15.5t8 16.5t17.5 28t32.5 51q9 6 13 12.5t9 14.5t12 17.5t22 22.5
q42 56 74.5 89.5t58.5 33.5q16 0 41 -25q9 0 13 -2t9.5 -6t14.5 -9t28 -10l6.5 -3t15 -8.5t15.5 -13.5t7 -18zM316 283q-1 0 -4.5 -1.5t-4.5 -1.5q3 -3 6 -4q1 1 3 7zM300 264q0 12 -10 12q-8 0 -31 -20q-9 -5 -19 -14.5t-25 -25.5t-35.5 -39.5t-50.5 -58.5q-3 -4 -13.5 -20
t-22 -34t-20.5 -34.5t-9 -22.5q0 -8 7 -8q6 0 14 6.5t19 17t24.5 23t29.5 25.5q3 5 7 9l11.5 11.5t20 19.5t32.5 32q0 4 5.5 14.5t13.5 22.5t17 23t15 16q18 45 20 45z" />
    <glyph glyph-name="aring" unicode="&#xe5;" 
d="M244 505q0 4 0.5 8.5t1.5 9.5q2 4 3.5 8t3.5 9v5q3 3 4 5q17 32 31 42q8 5 24 12q3 1 7.5 2t9.5 3q4 -1 26 -6q5 -4 12 -9l9 -9q3 -3 6 -4q6 -5 13 -16q3 -1 6 -6q7 -14 9 -20q3 -16 3 -13q0 -28 -7 -46l-6 -6q-11 -11 -33 -25q-38 -23 -51 -16q-2 0 -7.5 -1t-7.5 -1
q-5 0 -18.5 5t-16.5 8q-7 8 -11.5 13.5t-7 12t-3 15t-0.5 20.5zM361 523q0 29 -21 29q-3 0 -13 -10l-11 -12q-1 -1 -1 -1.5t-1 -1.5q-17 -11 -17 -34q0 -18 9 -18q0 3 30 19q25 13 25 29zM429 299q0 -2 -4 -10t-4 -12q-1 -5 -1.5 -13t-2.5 -19q-6 -6 -12 -21t-12 -34.5
t-12.5 -41.5t-14.5 -41q-10 -22 -19 -81l-13 -83q-1 -5 -1 -16v-11t2 -13q-4 7 -21 24q-16 16 -20 29t-4 38q0 22 2 36.5t5 22.5q-4 6 -9 6q-4 0 -9 -4t-14.5 -13t-25 -23t-39.5 -35q-3 -8 -8 -14.5t-15.5 -14t-27 -16.5t-42.5 -22q-20 -23 -41 -23q-1 0 -6 2.5t-11.5 7.5
t-12.5 12t-9 17q-4 14 -10.5 24t-12.5 19t-10 19t-4 24q0 17 10 53q11 4 28 21q2 9 4 15.5t8 16.5t17.5 28t32.5 51q9 6 13 12.5t9 14.5t12 17.5t22 22.5q42 56 74.5 89.5t58.5 33.5q16 0 41 -25q9 0 13 -2t9.5 -6t14.5 -9t28 -10l6.5 -3t15 -8.5t15.5 -13.5t7 -18zM316 283
q-1 0 -4.5 -1.5t-4.5 -1.5q3 -3 6 -4q1 1 3 7zM300 264q0 12 -10 12q-8 0 -31 -20q-9 -5 -19 -14.5t-25 -25.5t-35.5 -39.5t-50.5 -58.5q-3 -4 -13.5 -20t-22 -34t-20.5 -34.5t-9 -22.5q0 -8 7 -8q6 0 14 6.5t19 17t24.5 23t29.5 25.5q3 5 7 9l11.5 11.5t20 19.5t32.5 32
q0 4 5.5 14.5t13.5 22.5t17 23t15 16q18 45 20 45z" />
    <glyph glyph-name="ae" unicode="&#xe6;" horiz-adv-x="804" 
d="M657 2q17 8 32 17t26.5 17t19.5 13.5t10 5.5q3 0 7 -2q-2 -15 -9 -34q-2 -2 -17.5 -20t-42 -38.5t-63.5 -37.5t-81 -17q-16 0 -34.5 10t-36.5 25t-33.5 31.5t-26.5 30.5q-11 15 -19 33t-13 36q-5 -21 -9 -46l-13 -84q-1 -3 -1 -7v-8v-11.5t2 -12.5q-2 3 -7.5 9.5
t-13.5 14.5q-16 16 -20 28.5t-4 38.5q0 40 7 59q-4 5 -9 5q-4 0 -9 -4t-14.5 -12.5t-25 -22.5t-39.5 -35q-3 -8 -8 -14.5t-15.5 -14t-27 -16.5t-42.5 -22q-21 -24 -41 -24q-1 0 -6 2.5t-11.5 7.5t-12.5 12.5t-9 16.5q-4 14 -10.5 24t-12.5 19t-10 19t-4 25q0 8 2.5 21
t7.5 31q11 5 28 21q2 9 4 15.5t8 17t17.5 28.5t32.5 51q9 6 13 12.5t9 14t12 17.5t22 23q42 55 74.5 88.5t58.5 33.5q17 0 41 -24q9 0 13 -2.5t9.5 -6.5t14.5 -9t28 -10q0 1 6.5 -2t15 -9t15.5 -14t7 -17q0 -3 -4 -11t-4 -11v-2l14 12q8 10 20 23.5t29 30.5l31 17
q16 7 19 23h8q3 0 10.5 -7t11.5 -8q34 -5 51.5 -8t18.5 -3q17 -4 35.5 -14.5t34 -24t26 -29t10.5 -29.5q0 -30 -12 -52t-30 -37t-40 -24t-41 -14t-33.5 -6.5t-18.5 -1.5q-75 0 -98 18q-38 -62 -38 -95q0 -8 14 -28q7 -9 11.5 -14.5t9.5 -8t13 -4t21 -2.5q4 -2 13.5 -8.5
t31.5 -6.5q34 0 94 28zM585 267q-19 -11 -32 -23t-23.5 -24.5t-20 -27t-21.5 -29.5q20 -6 21 -6q10 0 50 25q25 16 38.5 29t20 24t9 20t5.5 18q-12 12 -18 12l-29 -18v0zM300 218q18 46 20 46q0 11 -10 11q-7 0 -31 -19q-9 -5 -19 -14.5t-25 -25.5t-35.5 -40t-50.5 -59
q-3 -4 -13.5 -19.5t-22 -33.5t-20.5 -34.5t-9 -22.5q0 -9 7 -9q6 0 14 6.5t19 17t24.5 23.5t29.5 26q3 4 7 8l11.5 11.5t20 19.5t32.5 32q0 4 5.5 14.5t13.5 22.5t17 23t15 16zM333 275q1 2 1.5 3.5t1.5 3.5q-1 0 -4.5 -1t-4.5 -1q1 -1 6 -5z" />
    <glyph glyph-name="ccedilla" unicode="&#xe7;" horiz-adv-x="457" 
d="M430 143q0 -1 -6.5 -6.5t-6.5 -8.5q1 -3 -1.5 -6.5t-2.5 -4.5q0 -5 1 -5q-6 -2 -11 -20q-3 -1 -9 -5q-2 -6 -4 -9q-4 -2 -8 -5t-9 -7q-2 -2 -5 -4.5t-8 -6.5q-2 -2 -9.5 -5.5t-18.5 -10.5q-4 -4 -12 -5q-35 -23 -47 -23q0 -4 3 -9q-1 -3 0 -7q-1 -1 -1 -4t1 -5v-4
q0 -4 -1.5 -12t-1.5 -12v-15q1 -2 1 -10q0 -2 6 -14q7 -13 4 -17q2 -6 1 -12q1 -16 -17 -42q-5 -2 -14 -4.5t-20 -6.5q-3 0 -10.5 -2t-10.5 -2q-5 -1 -6 -1h-7q-3 -1 -6.5 -1t-8.5 -1q-4 1 -12 2t-19 2q-1 1 -33 -4h-2q-1 0 -2 0.5t-8 -0.5h-9l-2 1q2 7 4 5q15 -6 36 -4h-3
l-2 1l-1 3h-3l6 3q32 1 46 16q8 4 18 10.5t23 14.5l2 9q1 6 0 13t-10 12q0 12 -23 24h-4l-18 -1q-14 -1 -31 8.5t-27 16.5q-4 10 -12 27q-4 7 -3 27q2 25 1 27l-2 2q-7 7 -11 16q0 3 -6.5 9.5t-6.5 8.5q0 4 -9 17q-8 16 -8 18l-4 10t-4 12q-1 4 -1 15q-1 1 -1 3q0 26 16 71
q10 14 23 35.5t46 52.5q32 31 55 37q1 0 3.5 2t4.5 2q1 0 23 8q22 9 25 7q10 -1 26 -10q11 -5 20 -20q2 -1 6 -7q7 0 17 -2l8 -2v-3q-4 -4 -6 -4q0 1 -3 4q1 -1 1 13q3 2 6 5l6 6q0 6 -2 6t-4.5 -7t-3.5 -8q-2 -4 -4.5 -8.5t-6.5 -9.5q-4 -3 -8.5 -7.5l-9.5 -9.5
q-19 -8 -24 -13q-2 -1 -5 -1.5t-6 -2.5q-10 -4 -20 -10q-16 -16 -31 -46q-5 -7 -11 -15t-11 -17q-1 -4 -17 -31q-14 -26 -14 -33v-40.5t-1 2.5q2 -29 35 -29q20 0 41 6q14 4 36 11t53 17q12 5 30.5 13.5t43.5 21.5q2 2 14 2q4 0 15.5 4.5t15.5 4.5l1 -1l2 -4l1 -1v0z" />
    <glyph glyph-name="egrave" unicode="&#xe8;" horiz-adv-x="423" 
d="M399 297q0 -21 -13 -51q-11 -30 -27 -41q-7 -5 -17 -10t-23 -12q-76 -21 -95 -21q-75 0 -98 18q-38 -62 -38 -95q0 -8 14 -28q13 -17 21 -22q7 -4 34 -7q2 -2 8 -4.5t14 -7.5q5 -3 23 -3q34 0 94 28q63 28 82 52q9 2 13 -1q-2 -15 -9 -34q-5 -6 -22.5 -23t-48.5 -45
q-18 -17 -62 -31q-42 -14 -71 -14q-22 0 -42 14q-53 38 -89 83q-19 23 -26 50q-16 54 -16 87q5 10 13 44q0 6 15 19q2 2 6 21q6 4 12 10q2 9 9 24q2 2 6 5.5t10 8.5l18 15q8 10 20 23.5t29 30.5l31 17q16 7 19 23h8q3 0 10.5 -7t11.5 -8q34 -5 51.5 -8t18.5 -3
q15 -4 31 -12.5t33 -21.5q42 -31 42 -63zM271 312q-12 12 -18 12l-29 -18q-16 -9 -26.5 -18t-17.5 -17q-13 -16 -26 -33t-27 -36q20 -6 21 -6q10 0 50 25q39 25 46 35q21 34 27 56zM386 433q-1 -7 -2 -8l-2 -2h-3l-3 -3h-2q-4 -3 -13 -3q-12 0 -27 7q-2 1 -8 3t-16 7
q-11 5 -23.5 12t-25.5 17q-40 30 -45 33q-5 4 -10 8.5t-12 9.5q-3 4 -7 8.5t-9 9.5q-1 1 -9 17q-7 11 -7 22l1 1q1 16 10 16q27 0 21 2q5 0 9 -1l6 -2q4 -2 7 -3q1 -1 1.5 -1t1.5 -1l5 -2q3 -2 5 -5q13 -11 32.5 -28t45.5 -40q11 -10 21 -19t20 -19q38 -35 38 -36z" />
    <glyph glyph-name="eacute" unicode="&#xe9;" horiz-adv-x="423" 
d="M399 297q0 -21 -13 -51q-11 -30 -27 -41q-7 -5 -17 -10t-23 -12q-76 -21 -95 -21q-75 0 -98 18q-38 -62 -38 -95q0 -8 14 -28q13 -17 21 -22q7 -4 34 -7q2 -2 8 -4.5t14 -7.5q5 -3 23 -3q34 0 94 28q63 28 82 52q9 2 13 -1q-2 -15 -9 -34q-5 -6 -22.5 -23t-48.5 -45
q-18 -17 -62 -31q-42 -14 -71 -14q-22 0 -42 14q-53 38 -89 83q-19 23 -26 50q-16 54 -16 87q5 10 13 44q0 6 15 19q2 2 6 21q6 4 12 10q2 9 9 24q2 2 6 5.5t10 8.5l18 15q8 10 20 23.5t29 30.5l31 17q16 7 19 23h8q3 0 10.5 -7t11.5 -8q34 -5 51.5 -8t18.5 -3
q15 -4 31 -12.5t33 -21.5q42 -31 42 -63zM271 312q-12 12 -18 12l-29 -18q-16 -9 -26.5 -18t-17.5 -17q-13 -16 -26 -33t-27 -36q20 -6 21 -6q10 0 50 25q39 25 46 35q21 34 27 56zM356 591l5 -3l1 -4l-4 -1l-3 -8l1 -3l-5 -2l-8 -5v-3l3 -4l-4 -4l2 -8l-4 -3v-3l12 2v-1
l-14 -11l-3 -10l-7 -11l-6 -7l-12 -11l-11 -8l-40 -24l-36 -16l-7 -1h-17l-12 4h-8l-6 3v4l-4 4l-5 14l1 5l-2 6l2 4l6 6v2l30 27l14 10l41 30l30 18l29 7l37 5h4z" />
    <glyph glyph-name="ecircumflex" unicode="&#xea;" horiz-adv-x="423" 
d="M399 297q0 -21 -13 -51q-11 -30 -27 -41q-7 -5 -17 -10t-23 -12q-76 -21 -95 -21q-75 0 -98 18q-38 -62 -38 -95q0 -8 14 -28q13 -17 21 -22q7 -4 34 -7q2 -2 8 -4.5t14 -7.5q5 -3 23 -3q34 0 94 28q63 28 82 52q9 2 13 -1q-2 -15 -9 -34q-5 -6 -22.5 -23t-48.5 -45
q-18 -17 -62 -31q-42 -14 -71 -14q-22 0 -42 14q-53 38 -89 83q-19 23 -26 50q-16 54 -16 87q5 10 13 44q0 6 15 19q2 2 6 21q6 4 12 10q2 9 9 24q2 2 6 5.5t10 8.5l18 15q8 10 20 23.5t29 30.5l31 17q16 7 19 23h8q3 0 10.5 -7t11.5 -8q34 -5 51.5 -8t18.5 -3
q15 -4 31 -12.5t33 -21.5q42 -31 42 -63zM271 312q-12 12 -18 12l-29 -18q-16 -9 -26.5 -18t-17.5 -17q-13 -16 -26 -33t-27 -36q20 -6 21 -6q10 0 50 25q39 25 46 35q21 34 27 56zM356 469q0 -5 -6 -20q-6 -3 -10 -3q-11 0 -16 3q-2 2 -13 17.5t-30 44.5q-4 5 -9 13.5
t-13 19.5q-6 8 -13 9q-1 -1 -8 -3q-1 -1 -9 -10l-24 -27l-9 -12q-1 -2 -39 -46q-13 -10 -16 -23q-14 -8 -20 -8q-11 2 -14 6q-8 4 -16 25q0 1 1 2q0 5 3.5 12t15.5 24q5 7 11 14.5t13 16.5q11 14 24.5 30t29.5 34q4 3 8 7l9 9q3 2 6 4.5t7 6.5q2 2 9 5q17 0 24 -7
q2 -2 5 -3.5l7 -3.5q5 -4 10.5 -9t12.5 -10q3 -6 12 -16l33 -66q8 -15 16 -24v-1q2 -3 8 -11z" />
    <glyph glyph-name="edieresis" unicode="&#xeb;" horiz-adv-x="423" 
d="M399 297q0 -21 -13 -51q-11 -30 -27 -41q-7 -5 -17 -10t-23 -12q-76 -21 -95 -21q-75 0 -98 18q-38 -62 -38 -95q0 -8 14 -28q13 -17 21 -22q7 -4 34 -7q2 -2 8 -4.5t14 -7.5q5 -3 23 -3q34 0 94 28q63 28 82 52q9 2 13 -1q-2 -15 -9 -34q-5 -6 -22.5 -23t-48.5 -45
q-18 -17 -62 -31q-42 -14 -71 -14q-22 0 -42 14q-53 38 -89 83q-19 23 -26 50q-16 54 -16 87q5 10 13 44q0 6 15 19q2 2 6 21q6 4 12 10q2 9 9 24q2 2 6 5.5t10 8.5l18 15q8 10 20 23.5t29 30.5l31 17q16 7 19 23h8q3 0 10.5 -7t11.5 -8q34 -5 51.5 -8t18.5 -3
q15 -4 31 -12.5t33 -21.5q42 -31 42 -63zM271 312q-12 12 -18 12l-29 -18q-16 -9 -26.5 -18t-17.5 -17q-13 -16 -26 -33t-27 -36q20 -6 21 -6q10 0 50 25q39 25 46 35q21 34 27 56zM153 563l8 -3l9 -4l8 1l-1 -7l10 -4l14 -13l6 -7l14 -33l1 -7v-12l-7 -12l-7 -8l-1 -2
l-15 -2l-17 -2l-18 7l-8 4l-2 2l-24 17l-11 10l-2 5v13l-2 11l2 13l8 16l18 14l15 3h2zM328 554l9 2l12 -15l14 -12l9 -24v-27l-13 -14l-5 -3l-10 -3l-26 4l-20 10l-21 19l-1 15l-4 6l11 34l10 7l10 3l3 5z" />
    <glyph glyph-name="igrave" unicode="&#xec;" horiz-adv-x="235" 
d="M149 263l5 3h3l13 -11l6 -3l12 -23l1 -16v-16l-14 -31l-23 -74l-5 -46l-1 -17l10 -3l28 2l38 9l-7 -12v-5l-10 -16l-6 -7l2 -5l-12 -8h-3l-3 -6l-13 -5l-3 -3l-29 -18l-11 -8l-21 -3l-4 -2l-4 3l-20 8l-24 18l-14 18l-7 16l-6 35v44l6 26l19 48l29 50l26 34l18 21l14 6z
M318 361q-1 -7 -2 -8l-2 -2h-3l-3 -3h-2q-4 -3 -13 -3q-12 0 -27 7q-2 1 -8 3t-16 7q-11 5 -23.5 12t-25.5 17q-40 30 -45 33q-5 4 -10 8.5t-12 9.5q-3 4 -7 8.5t-9 9.5q-1 1 -9 17q-7 11 -7 22l1 1q1 16 10 16q27 0 21 2q5 0 9 -1l6 -2q4 -2 7 -3q1 -1 1.5 -1t1.5 -1l5 -2
q3 -2 5 -5q13 -11 32.5 -28t45.5 -40q11 -10 21 -19t20 -19q38 -35 38 -36z" />
    <glyph glyph-name="iacute" unicode="&#xed;" horiz-adv-x="235" 
d="M149 263l5 3h3l13 -11l6 -3l12 -23l1 -16v-16l-14 -31l-23 -74l-5 -46l-1 -17l10 -3l28 2l38 9l-7 -12v-5l-10 -16l-6 -7l2 -5l-12 -8h-3l-3 -6l-13 -5l-3 -3l-29 -18l-11 -8l-21 -3l-4 -2l-4 3l-20 8l-24 18l-14 18l-7 16l-6 35v44l6 26l19 48l29 50l26 34l18 21l14 6z
M320 553l5 -3l1 -4l-4 -1l-3 -8l1 -3l-5 -2l-8 -5v-3l3 -4l-4 -4l2 -8l-4 -3v-3l12 2v-1l-14 -11l-3 -10l-7 -11l-6 -7l-12 -11l-11 -8l-40 -24l-36 -16l-7 -1h-17l-12 4h-8l-6 3v4l-4 4l-5 14l1 5l-2 6l2 4l6 6v2l30 27l14 10l41 30l30 18l29 7l37 5h4z" />
    <glyph glyph-name="icircumflex" unicode="&#xee;" horiz-adv-x="235" 
d="M149 263l5 3h3l13 -11l6 -3l12 -23l1 -16v-16l-14 -31l-23 -74l-5 -46l-1 -17l10 -3l28 2l38 9l-7 -12v-5l-10 -16l-6 -7l2 -5l-12 -8h-3l-3 -6l-13 -5l-3 -3l-29 -18l-11 -8l-21 -3l-4 -2l-4 3l-20 8l-24 18l-14 18l-7 16l-6 35v44l6 26l19 48l29 50l26 34l18 21l14 6z
M335 408q0 -5 -6 -20q-6 -3 -10 -3q-11 0 -16 3q-2 2 -13 17.5t-30 44.5q-4 5 -9 13.5t-13 19.5q-6 8 -13 9q-1 -1 -8 -3q-1 -1 -9 -10l-24 -27l-9 -12q-1 -2 -39 -46q-13 -10 -16 -23q-14 -8 -20 -8q-11 2 -14 6q-8 4 -16 25q0 1 1 2q0 5 3.5 12t15.5 24q5 7 11 14.5
t13 16.5q11 14 24.5 30t29.5 34q4 3 8 7l9 9q3 2 6 4.5t7 6.5q2 2 9 5q17 0 24 -7q2 -2 5 -3.5l7 -3.5q5 -4 10.5 -9t12.5 -10q3 -6 12 -16l33 -66q8 -15 16 -24v-1q2 -3 8 -11z" />
    <glyph glyph-name="idieresis" unicode="&#xef;" horiz-adv-x="235" 
d="M149 263l5 3h3l13 -11l6 -3l12 -23l1 -16v-16l-14 -31l-23 -74l-5 -46l-1 -17l10 -3l28 2l38 9l-7 -12v-5l-10 -16l-6 -7l2 -5l-12 -8h-3l-3 -6l-13 -5l-3 -3l-29 -18l-11 -8l-21 -3l-4 -2l-4 3l-20 8l-24 18l-14 18l-7 16l-6 35v44l6 26l19 48l29 50l26 34l18 21l14 6z
M129 533l8 -3l9 -4l8 1l-1 -7l10 -4l14 -13l6 -7l14 -33l1 -7v-12l-7 -12l-7 -8l-1 -2l-15 -2l-17 -2l-18 7l-8 4l-2 2l-24 17l-11 10l-2 5v13l-2 11l2 13l8 16l18 14l15 3h2zM304 524l9 2l12 -15l14 -12l9 -24v-27l-13 -14l-5 -3l-10 -3l-26 4l-20 10l-21 19l-1 15l-4 6
l11 34l10 7l10 3l3 5z" />
    <glyph glyph-name="eth" unicode="&#xf0;" horiz-adv-x="457" 
d="M344 523l-24 -17q2 -5 3 -9.5t3 -9.5q5 -9 10.5 -23t11.5 -33v-3q7 -18 14.5 -41.5t13.5 -51.5q9 -42 14 -66.5t6 -33.5l2 -3v-3l6 -23q2 -3 4.5 -11.5t7.5 -22.5q1 -3 1.5 -7t1.5 -8q0 -3 4 -11q1 -2 2 -9.5t4 -21.5q1 -5 1.5 -9t0.5 -7v-7q4 -9 4 -42q2 -32 0 -43
q-6 -24 -17 -33l-7 -5q-12 -7 -21 -10.5t-16 -6.5q-16 -8 -27 -12t-19 -5q-11 -5 -52 1q-14 3 -26 8t-26 13q-11 2 -30 13.5t-48 33.5q-54 37 -104 122q-5 13 -11.5 29.5t-12.5 29.5l-2 33l4 18q4 27 25 60q10 12 17.5 20t12.5 13q11 10 19 16.5t16 8.5l8 2q13 5 20 6
q5 0 6 -2q7 2 11 3t6 1l45 -9q19 -3 39 -13q1 1 5 1q10 -3 24 -11q8 -3 20 -18q7 -3 11.5 -6.5t8.5 -6.5q2 0 3 3q0 6 -1 15t-2 17q-2 3 -3.5 11.5t-5.5 22.5q-2 8 -3.5 15t-2.5 12q-2 5 -6.5 26t-11.5 59l-6 -3l-20 -12l-29 -15l-14 -9l-11 -3l-1 2h-9l-3 -2l-4 8l-2 2
l4 11l2 5l14 10l25 15l46 30q0 2 -0.5 3.5t-0.5 3.5q-5 14 -14 46q-2 12 -5 20.5t-5 12.5q-11 18 -8 30q4 6 12 5q4 -3 9.5 -11.5t13.5 -22.5l-1 -3q3 -3 4.5 -10t2.5 -7q-2 1 1 -4t11 -15q3 -7 6.5 -13.5t5.5 -14.5l28 16l29 17l63 36l16 7l6 1l1 -1l-11 -9l1 -2l-4 -2
l-10 -10v-4l-8 -7l-8 -9l-20 -15l-11 -9l-2 -3l-13 -5v-2zM332 164q-5 11 -9.5 22.5t-11.5 25.5q-2 5 -6.5 13t-11.5 17q-12 6 -30 18q-8 3 -18 7t-23 9q-5 2 -11 3t-16 1h-19q-14 4 -27.5 -1t-24 -12.5t-15.5 -15.5t-3 -11q1 8 3.5 2.5t7.5 -27.5q6 -31 12.5 -50.5
t11.5 -27.5q35 -50 50 -61q4 -2 8.5 -5.5t9.5 -6.5q4 -3 6 -5l4 -4q31 -16 47 -24l18 -9q15 -2 30 5.5t18 22.5q3 20 4 33.5t-1 18.5q1 25 -3 62z" />
    <glyph glyph-name="ntilde" unicode="&#xf1;" horiz-adv-x="391" 
d="M331 27l6 -22l22 -54l6 -10l-8 -2l-7 -6l-6 7l-10 1v-4l-3 -1l-10 3l-13 3l-36 42l-21 67l2 5l-5 13l3 52l-5 3l8 19l-1 3v5l3 3v29l4 20l1 14l3 19v9l-5 12l-9 8l-17 2l-22 -5l-6 -17l-6 -16l-8 -12l-9 -28l-6 -10l-5 -18l-15 -33l-16 -38l-7 -15l-1 -8l-10 -22v-7
l-5 -8l-11 -29l-3 -4l-7 -11l-9 -3v-5l-10 2h-19l-8 11l-3 3l-7 3l-8 10l-3 5l-7 2l-2 13l5 10l8 40l2 5l15 48l3 12l16 54l14 61l36 101l17 8l22 -1l1 -1l12 3l3 -2l13 -14l-1 -39l39 29l23 7l39 8l53 -20l12 -11l2 -3l13 -17l4 -31l-2 -33l-3 -12l-7 -18l-10 -32l-7 -25
l-5 -27l-4 -8l-2 -6l2 -4l2 -10v-11l-6 -16zM449 512q-2 -5 -6 -11l1 -1q-5 -10 -19 -27q-1 -3 -6 -13l-2 -1v-3q-2 -6 -9 -16v-3q0 -2 1 -3q-2 -4 -4.5 -7.5t-5.5 -8.5q1 1 1 0q-1 0 -1 -2q-5 -3 -13 -10l-1 -1q-7 -7 -11 -9q-9 -4 -17.5 -5t-22.5 -1q-34 3 -71 23
q-2 2 -14 9q-2 2 -5 4t-7 4q-2 0 -9.5 4t-8.5 4q0 -1 -1.5 -1.5t-4 -2t-5 -6t-3.5 -13.5q-5 -12 -12.5 -14t-9.5 -2q-5 0 -8 1h-4q-2 1 -3.5 1t-3.5 1h-4q-5 1 -10 10q-2 2 -6 13q1 1 1 1.5t1 1.5q-1 1 -1 4q0 7 4 22q15 34 25 42q21 19 35 17q3 1 10 1q4 -1 9.5 -1.5
t13.5 -2.5q2 -1 4.5 -2t4.5 -2q6 -4 13 -8.5t15 -9.5l10 -10t11 -12q1 -1 3 -5v-1q4 -9 9 -17l1 -1l6 -2h7q12 2 15.5 4.5t8.5 6.5q7 8 16.5 19.5t22.5 26.5q18 19 24 19q22 0 21 1q2 0 10 -2q1 -1 5 -3z" />
    <glyph glyph-name="ograve" unicode="&#xf2;" horiz-adv-x="472" 
d="M457 232q0 -49 -22 -92q-3 -14 -7 -23q-23 -55 -84 -98q-17 -12 -45.5 -28t-68.5 -36q-2 -1 -28 -4q-28 -33 -80 -33q-25 0 -32 5l-37 31q-6 -1 -23 4q-12 11 -17 35q-5 29 -7 33q5 8 5 12q0 3 -3 7t-3 6q0 9 3 27.5t3 27.5q4 1 9 3.5t12 6.5q4 4 4 11q0 3 -3 13t-2 12
q20 17 37 45q6 12 24 42q16 24 78 86q68 68 82 68q3 0 8.5 -1.5t8.5 -1.5q8 0 27 28q2 -1 7.5 -5t13.5 -11l30 -7q12 -6 36 -15q8 0 33 -5q28 -40 35 -70q6 -22 6 -73zM345 256q-5 1 -11 7q3 5 3 11q0 9 -5.5 20.5t-13.5 11.5q-14 0 -63 -43q-19 -17 -31 -28t-17 -16
q-30 -35 -54.5 -64t-43.5 -53q-4 -4 -13 -30q-8 -27 -8 -32q0 -8 9 -17.5t17 -9.5q55 0 125 47q16 4 38 16q4 4 11.5 18t19.5 37q12 22 18 70q5 5 7 6q0 34 12 38v11zM427 471q-1 -7 -2 -8l-2 -2h-3l-3 -3h-2q-4 -3 -13 -3q-12 0 -27 7q-2 1 -8 3t-16 7q-11 5 -23.5 12
t-25.5 17q-40 30 -45 33q-5 4 -10 8.5t-12 9.5q-3 4 -7 8.5t-9 9.5q-1 1 -9 17q-7 11 -7 22l1 1q1 16 10 16q27 0 21 2q5 0 9 -1l6 -2q4 -2 7 -3q1 -1 1.5 -1t1.5 -1l5 -2q3 -2 5 -5q13 -11 32.5 -28t45.5 -40q11 -10 21 -19t20 -19q38 -35 38 -36z" />
    <glyph glyph-name="oacute" unicode="&#xf3;" horiz-adv-x="472" 
d="M457 232q0 -49 -22 -92q-3 -14 -7 -23q-23 -55 -84 -98q-17 -12 -45.5 -28t-68.5 -36q-2 -1 -28 -4q-28 -33 -80 -33q-25 0 -32 5l-37 31q-6 -1 -23 4q-12 11 -17 35q-5 29 -7 33q5 8 5 12q0 3 -3 7t-3 6q0 9 3 27.5t3 27.5q4 1 9 3.5t12 6.5q4 4 4 11q0 3 -3 13t-2 12
q20 17 37 45q6 12 24 42q16 24 78 86q68 68 82 68q3 0 8.5 -1.5t8.5 -1.5q8 0 27 28q2 -1 7.5 -5t13.5 -11l30 -7q12 -6 36 -15q8 0 33 -5q28 -40 35 -70q6 -22 6 -73zM345 256q-5 1 -11 7q3 5 3 11q0 9 -5.5 20.5t-13.5 11.5q-14 0 -63 -43q-19 -17 -31 -28t-17 -16
q-30 -35 -54.5 -64t-43.5 -53q-4 -4 -13 -30q-8 -27 -8 -32q0 -8 9 -17.5t17 -9.5q55 0 125 47q16 4 38 16q4 4 11.5 18t19.5 37q12 22 18 70q5 5 7 6q0 34 12 38v11zM428 588l5 -3l1 -4l-4 -1l-3 -8l1 -3l-5 -2l-8 -5v-3l3 -4l-4 -4l2 -8l-4 -3v-3l12 2v-1l-14 -11l-3 -10
l-7 -11l-6 -7l-12 -11l-11 -8l-40 -24l-36 -16l-7 -1h-17l-12 4h-8l-6 3v4l-4 4l-5 14l1 5l-2 6l2 4l6 6v2l30 27l14 10l41 30l30 18l29 7l37 5h4z" />
    <glyph glyph-name="ocircumflex" unicode="&#xf4;" horiz-adv-x="472" 
d="M457 232q0 -49 -22 -92q-3 -14 -7 -23q-23 -55 -84 -98q-17 -12 -45.5 -28t-68.5 -36q-2 -1 -28 -4q-28 -33 -80 -33q-25 0 -32 5l-37 31q-6 -1 -23 4q-12 11 -17 35q-5 29 -7 33q5 8 5 12q0 3 -3 7t-3 6q0 9 3 27.5t3 27.5q4 1 9 3.5t12 6.5q4 4 4 11q0 3 -3 13t-2 12
q20 17 37 45q6 12 24 42q16 24 78 86q68 68 82 68q3 0 8.5 -1.5t8.5 -1.5q8 0 27 28q2 -1 7.5 -5t13.5 -11l30 -7q12 -6 36 -15q8 0 33 -5q28 -40 35 -70q6 -22 6 -73zM345 256q-5 1 -11 7q3 5 3 11q0 9 -5.5 20.5t-13.5 11.5q-14 0 -63 -43q-19 -17 -31 -28t-17 -16
q-30 -35 -54.5 -64t-43.5 -53q-4 -4 -13 -30q-8 -27 -8 -32q0 -8 9 -17.5t17 -9.5q55 0 125 47q16 4 38 16q4 4 11.5 18t19.5 37q12 22 18 70q5 5 7 6q0 34 12 38v11zM453 465q0 -5 -6 -20q-6 -3 -10 -3q-11 0 -16 3q-2 2 -13 17.5t-30 44.5q-4 5 -9 13.5t-13 19.5
q-6 8 -13 9q-1 -1 -8 -3q-1 -1 -9 -10l-24 -27l-9 -12q-1 -2 -39 -46q-13 -10 -16 -23q-14 -8 -20 -8q-11 2 -14 6q-8 4 -16 25q0 1 1 2q0 5 3.5 12t15.5 24q5 7 11 14.5t13 16.5q11 14 24.5 30t29.5 34q4 3 8 7l9 9q3 2 6 4.5t7 6.5q2 2 9 5q17 0 24 -7q2 -2 5 -3.5l7 -3.5
q5 -4 10.5 -9t12.5 -10q3 -6 12 -16l33 -66q8 -15 16 -24v-1q2 -3 8 -11z" />
    <glyph glyph-name="otilde" unicode="&#xf5;" horiz-adv-x="472" 
d="M486 601l-6 -17l2 -1v-1l-5 -6l-10 -17l-1 -8l-2 -6l-2 -2v-2l2 -1l-9 -20l1 -4v-1l5 -3l-3 -10l-3 -11l6 3v-3l-4 -3v-2l-7 -10l-1 -1l-2 -10l-4 -7l-6 -4l-4 -3l-8 -5l-22 -10l-28 -4l-30 1l-24 9l-16 9l-12 12l-8 14l-10 22l-3 9l-9 -5l-14 -19l-7 -11l-1 -3l-7 -4
l-1 -3l-9 -2l-5 -4h-9l-4 -3h-9l-4 3l-1 3l-5 5l-7 8l3 3l-3 4v4l-1 7l3 15l14 30l12 20l20 16l17 12l11 5l9 -1l18 1l11 -2l32 -19l20 -28l2 -7l-1 -2v-25l1 -1l6 -4h7l17 3l8 7l16 19l24 30l21 24l19 12l12 5h8zM457 232q0 -49 -22 -92q-3 -14 -7 -23q-23 -55 -84 -98
q-17 -12 -45.5 -28t-68.5 -36q-2 -1 -28 -4q-28 -33 -80 -33q-25 0 -32 5l-37 31q-6 -1 -23 4q-12 11 -17 35q-5 29 -7 33q5 8 5 12q0 3 -3 7t-3 6q0 9 3 27.5t3 27.5q4 1 9 3.5t12 6.5q4 4 4 11q0 3 -3 13t-2 12q20 17 37 45q6 12 24 42q16 24 78 86q68 68 82 68
q3 0 8.5 -1.5t8.5 -1.5q8 0 27 28q2 -1 7.5 -5t13.5 -11l30 -7q12 -6 36 -15q8 0 33 -5q28 -40 35 -70q6 -22 6 -73zM345 256q-5 1 -11 7q3 5 3 11q0 9 -5.5 20.5t-13.5 11.5q-14 0 -63 -43q-19 -17 -31 -28t-17 -16q-30 -35 -54.5 -64t-43.5 -53q-4 -4 -13 -30
q-8 -27 -8 -32q0 -8 9 -17.5t17 -9.5q55 0 125 47q16 4 38 16q4 4 11.5 18t19.5 37q12 22 18 70q5 5 7 6q0 34 12 38v11z" />
    <glyph glyph-name="odieresis" unicode="&#xf6;" horiz-adv-x="472" 
d="M457 232q0 -49 -22 -92q-3 -14 -7 -23q-23 -55 -84 -98q-17 -12 -45.5 -28t-68.5 -36q-2 -1 -28 -4q-28 -33 -80 -33q-25 0 -32 5l-37 31q-6 -1 -23 4q-12 11 -17 35q-5 29 -7 33q5 8 5 12q0 3 -3 7t-3 6q0 9 3 27.5t3 27.5q4 1 9 3.5t12 6.5q4 4 4 11q0 3 -3 13t-2 12
q20 17 37 45q6 12 24 42q16 24 78 86q68 68 82 68q3 0 8.5 -1.5t8.5 -1.5q8 0 27 28q2 -1 7.5 -5t13.5 -11l30 -7q12 -6 36 -15q8 0 33 -5q28 -40 35 -70q6 -22 6 -73zM345 256q-5 1 -11 7q3 5 3 11q0 9 -5.5 20.5t-13.5 11.5q-14 0 -63 -43q-19 -17 -31 -28t-17 -16
q-30 -35 -54.5 -64t-43.5 -53q-4 -4 -13 -30q-8 -27 -8 -32q0 -8 9 -17.5t17 -9.5q55 0 125 47q16 4 38 16q4 4 11.5 18t19.5 37q12 22 18 70q5 5 7 6q0 34 12 38v11zM247 567l8 -3l9 -4l8 1l-1 -7l10 -4l14 -13l6 -7l14 -33l1 -7v-12l-7 -12l-7 -8l-1 -2l-15 -2l-17 -2
l-18 7l-8 4l-2 2l-24 17l-11 10l-2 5v13l-2 11l2 13l8 16l18 14l15 3h2zM422 558l9 2l12 -15l14 -12l9 -24v-27l-13 -14l-5 -3l-10 -3l-26 4l-20 10l-21 19l-1 15l-4 6l11 34l10 7l10 3l3 5z" />
    <glyph glyph-name="divide" unicode="&#xf7;" horiz-adv-x="0" 
 />
    <glyph glyph-name="oslash" unicode="&#xf8;" horiz-adv-x="547" 
d="M472 588q12 -3 16 -16q1 -4 6 -19v-11q1 -10 -8 -35q-1 -6 -22 -33v-5q-1 -7 2 -19q-1 -5 -1 -9.5v-9.5q5 -9 11 -9q3 -5 6.5 -10.5t7.5 -10.5q2 -5 5 -10.5t7 -12.5l4 -4l4 -4q2 -5 3.5 -11.5t3.5 -14.5q1 0 3 -2q2 -7 3.5 -14.5t3.5 -16.5q1 -1 1 -3q1 -6 3 -15t4 -21
q1 -5 2.5 -11t3.5 -19q0 -7 -1 -10q2 -3 0 -15q-1 -13 -1 -14.5t-3 -8.5q-2 -8 -2 -7q-1 -4 -1.5 -8t-1.5 -9q-4 -9 -9 -26q-1 -2 -2.5 -7t-4.5 -13q-3 -2 -5 -6t-5 -13q-4 -4 -9 -12v-4q-1 -1 -1 -2t-1 -2q-2 -2 -4 -3t-4 -3q-5 -7 -12.5 -15t-18.5 -18q-11 -7 -20 -15
q-10 -9 -37 -23q-37 -33 -79 -33h-9.5t-9.5 1l-9 -4l-10 -1l-7 -3l-6 -1h-5l-6 -3l-20 2l-17 4l-11 4l-12 -24l-7 -9q-2 -7 -5 -14.5t-6 -16.5q-2 -4 -6 -14l-2 -2q-4 -19 -15 -17q-10 3 -12 7.5t-3 11.5q2 10 3 22q3 21 3 46q-2 3 9 32q-3 1 -9 5q-8 5 -17.5 12.5
t-23.5 18.5q-4 5 -9 11t-10 13q-3 5 -6.5 11.5t-8.5 13.5q-2 7 -5.5 15t-7.5 18q-1 5 -1.5 10t-2.5 10q-1 18 -3 42q1 5 1 11.5v13.5q-1 2 2 19q4 15 4 19q0 3 8 24q8 22 8 24q2 5 5 10t5 11q1 4 5.5 13.5t14.5 25.5q19 30 21 37q8 11 16 22.5t18 25.5q3 4 6 7.5t7 8.5
q6 4 9 7q2 3 9 12q4 2 8 6l9 9q4 1 8.5 5t12.5 10q2 1 5 3q2 2 6 4t9 4q7 2 15 4.5t18 6.5q2 1 5 1.5l9 1.5l6 2h12q6 1 8.5 1t1.5 0l12 -7q3 -3 11 -9q2 -1 5 -3t8 -4q1 -1 2 -3q2 -3 5 -3l1 -1q23 17 51 33q4 8 9 19t10 24q1 2 11.5 9.5t13.5 7.5h9v0zM460 250
q0 62 -19 88q-5 8 -11.5 18.5t-15.5 21.5q-1 2 -7 8q-5 -16 -33 -67q-14 -26 -22 -41t-9 -19q-10 -14 -20.5 -31.5t-21.5 -39.5q-2 -5 -3.5 -10t-3.5 -10q-2 -2 -3.5 -5l-3.5 -7q-5 -11 -11.5 -25.5t-13.5 -31.5q-4 -9 -8 -20t-9 -25q-1 -7 -6 -18l20 -1l4 1l8 2
q8 0 15.5 0.5t15.5 1.5q19 3 46 18q5 2 10.5 5.5t10.5 7.5q8 5 19 13.5t23 23.5q1 2 6 10.5t13 24.5q2 5 5.5 13t7.5 19q1 4 2 7.5t3 8.5q2 3 4 6.5t4 7.5q0 4 -1 7q5 25 5 38zM353 434q-2 2 -4.5 4t-3.5 4q-11 -8 -26 -8h-31q-4 0 -38 -22q-5 -8 -11.5 -16t-14.5 -17
q-5 -6 -14 -18.5t-20 -31.5q-4 -6 -7 -10q-3 -9 -9 -21q-2 -3 -3.5 -6l-3.5 -7q-2 -6 -5 -12.5t-6 -14.5l-2 -4q-14 -26 -27 -67q-3 -37 -3 -34q0 -55 22 -77q19 -17 33 -22q4 8 7.5 16.5t7.5 18.5q8 20 18.5 45.5t22.5 57.5q11 23 24.5 50.5t28.5 60.5q15 28 31.5 60.5
t33.5 70.5z" />
    <glyph glyph-name="ugrave" unicode="&#xf9;" horiz-adv-x="336" 
d="M392 86q0 -9 -31 -43q-2 -1 -10 -1q-17 0 -53 10q-8 2 -20 18q-4 6 -7.5 12t-7.5 11q-5 2 -10 -6q-48 -90 -77 -116q-2 -2 -10.5 -5.5t-24.5 -8.5q-31 -12 -35 -12q-13 0 -48 12q-13 23 -42 50q-24 21 -24 34q0 28 3 76q1 23 14 56q5 4 10.5 11t13.5 17q2 8 5 18.5
t8 24.5q4 2 20 33q1 4 1.5 8t1.5 9q6 6 18 23q-2 14 19 48q2 5 4 10.5t4 10.5q9 19 18 19q10 0 18 -16t8 -28q0 -4 -4.5 -16t-4.5 -16q0 -2 -0.5 -9.5t-1.5 -21.5q6 -9 7 -24q-11 -23 -30 -74q-2 -1 -4 -1.5t-4 -2.5q4 -9 -1 -24q-4 -10 -10.5 -23.5t-14.5 -32.5
q-16 -35 -16 -66q0 -1 3.5 -3.5t8 -4.5t8.5 -4t4 -3h6q6 6 30 19q23 14 30 24q15 21 28 51l71 167q3 0 8.5 1.5t8.5 1.5q4 0 20 -14q17 -14 25 -14q6 0 8 2q2 -1 4 -6.5t4 -12t3.5 -12t1.5 -8.5q0 -9 -9 -59l-10 -57q0 -16 16 -16q-4 0 44 16q5 -20 5 -32zM345 392
q-1 -7 -2 -8l-2 -2h-3l-3 -3h-2q-4 -3 -13 -3q-12 0 -27 7q-2 1 -8 3t-16 7q-11 5 -23.5 12t-25.5 17q-40 30 -45 33q-5 4 -10 8.5t-12 9.5q-3 4 -7 8.5t-9 9.5q-1 1 -9 17q-7 11 -7 22l1 1q1 16 10 16q27 0 21 2q5 0 9 -1l6 -2q4 -2 7 -3q1 -1 1.5 -1t1.5 -1l5 -2
q3 -2 5 -5q13 -11 32.5 -28t45.5 -40q11 -10 21 -19t20 -19q38 -35 38 -36z" />
    <glyph glyph-name="uacute" unicode="&#xfa;" horiz-adv-x="336" 
d="M392 86q0 -9 -31 -43q-2 -1 -10 -1q-17 0 -53 10q-8 2 -20 18q-4 6 -7.5 12t-7.5 11q-5 2 -10 -6q-48 -90 -77 -116q-2 -2 -10.5 -5.5t-24.5 -8.5q-31 -12 -35 -12q-13 0 -48 12q-13 23 -42 50q-24 21 -24 34q0 28 3 76q1 23 14 56q5 4 10.5 11t13.5 17q2 8 5 18.5
t8 24.5q4 2 20 33q1 4 1.5 8t1.5 9q6 6 18 23q-2 14 19 48q2 5 4 10.5t4 10.5q9 19 18 19q10 0 18 -16t8 -28q0 -4 -4.5 -16t-4.5 -16q0 -2 -0.5 -9.5t-1.5 -21.5q6 -9 7 -24q-11 -23 -30 -74q-2 -1 -4 -1.5t-4 -2.5q4 -9 -1 -24q-4 -10 -10.5 -23.5t-14.5 -32.5
q-16 -35 -16 -66q0 -1 3.5 -3.5t8 -4.5t8.5 -4t4 -3h6q6 6 30 19q23 14 30 24q15 21 28 51l71 167q3 0 8.5 1.5t8.5 1.5q4 0 20 -14q17 -14 25 -14q6 0 8 2q2 -1 4 -6.5t4 -12t3.5 -12t1.5 -8.5q0 -9 -9 -59l-10 -57q0 -16 16 -16q-4 0 44 16q5 -20 5 -32zM378 613l5 -3
l1 -4l-4 -1l-3 -8l1 -3l-5 -2l-8 -5v-3l3 -4l-4 -4l2 -8l-4 -3v-3l12 2v-1l-14 -11l-3 -10l-7 -11l-6 -7l-12 -11l-11 -8l-40 -24l-36 -16l-7 -1h-17l-12 4h-8l-6 3v4l-4 4l-5 14l1 5l-2 6l2 4l6 6v2l30 27l14 10l41 30l30 18l29 7l37 5h4z" />
    <glyph glyph-name="ucircumflex" unicode="&#xfb;" horiz-adv-x="336" 
d="M392 86q0 -9 -31 -43q-2 -1 -10 -1q-17 0 -53 10q-8 2 -20 18q-4 6 -7.5 12t-7.5 11q-5 2 -10 -6q-48 -90 -77 -116q-2 -2 -10.5 -5.5t-24.5 -8.5q-31 -12 -35 -12q-13 0 -48 12q-13 23 -42 50q-24 21 -24 34q0 28 3 76q1 23 14 56q5 4 10.5 11t13.5 17q2 8 5 18.5
t8 24.5q4 2 20 33q1 4 1.5 8t1.5 9q6 6 18 23q-2 14 19 48q2 5 4 10.5t4 10.5q9 19 18 19q10 0 18 -16t8 -28q0 -4 -4.5 -16t-4.5 -16q0 -2 -0.5 -9.5t-1.5 -21.5q6 -9 7 -24q-11 -23 -30 -74q-2 -1 -4 -1.5t-4 -2.5q4 -9 -1 -24q-4 -10 -10.5 -23.5t-14.5 -32.5
q-16 -35 -16 -66q0 -1 3.5 -3.5t8 -4.5t8.5 -4t4 -3h6q6 6 30 19q23 14 30 24q15 21 28 51l71 167q3 0 8.5 1.5t8.5 1.5q4 0 20 -14q17 -14 25 -14q6 0 8 2q2 -1 4 -6.5t4 -12t3.5 -12t1.5 -8.5q0 -9 -9 -59l-10 -57q0 -16 16 -16q-4 0 44 16q5 -20 5 -32zM354 467
q0 -5 -6 -20q-6 -3 -10 -3q-11 0 -16 3q-2 2 -13 17.5t-30 44.5q-4 5 -9 13.5t-13 19.5q-6 8 -13 9q-1 -1 -8 -3q-1 -1 -9 -10l-24 -27l-9 -12q-1 -2 -39 -46q-13 -10 -16 -23q-14 -8 -20 -8q-11 2 -14 6q-8 4 -16 25q0 1 1 2q0 5 3.5 12t15.5 24q5 7 11 14.5t13 16.5
q11 14 24.5 30t29.5 34q4 3 8 7l9 9q3 2 6 4.5t7 6.5q2 2 9 5q17 0 24 -7q2 -2 5 -3.5l7 -3.5q5 -4 10.5 -9t12.5 -10q3 -6 12 -16l33 -66q8 -15 16 -24v-1q2 -3 8 -11z" />
    <glyph glyph-name="udieresis" unicode="&#xfc;" horiz-adv-x="336" 
d="M392 86q0 -9 -31 -43q-2 -1 -10 -1q-17 0 -53 10q-8 2 -20 18q-4 6 -7.5 12t-7.5 11q-5 2 -10 -6q-48 -90 -77 -116q-2 -2 -10.5 -5.5t-24.5 -8.5q-31 -12 -35 -12q-13 0 -48 12q-13 23 -42 50q-24 21 -24 34q0 28 3 76q1 23 14 56q5 4 10.5 11t13.5 17q2 8 5 18.5
t8 24.5q4 2 20 33q1 4 1.5 8t1.5 9q6 6 18 23q-2 14 19 48q2 5 4 10.5t4 10.5q9 19 18 19q10 0 18 -16t8 -28q0 -4 -4.5 -16t-4.5 -16q0 -2 -0.5 -9.5t-1.5 -21.5q6 -9 7 -24q-11 -23 -30 -74q-2 -1 -4 -1.5t-4 -2.5q4 -9 -1 -24q-4 -10 -10.5 -23.5t-14.5 -32.5
q-16 -35 -16 -66q0 -1 3.5 -3.5t8 -4.5t8.5 -4t4 -3h6q6 6 30 19q23 14 30 24q15 21 28 51l71 167q3 0 8.5 1.5t8.5 1.5q4 0 20 -14q17 -14 25 -14q6 0 8 2q2 -1 4 -6.5t4 -12t3.5 -12t1.5 -8.5q0 -9 -9 -59l-10 -57q0 -16 16 -16q-4 0 44 16q5 -20 5 -32zM157 591l8 -3
l9 -4l8 1l-1 -7l10 -4l14 -13l6 -7l14 -33l1 -7v-12l-7 -12l-7 -8l-1 -2l-15 -2l-17 -2l-18 7l-8 4l-2 2l-24 17l-11 10l-2 5v13l-2 11l2 13l8 16l18 14l15 3h2zM332 582l9 2l12 -15l14 -12l9 -24v-27l-13 -14l-5 -3l-10 -3l-26 4l-20 10l-21 19l-1 15l-4 6l11 34l10 7l10 3
l3 5z" />
    <glyph glyph-name="yacute" unicode="&#xfd;" horiz-adv-x="479" 
d="M428 588l5 -3l1 -4l-4 -1l-3 -8l1 -3l-5 -2l-8 -5v-3l3 -4l-4 -4l2 -8l-4 -3v-3l12 2v-1l-14 -11l-3 -10l-7 -11l-6 -7l-12 -11l-11 -8l-40 -24l-36 -16l-7 -1h-17l-12 4h-8l-6 3v4l-4 4l-5 14l1 5l-2 6l2 4l6 6v2l30 27l14 10l41 30l30 18l29 7l37 5h4zM440 318
q0 -3 -4 -10t-4 -12q0 -2 -2.5 -20t-7.5 -50q-1 -8 -2.5 -20.5t-5.5 -31.5q-4 -16 -12 -45.5t-22 -73.5q-4 -8 -10 -20.5t-14 -29.5q-2 -8 -5 -19t-8 -27q-4 -4 -10 -18q1 -12 -3 -34q-10 -17 -24 -46q-1 -3 -1.5 -7.5t-2.5 -10.5q-2 -3 -5.5 -7.5t-8.5 -11.5q1 -2 1 -11
q-4 -8 -10.5 -23.5t-15.5 -38.5l-2 -2q-1 0 -3 5t-3 5q-5 0 -11 -6q-4 -5 -6 -7l-3 -3q3 -8 3 -11t-5 -5.5t-6 -7.5q3 -5 3 -9q0 -7 -17 -10q-16 -4 -16 -11q0 -4 11 -9q0 -3 -11 -17q-1 -4 -6 -19q-4 -4 -8 -8.5t-9 -9.5q3 -5 6 -18q-8 -11 -13 -41q-2 -1 -37 -1
q-14 0 -31 21q-7 7 -7 27q0 3 3 8l3 7q3 24 12 73q7 14 16.5 35t20.5 50q2 5 5 5q2 0 6 -2t6 -2q6 0 7 19q3 4 9 17t14 36q11 16 21 48q7 19 11.5 31.5t7.5 18.5l22 72q4 2 10.5 4.5t14.5 7.5v6q-3 1 -14 10q4 4 10 16q3 11 3 23q0 6 -3 10h-7q-16 -16 -31.5 -29.5
t-29.5 -24.5q-67 -51 -87 -51q-4 0 -24 -5q-54 46 -89 106q-5 8 -5 26q0 2 3 4.5t3 4.5q6 29 3 55q5 2 18 14q-1 3 -1.5 7.5t0.5 9.5q14 23 48 72q4 4 14 15t26 30q1 2 19 10q17 7 25 7q13 0 24.5 -14.5t11.5 -28.5q0 -10 -9 -19l-10.5 -12t-4.5 -5q-9 -9 -21 -27v-5.5
t-1 -8.5q-21 -40 -48 -114q-1 -5 -6 -13.5t-5 -16.5q0 -17 10 -17q8 0 46 22q39 23 48 30q8 7 26 23l2 5q2 5 4 7q8 8 24 21l10 10q5 5 11 3q3 12 21 35q11 13 17 21t8 12q7 10 15 38q8 26 16 35q7 7 37 7q7 -1 10 -1.5t2 -0.5q4 -2 13.5 -6t26.5 -12v-8v0z" />
    <glyph glyph-name="thorn" unicode="&#xfe;" horiz-adv-x="392" 
d="M343 221l-6 -13v-4l-5 -8l-1 -9l-11 -25l-14 -18l-24 -19l-18 -8l-25 -4h-25l-27 6l-31 19l-18 12l-13 15l-8 -35l-4 -28l-4 -9l-6 -33l-8 -7l-3 -14l-12 -73l-5 -20l-4 -30l-4 -13l-3 -1l-10 -19l-8 -1l-10 3l-7 16l-1 30l-4 61l5 90l8 78l20 104l28 111l38 130l33 88
l36 81l18 34l19 19l12 11l13 3l20 -11l3 -11l2 -12l3 -13l-9 -34l-16 -54l-5 -17l5 -5h16l14 -9l1 2l4 -3l1 -9l7 -14v-4l3 -1l8 -33l6 -13l17 -82l-1 -3l3 -7l10 -83l-2 -9l3 -9v-53l-4 -22v-11zM245 264l1 32l-2 29l-2 2l-1 27v3l-2 8l1 25l-8 55l-3 11l-1 34l-3 19
l-18 -48l-68 -238v-21l-3 -3l17 -12l19 -10l14 -5h17l15 8l7 10l10 21l9 32z" />
    <glyph glyph-name="ydieresis" unicode="&#xff;" horiz-adv-x="392" 
d="M440 318q0 -3 -4 -10t-4 -12q0 -2 -2.5 -20t-7.5 -50q-1 -8 -2.5 -20.5t-5.5 -31.5q-4 -16 -12 -45.5t-22 -73.5q-4 -8 -10 -20.5t-14 -29.5q-2 -8 -5 -19t-8 -27q-4 -4 -10 -18q1 -12 -3 -34q-10 -17 -24 -46q-1 -3 -1.5 -7.5t-2.5 -10.5q-2 -3 -5.5 -7.5t-8.5 -11.5
q1 -2 1 -11q-4 -8 -10.5 -23.5t-15.5 -38.5l-2 -2q-1 0 -3 5t-3 5q-5 0 -11 -6q-4 -5 -6 -7l-3 -3q3 -8 3 -11t-5 -5.5t-6 -7.5q3 -5 3 -9q0 -7 -17 -10q-16 -4 -16 -11q0 -4 11 -9q0 -3 -11 -17q-1 -4 -6 -19q-4 -4 -8 -8.5t-9 -9.5q3 -5 6 -18q-8 -11 -13 -41
q-2 -1 -37 -1q-14 0 -31 21q-7 7 -7 27q0 3 3 8l3 7q3 24 12 73q7 14 16.5 35t20.5 50q2 5 5 5q2 0 6 -2t6 -2q6 0 7 19q3 4 9 17t14 36q11 16 21 48q7 19 11.5 31.5t7.5 18.5l22 72q4 2 10.5 4.5t14.5 7.5v6q-3 1 -14 10q4 4 10 16q3 11 3 23q0 6 -3 10h-7
q-16 -16 -31.5 -29.5t-29.5 -24.5q-67 -51 -87 -51q-4 0 -24 -5q-54 46 -89 106q-5 8 -5 26q0 2 3 4.5t3 4.5q6 29 3 55q5 2 18 14q-1 3 -1.5 7.5t0.5 9.5q14 23 48 72q4 4 14 15t26 30q1 2 19 10q17 7 25 7q13 0 24.5 -14.5t11.5 -28.5q0 -10 -9 -19l-10.5 -12t-4.5 -5
q-9 -9 -21 -27v-5.5t-1 -8.5q-21 -40 -48 -114q-1 -5 -6 -13.5t-5 -16.5q0 -17 10 -17q8 0 46 22q39 23 48 30q8 7 26 23l2 5q2 5 4 7q8 8 24 21l10 10q5 5 11 3q3 12 21 35q11 13 17 21t8 12q7 10 15 38q8 26 16 35q7 7 37 7q7 -1 10 -1.5t2 -0.5q4 -2 13.5 -6t26.5 -12v-8
v0zM173 537l8 -3l9 -4l8 1l-1 -7l10 -4l14 -13l6 -7l14 -33l1 -7v-12l-7 -12l-7 -8l-1 -2l-15 -2l-17 -2l-18 7l-8 4l-2 2l-24 17l-11 10l-2 5v13l-2 11l2 13l8 16l18 14l15 3h2zM348 528l9 2l12 -15l14 -12l9 -24v-27l-13 -14l-5 -3l-10 -3l-26 4l-20 10l-21 19l-1 15l-4 6
l11 34l10 7l10 3l3 5z" />
    <glyph glyph-name="dotlessi" unicode="&#x131;" horiz-adv-x="235" 
d="M149 263l5 3h3l13 -11l6 -3l12 -23l1 -16v-16l-14 -31l-23 -74l-5 -46l-1 -17l10 -3l28 2l38 9l-7 -12v-5l-10 -16l-6 -7l2 -5l-12 -8h-3l-3 -6l-13 -5l-3 -3l-29 -18l-11 -8l-21 -3l-4 -2l-4 3l-20 8l-24 18l-14 18l-7 16l-6 35v44l6 26l19 48l29 50l26 34l18 21l14 6z
" />
    <glyph glyph-name="Lslash" unicode="&#x141;" horiz-adv-x="442" 
d="M446 95q-2 -2 -4.5 -5t-5.5 -6q2 0 -2 -2t-14.5 -7.5t-28.5 -15.5t-46 -25q-5 -2 -18.5 -8.5t-25.5 -6.5l-9 -6h-8q-6 -4 -9 -5t-14 -5t-27.5 -8.5t-38 -8t-45.5 -3.5q-26 0 -51.5 16.5t-40.5 41.5v4q-7 11 -11 44l-2 4q0 5 1 8q0 2 -1 5t-1 5v11q1 5 1 7.5v3.5v4
q3 16 5 32.5t7 43.5l-10 -9l-13 2l-2 4l-11 4l-5 2l-7 15l-5 5l1 21l1 7l14 14l26 17l35 23q3 11 6.5 23.5t9.5 32.5t14.5 51.5t20.5 80.5l3.5 7.5t7 17.5t7 21t3.5 18l0.5 6.5t2.5 16t5 19t9 15.5v10l2 1q2 2 6.5 7t5.5 5h5q2 -1 6 -1q2 -1 9.5 -7.5t16 -17t15.5 -25.5
t7 -35q0 -16 -1.5 -26.5t-4.5 -22.5t-7.5 -30.5t-10.5 -50.5q-2 -2 -6.5 -9.5t-13.5 -36.5l60 31l17 6h8l3 -5l-11 -10l1 -5l-4 -3l-9 -13l2 -7l-8 -10l-6 -15l-20 -19l-11 -12l-1 -4l-16 -3v-4l-16 -23l-27 -23l-4 -10l-4 -10l-1 -1q-1 -1 -3 -6v-5q-1 -4 -5.5 -17.5
t-8.5 -31t-7.5 -37t-3.5 -37.5q0 -8 4 -8l-3 -8v-9l3 -7l6 -3h5l26 -1q14 2 23 4.5t29 7.5q1 -1 1.5 -1t1.5 -1q10 0 36 8l3 2q2 1 12.5 1.5t20.5 7.5q1 0 5 1.5t14.5 3.5t29 3.5t46.5 1.5q2 0 11.5 -2t20 -5.5t19 -7.5t8.5 -7z" />
    <glyph glyph-name="lslash" unicode="&#x142;" horiz-adv-x="383" 
d="M444 372l3 -3l-7 -3l-15 -13l3 -5l-14 -9l-11 -13l-35 -20l-21 -11l-1 -4l-30 -7l1 -3l-29 -22l-52 -26l-34 -16l-9 -3q-15 -17 -29.5 -31.5t-17.5 -31.5q-1 -1 -4.5 -6t-7.5 -12t-7.5 -14t-3.5 -13q-1 -4 2 -10.5t8 -17.5l10 -24q0 -34 70 -34q5 0 16.5 4t24.5 8.5
t24.5 8t15.5 3.5q27 0 33 -30q0 -6 -1 -8l-1 -4q-13 10 -32 10q-8 0 -67 -15q-41 -19 -81 -19q-15 0 -30 1t-28 6t-24.5 16t-19.5 30q-7 14 -15 17.5t-14.5 3t-11.5 -2.5t-6 0q-14 -5 -32.5 -16t-26.5 -14h-14q-17 0 -22 14q12 7 31.5 18.5t47.5 25.5v-1q8 12 36 35
q18 17 28.5 29t19.5 29l-10 -3l-28 -13l-25 -4l-5 3h-22l-10 -1l-15 9l-10 2l-1 16l1 5l26 15l49 20l83 35q2 6 4 11l7 13q6 9 6 15q0 4 -3 8q12 24 33 68t48 93.5t59 99t65 83.5q38 13 67 13q30 0 42 -9q1 -5 1.5 -11t0.5 -12q0 -27 -7 -55v-5q0 -12 -6 -36
q-67 -119 -128 -200l125 44l32 10l16 2l5 -2zM278 493q-6 -9 -18.5 -30.5t-25 -44.5t-22.5 -42t-11 -22q-1 -2 -9.5 -22.5t-19.5 -46.5l51 20l8 3q17 21 20 28q9 1 16.5 8t15 21t16 36t20.5 53q25 37 35 58t10 26q-5 32 -18 32q-1 0 -10.5 -10.5t-21.5 -23.5t-22.5 -25.5
t-13.5 -17.5z" />
    <glyph glyph-name="OE" unicode="&#x152;" horiz-adv-x="812" 
d="M40 147v1v-1zM762 275h-1h1zM822 512q0 2 16.5 1t38 -3.5t41.5 -7t27 -11.5v-6q-9 -9 -26.5 -11.5t-26.5 -3.5q-5 -2 -12.5 -1t-16.5 -4q-1 1 -4 1l-10 -6q-5 -5 -7 -4.5t-8 -1.5q-3 0 -5 1l-19 -6l-14 -4l-9 -2q-1 1 -4 1q-3 -3 -13.5 -3t-18.5 -1h-4q-2 0 -6.5 -2
t-5.5 -2q-12 -2 -17 -2t-7.5 1t-4.5 0.5t-8 -4.5t-18 -13t-35 -26q-1 -1 -12 -8.5t-21 -19.5q-1 -4 -6.5 -14t-11.5 -22.5t-11 -26.5t-5 -27q0 -3 2 -5l32 2q8 1 18 1t23 1q5 0 10 -0.5t11 -0.5q5 0 11 0.5t12 0.5q7 -2 13.5 -2h20.5l4 -2l27 6q12 0 16 -4v-2q1 -1 1 -19
l-11 -7l-8 -3l-3 -3l-14 -3q-3 -3 -14 -7l-14 -6q-3 -3 -19.5 -6.5t-55.5 -10.5q-4 -5 -11.5 -13t-16 -15.5t-16.5 -14.5t-13 -11q-5 -11 -14 -22q-3 -1 -8 -1.5t-10.5 -1.5t-9.5 -3.5t-4 -7.5q0 -35 12 -49t39 -16l1 -12l5 -4h21l31 4l39 7l18 5l37 9l1 -3q1 -1 1 -3
q-1 -3 -1 -6l1 -1v-2q0 -3 1 -5q-4 -4 -5 -6l-1 2q0 -4 1 -6q-4 0 -3 -5.5t-7 -13.5v-2q-2 -4 -2.5 -7.5t-9.5 -14.5v-4q-15 -7 -24.5 -11.5t-19 -7t-21 -4.5t-30.5 -3h-13q0 -1 -1 -1h-2q-4 0 -19 3q-11 2 -16 1.5t-10 1t-13.5 5.5t-26.5 15l-5 6q-5 6 -10 10.5t-10 11.5
t-10 19t-11 31q-2 -2 -2.5 -3t-2.5 -3v-4q-5 -5 -8.5 -9t-9.5 -9t-16.5 -13t-30.5 -22q-9 -3 -13 -6.5t-13 -8.5t-28.5 -11t-58.5 -15h-9q-2 0 -6.5 -1.5t-6.5 -1.5q-34 0 -70 10t-78 39q-7 5 -13 9.5t-12 11t-13.5 16.5t-17.5 26q-2 6 -9 23t-16 61h1q-2 0 1 16.5t3 48.5
l9 36q3 7 5.5 13.5t6 15.5t9 20.5t15.5 28.5q9 15 30.5 49.5t57.5 70.5l8 10q4 2 11 9q23 22 51 22l11 7q5 0 6.5 1t6.5 3t15.5 6t32.5 10l2 2h9q1 1 2 1t3 1q4 0 16 -3h10q5 -4 13 -9t17 -13q5 -2 14.5 -16.5t29.5 -28.5q3 -4 7 -9t10 -8l15 -15q2 -4 5 -8.5t8 -11.5l7 -7
q2 -4 3.5 -7.5t3.5 -7.5v-4q3 -3 5 -7.5t6 -11.5q4 11 5 20l-3 6q-5 10 -10 30q3 2 8 7v3l5 5q-1 1 -1 4q2 9 17 28h2l7 7q5 5 13.5 11.5t13.5 14.5q-3 2 -3 15q22 14 30.5 13.5t15.5 -0.5q2 -1 4.5 -1t4.5 -1h3q3 0 4.5 -0.5t3.5 -0.5h2q8 0 22.5 1.5t34.5 1.5h35
q5 -1 9.5 -1t9.5 -1h68q5 -1 15 -1zM441 195q7 22 7 42q0 42 -10.5 74.5t-42.5 64.5l-24 24q-6 4 -15 9t-20 12q-11 -8 -25 -8h-30q-7 0 -20 -13t-29 -28q-11 -6 -24 -26t-39 -65q-2 -7 -9.5 -20.5t-15 -31.5t-13.5 -39t-6 -43q0 -10 -1 -17t0.5 -14.5t7 -18.5t18.5 -29
q2 -2 7 -7.5t16.5 -11.5t31.5 -11t51 -5q-3 0 2.5 0.5t13.5 1.5t16.5 1.5t11.5 1.5q3 0 11 2.5t20 7.5t26 14.5t28 23.5l24 36q2 2 10 17t22 50v6v0z" />
    <glyph glyph-name="oe" unicode="&#x153;" horiz-adv-x="784" 
d="M638 28q17 8 32 17t26.5 17t19.5 13.5t10 5.5q3 0 7 -2q-2 -15 -9 -34q-2 -2 -17.5 -20t-42 -38.5t-63.5 -37.5t-81 -17q-16 0 -34.5 10t-36.5 25t-33.5 32t-26.5 30q-7 9 -11 18q-23 -20 -59.5 -41.5t-91.5 -49.5q-1 -1 -28 -4q-27 -33 -80 -33q-25 0 -32 5l-36 31h-3
q-16 0 -24 10.5t-12 23t-5.5 24t-3.5 14.5q2 4 4 7t2 5q0 3 -3 7t-3 6q0 9 3 27.5t3 27.5q3 1 14 6t11 15q0 3 -3 13t-3 12q10 8 16 15t12 16t13.5 22t20.5 34q4 6 16 20t29 31l35.5 35.5t35 33.5t29 24.5t15.5 9.5t8 -1.5t8 -1.5q8 0 27 28q4 -1 21 -16l31 -7
q6 -3 14.5 -6.5t21.5 -8.5q27 0 41.5 -16t22.5 -41q8 8 17.5 19t22.5 24l31 17q16 7 19 23h8q3 0 10.5 -7t11.5 -8q34 -5 51.5 -8t18.5 -3q17 -4 35.5 -14.5t34 -24t26 -29t10.5 -29.5q0 -30 -12 -52t-30 -37t-40 -24t-41 -14t-33.5 -6.5t-18.5 -1.5q-75 0 -98 18
q-38 -62 -38 -95q0 -8 14 -28q7 -9 11.5 -14.5t9.5 -8t13 -3.5t21 -3q4 -2 13.5 -8.5t31.5 -6.5q34 0 94 28zM566 293q-19 -11 -32 -23t-23.5 -24.5t-20 -27t-21.5 -29.5q20 -6 21 -6q10 0 50 25q25 16 38.5 29t20 24t9 20t5.5 18q-12 12 -18 12l-29 -18v0zM342 257
q-4 2 -10 7q1 2 2 4.5t1 6.5q0 9 -6 20.5t-14 11.5q-13 0 -63 -43q-29 -26 -50.5 -48t-38 -41.5t-29.5 -37t-27 -34.5q-1 -1 -4.5 -10t-7.5 -19.5t-6.5 -20t-2.5 -12.5q0 -8 8.5 -17.5t16.5 -9.5q56 0 126 47q8 2 17 6t21 10q7 9 31 55q2 3 4.5 14.5t6 24.5t7 24t7.5 13
q0 33 11 38v11z" />
    <glyph glyph-name="Scaron" unicode="&#x160;" horiz-adv-x="423" 
d="M472 481q0 -1 -1 -3t-1 -4t-2 -5q-2 -6 -6.5 -8t-9 -1.5t-7.5 1t-3 -1.5q0 -1 1 -1q-5 -1 -11 -1.5t-11 -0.5q2 0 -2 0.5t-9.5 2t-10.5 3t-5 2.5q0 5 -11.5 6t-15.5 3q-3 -1 -12 -1h-6.5t-8.5 1q-7 -1 -16 -2.5t-22 -4.5l-9 -4q-2 -1 -4 -1.5t-4 -2.5l-13 -5
q-1 -1 -1.5 -2t-2.5 -2q-19 -10 -27.5 -19t-20.5 -21l-5 -7q-10 -14 -21 -30.5t-11 -48.5q0 -17 8 -38l28 -28t24.5 -23t34 -28.5t55.5 -45.5q5 -6 14 -17t18 -25t15.5 -31.5t6.5 -37.5q0 -9 -1 -14.5t-3 -11t-5 -11t-8 -13.5l-21 -21q-6 -3 -14.5 -9t-19 -11.5t-22.5 -10
t-26 -4.5q-17 0 -32 1.5t-29 3.5q-5 1 -17 2t-24 5q-1 0 -8.5 2t-16.5 4t-16.5 5.5t-8.5 6.5l-7 -2q-4 1 -7 4l-11 9h-4q-1 0 -5 2h-6q0 1 -1 2h-5q-2 1 -3.5 2t-3.5 3l-6 2v3l4.5 9l6.5 13q-1 0 -2 1q0 2 3.5 6.5t10.5 10t17 9.5t23 4q14 0 25 -5.5t16 -5.5q4 0 6 1
q6 -2 20.5 -7.5t47.5 -12.5q16 -10 51 -10q9 0 21 11.5t12 20.5h4l10 6l2 9v7l-5 8l-6 6l-12 11l-7 2l-10 7l-20 12l-8 5q0 3 -5.5 6t-5.5 7q0 5 -6.5 10.5t-17.5 12.5t-25.5 16.5t-31.5 22.5l-14 16q-12 9 -19.5 17t-13 18.5t-10 25.5t-9.5 37q3 16 4 17q-1 2 -1 4.5
t-1 4.5q2 11 6 25q7 26 20 65q0 5 3.5 10t8 10t8 9t3.5 8q4 5 5 8.5t4 8t12 11.5t30 20q25 17 38 25t21.5 11t16.5 4.5t22 6.5q16 6 34 8t41 7q3 0 5 -1q2 1 8 1q5 0 8 -1q2 1 5 1t4 -1l12 -4q12 -4 20 -11t19 -21q1 -4 2.5 -12.5l3 -17t2.5 -15t0 -6.5v1v0zM154 723
q0 5 6 20q6 3 10 3q12 0 16 -3q2 -2 13 -17.5t30 -44.5q4 -5 9 -13.5t13 -19.5q6 -8 13 -9q1 1 8 3q1 1 9 10l24 27q3 5 9 12q1 2 39 46q13 10 16 23q14 8 20 8q11 -2 14 -6q8 -4 16 -25q0 -1 -1 -2q0 -5 -3.5 -12t-15.5 -24q-5 -7 -11 -14.5t-13 -16.5q-11 -14 -24.5 -30
t-29.5 -34q-4 -3 -8 -7l-9 -9q-3 -2 -6 -4.5t-7 -6.5q-2 -2 -9 -5q-17 0 -24 7q-2 2 -5 3.5l-7 3.5q-5 4 -10.5 9t-12.5 10q-3 6 -12 16l-33 66q-8 15 -16 24v1q-2 3 -8 11z" />
    <glyph glyph-name="scaron" unicode="&#x161;" horiz-adv-x="387" 
d="M166 650q0 5 6 20q6 3 10 3q12 0 16 -3q2 -2 13 -17.5t30 -44.5q4 -5 9 -13.5t13 -19.5q6 -8 13 -9q1 1 8 3q1 1 9 10l24 27q3 5 9 12q1 2 39 46q13 10 16 23q14 8 20 8q11 -2 14 -6q8 -4 16 -25q0 -1 -1 -2q0 -5 -3.5 -12t-15.5 -24q-5 -7 -11 -14.5t-13 -16.5
q-11 -14 -24.5 -30t-29.5 -34q-4 -3 -8 -7l-9 -9q-3 -2 -6 -4.5t-7 -6.5q-2 -2 -9 -5q-17 0 -24 7q-2 2 -5 3.5l-7 3.5q-5 4 -10.5 9t-12.5 10q-3 6 -12 16l-33 66q-8 15 -16 24v1q-2 3 -8 11zM409 401q0 -43 -39 -81q-10 -7 -28.5 -20.5t-37 -31.5t-32.5 -41t-14 -49
q0 -3 15 -81l15 -81q0 -9 -15 -48q-8 -22 -14 -32t-10 -13.5t-6.5 -2.5t-5.5 1q-20 0 -43.5 1t-55.5 10q-6 9 -16 14.5t-22 13t-24 20.5t-20 39q-4 13 -22 13q-4 0 -17.5 -10.5t-30.5 -23.5t-34.5 -25t-29.5 -14q4 16 18 45q6 10 26 23.5t42 26.5t40.5 22t21.5 10
q38 29 73.5 57t54.5 62q0 10 0.5 25t1.5 37q0 12 33 88q19 43 20 72q9 7 22.5 18t31.5 26q-1 1 10.5 -7.5t27 -19.5t32.5 -20.5t26 -9.5h6v-13v0zM225 69q0 26 -27 93l-135 -104q14 -10 25 -10q4 0 12 3t12 3q3 0 10 -7t11 -7q2 0 4.5 1.5t5.5 1.5t13 -3t21.5 -6.5t22 -6.5
t14.5 -3q3 0 6.5 1.5t4.5 1.5v42z" />
    <glyph glyph-name="Ydieresis" unicode="&#x178;" horiz-adv-x="410" 
d="M243 839l7 -3l9 -4l8 1l-2 -7l10 -4l12 -13l5 -7l10 -33v-7l-1 -12l-9 -12l-8 -8l-1 -2l-15 -2l-17 -2l-17 7l-8 4l-2 2l-22 17l-9 10l-2 5l2 13l-1 11l4 13l10 16l19 14l16 3h2zM417 830l9 2l10 -15l13 -12l6 -24l-4 -27l-14 -14l-6 -3l-10 -3l-26 4l-18 10l-19 19l1 15
l-3 6l15 34l11 7l10 3l4 5zM491 637l14 7l1 -9l-14 -24l-6 -14l-20 -30l-7 -14l-143 -212l-5 -12l-17 -28l-7 -8l-9 -17v-3l-4 -3l-6 -10l-11 -19v-5l-12 -77l-4 -8l-8 -66l1 -9l-8 -49l-3 -6l-1 -12l-4 -14l-6 -15l1 -7l-4 -8l-11 -8l-36 -4l-24 8l-12 26l-6 30v69l4 49
l7 32l14 73l3 27l-47 61l-23 41l-19 29l-9 27l-4 45l8 15l19 18l9 -5l4 -5l6 7l22 -8l13 -13l33 -41l17 -25l32 -54l11 -25l13 15l16 30l20 28l3 2l7 12l55 67l64 73l27 26l29 26l17 8l11 9z" />
    <glyph glyph-name="Zcaron" unicode="&#x17d;" horiz-adv-x="683" 
d="M454 566q37 0 54 -4q2 -2 11 -4.5t28 -16.5q2 -4 4 -5t3.5 -4.5t2.5 -11.5t1 -25l-3.5 -8t-10 -20.5t-15.5 -27.5t-20 -29l-9 -12q-4 -4 -10.5 -12t-17.5 -20l-13 -15q-16 -18 -60.5 -60.5t-126.5 -117.5q1 -1 1.5 -1t1.5 -1q3 1 11 3q1 -1 1.5 -1t1.5 -1q-1 -1 -1 -2
q1 -1 4 -1h12q2 -1 11.5 -3t13.5 -6q24 8 67 18q18 3 24 5t14.5 4t26 6t58.5 10l32 5q5 -1 17 0.5t32 1.5h17q6 -1 21.5 -0.5t26.5 -10.5q-1 -1 -1 -1.5t-1 -1.5l-2 -2q10 1 21 3t24 4q1 0 3.5 -2.5t4.5 -2.5l-31 -15q-2 -1 -4.5 -2t-6.5 -3q1 0 1 -1q0 -3 -22 -12q0 3 -1 3
q-4 0 -7 -6.5t-7.5 -15t-11 -15t-17.5 -6.5q-6 -3 -8.5 -3.5t-6.5 -1.5t-12 -3.5t-25 -7.5l-5 -5q-7 -2 -14.5 -4.5t-29.5 -7.5l-99 -36q-9 -6 -27.5 -13.5t-61.5 -18.5q-11 -7 -45 -18.5t-97 -26.5l-13 -4q-24 -3 -30 -3t-28 5l-24 6q-15 7 -25.5 17t-18.5 21l-7 15
q0 5 4.5 14.5t18.5 30.5q12 11 15 14t4 4.5t3.5 4l13.5 13.5t34 33.5t65 62.5l63 60q8 6 18.5 17t33.5 35q13 12 20.5 17.5t16 13t21 21t35.5 39.5q7 5 13 11t11 15h-1q-6 0 -10 1.5l-8 3t-9.5 2.5t-15.5 1q-14 0 -34.5 -7t-58.5 -17q-10 -4 -13 -5.5t-11 -4t-27 -5.5
t-60 -10h-13q-6 2 -16 5.5t-28 21.5h1l-4 4q1 3 1 11l-3 21l-2 10v-2l20 10q0 1 3.5 4t8 6t8.5 5.5t6 2.5q4 1 33 9.5t102 31.5q3 0 4 -1q9 5 83 20l78 8v0zM241 723q0 5 6 20q6 3 10 3q12 0 16 -3q2 -2 13 -17.5t30 -44.5q4 -5 9 -13.5t13 -19.5q6 -8 13 -9q1 1 8 3
q1 1 9 10l24 27q3 5 9 12q1 2 39 46q13 10 16 23q14 8 20 8q11 -2 14 -6q8 -4 16 -25q0 -1 -1 -2q0 -5 -3.5 -12t-15.5 -24q-5 -7 -11 -14.5t-13 -16.5q-11 -14 -24.5 -30t-29.5 -34q-4 -3 -8 -7l-9 -9q-3 -2 -6 -4.5t-7 -6.5q-2 -2 -9 -5q-17 0 -24 7q-2 2 -5 3.5l-7 3.5
q-5 4 -10.5 9t-12.5 10q-3 6 -12 16l-33 66q-8 15 -16 24v1q-2 3 -8 11z" />
    <glyph glyph-name="zcaron" unicode="&#x17e;" horiz-adv-x="726" 
d="M335 321l23 -5l14 -7l9 -15l10 -24l-1 -11l-3 -15l-7 -11l-3 -3l-33 -48l-74 -81l-9 -8l-9 -6l-19 -18l-3 -10l89 33l65 18l83 13l76 4l75 -5l41 -5l78 -15l51 -14l52 -13l9 -12l1 -8l-20 -6l-4 -2l-13 -3l-29 7l-24 2l-34 -1l-14 4l-4 -6l-68 6l-8 -4l-51 3l-18 -5
l-23 -1l-10 -3h-12l-32 -6l-25 -2l-34 -9l-16 -5l-34 -11l-12 -3l-42 -17l-76 -27l-66 -27l-44 -17l-37 -9l-21 1l-13 -3l-11 5l-1 11l-4 3l-3 10l3 14l9 23l25 24l231 248l-66 -9l-76 -16l-92 -28l-24 -3l-8 9l-9 -2l-10 10l-3 8l1 19l12 19l13 7l12 6l10 10l12 1l98 29
l72 12l29 2zM109 501q0 5 6 20q6 3 10 3q12 0 16 -3q2 -2 13 -17.5t30 -44.5q4 -5 9 -13.5t13 -19.5q6 -8 13 -9q1 1 8 3q1 1 9 10l24 27q3 5 9 12q1 2 39 46q13 10 16 23q14 8 20 8q11 -2 14 -6q8 -4 16 -25q0 -1 -1 -2q0 -5 -3.5 -12t-15.5 -24q-5 -7 -11 -14.5t-13 -16.5
q-11 -14 -24.5 -30t-29.5 -34q-4 -3 -8 -7l-9 -9q-3 -2 -6 -4.5t-7 -6.5q-2 -2 -9 -5q-17 0 -24 7q-2 2 -5 3.5l-7 3.5q-5 4 -10.5 9t-12.5 10q-3 6 -12 16l-33 66q-8 15 -16 24v1q-2 3 -8 11z" />
    <glyph glyph-name="florin" unicode="&#x192;" horiz-adv-x="562" 
d="M525 620l18 -10l11 -8l7 -10l6 -9l8 -16h-6l-2 -10l5 -6l-2 -5h-3l-3 5h-5l-3 -4l-11 5l-2 -6l-10 -3l-1 4h-8l-7 8l-14 2h-18l-7 -2l-1 -6l-13 -24l-11 -31l-3 -5l-9 -25l-41 -112l1 -4l45 -2l45 -8l39 -13l10 -5l1 -6l4 -3v-2l-13 -5l-16 -10l-2 -3l6 -8l-12 -5l-38 -3
l-9 -3l-79 -11l-8 -4l-2 -6l-5 -23l-4 -3l-25 -90l-21 -57l-3 -3l-11 -25l-13 -21l-23 -41l-14 -14l-13 -18l-10 -11l-9 -12l-18 -16l-8 -8l-13 -9l-18 -15h-4l-18 -10l-3 -3l-36 -13l-14 -1l-5 -5l-10 2l-5 -5l-13 3l-13 8h-4l-21 13l-10 22l-6 104l-2 -12l2 20l6 37l11 30
l18 24l8 5l10 5l3 -5v-16h6v-3l-9 -16l-2 -28l-3 -3l2 -5h-4l2 -4l7 -18l7 -26l1 -13l4 -21l4 -5l8 -9l9 -2l16 -3l20 8l6 3l19 21l20 18l29 45l20 33l17 42l24 69l19 64l5 27h-38l-42 8l-17 7l-4 13l6 11l5 5l10 5l1 4l32 10l13 3l41 12h9l3 4l13 50l29 74l28 54l32 40
l44 39l27 14l26 3z" />
    </font>
</defs>
</svg>
