<?xml version="1.0" encoding="utf-8"?>
<!-- Generator: Adobe Illustrator 22.0.1, SVG Export Plug-In . SVG Version: 6.00 Build 0)  -->
<svg version="1.1" id="Capa_1" xmlns="http://www.w3.org/2000/svg" xmlns:xlink="http://www.w3.org/1999/xlink" x="0px" y="0px"
	 viewBox="0 0 34.3 34.3" style="enable-background:new 0 0 34.3 34.3;" xml:space="preserve">
<style type="text/css">
	.st0{fill:#FFFFFF;}
</style>
<g>
	<path class="st0" d="M17.1,0C7.7,0,0,7.7,0,17.1s7.7,17.1,17.1,17.1c9.5,0,17.1-7.7,17.1-17.1S26.6,0,17.1,0z M23.4,11.4
		c1.4,0,2.5,1.1,2.5,2.5s-1.1,2.5-2.5,2.5c-1.4,0-2.5-1.1-2.5-2.5S22.1,11.4,23.4,11.4z M10.8,11.4c1.4,0,2.5,1.1,2.5,2.5
		s-1.1,2.5-2.5,2.5c-1.4,0-2.5-1.1-2.5-2.5S9.5,11.4,10.8,11.4z M26.4,23.1c-2.1,3-5.6,4.9-9.2,4.9c-3.7,0-7.1-1.8-9.2-4.9
		c-0.5-0.7-0.3-1.6,0.4-2.1c0.7-0.5,1.6-0.3,2.1,0.4c1.5,2.2,4.1,3.6,6.8,3.6s5.2-1.3,6.8-3.6c0.5-0.7,1.4-0.9,2.1-0.4
		C26.7,21.5,26.8,22.4,26.4,23.1z"/>
</g>
</svg>
