<svg width="1920" height="1000" viewBox="0 0 1920 1000" fill="none" xmlns="http://www.w3.org/2000/svg">
<g clip-path="url(#clip0)">
<rect width="1920" height="1000" fill="url(#paint0_linear)"/>
<rect x="-127.893" y="-579" width="694" height="781" transform="rotate(37.0082 -127.893 -579)" fill="#F5D500"/>
<rect x="1847.11" y="256" width="694" height="781" transform="rotate(37.0082 1847.11 256)" fill="#F5D500"/>
<rect x="1785.77" y="64" width="400" height="400" transform="rotate(37.0082 1785.77 64)" fill="white" fill-opacity="0.1"/>
<rect x="1771.94" y="129" width="328.784" height="328.784" transform="rotate(18.8047 1771.94 129)" fill="white" fill-opacity="0.1"/>
<rect y="81" width="170" height="5" fill="white"/>
<rect y="81" width="170" height="5" fill="white"/>
<rect y="95" width="170" height="5" fill="white"/>
<rect y="95" width="170" height="5" fill="white"/>
<rect y="109" width="170" height="5" fill="white"/>
<rect y="109" width="170" height="5" fill="white"/>
<rect y="123" width="170" height="5" fill="white"/>
<rect y="123" width="170" height="5" fill="white"/>
<rect y="137" width="170" height="5" fill="white"/>
<rect y="137" width="170" height="5" fill="white"/>
<g clip-path="url(#clip1)">
<rect x="824" y="81" width="100" height="100" fill="white" fill-opacity="0.2"/>
<rect x="1573.25" y="844" width="170" height="5" transform="rotate(90.0846 1573.25 844)" fill="white"/>
<rect x="1573.25" y="844" width="170" height="5" transform="rotate(90.0846 1573.25 844)" fill="white"/>
<rect x="1559.25" y="844" width="170" height="5" transform="rotate(90.0846 1559.25 844)" fill="white"/>
<rect x="1559.25" y="844" width="170" height="5" transform="rotate(90.0846 1559.25 844)" fill="white"/>
<rect x="1545.25" y="844.049" width="170" height="5" transform="rotate(90.0846 1545.25 844.049)" fill="white"/>
<rect x="1545.25" y="844.049" width="170" height="5" transform="rotate(90.0846 1545.25 844.049)" fill="white"/>
<rect x="1531.25" y="844" width="170" height="5" transform="rotate(90.0846 1531.25 844)" fill="white"/>
<rect x="1531.25" y="844" width="170" height="5" transform="rotate(90.0846 1531.25 844)" fill="white"/>
<rect x="1517.25" y="844" width="170" height="5" transform="rotate(90.0846 1517.25 844)" fill="white"/>
<rect x="1517.25" y="844" width="170" height="5" transform="rotate(90.0846 1517.25 844)" fill="white"/>
</g>
</g>
<defs>
<linearGradient id="paint0_linear" x1="0" y1="500" x2="1920" y2="500" gradientUnits="userSpaceOnUse">
<stop stop-color="#0277BD"/>
<stop offset="1" stop-color="#20C9C9"/>
</linearGradient>
<clipPath id="clip0">
<rect width="1920" height="1000" fill="white"/>
</clipPath>
<clipPath id="clip1">
<rect x="277" width="1366" height="1000" fill="white"/>
</clipPath>
</defs>
</svg>
